<?xml version="1.0" encoding="UTF-8"?>
<svg version="1.1" xmlns="http://www.w3.org/2000/svg" width="512" height="512">
<path d="M0 0 C9.20274289 7.52951691 12.40879393 14.17914538 13.75 26.25 C62.59 26.25 111.43 26.25 161.75 26.25 C162.08 23.28 162.41 20.31 162.75 17.25 C165.80637291 8.13139983 171.41970727 1.78481835 179.875 -2.625 C188.48461633 -6.77852098 197.2857888 -6.79978113 206.26953125 -3.77734375 C215.37318935 -0.00685228 221.63200186 6.16490602 225.625 15.23828125 C226.80308453 18.92797656 226.79817958 22.41704647 226.75 26.25 C227.80799805 26.23428955 228.86599609 26.2185791 229.95605469 26.20239258 C233.93693216 26.14748491 237.91777723 26.11343217 241.89892578 26.08520508 C243.61154842 26.0702554 245.32413371 26.04988814 247.03662109 26.02368164 C263.14672639 25.78358364 276.6134791 26.92647651 289.0390625 38.35546875 C299.83932005 49.78270755 302.05826246 62.1622448 302.01069641 77.39997864 C302.01452196 78.70593843 302.01834751 80.01189822 302.02228898 81.35743254 C302.03253341 84.96246521 302.03039627 88.56739802 302.02610838 92.17243874 C302.02363466 96.0682628 302.03266337 99.96406322 302.04014587 103.85987854 C302.05287725 111.48478404 302.05468849 119.10965429 302.05234561 126.73456863 C302.05056044 132.93467477 302.05231637 139.13477024 302.05657005 145.33487511 C302.05716524 146.21830662 302.05776043 147.10173813 302.05837366 148.0119403 C302.05958545 149.80681772 302.06079958 151.60169514 302.06201603 153.39657255 C302.07288569 170.21890606 302.07073188 187.04121951 302.06463119 203.86355414 C302.05946333 219.23876693 302.07071503 234.61391634 302.08972941 249.98911659 C302.10912171 265.79155886 302.11736131 281.59397118 302.11360615 297.39642543 C302.11169612 306.26218196 302.11416229 315.12788456 302.12832069 323.99363136 C302.14025327 331.54176135 302.14161842 339.08980421 302.12953053 346.63793544 C302.12365481 350.48552252 302.12250598 354.33295039 302.13453293 358.18052673 C302.14744549 362.36016656 302.13689621 366.53942989 302.1242218 370.71907043 C302.13159609 371.92308071 302.13897037 373.12709099 302.14656812 374.36758643 C302.05956348 388.04665173 299.04148782 399.32270526 289.64453125 409.5390625 C277.82631886 420.708842 265.08417772 422.55721092 249.38517761 422.51069641 C247.9340307 422.51372056 246.48288539 422.51761137 245.03174287 422.52228898 C241.0618627 422.53254382 237.0920731 422.53039358 233.12218559 422.52610838 C228.83372079 422.52363657 224.54527753 422.53266101 220.25682068 422.54014587 C211.86188502 422.55288248 203.46698136 422.55468784 195.07203766 422.55234561 C188.24645505 422.55056104 181.42088213 422.55231507 174.59530067 422.55657005 C173.13693607 422.55746284 173.13693607 422.55746284 171.64910955 422.55837366 C169.67384813 422.55958544 167.69858671 422.56079957 165.72332529 422.56201603 C147.20706841 422.57288769 128.69082975 422.57073092 110.17457185 422.56463119 C93.24739503 422.55946302 76.32027579 422.57071549 59.39311036 422.58972941 C41.99961117 422.60911689 24.6061392 422.61736216 7.21262914 422.61360615 C-2.54738712 422.61169541 -12.3073544 422.61416929 -22.06736183 422.62832069 C-30.37672348 422.6402471 -38.68600599 422.64162529 -46.99536876 422.62953053 C-51.23180181 422.62365054 -55.46809021 422.62251795 -59.70451355 422.63453293 C-63.58891248 422.64542114 -67.47304648 422.64225372 -71.35743316 422.62827124 C-72.75642615 422.62563236 -74.1554401 422.62796524 -75.55441246 422.63600711 C-90.29097155 422.71478331 -102.44185416 420.35169046 -113.5390625 410.14453125 C-124.33932005 398.71729245 -126.55826246 386.3377552 -126.51069641 371.10002136 C-126.51452196 369.79406157 -126.51834751 368.48810178 -126.52228898 367.14256746 C-126.53253341 363.53753479 -126.53039627 359.93260198 -126.52610838 356.32756126 C-126.52363466 352.4317372 -126.53266337 348.53593678 -126.54014587 344.64012146 C-126.55287725 337.01521596 -126.55468849 329.39034571 -126.55234561 321.76543137 C-126.55056044 315.56532523 -126.55231637 309.36522976 -126.55657005 303.16512489 C-126.55716524 302.28169338 -126.55776043 301.39826187 -126.55837366 300.4880597 C-126.55958545 298.69318228 -126.56079958 296.89830486 -126.56201603 295.10342745 C-126.57288569 278.28109394 -126.57073188 261.45878049 -126.56463119 244.63644586 C-126.55946333 229.26123307 -126.57071503 213.88608366 -126.58972941 198.51088341 C-126.60912171 182.70844114 -126.61736131 166.90602882 -126.61360615 151.10357457 C-126.61169612 142.23781804 -126.61416229 133.37211544 -126.62832069 124.50636864 C-126.64025327 116.95823865 -126.64161842 109.41019579 -126.62953053 101.86206456 C-126.62365481 98.01447748 -126.62250598 94.16704961 -126.63453293 90.31947327 C-126.64744549 86.13983344 -126.63689621 81.96057011 -126.6242218 77.78092957 C-126.63159609 76.57691929 -126.63897037 75.37290901 -126.64656812 74.13241357 C-126.55956348 60.45334827 -123.54148782 49.17729474 -114.14453125 38.9609375 C-104.13243188 29.49817455 -92.84439381 25.87111059 -79.27734375 26.0546875 C-78.06456505 26.05893234 -78.06456505 26.05893234 -76.82728577 26.06326294 C-74.28053082 26.07433223 -71.7341461 26.09941042 -69.1875 26.125 C-67.44596867 26.13504698 -65.70443175 26.1441698 -63.96289062 26.15234375 C-59.72512083 26.17422787 -55.48762287 26.20866354 -51.25 26.25 C-51.19739014 25.57670654 -51.14478027 24.90341309 -51.09057617 24.2097168 C-51.01299072 23.31937744 -50.93540527 22.42903809 -50.85546875 21.51171875 C-50.78223389 20.63217529 -50.70899902 19.75263184 -50.63354492 18.84643555 C-50.03361202 14.78514565 -48.45637618 11.6702401 -46.25 8.25 C-45.86199219 7.64285156 -45.47398438 7.03570312 -45.07421875 6.41015625 C-40.45858751 0.18790411 -33.07628155 -3.55065458 -25.640625 -5.3984375 C-16.42733072 -6.75333372 -7.70426146 -5.48836912 0 0 Z M-28.25 22.25 C-28.58 23.57 -28.91 24.89 -29.25 26.25 C-22.65 26.25 -16.05 26.25 -9.25 26.25 C-9.78561833 21.37781827 -9.78561833 21.37781827 -12.3125 18.9375 C-18.746626 15.24129996 -23.73889051 16.23518734 -28.25 22.25 Z M185.75 21.25 C185.42 22.9 185.09 24.55 184.75 26.25 C191.35 26.25 197.95 26.25 204.75 26.25 C202.56940167 19.40174105 202.56940167 19.40174105 198.75 17.25 C193.00183871 16.69372633 189.80685445 16.70140562 185.75 21.25 Z M-99.5 56.75 C-106.551666 66.82380857 -104.25 77.97855597 -104.25 90.25 C22.47 90.25 149.19 90.25 279.75 90.25 C280.85852093 71.58018465 280.85852093 71.58018465 273.75 55.25 C266.75689352 48.95620417 260.54541863 48.12065628 251.27587891 48.13647461 C250.19191833 48.13625557 250.19191833 48.13625557 249.08605957 48.1360321 C246.71619584 48.13672439 244.34641237 48.14448454 241.9765625 48.15234375 C240.32604007 48.15421036 238.67551708 48.15563312 237.0249939 48.15663147 C232.69478813 48.1604375 228.36461626 48.17025134 224.03442383 48.18133545 C219.61019346 48.19159083 215.18595759 48.19613791 210.76171875 48.20117188 C202.09113033 48.21187542 193.42056939 48.22892872 184.75 48.25 C185.26998312 52.87621343 185.26998312 52.87621343 187.91235352 56.59570312 C191.27487823 58.55599457 193.28018579 58.73450764 197.15234375 58.71875 C198.37244141 58.73292969 199.59253906 58.74710938 200.84960938 58.76171875 C203.40429691 58.75391818 205.95898441 58.74610571 208.51367188 58.73828125 C220.18600612 58.8737912 220.18600612 58.8737912 224.75 63.25 C226.34453633 66.43907265 226.13561702 69.77944682 225.75 73.25 C223.61111111 77.81944444 223.61111111 77.81944444 220.75 79.25 C218.3134903 79.38521659 215.90694471 79.46262543 213.46875 79.48828125 C212.7406311 79.496353 212.01251221 79.50442474 211.2623291 79.51274109 C209.71560038 79.52658731 208.16884104 79.53730706 206.62207031 79.54516602 C205.05492068 79.55661801 203.48780792 79.57696088 201.92089844 79.60668945 C190.4057433 79.82513082 180.09374804 79.3146305 171.27734375 70.99609375 C165.35269173 64.22289822 163.96680005 57.11720021 161.75 48.25 C98.72 48.25 35.69 48.25 -29.25 48.25 C-27.22566035 54.67773994 -27.22566035 54.67773994 -22.25 58.25 C-19.15206781 58.8379848 -19.15206781 58.8379848 -15.8125 58.75390625 C-14.58789062 58.77259766 -13.36328125 58.79128906 -12.1015625 58.81054688 C-10.83054687 58.81119141 -9.55953125 58.81183594 -8.25 58.8125 C-5.72908537 58.82144848 -3.20817602 58.84308612 -0.6875 58.87890625 C0.42753906 58.87963135 1.54257813 58.88035645 2.69140625 58.88110352 C6.11798529 59.29438264 7.98350417 60.2248507 10.75 62.25 C12.76061136 65.15289451 12.99355608 67.27843947 12.625 70.75 C12.56054688 71.5028125 12.49609375 72.255625 12.4296875 73.03125 C11.48508724 76.11477268 10.30385236 77.26761585 7.75 79.25 C5.03431321 79.64884004 2.73196549 79.81189359 0.01953125 79.78125 C-0.73032547 79.7850769 -1.48018219 79.78890381 -2.25276184 79.79284668 C-3.83885033 79.79556465 -5.42498372 79.78821131 -7.01098633 79.77148438 C-9.41266774 79.75021987 -11.81130662 79.77120809 -14.21289062 79.796875 C-25.66176111 79.81858588 -33.92026658 78.23591522 -42.4609375 70.22265625 C-47.0141551 65.20218706 -49.27238694 60.11567836 -50.3828125 53.453125 C-50.63248779 51.98601074 -50.63248779 51.98601074 -50.88720703 50.48925781 C-51.00692871 49.75030273 -51.12665039 49.01134766 -51.25 48.25 C-55.66079226 48.20019084 -60.07143112 48.16408867 -64.48242188 48.14013672 C-65.97984676 48.13014099 -67.47725244 48.11653986 -68.97460938 48.09912109 C-71.13937143 48.07458712 -73.30387323 48.06345256 -75.46875 48.0546875 C-76.76748047 48.04421387 -78.06621094 48.03374023 -79.40429688 48.02294922 C-87.50110438 48.50098572 -93.93079839 50.56199822 -99.5 56.75 Z M-104.25 112.25 C-104.29125 149.024375 -104.3325 185.79875 -104.375 223.6875 C-104.39320801 235.29993896 -104.41141602 246.91237793 -104.43017578 258.87670898 C-104.43686457 269.28424776 -104.43686457 269.28424776 -104.44088745 279.69178772 C-104.44275105 284.32807834 -104.45024731 288.96432318 -104.46115112 293.6006012 C-104.4748805 299.51677789 -104.47898018 305.43288811 -104.47614455 311.34907925 C-104.47673741 313.51886655 -104.48069661 315.68865619 -104.48843026 317.85842979 C-104.49840506 320.79363782 -104.49597002 323.72858894 -104.49050903 326.6638031 C-104.49633436 327.5089148 -104.50215969 328.35402651 -104.50816154 329.22474766 C-104.4702827 336.82046243 -103.96158012 344.32067182 -98.625 350.125 C-97.99335937 350.84429687 -97.36171875 351.56359375 -96.7109375 352.3046875 C-89.31889155 358.14792382 -81.1171233 357.67810923 -72.13037109 357.63095093 C-70.69373405 357.63441074 -69.25709967 357.63917747 -67.82047081 357.64513266 C-63.88617009 357.657628 -59.95208837 357.65147901 -56.01778698 357.64217401 C-51.76959454 357.63537783 -47.52143939 357.64586756 -43.27325439 357.65411377 C-34.95637532 357.66744722 -26.6395775 357.66457509 -18.32269526 357.65587585 C-11.56284068 357.64909819 -4.80300886 357.64818294 1.95684814 357.6514473 C2.91928015 357.651907 3.88171216 357.65236669 4.87330878 357.65284032 C6.82852666 357.65379951 8.78374454 357.65477215 10.73896241 357.6557581 C29.06911713 357.66431086 47.39922683 357.65447964 65.72937417 357.638357 C81.45437095 357.62495392 97.17930129 357.62728205 112.90429688 357.64111328 C131.16927115 357.6571711 149.43420598 357.66348689 167.69918633 357.65427649 C169.64717483 357.65332085 171.59516334 357.65237774 173.54315186 357.6514473 C174.50157663 357.65098447 175.4600014 357.65052164 176.44746935 357.65004479 C183.19848937 357.64745551 189.94948435 357.65182457 196.70050049 357.65888596 C204.92875952 357.66730339 213.1569327 357.66501568 221.3851819 357.64904372 C225.58262894 357.6411643 229.77993289 357.63806381 233.97737885 357.64799118 C237.82152356 357.65694539 241.66539285 357.65199338 245.50951266 357.63605852 C246.89836758 357.63271379 248.28724588 357.6343979 249.67608571 357.64168589 C261.71699097 357.70435861 261.71699097 357.70435861 272.2109375 352.3046875 C272.84257812 351.58539063 273.47421875 350.86609375 274.125 350.125 C275.09566406 349.06925781 275.09566406 349.06925781 276.0859375 347.9921875 C279.98880907 341.56069491 280.04108719 334.00144695 279.99050903 326.6638031 C279.99222107 325.74360382 279.99393311 324.82340454 279.99569702 323.87532043 C279.9989876 320.8053901 279.98799275 317.73568163 279.97705078 314.66577148 C279.97643769 312.42191862 279.97670582 310.17806537 279.9777813 307.93421268 C279.97823183 301.93872644 279.96666084 295.94332044 279.95256042 289.94785309 C279.94114976 284.31683608 279.94063305 278.68583834 279.93920898 273.05480957 C279.92872462 256.59902913 279.90080222 240.14326355 279.875 223.6875 C279.83375 186.913125 279.7925 150.13875 279.75 112.25 C153.03 112.25 26.31 112.25 -104.25 112.25 Z M-104.25 374.25 C-104.09710188 381.81150727 -103.21208576 387.37055384 -98.25 393.25 C-91.84241276 399.18873939 -85.79775887 400.37276265 -77.19291878 400.37863445 C-75.3954178 400.38347112 -75.3954178 400.38347112 -73.56160367 400.3884055 C-72.25383335 400.3868569 -70.94606304 400.3853083 -69.59866333 400.38371277 C-68.1885042 400.38558176 -66.77834558 400.38788281 -65.36818779 400.39057809 C-61.49784461 400.39669152 -57.62752306 400.39656304 -53.75717616 400.39538372 C-49.58121708 400.3951796 -45.40526493 400.40069952 -41.22930908 400.40544128 C-33.04987729 400.41374569 -24.8704527 400.41649602 -16.69101705 400.41705366 C-10.04267645 400.41752888 -3.39433823 400.41958394 3.25400162 400.42275429 C22.10346334 400.43155998 40.95291937 400.43617375 59.80238317 400.43542381 C60.81844145 400.43538386 61.83449973 400.4353439 62.88134766 400.43530273 C64.4072958 400.43524141 64.4072958 400.43524141 65.96407117 400.43517885 C82.454404 400.43477232 98.944714 400.44434397 115.43504022 400.4584411 C132.36737624 400.47280189 149.29970112 400.47971146 166.23204339 400.47884732 C175.73822056 400.47851527 185.24437381 400.48126606 194.7505455 400.49202538 C202.84341988 400.50112642 210.93625948 400.50330885 219.02913676 400.49651595 C223.15768714 400.49324887 227.28617076 400.4932009 231.41471481 400.5018692 C235.19596576 400.50972666 238.97709691 400.5083105 242.7583449 400.49958507 C244.77027245 400.49732188 246.7822037 400.50488461 248.79411685 400.51282471 C257.89537413 400.47804856 265.35542563 400.1320478 272.75 394.25 C277.01557568 389.51047147 278.92046619 385.86347332 279.375 379.5 C279.44976562 378.51515625 279.52453125 377.5303125 279.6015625 376.515625 C279.65054687 375.76796875 279.69953125 375.0203125 279.75 374.25 C278.86248047 374.55744141 278.86248047 374.55744141 277.95703125 374.87109375 C277.16683594 375.14050781 276.37664062 375.40992188 275.5625 375.6875 C274.78519531 375.95433594 274.00789063 376.22117187 273.20703125 376.49609375 C268.61396774 377.90541212 264.40600533 378.37585388 259.60291004 378.38142776 C257.73709442 378.38718948 257.73709442 378.38718948 255.83358556 378.3930676 C254.45601764 378.39228741 253.07844976 378.39140863 251.70088196 378.39044189 C250.23526388 378.39302633 248.76964652 378.39603971 247.30403012 378.3994453 C243.27566918 378.40750933 239.24732607 378.40930454 235.21895802 378.41004276 C230.87456925 378.41189436 226.53018971 378.41944223 222.18580627 378.42617798 C212.68573516 378.4397576 203.18566828 378.44578545 193.68558908 378.45018864 C187.75312667 378.45295169 181.82066588 378.45718916 175.88820457 378.46169281 C159.46132287 378.473885 143.03444247 378.48418441 126.60755634 378.4875679 C125.55627796 378.48778747 124.50499958 378.48800703 123.42186428 378.48823325 C122.36807789 378.48845153 121.3142915 378.48866981 120.22857219 378.4888947 C118.09321805 378.48933817 115.95786391 378.48978473 113.82250977 378.49023438 C112.76330152 378.4904558 111.70409327 378.49067723 110.61278781 378.49090537 C93.45121397 378.49485309 76.2896826 378.51230652 59.12812517 378.5355939 C41.50650352 378.55931245 23.88490318 378.57176998 6.26326531 378.57293582 C-3.62977239 378.5738523 -13.52275475 378.57959776 -23.41577721 378.59775543 C-31.84020444 378.61316321 -40.26455924 378.61827287 -48.68899789 378.61001733 C-52.98591648 378.60611323 -57.28268923 378.60702868 -61.57958984 378.62107468 C-65.51708194 378.63382791 -69.45431881 378.63260369 -73.39181063 378.62048396 C-74.81242434 378.61852943 -76.23305621 378.62159415 -77.65364441 378.63032833 C-85.78228534 378.67712119 -92.60120455 377.99876769 -100.25 375.25 C-101.57931099 374.9009711 -102.91163317 374.56251098 -104.25 374.25 Z " fill="#fff" transform="translate(168.25,47.75)"/>
<path d="M0 0 C1.05960937 0.36222656 2.11921875 0.72445312 3.2109375 1.09765625 C23.33696442 8.72899037 39.943231 24.67481469 49.02954102 44.07543945 C58.65628048 65.80614067 59.8968414 89.43542426 51.6875 111.8125 C42.65671702 133.62116695 27.17465906 151.05158976 5.43798828 160.60375977 C-17.37763803 169.98602526 -41.52141037 169.30871133 -64.25 160.3125 C-85.95359444 150.34124861 -101.38959827 133.14814318 -110 111 C-117.48983908 88.08922094 -116.89426076 63.91843567 -106.0703125 42.12841797 C-94.70325912 20.54533551 -77.08096763 6.99704689 -54.41015625 -1.31640625 C-37.08386945 -6.53429115 -17.03925042 -5.97353032 0 0 Z M-18 19 C-18 35.83 -18 52.66 -18 70 C-1.17 70 15.66 70 33 70 C32.41345769 63.55707532 32.41345769 63.55707532 30.43359375 58.0703125 C30.11729004 57.42513672 29.80098633 56.77996094 29.47509766 56.11523438 C28.96148682 55.13006836 28.96148682 55.13006836 28.4375 54.125 C28.07962402 53.42955078 27.72174805 52.73410156 27.35302734 52.01757812 C19.4801963 37.16161836 7.63131586 27.12668101 -8 21 C-11.3 20.34 -14.6 19.68 -18 19 Z M-74.75390625 36.62890625 C-88.35991629 50.99212032 -92.6794249 67.63471955 -92.3125 86.82421875 C-92.02865926 93.35610387 -90.57376688 98.99723336 -88 105 C-87.59910156 106.0003125 -87.19820312 107.000625 -86.78515625 108.03125 C-80.14425408 122.96846762 -67.28540393 134.24899059 -52.4609375 140.7109375 C-35.66033561 146.96849802 -18.81790694 146.33158629 -2.375 139.4921875 C5.09809476 135.70276445 11.12901522 130.94372264 17 125 C17.63550781 124.38640625 18.27101563 123.7728125 18.92578125 123.140625 C25.60671459 116.20786047 32.86707329 104.1183872 33.05004883 94.31982422 C33.03353271 93.55428223 33.0170166 92.78874023 33 92 C31.75425201 91.99453156 31.75425201 91.99453156 30.4833374 91.98895264 C22.65535552 91.9510807 14.82779061 91.89423744 7.000103 91.81609726 C2.97580081 91.77659333 -1.04828163 91.74441943 -5.07275391 91.72900391 C-8.95689241 91.7138561 -12.84042688 91.67944514 -16.72429657 91.63169098 C-18.20579528 91.61685758 -19.68738022 91.60895786 -21.16895294 91.60811615 C-23.24512571 91.6057504 -25.31962377 91.57870794 -27.39550781 91.54589844 C-29.16755585 91.53257477 -29.16755585 91.53257477 -30.97540283 91.51898193 C-34.60273049 90.89657921 -35.75166754 89.84957361 -38 87 C-39.40020855 84.19958289 -39.16363335 81.84697961 -39.20532227 78.71435547 C-39.21522186 78.07032776 -39.22512146 77.42630005 -39.23532104 76.76275635 C-39.26694499 74.63093765 -39.29169687 72.49909665 -39.31640625 70.3671875 C-39.33697502 68.89030371 -39.35797147 67.41342582 -39.37937927 65.93655396 C-39.43460799 62.04694389 -39.4840137 58.15728063 -39.53222656 54.26757812 C-39.58243577 50.29943093 -39.63812486 46.33136111 -39.69335938 42.36328125 C-39.80095072 34.57558633 -39.90239348 26.78782714 -40 19 C-52.85194913 19 -65.81240672 28.1452115 -74.75390625 36.62890625 Z " fill="#fff" transform="translate(189,196)"/>
<path d="M0 0 C3.81483558 3.16550187 5.82329011 5.22909793 6.31762695 10.18310547 C5.94281629 14.68717156 4.38673543 17.42857937 1.91796875 21.0703125 C1.47575485 21.74917511 1.03354095 22.42803772 0.57792664 23.12747192 C-0.93057821 25.43037594 -2.46391251 27.71541327 -4 30 C-5.14410101 31.72077369 -6.28780462 33.44181164 -7.43115234 35.16308594 C-10.52117588 39.79851411 -13.63578249 44.41686799 -16.76000977 49.02929688 C-18.69766964 51.89001423 -20.63139388 54.75335986 -22.56445312 57.6171875 C-23.81748338 59.4715062 -25.07073093 61.32567808 -26.32421875 63.1796875 C-26.89105881 64.01845428 -27.45789886 64.85722107 -28.04191589 65.72140503 C-29.1358051 67.33587927 -30.23271604 68.94831085 -31.33285522 70.55853271 C-32.50635693 72.27707934 -33.67183974 74.00111543 -34.83145142 75.72906494 C-35.43726044 76.61914246 -36.04306946 77.50921997 -36.66723633 78.42626953 C-37.21027908 79.23097687 -37.75332184 80.0356842 -38.31282043 80.86477661 C-40.54813292 83.69369393 -42.5926152 85.72053719 -46.18359375 86.43359375 C-46.92738281 86.43488281 -47.67117188 86.43617188 -48.4375 86.4375 C-49.17871094 86.45683594 -49.91992188 86.47617187 -50.68359375 86.49609375 C-54.12332796 85.75942217 -55.44802275 84.49159851 -58 82 C-60.16444198 78.49319065 -61.94122391 74.81497753 -63.73828125 71.109375 C-64.26391159 70.04962463 -64.78954193 68.98987427 -65.33110046 67.89801025 C-67.00294009 64.52081734 -68.65787325 61.13565415 -70.3125 57.75 C-71.44485777 55.4551832 -72.57830886 53.16090554 -73.71289062 50.8671875 C-76.48796493 45.25097988 -79.24921414 39.62814029 -82 34 C-82.66 34 -83.32 34 -84 34 C-85.28191742 35.33216284 -85.28191742 35.33216284 -86.546875 37.12109375 C-87.05541016 37.80131592 -87.56394531 38.48153809 -88.08789062 39.18237305 C-88.63638672 39.92656494 -89.18488281 40.67075684 -89.75 41.4375 C-94.52746762 47.80903489 -99.41837398 54.05546304 -104.5 60.1875 C-105.07459961 60.88093506 -105.64919922 61.57437012 -106.24121094 62.28881836 C-107.3232301 63.5912077 -108.40726729 64.89192405 -109.49365234 66.19067383 C-110.48105537 67.37667769 -111.46086712 68.56905226 -112.43212891 69.76831055 C-115.09412794 73.0416379 -116.77584012 75.09482288 -121 76 C-125.23386181 75.92439532 -127.29461526 75.61506318 -130.51489258 72.80712891 C-132.98791522 70.01365073 -134.58562743 67.46964569 -136.26171875 64.1484375 C-136.82310547 63.05015625 -137.38449219 61.951875 -137.96289062 60.8203125 C-138.53201172 59.68335938 -139.10113281 58.54640625 -139.6875 57.375 C-140.83591618 55.11130729 -141.98559786 52.84825602 -143.13671875 50.5859375 C-143.63905029 49.5861084 -144.14138184 48.5862793 -144.65893555 47.55615234 C-146.01231618 44.86816087 -146.01231618 44.86816087 -148 42 C-148.93682617 42.99181274 -148.93682617 42.99181274 -149.89257812 44.00366211 C-152.2341541 46.4650467 -154.59108722 48.90947072 -156.95996094 51.34448242 C-157.97885907 52.39843143 -158.99136877 53.4585977 -159.99707031 54.52514648 C-169.44318435 64.52773951 -169.44318435 64.52773951 -174.51171875 65.26171875 C-178.49505925 64.9628567 -180.72306695 64.28623236 -184 62 C-186.40777323 59.11067212 -186.96115399 57.30521864 -187.4375 53.5625 C-186.5394417 46.24973953 -180.78597075 41.47832156 -175.78515625 36.484375 C-175.09240097 35.78733459 -174.39964569 35.09029419 -173.68589783 34.37213135 C-172.22681812 32.9073325 -170.76514291 31.44511495 -169.30102539 29.98535156 C-167.06441313 27.75191042 -164.84148447 25.50544094 -162.61914062 23.2578125 C-161.19612345 21.83252321 -159.77232173 20.40801671 -158.34765625 18.984375 C-157.68604996 18.31355896 -157.02444366 17.64274292 -156.3427887 16.95159912 C-150.41913668 11.08675906 -150.41913668 11.08675906 -146 10 C-140.59418093 10.19306497 -137.9173374 11.3412061 -134 15 C-132.23901367 17.84082031 -132.23901367 17.84082031 -130.66796875 21.078125 C-129.81235352 22.81835938 -129.81235352 22.81835938 -128.93945312 24.59375 C-128.35520235 25.81237231 -127.77122128 27.03112397 -127.1875 28.25 C-126.58510326 29.48492142 -125.98159799 30.71930275 -125.37695312 31.953125 C-123.90698477 34.9636202 -122.44852515 37.97914413 -121 41 C-118.93104537 41.23432431 -118.93104537 41.23432431 -117.6940918 39.70922852 C-117.20078369 39.10522217 -116.70747559 38.50121582 -116.19921875 37.87890625 C-115.64024902 37.19860352 -115.0812793 36.51830078 -114.50537109 35.81738281 C-113.90547363 35.07327148 -113.30557617 34.32916016 -112.6875 33.5625 C-112.06955566 32.80420898 -111.45161133 32.04591797 -110.81494141 31.26464844 C-105.32070587 24.48381465 -100.0042478 17.57116096 -94.7421875 10.609375 C-87.51971945 1.07546983 -87.51971945 1.07546983 -84 0 C-78.37122451 -0.44672821 -75.71716133 -0.29185075 -71 3 C-69.4875946 5.18302917 -69.4875946 5.18302917 -68.22924805 7.74682617 C-67.50906746 9.18798042 -67.50906746 9.18798042 -66.77433777 10.6582489 C-66.27517349 11.69270645 -65.77600922 12.727164 -65.26171875 13.79296875 C-64.47327324 15.38471672 -64.47327324 15.38471672 -63.66889954 17.00862122 C-61.9951666 20.39523063 -60.34117847 23.79106005 -58.6875 27.1875 C-57.55532479 29.4869629 -56.42187613 31.78579927 -55.28710938 34.08398438 C-52.50992875 39.71547296 -49.74889225 45.3546538 -47 51 C-43.074027 46.32510005 -39.75522398 41.28114047 -36.37109375 36.2109375 C-35.07622869 34.28121187 -33.78130506 32.35152555 -32.48632812 30.421875 C-30.45531504 27.38976234 -28.42540754 24.356917 -26.39672852 21.32324219 C-24.43272354 18.38803639 -22.46463008 15.45560545 -20.49609375 12.5234375 C-19.88978622 11.61403412 -19.2834787 10.70463074 -18.65879822 9.76766968 C-17.80760155 8.50087875 -17.80760155 8.50087875 -16.93920898 7.20849609 C-16.44275375 6.46634857 -15.94629852 5.72420105 -15.43479919 4.95956421 C-11.24173952 -0.76706966 -6.96922935 -2.02420112 0 0 Z " fill="#fff" transform="translate(432,309)"/>
<path d="M0 0 C0.74121094 0.05285156 1.48242188 0.10570312 2.24609375 0.16015625 C5.68566185 1.31441266 7.26060183 3.16181428 9.5625 5.9375 C10.16377258 9.15827942 10.16377258 9.15827942 10.13012695 12.83911133 C10.13085709 13.51283783 10.13158722 14.18656433 10.13233948 14.88070679 C10.12887235 17.09448444 10.09005972 19.30612403 10.05078125 21.51953125 C10.04144984 23.05937043 10.03433527 24.5992245 10.02934265 26.13908386 C10.01029819 30.1820104 9.96122094 34.22403152 9.90582275 38.26660156 C9.85457425 42.39570875 9.83181675 46.52496297 9.80664062 50.65429688 C9.75309836 58.74911233 9.66781812 66.84319338 9.5625 74.9375 C10.29487475 74.93381283 11.02724951 74.93012566 11.78181744 74.92632675 C29.60053324 74.83799675 47.41920536 74.77180066 65.23809338 74.73025131 C73.85517933 74.70962437 82.47211916 74.68150133 91.08911133 74.63574219 C98.59952352 74.59587836 106.10982989 74.57006814 113.62034494 74.56114602 C117.59730746 74.55593046 121.57396724 74.54366957 125.55083275 74.51457977 C129.29451959 74.48741764 133.03777915 74.47905647 136.78155518 74.48506927 C138.8095698 74.48344517 140.83753796 74.46192654 142.86543274 74.43981934 C144.07553009 74.44531799 145.28562744 74.45081665 146.53239441 74.45648193 C148.10727772 74.45095118 148.10727772 74.45095118 149.71397686 74.44530869 C153.29125535 75.06342036 154.95347929 76.46812138 157.5625 78.9375 C159.85103994 82.20684278 160.03412218 85.0073152 159.5625 88.9375 C157.52256092 92.5953218 156.05830738 94.60696174 152.5625 96.9375 C149.73977852 97.19476891 149.73977852 97.19476891 146.23709106 97.20492554 C145.59285435 97.20945665 144.94861763 97.21398776 144.28485858 97.21865618 C142.1222876 97.23133444 139.95996736 97.22967765 137.79736328 97.22802734 C136.24839961 97.23401048 134.69943892 97.24081553 133.15048218 97.24838257 C128.93969869 97.266072 124.72899646 97.27073919 120.51817942 97.27201414 C117.00423728 97.27391202 113.49031412 97.2812683 109.97637928 97.28835833 C101.68622877 97.30465119 93.39612171 97.30952648 85.10595703 97.30810547 C76.55181588 97.30690389 67.99792699 97.32800684 59.44384968 97.3595928 C52.10193383 97.38573762 44.76010044 97.39647352 37.41813838 97.39519465 C33.03213889 97.39468447 28.64636348 97.40039826 24.26041031 97.42155075 C20.1349946 97.44090299 16.01001743 97.44107853 11.88458633 97.42651749 C10.37087362 97.42442449 8.85713368 97.42915951 7.34346771 97.4412384 C5.2757542 97.45666916 3.20955692 97.44739978 1.14187622 97.43197632 C-0.01476469 97.43306585 -1.1714056 97.43415539 -2.36309624 97.43527794 C-6.67895073 96.73649622 -9.17280607 94.65996823 -11.73184204 91.1746521 C-12.77862111 87.85604147 -12.73228381 84.58817727 -12.72802734 81.14306641 C-12.73474457 80.36208084 -12.74146179 79.58109528 -12.74838257 78.77644348 C-12.76736455 76.19725158 -12.77128685 73.61831988 -12.7734375 71.0390625 C-12.77986532 69.24311212 -12.78659367 67.44716278 -12.79360962 65.6512146 C-12.8055829 61.88691785 -12.80929039 58.12271288 -12.80810547 54.35839844 C-12.80790228 49.54079082 -12.83520353 44.72377315 -12.86964989 39.90630531 C-12.89191503 36.19676016 -12.89594313 32.48735706 -12.89488602 28.77775192 C-12.89724259 27.00197695 -12.90606932 25.2261981 -12.92155075 23.45048904 C-12.94120321 20.96348307 -12.93537629 18.47775024 -12.92333984 15.99072266 C-12.93457886 15.26116867 -12.94581787 14.53161469 -12.95739746 13.779953 C-12.89524798 8.71245703 -11.60761547 5.84970196 -8.4375 1.9375 C-5.56854256 -0.06792966 -3.45048782 -0.32890265 0 0 Z " fill="#fff" transform="translate(278.4375,170.0625)"/>
<path d="M0 0 C1.33241226 -0.01007584 1.33241226 -0.01007584 2.69174194 -0.02035522 C5.62804763 -0.03935224 8.56412496 -0.04326028 11.50048828 -0.04541016 C13.54306126 -0.05183686 15.58563331 -0.05856513 17.62820435 -0.06558228 C21.91036107 -0.07755928 26.19243709 -0.08126266 30.47460938 -0.08007812 C35.95806313 -0.07987491 41.44099879 -0.10717841 46.92432976 -0.14162254 C51.14342621 -0.16387476 55.36239765 -0.16791618 59.58154678 -0.16685867 C61.60293488 -0.1692171 63.6243263 -0.17805423 65.64565659 -0.19352341 C68.47507621 -0.21314933 71.30337429 -0.20735865 74.1328125 -0.1953125 C75.38143066 -0.21217102 75.38143066 -0.21217102 76.65527344 -0.22937012 C81.96490611 -0.17201223 84.97255206 0.78265349 89.19580078 4.29052734 C91.20123044 7.15948479 91.46220343 9.27753953 91.13330078 12.72802734 C91.08044922 13.46923828 91.02759766 14.21044922 90.97314453 14.97412109 C89.78891218 18.50301449 88.1157214 19.98396752 85.19580078 22.29052734 C82.09548501 23.02176989 79.06912969 22.97434814 75.89501953 22.9375 C74.96597809 22.9462616 74.03693665 22.95502319 73.07974243 22.96405029 C70.01378449 22.98602747 66.94927296 22.97149718 63.88330078 22.95458984 C61.75007857 22.95795845 59.61685822 22.96281144 57.48364258 22.96908569 C53.01478791 22.97645477 48.54643323 22.96575001 44.07763672 22.94238281 C38.35066429 22.91389547 32.62486341 22.9302992 26.89793396 22.96024513 C22.49352193 22.97831689 18.08938745 22.97256053 13.68496704 22.95960617 C11.5734544 22.95627185 9.46191652 22.96036014 7.35043335 22.97200394 C4.3984711 22.98471026 1.44840324 22.96533801 -1.50341797 22.9375 C-2.81117691 22.95268173 -2.81117691 22.95268173 -4.14535522 22.96817017 C-8.54540231 22.8913355 -10.27051117 22.7134947 -13.83251953 19.89047241 C-16.70809844 16.09860538 -17.234043 12.98574405 -16.80419922 8.29052734 C-12.88999093 0.31714009 -8.29174456 -0.00898477 0 0 Z " fill="#fff" transform="translate(218.80419921875,105.70947265625)"/>
<path d="M0 0 C0.74121094 0.05285156 1.48242188 0.10570312 2.24609375 0.16015625 C5.88852731 1.38249062 7.23759054 2.83769966 9.5625 5.9375 C10.32122893 9.9012439 10.263013 13.81801914 10.2265625 17.84375 C10.23134613 19.00120728 10.23612976 20.15866455 10.24105835 21.35119629 C10.244457 23.79550538 10.23525725 26.23985995 10.21435547 28.68408203 C10.18759277 32.42453408 10.21410805 36.16198499 10.24609375 39.90234375 C10.24278965 42.27865245 10.23638342 44.65495929 10.2265625 47.03125 C10.23668365 48.1490686 10.24680481 49.26688721 10.25723267 50.4185791 C10.14017394 58.17691738 10.14017394 58.17691738 7.14599609 62.11914062 C2.9965157 65.03969723 -0.40415084 65.64274854 -5.4375 64.9375 C-9.01065515 62.762536 -10.86842841 60.77080285 -12.4375 56.9375 C-12.70492554 54.6366272 -12.70492554 54.6366272 -12.72802734 52.08056641 C-12.74078705 51.11921783 -12.75354675 50.15786926 -12.76669312 49.16738892 C-12.76891876 48.1350412 -12.77114441 47.10269348 -12.7734375 46.0390625 C-12.7800943 44.97134613 -12.7867511 43.90362976 -12.79360962 42.80355835 C-12.80373052 40.54581423 -12.80842681 38.28804022 -12.80810547 36.03027344 C-12.81247506 32.58217881 -12.8487922 29.1353679 -12.88671875 25.6875 C-12.89258775 23.49219187 -12.89655659 21.29687767 -12.8984375 19.1015625 C-12.91280853 18.07326324 -12.92717957 17.04496399 -12.94198608 15.98550415 C-12.90383115 9.98531359 -12.44335968 6.50555283 -8.4375 1.9375 C-5.56854256 -0.06792966 -3.45048782 -0.32890265 0 0 Z " fill="#fff" transform="translate(342.4375,170.0625)"/>
<path d="M0 0 C5.5 3 5.5 3 7 6 C7.11372327 7.33108991 7.16922953 8.66744391 7.19287109 10.00317383 C7.21696548 11.24004692 7.21696548 11.24004692 7.24154663 12.50190735 C7.28602528 16.27478199 7.32706263 20.04748109 7.35009766 23.82055664 C7.36665551 25.80993347 7.39394328 27.79925085 7.43212891 29.78833008 C7.48692264 32.65737755 7.50877517 35.52503087 7.5234375 38.39453125 C7.54610687 39.28114944 7.56877625 40.16776764 7.59213257 41.08125305 C7.57675275 45.58202448 7.47649002 47.39880701 4.59228516 51.0378418 C0.93110691 53.80906891 -1.31579223 54.34421861 -5.96484375 54.28515625 C-9.19035622 53.83321304 -10.80900197 52.31988026 -13 50 C-15.64013646 46.17719372 -15.3233712 41.97805939 -15.3359375 37.5078125 C-15.3425943 36.68425262 -15.3492511 35.86069275 -15.35610962 35.01217651 C-15.36622003 33.2723005 -15.37092714 31.53238583 -15.37060547 29.79248047 C-15.37497373 27.14094592 -15.41129465 24.49108343 -15.44921875 21.83984375 C-15.4550884 20.145839 -15.4590568 18.45182638 -15.4609375 16.7578125 C-15.47530853 15.97012482 -15.48967957 15.18243713 -15.50448608 14.37088013 C-15.46134488 9.13060085 -14.47542978 6.14991944 -11 2 C-7.29825261 -0.4678316 -4.29506525 -0.68072732 0 0 Z " fill="#fff" transform="translate(409,181)"/>
<path d="M0 0 C3.40367358 0.50485111 5.15778544 1.85009633 7.44921875 4.36328125 C9.64333082 8.75150538 8.75873297 14.61028003 8.79931641 19.48413086 C8.81585879 20.94002283 8.84312711 22.39583415 8.88134766 23.85131836 C8.93629998 25.95599248 8.95801491 28.05876632 8.97265625 30.1640625 C8.99247559 31.42387939 9.01229492 32.68369629 9.03271484 33.98168945 C8.2969033 38.24600985 6.75335421 39.67061934 3.44921875 42.36328125 C0.24308028 43.96635049 -3.07218122 43.85068586 -6.55078125 43.36328125 C-10.11314626 41.19488516 -12.03022535 39.21097065 -13.55078125 35.36328125 C-13.98089716 30.89504606 -13.87502055 26.41254285 -13.86328125 21.92578125 C-13.88745117 20.0840332 -13.88745117 20.0840332 -13.91210938 18.20507812 C-13.91275391 17.02107422 -13.91339844 15.83707031 -13.9140625 14.6171875 C-13.91853394 12.99792358 -13.91853394 12.99792358 -13.9230957 11.34594727 C-13.41409238 7.26824652 -11.63765067 4.76638668 -9.16796875 1.578125 C-6.3341861 -0.55063443 -3.4169106 -0.09477562 0 0 Z " fill="#fff" transform="translate(311.55078125,191.63671875)"/>
<path d="M0 0 C0.74121094 0.05285156 1.48242188 0.10570312 2.24609375 0.16015625 C5.86557637 1.3747887 7.30967458 2.84132918 9.5625 5.9375 C10.2903674 9.45496501 10.26137589 12.85698187 10.1875 16.4375 C10.21650391 17.84322266 10.21650391 17.84322266 10.24609375 19.27734375 C10.21266664 23.99056608 10.11976497 26.22333518 7.1484375 30.03125 C3.02773256 33.06886935 -0.36920568 33.64764488 -5.4375 32.9375 C-8.99118469 30.77438758 -10.98979645 28.81074195 -12.4375 24.9375 C-12.6821335 22.09861358 -12.8076245 19.40004244 -12.8125 16.5625 C-12.83699219 15.82 -12.86148437 15.0775 -12.88671875 14.3125 C-12.91446515 9.07767885 -11.96668783 6.03631113 -8.4375 1.9375 C-5.56854256 -0.06792966 -3.45048782 -0.32890265 0 0 Z " fill="#fff" transform="translate(374.4375,202.0625)"/>
</svg>
