<?xml version="1.0" encoding="UTF-8"?>
<svg version="1.1" xmlns="http://www.w3.org/2000/svg" width="512" height="512">
<path d="M0 0 C5.866586 3.54518423 10.46974787 8.98284244 12.5625 15.5 C12.69960218 18.14607209 12.75312972 20.67469013 12.6875 23.3125 C12.67847656 24.00537109 12.66945313 24.69824219 12.66015625 25.41210938 C12.63676157 27.10822395 12.60089641 28.80415871 12.5625 30.5 C13.30371094 30.49111755 14.04492188 30.48223511 14.80859375 30.4730835 C21.86730384 30.39222044 28.92584777 30.33167713 35.9848938 30.29275131 C39.61220399 30.27206484 43.23912477 30.24410498 46.86621094 30.19824219 C83.24360306 29.75087335 83.24360306 29.75087335 99 38.375 C99.66483398 38.72522217 100.32966797 39.07544434 101.01464844 39.4362793 C102.87901715 40.43296443 104.72381228 41.45685223 106.5625 42.5 C107.41457031 42.98339844 108.26664062 43.46679688 109.14453125 43.96484375 C129.17009293 56.41316588 141.92607223 76.9224447 147.5625 99.5 C148.40598858 103.14850133 148.69001274 106.51247548 148.69672108 110.25551319 C148.70117892 111.41208858 148.70563676 112.56866398 148.71022969 113.76028711 C148.70995315 115.65976217 148.70995315 115.65976217 148.70967102 117.59761047 C148.71297198 118.95995745 148.71669804 120.32230345 148.7208125 121.68464822 C148.73081476 125.42778565 148.73454645 129.17090704 148.73720181 132.91405594 C148.74111028 136.95181019 148.75068842 140.98955181 148.75941467 145.02729797 C148.77916651 154.779917 148.78924488 164.53253704 148.79814246 174.28517106 C148.80252854 178.88204677 148.80789462 183.47892133 148.81313133 188.07579613 C148.83014435 203.36517377 148.84463647 218.6545507 148.85188007 233.94393635 C148.85378986 237.91062229 148.85571021 241.87730822 148.85766602 245.84399414 C148.85814976 246.82985377 148.8586335 247.8157134 148.8591319 248.83144756 C148.86742446 264.78621045 148.89274796 280.74089817 148.92524669 296.69562826 C148.9583677 313.09008522 148.97633349 329.48450406 148.97952431 345.87899464 C148.98168503 355.07807684 148.99036906 364.27704952 149.01598549 373.47609901 C149.03776167 381.31407399 149.04570915 389.15191284 149.03601871 396.98991463 C149.03149359 400.98383853 149.03325483 404.97748199 149.05278015 408.97136688 C149.22081201 445.34702264 149.22081201 445.34702264 140.6875 460.9375 C140.33727783 461.60233398 139.98705566 462.26716797 139.6262207 462.95214844 C138.62953557 464.81651715 137.60564777 466.66131228 136.5625 468.5 C136.07910156 469.35207031 135.59570312 470.20414062 135.09765625 471.08203125 C122.71964596 490.99448259 102.11373042 504.06189675 79.5625 509.5 C75.56360505 510.26004591 71.78630316 510.62687825 67.71796703 510.63422108 C66.56698408 510.63867892 65.41600113 510.64313676 64.23013991 510.64772969 C62.34773013 510.64745315 62.34773013 510.64745315 60.42729187 510.64717102 C59.07304413 510.65047306 57.71879736 510.65419934 56.36455184 510.6583125 C52.6484075 510.66830234 48.93227932 510.67204443 45.21612346 510.67470181 C41.20563442 510.67861395 37.19515805 510.68819177 33.18467712 510.69691467 C23.50069502 510.71665544 13.81671191 510.72674315 4.13271472 510.73564246 C-0.43314782 510.74003007 -4.99900921 510.74539572 -9.56487083 510.75063133 C-24.75306234 510.76764271 -39.94125314 510.78213475 -55.12945271 510.78938007 C-59.06880507 510.79128982 -63.00815743 510.79321017 -66.94750977 510.79516602 C-67.92656035 510.79564976 -68.90561094 510.7961335 -69.91432973 510.7966319 C-85.75842278 510.80492424 -101.60244013 510.83024812 -117.44650016 510.86274669 C-133.73138241 510.8958757 -150.01622628 510.91383418 -166.30114239 510.91702431 C-175.43708471 510.91918422 -184.57291671 510.92785628 -193.70882607 510.95348549 C-201.4929497 510.97527259 -209.27693621 510.98320381 -217.06108687 510.97351871 C-221.02678867 510.96899681 -224.99220805 510.9707357 -228.95787048 510.99028015 C-266.55429359 511.16534643 -266.55429359 511.16534643 -281.9375 502.625 C-282.9279834 502.09966675 -282.9279834 502.09966675 -283.93847656 501.5637207 C-285.78760965 500.56836632 -287.61534648 499.54374232 -289.4375 498.5 C-290.28828125 498.01660156 -291.1390625 497.53320312 -292.015625 497.03515625 C-312.0474136 484.60535936 -324.80343763 464.06808033 -330.4375 441.5 C-331.28098858 437.85149867 -331.56501274 434.48752452 -331.57172108 430.74448681 C-331.57617892 429.58791142 -331.58063676 428.43133602 -331.58522969 427.23971289 C-331.58504533 425.97339618 -331.58486097 424.70707947 -331.58467102 423.40238953 C-331.58797198 422.04004255 -331.59169804 420.67769655 -331.5958125 419.31535178 C-331.60581476 415.57221435 -331.60954645 411.82909296 -331.61220181 408.08594406 C-331.61611028 404.04818981 -331.62568842 400.01044819 -331.63441467 395.97270203 C-331.65416651 386.220083 -331.66424488 376.46746296 -331.67314246 366.71482894 C-331.67752854 362.11795323 -331.68289462 357.52107867 -331.68813133 352.92420387 C-331.70514435 337.63482623 -331.71963647 322.3454493 -331.72688007 307.05606365 C-331.72878986 303.08937771 -331.73071021 299.12269178 -331.73266602 295.15600586 C-331.73314976 294.17014623 -331.7336335 293.1842866 -331.7341319 292.16855244 C-331.74242446 276.21378955 -331.76774796 260.25910183 -331.80024669 244.30437174 C-331.8333677 227.90991478 -331.85133349 211.51549594 -331.85452431 195.12100536 C-331.85668503 185.92192316 -331.86536906 176.72295048 -331.89098549 167.52390099 C-331.91276167 159.68592601 -331.92070915 151.84808716 -331.91101871 144.01008537 C-331.90649359 140.01616147 -331.90825483 136.02251801 -331.92778015 132.02863312 C-332.09581201 95.65297736 -332.09581201 95.65297736 -323.5625 80.0625 C-323.21227783 79.39766602 -322.86205566 78.73283203 -322.5012207 78.04785156 C-321.50453557 76.18348285 -320.48064777 74.33868772 -319.4375 72.5 C-318.95410156 71.64792969 -318.47070312 70.79585938 -317.97265625 69.91796875 C-305.52433412 49.89240707 -285.0150553 37.13642777 -262.4375 31.5 C-257.30197035 30.3566578 -252.36884396 30.2423902 -247.125 30.1875 C-246.21298828 30.15849609 -245.30097656 30.12949219 -244.36132812 30.09960938 C-236.97829894 30.03080695 -231.7870177 31.56479547 -226.1953125 36.46484375 C-225.65648437 37.11582031 -225.11765625 37.76679687 -224.5625 38.4375 C-224.00820312 39.08589844 -223.45390625 39.73429687 -222.8828125 40.40234375 C-218.40337903 46.90357557 -218.76286272 53.87140917 -219.4375 61.5 C-221.11835583 68.15959333 -225.90128322 72.68547447 -231.4375 76.5 C-235.21017493 78.42675898 -238.87681734 78.91743141 -243.02441406 79.43652344 C-254.35302829 80.87103435 -264.97165159 83.57099993 -272.91015625 92.40234375 C-279.10996226 100.91716684 -280.66391886 107.85851313 -282.4375 118.5 C-156.3775 118.5 -30.3175 118.5 99.5625 118.5 C97.40516243 105.55597459 94.50765041 96.12572747 84.5625 87.5 C73.61204389 80.26681329 61.72273204 79.23596326 48.890625 79.0859375 C47.84219421 79.06657135 46.79376343 79.0472052 45.71356201 79.0272522 C42.41328693 78.96817674 39.11297557 78.92136313 35.8125 78.875 C33.55467353 78.83675373 31.29686061 78.7976983 29.0390625 78.7578125 C23.54699664 78.66253598 18.05484696 78.57728515 12.5625 78.5 C12.57474609 79.60988281 12.58699219 80.71976562 12.59960938 81.86328125 C12.54132669 87.57498428 10.58411402 91.34755084 6.69140625 95.4921875 C-0.25528194 101.82168411 -5.62527415 102.98068378 -14.9921875 102.8046875 C-22.85430755 102.10939797 -26.98708704 98.45245981 -31.9921875 92.59765625 C-35.13215245 88.04046387 -35.69343699 84.11597905 -35.72802734 78.63354492 C-35.73474457 77.96291519 -35.74146179 77.29228546 -35.74838257 76.60133362 C-35.7673089 74.39430232 -35.77128417 72.18757606 -35.7734375 69.98046875 C-35.77986983 68.43736143 -35.78659852 66.89425531 -35.79360962 65.35115051 C-35.80556944 62.11908137 -35.80929185 58.887119 -35.80810547 55.6550293 C-35.8079025 51.52926494 -35.83518648 47.40419114 -35.86964989 43.2785902 C-35.89197512 40.09138392 -35.89594128 36.90434225 -35.89488602 33.71706581 C-35.89723422 32.19692928 -35.90601348 30.67678768 -35.92155075 29.15672874 C-36.00809725 19.81401201 -35.90776963 12.60126196 -29.47265625 5.2578125 C-28.82167969 4.71898437 -28.17070312 4.18015625 -27.5 3.625 C-26.85160156 3.07070312 -26.20320313 2.51640625 -25.53515625 1.9453125 C-18.47077988 -2.92213491 -7.84396301 -3.47595223 0 0 Z M-283.4375 166.5 C-283.47875 208.4925 -283.52 250.485 -283.5625 293.75 C-283.58070801 307.00575195 -283.59891602 320.26150391 -283.61767578 333.91894531 C-283.62436495 345.80868478 -283.62436495 345.80868478 -283.62838745 357.69842529 C-283.63024957 362.99124959 -283.63757343 368.28403281 -283.64865112 373.57684326 C-283.66277243 380.33390139 -283.66647736 387.09089097 -283.66364455 393.84796667 C-283.66423669 396.32421237 -283.66818685 398.80046016 -283.67593026 401.27669382 C-283.68592871 404.63060064 -283.6834614 407.98428346 -283.67800903 411.3381958 C-283.68383436 412.29904461 -283.68965969 413.25989342 -283.69566154 414.24985886 C-283.6324684 428.78620033 -280.8075527 440.66034476 -270.6796875 451.45703125 C-259.19207103 461.923971 -245.79600838 462.65359325 -231.01519775 462.63371277 C-229.77542923 462.63597833 -228.5356607 462.63824388 -227.25832343 462.64057809 C-223.83346971 462.64579825 -220.40866865 462.64656555 -216.98381472 462.64538372 C-213.28361927 462.64517905 -209.58343156 462.65070471 -205.88323975 462.65544128 C-198.63987805 462.66373427 -191.3965245 462.66649552 -184.15315846 462.66705366 C-178.26290921 462.66752947 -172.37266264 462.66958747 -166.48241425 462.67275429 C-149.76785739 462.68155724 -133.05330696 462.68617424 -116.33874777 462.68542381 C-114.98819165 462.68536388 -114.98819165 462.68536388 -113.61035156 462.68530273 C-112.70887641 462.68526185 -111.80740126 462.68522097 -110.87860867 462.68517885 C-96.27286318 462.6847725 -81.66714348 462.69434017 -67.06140545 462.7084411 C-52.05000767 462.72281885 -37.03862246 462.72971051 -22.02721763 462.72884732 C-13.60523371 462.72851583 -5.18327683 462.73124187 3.23870087 462.74202538 C10.4098811 462.7511488 17.58102204 462.75329053 24.75220558 462.74651595 C28.40735627 462.74326001 32.06243164 462.74316042 35.71757507 462.7518692 C39.68917227 462.76123421 43.66066057 462.75493401 47.63226318 462.74723816 C48.77470041 462.75238172 49.91713764 462.75752529 51.09419417 462.76282471 C66.11610563 462.6987353 78.31219235 460.25526647 89.51953125 449.7421875 C99.50375267 438.78436131 100.72519389 425.9891488 100.68275452 411.81921387 C100.68361053 410.76951416 100.68446655 409.71981445 100.68534851 408.63830566 C100.68699887 405.12278527 100.6814879 401.60731289 100.67602539 398.09179688 C100.67571896 395.52767183 100.67585271 392.9635467 100.67639065 390.39942169 C100.67659338 384.23336443 100.6723151 378.06732482 100.66588932 371.90127137 C100.65867601 364.76523522 100.65789384 357.62920413 100.65710449 350.49316406 C100.65185884 331.66210706 100.63789767 312.83105331 100.625 294 C100.604375 251.925 100.58375 209.85 100.5625 166.5 C-26.1575 166.5 -152.8775 166.5 -283.4375 166.5 Z " fill="#fff" transform="translate(347.4375,1.5)"/>
<path d="M0 0 C5.866586 3.54518423 10.46974787 8.98284244 12.5625 15.5 C12.69960218 18.14607209 12.75312972 20.67469013 12.6875 23.3125 C12.67847656 24.00537109 12.66945312 24.69824219 12.66015625 25.41210938 C12.63676157 27.10822395 12.60089641 28.80415871 12.5625 30.5 C13.43422852 30.49111755 14.30595703 30.48223511 15.20410156 30.4730835 C23.44259575 30.39274262 31.68095727 30.3319368 39.91975403 30.29275131 C44.15484407 30.27192791 48.38960884 30.24370721 52.62451172 30.19824219 C56.71589326 30.15459576 60.80696307 30.13082347 64.89855957 30.12049103 C66.45500593 30.1131332 68.01143635 30.09876524 69.56774902 30.07707977 C79.03777832 29.95044284 86.35616972 29.93765831 93.8046875 36.46484375 C94.34351563 37.11582031 94.88234375 37.76679687 95.4375 38.4375 C95.99179687 39.08589844 96.54609375 39.73429687 97.1171875 40.40234375 C101.59662097 46.90357557 101.23713728 53.87140917 100.5625 61.5 C98.88164417 68.15959333 94.09871678 72.68547447 88.5625 76.5 C84.43481129 78.52989571 81.05218871 78.74330262 76.47729492 78.72705078 C75.78406128 78.72734283 75.09082764 78.72763489 74.37658691 78.72793579 C72.09858426 78.72654897 69.82091385 78.71101867 67.54296875 78.6953125 C65.9582792 78.69158006 64.37358734 78.68873418 62.78889465 78.68673706 C58.62795587 78.67911877 54.46715779 78.65948588 50.30627441 78.6373291 C46.05641584 78.61683172 41.80653443 78.60772703 37.55664062 78.59765625 C29.22519601 78.5762382 20.89386553 78.54212416 12.5625 78.5 C12.58086914 80.16482422 12.58086914 80.16482422 12.59960938 81.86328125 C12.54132669 87.57498428 10.58411402 91.34755084 6.69140625 95.4921875 C-0.25528194 101.82168411 -5.62527415 102.98068378 -14.9921875 102.8046875 C-22.85430755 102.10939797 -26.98708704 98.45245981 -31.9921875 92.59765625 C-35.13215245 88.04046387 -35.69343699 84.11597905 -35.72802734 78.63354492 C-35.73474457 77.96291519 -35.74146179 77.29228546 -35.74838257 76.60133362 C-35.7673089 74.39430232 -35.77128417 72.18757606 -35.7734375 69.98046875 C-35.77986983 68.43736143 -35.78659852 66.89425531 -35.79360962 65.35115051 C-35.80556944 62.11908137 -35.80929185 58.887119 -35.80810547 55.6550293 C-35.8079025 51.52926494 -35.83518648 47.40419114 -35.86964989 43.2785902 C-35.89197512 40.09138392 -35.89594128 36.90434225 -35.89488602 33.71706581 C-35.89723422 32.19692928 -35.90601348 30.67678768 -35.92155075 29.15672874 C-36.00809725 19.81401201 -35.90776963 12.60126196 -29.47265625 5.2578125 C-28.82167969 4.71898437 -28.17070312 4.18015625 -27.5 3.625 C-26.85160156 3.07070312 -26.20320312 2.51640625 -25.53515625 1.9453125 C-18.47077988 -2.92213491 -7.84396301 -3.47595223 0 0 Z " fill="#fff" transform="translate(187.4375,1.5)"/>
<path d="M0 0 C0.99496994 -0.0066568 1.98993988 -0.0133136 3.01506042 -0.02017212 C5.11719926 -0.03028148 7.21937008 -0.03498967 9.3215332 -0.03466797 C12.52154047 -0.03903327 15.72015913 -0.07535011 18.91992188 -0.11328125 C20.96744323 -0.11915149 23.0149711 -0.1231195 25.0625 -0.125 C26.48632744 -0.14655655 26.48632744 -0.14655655 27.93891907 -0.16854858 C35.1673229 -0.11935852 40.4891473 1.49554606 45.97265625 6.30078125 C46.51148438 6.95175781 47.0503125 7.60273438 47.60546875 8.2734375 C48.15976562 8.92183594 48.7140625 9.57023437 49.28515625 10.23828125 C53.76458972 16.73951307 53.40510603 23.70734667 52.73046875 31.3359375 C51.04961292 37.99553083 46.26668553 42.52141197 40.73046875 46.3359375 C35.84156983 48.96399067 30.86873595 48.65927585 25.4609375 48.671875 C24.46596756 48.6785318 23.47099762 48.6851886 22.44587708 48.69204712 C20.34373824 48.70215648 18.24156742 48.70686467 16.1394043 48.70654297 C12.93939703 48.71090827 9.74077837 48.74722511 6.54101562 48.78515625 C4.49349427 48.79102649 2.4459664 48.7949945 0.3984375 48.796875 C-0.55078079 48.81124603 -1.49999908 48.82561707 -2.47798157 48.84042358 C-9.7063854 48.79123352 -15.0282098 47.17632894 -20.51171875 42.37109375 C-21.05054688 41.72011719 -21.589375 41.06914062 -22.14453125 40.3984375 C-22.69882812 39.75003906 -23.253125 39.10164063 -23.82421875 38.43359375 C-28.30365222 31.93236193 -27.94416853 24.96452833 -27.26953125 17.3359375 C-25.58867542 10.67634417 -20.80574803 6.15046303 -15.26953125 2.3359375 C-10.38063233 -0.29211567 -5.40779845 0.01259915 0 0 Z " fill="#fff" transform="translate(355.26953125,367.6640625)"/>
<path d="M0 0 C0.99496994 -0.0066568 1.98993988 -0.0133136 3.01506042 -0.02017212 C5.11719926 -0.03028148 7.21937008 -0.03498967 9.3215332 -0.03466797 C12.52154047 -0.03903327 15.72015913 -0.07535011 18.91992188 -0.11328125 C20.96744323 -0.11915149 23.0149711 -0.1231195 25.0625 -0.125 C26.48632744 -0.14655655 26.48632744 -0.14655655 27.93891907 -0.16854858 C35.1673229 -0.11935852 40.4891473 1.49554606 45.97265625 6.30078125 C46.51148438 6.95175781 47.0503125 7.60273438 47.60546875 8.2734375 C48.15976562 8.92183594 48.7140625 9.57023437 49.28515625 10.23828125 C53.76458972 16.73951307 53.40510603 23.70734667 52.73046875 31.3359375 C51.04961292 37.99553083 46.26668553 42.52141197 40.73046875 46.3359375 C35.84156983 48.96399067 30.86873595 48.65927585 25.4609375 48.671875 C24.46596756 48.6785318 23.47099762 48.6851886 22.44587708 48.69204712 C20.34373824 48.70215648 18.24156742 48.70686467 16.1394043 48.70654297 C12.93939703 48.71090827 9.74077837 48.74722511 6.54101562 48.78515625 C4.49349427 48.79102649 2.4459664 48.7949945 0.3984375 48.796875 C-0.55078079 48.81124603 -1.49999908 48.82561707 -2.47798157 48.84042358 C-9.7063854 48.79123352 -15.0282098 47.17632894 -20.51171875 42.37109375 C-21.05054688 41.72011719 -21.589375 41.06914062 -22.14453125 40.3984375 C-22.69882813 39.75003906 -23.253125 39.10164063 -23.82421875 38.43359375 C-28.30365222 31.93236193 -27.94416853 24.96452833 -27.26953125 17.3359375 C-25.58867542 10.67634417 -20.80574803 6.15046303 -15.26953125 2.3359375 C-10.38063233 -0.29211567 -5.40779845 0.01259915 0 0 Z " fill="#fff" transform="translate(243.26953125,367.6640625)"/>
<path d="M0 0 C0.99496994 -0.0066568 1.98993988 -0.0133136 3.01506042 -0.02017212 C5.11719926 -0.03028148 7.21937008 -0.03498967 9.3215332 -0.03466797 C12.52154047 -0.03903327 15.72015913 -0.07535011 18.91992188 -0.11328125 C20.96744323 -0.11915149 23.0149711 -0.1231195 25.0625 -0.125 C26.48632744 -0.14655655 26.48632744 -0.14655655 27.93891907 -0.16854858 C35.1673229 -0.11935852 40.4891473 1.49554606 45.97265625 6.30078125 C46.51148438 6.95175781 47.0503125 7.60273438 47.60546875 8.2734375 C48.15976563 8.92183594 48.7140625 9.57023437 49.28515625 10.23828125 C53.76458972 16.73951307 53.40510603 23.70734667 52.73046875 31.3359375 C51.04961292 37.99553083 46.26668553 42.52141197 40.73046875 46.3359375 C35.84156983 48.96399067 30.86873595 48.65927585 25.4609375 48.671875 C24.46596756 48.6785318 23.47099762 48.6851886 22.44587708 48.69204712 C20.34373824 48.70215648 18.24156742 48.70686467 16.1394043 48.70654297 C12.93939703 48.71090827 9.74077837 48.74722511 6.54101562 48.78515625 C4.49349427 48.79102649 2.4459664 48.7949945 0.3984375 48.796875 C-0.55078079 48.81124603 -1.49999908 48.82561707 -2.47798157 48.84042358 C-9.7063854 48.79123352 -15.0282098 47.17632894 -20.51171875 42.37109375 C-21.05054687 41.72011719 -21.589375 41.06914062 -22.14453125 40.3984375 C-22.69882813 39.75003906 -23.253125 39.10164063 -23.82421875 38.43359375 C-28.30365222 31.93236193 -27.94416853 24.96452833 -27.26953125 17.3359375 C-25.58867542 10.67634417 -20.80574803 6.15046303 -15.26953125 2.3359375 C-10.38063233 -0.29211567 -5.40779845 0.01259915 0 0 Z " fill="#fff" transform="translate(131.26953125,367.6640625)"/>
<path d="M0 0 C0.99496994 -0.0066568 1.98993988 -0.0133136 3.01506042 -0.02017212 C5.11719926 -0.03028148 7.21937008 -0.03498967 9.3215332 -0.03466797 C12.52154047 -0.03903327 15.72015913 -0.07535011 18.91992188 -0.11328125 C20.96744323 -0.11915149 23.0149711 -0.1231195 25.0625 -0.125 C26.48632744 -0.14655655 26.48632744 -0.14655655 27.93891907 -0.16854858 C35.1673229 -0.11935852 40.4891473 1.49554606 45.97265625 6.30078125 C46.51148438 6.95175781 47.0503125 7.60273438 47.60546875 8.2734375 C48.15976562 8.92183594 48.7140625 9.57023437 49.28515625 10.23828125 C53.76458972 16.73951307 53.40510603 23.70734667 52.73046875 31.3359375 C51.04961292 37.99553083 46.26668553 42.52141197 40.73046875 46.3359375 C35.84156983 48.96399067 30.86873595 48.65927585 25.4609375 48.671875 C24.46596756 48.6785318 23.47099762 48.6851886 22.44587708 48.69204712 C20.34373824 48.70215648 18.24156742 48.70686467 16.1394043 48.70654297 C12.93939703 48.71090827 9.74077837 48.74722511 6.54101562 48.78515625 C4.49349427 48.79102649 2.4459664 48.7949945 0.3984375 48.796875 C-0.55078079 48.81124603 -1.49999908 48.82561707 -2.47798157 48.84042358 C-9.7063854 48.79123352 -15.0282098 47.17632894 -20.51171875 42.37109375 C-21.05054688 41.72011719 -21.589375 41.06914062 -22.14453125 40.3984375 C-22.69882812 39.75003906 -23.253125 39.10164063 -23.82421875 38.43359375 C-28.30365222 31.93236193 -27.94416853 24.96452833 -27.26953125 17.3359375 C-25.58867542 10.67634417 -20.80574803 6.15046303 -15.26953125 2.3359375 C-10.38063233 -0.29211567 -5.40779845 0.01259915 0 0 Z " fill="#fff" transform="translate(355.26953125,287.6640625)"/>
<path d="M0 0 C0.99496994 -0.0066568 1.98993988 -0.0133136 3.01506042 -0.02017212 C5.11719926 -0.03028148 7.21937008 -0.03498967 9.3215332 -0.03466797 C12.52154047 -0.03903327 15.72015913 -0.07535011 18.91992188 -0.11328125 C20.96744323 -0.11915149 23.0149711 -0.1231195 25.0625 -0.125 C26.48632744 -0.14655655 26.48632744 -0.14655655 27.93891907 -0.16854858 C35.1673229 -0.11935852 40.4891473 1.49554606 45.97265625 6.30078125 C46.51148438 6.95175781 47.0503125 7.60273438 47.60546875 8.2734375 C48.15976562 8.92183594 48.7140625 9.57023437 49.28515625 10.23828125 C53.76458972 16.73951307 53.40510603 23.70734667 52.73046875 31.3359375 C51.04961292 37.99553083 46.26668553 42.52141197 40.73046875 46.3359375 C35.84156983 48.96399067 30.86873595 48.65927585 25.4609375 48.671875 C24.46596756 48.6785318 23.47099762 48.6851886 22.44587708 48.69204712 C20.34373824 48.70215648 18.24156742 48.70686467 16.1394043 48.70654297 C12.93939703 48.71090827 9.74077837 48.74722511 6.54101562 48.78515625 C4.49349427 48.79102649 2.4459664 48.7949945 0.3984375 48.796875 C-0.55078079 48.81124603 -1.49999908 48.82561707 -2.47798157 48.84042358 C-9.7063854 48.79123352 -15.0282098 47.17632894 -20.51171875 42.37109375 C-21.05054688 41.72011719 -21.589375 41.06914062 -22.14453125 40.3984375 C-22.69882813 39.75003906 -23.253125 39.10164063 -23.82421875 38.43359375 C-28.30365222 31.93236193 -27.94416853 24.96452833 -27.26953125 17.3359375 C-25.58867542 10.67634417 -20.80574803 6.15046303 -15.26953125 2.3359375 C-10.38063233 -0.29211567 -5.40779845 0.01259915 0 0 Z " fill="#fff" transform="translate(243.26953125,287.6640625)"/>
<path d="M0 0 C0.99496994 -0.0066568 1.98993988 -0.0133136 3.01506042 -0.02017212 C5.11719926 -0.03028148 7.21937008 -0.03498967 9.3215332 -0.03466797 C12.52154047 -0.03903327 15.72015913 -0.07535011 18.91992188 -0.11328125 C20.96744323 -0.11915149 23.0149711 -0.1231195 25.0625 -0.125 C26.48632744 -0.14655655 26.48632744 -0.14655655 27.93891907 -0.16854858 C35.1673229 -0.11935852 40.4891473 1.49554606 45.97265625 6.30078125 C46.51148438 6.95175781 47.0503125 7.60273438 47.60546875 8.2734375 C48.15976563 8.92183594 48.7140625 9.57023437 49.28515625 10.23828125 C53.76458972 16.73951307 53.40510603 23.70734667 52.73046875 31.3359375 C51.04961292 37.99553083 46.26668553 42.52141197 40.73046875 46.3359375 C35.84156983 48.96399067 30.86873595 48.65927585 25.4609375 48.671875 C24.46596756 48.6785318 23.47099762 48.6851886 22.44587708 48.69204712 C20.34373824 48.70215648 18.24156742 48.70686467 16.1394043 48.70654297 C12.93939703 48.71090827 9.74077837 48.74722511 6.54101562 48.78515625 C4.49349427 48.79102649 2.4459664 48.7949945 0.3984375 48.796875 C-0.55078079 48.81124603 -1.49999908 48.82561707 -2.47798157 48.84042358 C-9.7063854 48.79123352 -15.0282098 47.17632894 -20.51171875 42.37109375 C-21.05054687 41.72011719 -21.589375 41.06914062 -22.14453125 40.3984375 C-22.69882813 39.75003906 -23.253125 39.10164063 -23.82421875 38.43359375 C-28.30365222 31.93236193 -27.94416853 24.96452833 -27.26953125 17.3359375 C-25.58867542 10.67634417 -20.80574803 6.15046303 -15.26953125 2.3359375 C-10.38063233 -0.29211567 -5.40779845 0.01259915 0 0 Z " fill="#fff" transform="translate(131.26953125,287.6640625)"/>
<path d="M0 0 C0.99496994 -0.0066568 1.98993988 -0.0133136 3.01506042 -0.02017212 C5.11719926 -0.03028148 7.21937008 -0.03498967 9.3215332 -0.03466797 C12.52154047 -0.03903327 15.72015913 -0.07535011 18.91992188 -0.11328125 C20.96744323 -0.11915149 23.0149711 -0.1231195 25.0625 -0.125 C26.48632744 -0.14655655 26.48632744 -0.14655655 27.93891907 -0.16854858 C35.1673229 -0.11935852 40.4891473 1.49554606 45.97265625 6.30078125 C46.51148438 6.95175781 47.0503125 7.60273438 47.60546875 8.2734375 C48.15976562 8.92183594 48.7140625 9.57023438 49.28515625 10.23828125 C53.76458972 16.73951307 53.40510603 23.70734667 52.73046875 31.3359375 C51.04961292 37.99553083 46.26668553 42.52141197 40.73046875 46.3359375 C35.84156983 48.96399067 30.86873595 48.65927585 25.4609375 48.671875 C24.46596756 48.6785318 23.47099762 48.6851886 22.44587708 48.69204712 C20.34373824 48.70215648 18.24156742 48.70686467 16.1394043 48.70654297 C12.93939703 48.71090827 9.74077837 48.74722511 6.54101562 48.78515625 C4.49349427 48.79102649 2.4459664 48.7949945 0.3984375 48.796875 C-0.55078079 48.81124603 -1.49999908 48.82561707 -2.47798157 48.84042358 C-9.7063854 48.79123352 -15.0282098 47.17632894 -20.51171875 42.37109375 C-21.05054688 41.72011719 -21.589375 41.06914062 -22.14453125 40.3984375 C-22.69882812 39.75003906 -23.253125 39.10164063 -23.82421875 38.43359375 C-28.30365222 31.93236193 -27.94416853 24.96452833 -27.26953125 17.3359375 C-25.58867542 10.67634417 -20.80574803 6.15046303 -15.26953125 2.3359375 C-10.38063233 -0.29211567 -5.40779845 0.01259915 0 0 Z " fill="#fff" transform="translate(355.26953125,207.6640625)"/>
<path d="M0 0 C0.99496994 -0.0066568 1.98993988 -0.0133136 3.01506042 -0.02017212 C5.11719926 -0.03028148 7.21937008 -0.03498967 9.3215332 -0.03466797 C12.52154047 -0.03903327 15.72015913 -0.07535011 18.91992188 -0.11328125 C20.96744323 -0.11915149 23.0149711 -0.1231195 25.0625 -0.125 C26.48632744 -0.14655655 26.48632744 -0.14655655 27.93891907 -0.16854858 C35.1673229 -0.11935852 40.4891473 1.49554606 45.97265625 6.30078125 C46.51148438 6.95175781 47.0503125 7.60273438 47.60546875 8.2734375 C48.15976562 8.92183594 48.7140625 9.57023438 49.28515625 10.23828125 C53.76458972 16.73951307 53.40510603 23.70734667 52.73046875 31.3359375 C51.04961292 37.99553083 46.26668553 42.52141197 40.73046875 46.3359375 C35.84156983 48.96399067 30.86873595 48.65927585 25.4609375 48.671875 C24.46596756 48.6785318 23.47099762 48.6851886 22.44587708 48.69204712 C20.34373824 48.70215648 18.24156742 48.70686467 16.1394043 48.70654297 C12.93939703 48.71090827 9.74077837 48.74722511 6.54101562 48.78515625 C4.49349427 48.79102649 2.4459664 48.7949945 0.3984375 48.796875 C-0.55078079 48.81124603 -1.49999908 48.82561707 -2.47798157 48.84042358 C-9.7063854 48.79123352 -15.0282098 47.17632894 -20.51171875 42.37109375 C-21.05054688 41.72011719 -21.589375 41.06914062 -22.14453125 40.3984375 C-22.69882813 39.75003906 -23.253125 39.10164063 -23.82421875 38.43359375 C-28.30365222 31.93236193 -27.94416853 24.96452833 -27.26953125 17.3359375 C-25.58867542 10.67634417 -20.80574803 6.15046303 -15.26953125 2.3359375 C-10.38063233 -0.29211567 -5.40779845 0.01259915 0 0 Z " fill="#fff" transform="translate(243.26953125,207.6640625)"/>
<path d="M0 0 C0.99496994 -0.0066568 1.98993988 -0.0133136 3.01506042 -0.02017212 C5.11719926 -0.03028148 7.21937008 -0.03498967 9.3215332 -0.03466797 C12.52154047 -0.03903327 15.72015913 -0.07535011 18.91992188 -0.11328125 C20.96744323 -0.11915149 23.0149711 -0.1231195 25.0625 -0.125 C26.48632744 -0.14655655 26.48632744 -0.14655655 27.93891907 -0.16854858 C35.1673229 -0.11935852 40.4891473 1.49554606 45.97265625 6.30078125 C46.51148438 6.95175781 47.0503125 7.60273438 47.60546875 8.2734375 C48.15976563 8.92183594 48.7140625 9.57023438 49.28515625 10.23828125 C53.76458972 16.73951307 53.40510603 23.70734667 52.73046875 31.3359375 C51.04961292 37.99553083 46.26668553 42.52141197 40.73046875 46.3359375 C35.84156983 48.96399067 30.86873595 48.65927585 25.4609375 48.671875 C24.46596756 48.6785318 23.47099762 48.6851886 22.44587708 48.69204712 C20.34373824 48.70215648 18.24156742 48.70686467 16.1394043 48.70654297 C12.93939703 48.71090827 9.74077837 48.74722511 6.54101562 48.78515625 C4.49349427 48.79102649 2.4459664 48.7949945 0.3984375 48.796875 C-0.55078079 48.81124603 -1.49999908 48.82561707 -2.47798157 48.84042358 C-9.7063854 48.79123352 -15.0282098 47.17632894 -20.51171875 42.37109375 C-21.05054687 41.72011719 -21.589375 41.06914062 -22.14453125 40.3984375 C-22.69882813 39.75003906 -23.253125 39.10164063 -23.82421875 38.43359375 C-28.30365222 31.93236193 -27.94416853 24.96452833 -27.26953125 17.3359375 C-25.58867542 10.67634417 -20.80574803 6.15046303 -15.26953125 2.3359375 C-10.38063233 -0.29211567 -5.40779845 0.01259915 0 0 Z " fill="#fff" transform="translate(131.26953125,207.6640625)"/>
</svg>
