<?xml version="1.0" encoding="UTF-8"?>
<svg version="1.1" xmlns="http://www.w3.org/2000/svg" width="512" height="512">
<path d="M0 0 C1.24761942 -0.00507454 2.49523885 -0.01014909 3.78066492 -0.0153774 C5.16765749 -0.01597906 6.55465012 -0.01647815 7.94164276 -0.01688576 C9.41322238 -0.02090125 10.88480089 -0.02533962 12.35637808 -0.03016531 C16.40593595 -0.04212721 20.45548192 -0.04777839 24.505054 -0.05234647 C28.87063344 -0.05830408 33.23619865 -0.06991359 37.60176849 -0.08063698 C48.14826222 -0.10515831 58.69476066 -0.11978824 69.24127412 -0.13269705 C72.22050332 -0.13640933 75.19973206 -0.14038254 78.1789608 -0.14444971 C96.68240266 -0.16968784 115.18584526 -0.19173942 133.68930054 -0.20417786 C137.97519687 -0.20710752 142.26109317 -0.21006919 146.54698944 -0.21308327 C147.6122198 -0.21382932 148.67745016 -0.21457537 149.77496022 -0.21534403 C167.0258087 -0.22799396 184.27655403 -0.26121225 201.5273543 -0.3028851 C219.24161396 -0.34532641 236.95582084 -0.36887548 254.67013121 -0.37409842 C264.61471447 -0.37751016 274.55913656 -0.38923735 284.50366974 -0.42220116 C292.97420739 -0.45023307 301.44455084 -0.46118723 309.91513127 -0.4500057 C314.23466932 -0.44482698 318.55380086 -0.44765429 322.87327957 -0.47247124 C326.83388096 -0.49503564 330.79378553 -0.4941688 334.75439972 -0.47526737 C336.18114256 -0.47247735 337.60793339 -0.47801005 339.03459936 -0.4930803 C351.85849619 -0.62017311 361.93805286 2.51629502 371.7589035 10.90263939 C379.13773635 18.42615523 382.36157426 27.93412588 383.95030975 38.13701439 C384.78433319 38.35615501 385.61835663 38.57529564 386.4776535 38.80107689 C399.17090091 42.37786826 407.85776285 48.0253122 415.266716 59.10576439 C418.23163641 64.44480925 419.11294296 70.143231 419.95030975 76.13701439 C420.85780975 76.03388939 421.76530975 75.93076439 422.70030975 75.82451439 C431.88433623 75.89872874 440.26344245 81.2364119 446.68468475 87.39873314 C453.35988449 95.46651765 457.06957977 104.80760885 457.08173752 115.28410435 C457.08557866 116.52798143 457.08941981 117.77185851 457.09337735 119.05342883 C457.09259716 120.43099675 457.09171838 121.80856462 457.09075165 123.18613243 C457.09333608 124.6517505 457.09634946 126.11736787 457.09975505 127.58298427 C457.10781908 131.61134521 457.10961429 135.63968832 457.11035252 139.66805637 C457.11220411 144.01244514 457.11975198 148.35682468 457.12648773 152.70120811 C457.14006736 162.20127923 457.1460952 171.70134611 457.15049839 181.20142531 C457.15326144 187.13388772 457.15749892 193.06634851 457.16200256 198.99880981 C457.17419476 215.42569152 457.18449416 231.85257192 457.18787766 248.27945805 C457.18809722 249.33073643 457.18831679 250.38201481 457.18854301 251.46515011 C457.18876128 252.5189365 457.18897956 253.57272289 457.18920445 254.6584422 C457.18964792 256.79379634 457.19009448 258.92915048 457.19054413 261.06450462 C457.19076556 262.12371287 457.19098699 263.18292112 457.19121513 264.27422658 C457.19516284 281.43580042 457.21261627 298.59733179 457.23590365 315.75888922 C457.25962221 333.38051087 457.27207974 351.00211121 457.27324557 368.62374908 C457.27416205 378.51678678 457.27990751 388.40976914 457.29806519 398.3027916 C457.31347296 406.72721883 457.31858263 415.15157363 457.31032708 423.57601228 C457.30642299 427.87293087 457.30733843 432.16970362 457.32138443 436.46660423 C457.33413766 440.40409633 457.33291344 444.3413332 457.32079372 448.27882502 C457.31883918 449.69943872 457.3219039 451.1200706 457.33063808 452.54065879 C457.41372103 466.9734467 454.40676465 477.17027268 444.95030975 488.13701439 C442.57530975 490.05107689 442.57530975 490.05107689 439.95030975 491.76201439 C439.10468475 492.33178001 438.25905975 492.90154564 437.38780975 493.48857689 C427.71373332 498.12773627 417.78203549 498.57332946 407.22472382 498.51796532 C405.77098618 498.52142913 404.31725117 498.52619853 402.86352158 498.53214705 C398.90037445 498.54458738 394.93744605 498.53851873 390.97429848 498.52918839 C386.68792671 498.52236945 382.40159119 498.53289317 378.11522675 498.54112816 C369.73071085 498.55443745 361.34627571 498.55160028 352.96175671 498.54289024 C346.14482399 498.53610304 339.32791383 498.53520145 332.5109787 498.53846169 C331.05322379 498.53915123 331.05322379 498.53915123 329.5660193 498.53985471 C327.59148247 498.54081393 325.61694566 498.54178657 323.64240885 498.54277249 C305.14615662 498.55131817 286.64994907 498.54150516 268.15370417 498.52537139 C252.29812325 498.51196896 236.44260823 498.51429728 220.5870285 498.52812767 C202.15498394 498.54419801 183.72297848 498.55049427 165.29092789 498.54129088 C163.3238322 498.54033528 161.35673651 498.53939216 159.38964081 498.53846169 C158.42190239 498.53799886 157.45416398 498.53753603 156.45710015 498.53705918 C149.6518079 498.53447366 142.84654054 498.53883084 136.04125214 498.54590034 C127.74293697 498.55433171 119.44470688 498.55200087 111.14640141 498.53605811 C106.91602714 498.52819739 102.68579452 498.52504611 98.45542145 498.53500557 C94.57668714 498.54399877 90.69822468 498.53894422 86.81951475 498.52307291 C85.42263286 498.51974457 84.0257276 498.5213749 82.62886095 498.52870028 C68.96011981 498.59483634 56.40173304 496.81262343 45.95030975 487.32060814 C38.6063509 479.48599686 34.74484565 470.82114779 34.95030975 460.13701439 C34.34445038 460.1228347 33.738591 460.10865501 33.11437225 460.09404564 C23.61385261 459.55324683 15.71536842 455.90207305 8.95030975 449.13701439 C2.56513676 441.06731083 -0.83625343 432.09748004 -3.04969025 422.13701439 C-4.96781525 421.79670189 -4.96781525 421.79670189 -6.92469025 421.44951439 C-18.37293064 418.81588162 -27.31371685 412.49052812 -33.717659 402.54717064 C-38.84603643 392.78671037 -39.34367057 383.74231086 -39.31711578 372.89917564 C-39.32085582 371.44960408 -39.32545875 370.00003453 -39.33084643 368.55046815 C-39.34304827 364.58026365 -39.34281929 360.6101436 -39.34045768 356.63992465 C-39.34004879 352.35278319 -39.35109553 348.06566855 -39.36057281 343.77853966 C-39.37716866 335.38380342 -39.38268173 326.98909527 -39.38379757 318.594344 C-39.38474878 311.76826888 -39.3888627 304.94220302 -39.39519882 298.11613083 C-39.41280786 278.75043494 -39.42203829 259.3847612 -39.42053787 240.01905725 C-39.42045796 238.97557344 -39.42037805 237.93208963 -39.42029572 236.85698509 C-39.42021395 235.81222274 -39.42013219 234.76746039 -39.42004795 233.69103857 C-39.41923529 216.76445847 -39.43836886 199.83796741 -39.46657245 182.91141305 C-39.49532277 165.51906981 -39.50911154 148.12676996 -39.5073849 130.73440236 C-39.50672171 120.97487927 -39.51218277 111.21544952 -39.533741 101.45594788 C-39.55198112 93.14547724 -39.55627695 84.83514223 -39.54272215 76.52466021 C-39.5362066 72.28806667 -39.53602391 68.05173313 -39.55342865 63.81516457 C-39.56922749 59.92937367 -39.56622703 56.04404743 -39.54886039 52.1582674 C-39.54580537 50.75989744 -39.54936582 49.36149221 -39.56058054 47.96316389 C-39.66138358 34.49156128 -37.2280332 22.41965501 -28.04969025 12.13701439 C-20.11758844 4.59644229 -10.98705831 0.02372119 0 0 Z M18.95030975 64.13701439 C12.64592411 72.67091974 13.35973323 81.68620025 13.63780975 91.76201439 C13.66293946 93.35442705 13.68574434 94.94687818 13.70616913 96.53935814 C13.75647651 100.40698981 13.85436025 104.26918329 13.95030975 108.13701439 C21.21030975 108.13701439 28.47030975 108.13701439 35.95030975 108.13701439 C36.48655975 106.32201439 37.02280975 104.50701439 37.57530975 102.63701439 C41.01857445 92.36762844 47.49188868 84.81748652 57.13780975 79.82451439 C61.71572092 77.61480981 65.63639043 77.01153196 70.72117233 76.99834919 C71.90652423 76.99287475 73.09187613 76.9874003 74.31314778 76.98175997 C76.26838152 76.98029281 76.26838152 76.98029281 78.26311493 76.97879601 C79.66075112 76.97423017 81.05838594 76.96923011 82.45601916 76.96383244 C86.30071074 76.95024442 90.14539346 76.94283105 93.99010277 76.93640578 C98.13459435 76.92840476 102.27906751 76.91470595 106.42354584 76.90169334 C113.60550866 76.87992637 120.78747334 76.86178268 127.9694519 76.84608841 C138.35343286 76.82339181 148.7373934 76.79524868 159.12135705 76.76576913 C175.96797811 76.71809066 192.81460751 76.67482716 209.66124725 76.63432884 C226.02779031 76.59497522 242.39432596 76.55354931 258.76085663 76.50932884 C259.76941024 76.50660457 260.77796385 76.5038803 261.81707969 76.50107347 C266.87661333 76.48739402 271.93614686 76.47367374 276.99568033 76.45993316 C318.98054137 76.34596438 360.96541839 76.2391559 402.95030975 76.13701439 C401.91171101 69.44989615 400.09636172 64.73348865 394.7589035 60.32842064 C389.00416885 56.37500326 385.01512927 55.01383963 378.01438522 55.00558662 C376.18105664 54.99982491 376.18105664 54.99982491 374.31069112 54.99394679 C372.95238441 54.99472703 371.59407776 54.99560581 370.23577118 54.99657249 C368.79433956 54.99398877 367.35290866 54.99097559 365.91147876 54.98756909 C361.94540663 54.97949672 357.97935261 54.97770939 354.01327324 54.97697163 C349.73775369 54.97512149 345.46224355 54.96757436 341.18672943 54.96083641 C331.835489 54.94725097 322.48425285 54.94122807 313.13300419 54.93682575 C307.29487072 54.93406374 301.45673891 54.92982647 295.61860657 54.92532158 C279.45683267 54.91312874 263.2950601 54.90282939 247.13328171 54.89944649 C246.09877075 54.89922692 245.06425979 54.89900736 243.99840002 54.89878114 C242.9614043 54.89856286 241.92440857 54.89834458 240.85598874 54.89811969 C238.75461658 54.89767622 236.65324442 54.89722966 234.55187225 54.89678001 C233.50951757 54.89655858 232.46716289 54.89633715 231.39322171 54.89610901 C214.50182697 54.89216066 197.61047536 54.87470557 180.71909729 54.85142049 C163.38002003 54.82771103 146.04096441 54.81524482 128.70187068 54.81407857 C118.96537728 54.81316159 109.22894008 54.80740353 99.49246216 54.78925896 C91.20190113 54.77386347 82.91141366 54.76873426 74.62084106 54.77699706 C70.39101016 54.78090549 66.16132744 54.77996457 61.93151474 54.76593971 C58.05761706 54.75321244 54.18397907 54.75438789 50.31008181 54.76653042 C48.910335 54.76848946 47.51056987 54.7653994 46.11084881 54.75668606 C35.13294265 54.69268694 26.63302416 55.71263299 18.95030975 64.13701439 Z M70.95030975 114.13701439 C69.51295729 117.01171932 69.56858326 118.95596027 69.95030975 122.13701439 C72.84819858 125.38687352 75.18754471 126.40089085 79.41905975 126.66826439 C81.09614216 126.67882869 82.77347718 126.66782908 84.45030975 126.63701439 C85.29206757 126.65248314 86.13382538 126.66795189 87.001091 126.68388939 C91.12436684 126.657916 93.41545403 126.45901936 97.01280975 124.29326439 C99.20967593 122.23653701 99.20967593 122.23653701 99.45030975 119.13701439 C98.90729655 115.87893514 98.26904827 114.45575291 95.95030975 112.13701439 C92.14438482 110.86837275 88.54160335 110.91381367 84.57530975 110.88701439 C83.81991913 110.86638939 83.0645285 110.84576439 82.28624725 110.82451439 C77.6767361 110.79228005 74.69906489 111.15537903 70.95030975 114.13701439 Z M145.95030975 116.13701439 C146.08667559 120.8702468 146.08667559 120.8702468 148.4151535 124.83232689 C152.32011698 126.84196911 156.0600332 126.61060654 160.38780975 126.57451439 C161.23407928 126.59449486 162.08034882 126.61447533 162.95226288 126.63506126 C167.09721506 126.63181541 169.39582137 126.46970742 173.016716 124.29717064 C175.20894967 122.23594237 175.20894967 122.23594237 175.45030975 119.13701439 C174.90729655 115.87893514 174.26904827 114.45575291 171.95030975 112.13701439 C168.2918062 110.91751321 164.88627407 110.9144808 161.07530975 110.88701439 C160.36761444 110.86638939 159.65991913 110.84576439 158.9307785 110.82451439 C153.15094277 110.78146161 149.98659845 112.10072569 145.95030975 116.13701439 Z M219.95030975 113.13701439 C217.97068725 115.65653394 217.94373659 116.97597185 218.07530975 120.19951439 C219.12908739 123.73719644 219.75437658 124.37585639 222.95030975 126.13701439 C225.63240356 126.42992735 228.08150991 126.55073336 230.76267242 126.53142357 C231.55477145 126.53751467 232.34687048 126.54360578 233.16297251 126.54988146 C235.82001342 126.56654481 238.47657685 126.56173097 241.13365936 126.55693626 C243.0374476 126.56427464 244.94123139 126.57286019 246.84500885 126.58260155 C252.01853571 126.60485002 257.19190346 126.60774658 262.3654716 126.60585403 C266.68223063 126.60573449 270.99895575 126.61429189 275.31570536 126.62263155 C285.49821035 126.64187743 295.68063335 126.64474503 305.86315155 126.63799095 C316.37310103 126.63134808 326.88269974 126.65422182 337.39257807 126.69130468 C346.41179111 126.72197503 355.43089115 126.73336464 364.45015532 126.72946787 C369.83884812 126.72739771 375.22726798 126.73292086 380.61591148 126.75736046 C385.68281896 126.77958112 390.74915503 126.77778874 395.81606483 126.75743294 C397.6764762 126.75401465 399.53692568 126.75914709 401.39728546 126.77341652 C403.93584863 126.79154558 406.47246018 126.77890887 409.01096344 126.75847435 C409.74851472 126.7709922 410.48606601 126.78351005 411.24596733 126.79640722 C415.14513465 126.72903828 416.83655721 126.2259876 419.9465189 123.79348564 C422.26395433 121.27578597 422.26395433 121.27578597 421.95030975 118.01201439 C420.95574801 115.15264938 420.36169501 113.89918054 417.95030975 112.13701439 C414.37474871 110.94516071 411.13081772 110.99537736 407.41005707 111.00330162 C406.63514667 111.00103606 405.86023628 110.99877051 405.06184375 110.9964363 C402.45710516 110.99009033 399.85241852 110.99092605 397.24767303 110.99175072 C395.38344505 110.98875959 393.51921769 110.98535717 391.65499115 110.9815731 C386.58474354 110.97272405 381.5145128 110.97039461 376.44425821 110.96975732 C372.21454848 110.96880882 367.98484268 110.96513119 363.75513446 110.96158522 C353.77738488 110.95343719 343.79964432 110.9510013 333.82189178 110.95171165 C323.52282375 110.95231252 313.22380809 110.94175973 302.92475331 110.92596799 C294.08816726 110.91290056 285.25159834 110.90752742 276.4150027 110.90816706 C271.13481296 110.90842229 265.85466973 110.90555757 260.57448959 110.89498901 C255.60871117 110.88532147 250.64302387 110.88521963 245.67724228 110.89250565 C243.85392372 110.89355317 242.03059953 110.8911787 240.20729065 110.88514519 C237.71959592 110.87744591 235.23221747 110.88205634 232.74452972 110.88977623 C232.02186011 110.88463267 231.2991905 110.8794891 230.55462182 110.87418967 C226.58880895 110.90141253 223.48678141 111.29375699 219.95030975 113.13701439 Z M13.95030975 125.13701439 C13.88186977 163.09166036 13.82877959 201.04629535 13.79711377 239.00099057 C13.79336165 243.48204158 13.78947868 247.96309247 13.78551483 252.4441433 C13.7847279 253.33623863 13.78394097 254.22833396 13.78313019 255.14746249 C13.77007681 269.59153035 13.74642333 284.0355624 13.71885137 298.47960901 C13.6907953 313.30088805 13.67413307 328.12214833 13.66804427 342.94345284 C13.66392825 352.08875253 13.65092876 361.23395095 13.62656035 370.37921947 C13.61070069 376.65074788 13.60590992 382.92222394 13.60980562 389.19377095 C13.61172681 392.81195757 13.60878476 396.42996725 13.59269333 400.04812241 C13.57536372 403.97340754 13.58135144 407.89846276 13.5895462 411.82378197 C13.58080768 412.96387278 13.57206915 414.10396358 13.56306583 415.2786026 C13.61593864 424.63901089 15.44020759 431.36647729 21.907341 438.37138939 C25.4543316 441.43685736 30.15268639 444.13701439 34.95030975 444.13701439 C34.95030975 338.86701439 34.95030975 233.59701439 34.95030975 125.13701439 C28.02030975 125.13701439 21.09030975 125.13701439 13.95030975 125.13701439 Z M50.95030975 162.13701439 C50.88843475 211.28638939 50.82655975 260.43576439 50.76280975 311.07451439 C50.73549774 326.6024807 50.70818573 342.13044701 50.68004608 358.12895775 C50.67001375 372.02923293 50.67001375 372.02923293 50.66397858 385.92951012 C50.66117985 392.12831594 50.65017062 398.32704075 50.63358307 404.52582359 C50.61447841 411.67583247 50.60580395 418.82576357 50.6099749 425.97579816 C50.61178113 429.63286548 50.60892979 433.289759 50.59266436 436.94679439 C50.57534005 440.86577091 50.58133534 444.78451683 50.5895462 448.70352745 C50.58080821 449.84037766 50.57207022 450.97722788 50.56306744 452.1485281 C50.61349706 461.09677627 51.83009718 468.96045756 58.18895298 475.64607859 C65.59654949 481.91638737 74.16414635 481.7087158 83.41797638 481.64494896 C84.88022797 481.6495632 86.34247491 481.65591963 87.80471224 481.66385794 C91.8052177 481.68050251 95.80533978 481.6723273 99.80584633 481.65991306 C104.1269709 481.65084492 108.44803057 481.66484098 112.76914215 481.67583275 C121.22694232 481.6936033 129.68460036 481.68978465 138.14240605 481.67818218 C145.01665828 481.66914297 151.89087072 481.66792597 158.76512718 481.67227745 C159.74407587 481.67289038 160.72302456 481.67350331 161.73163835 481.67413482 C163.72043671 481.67541374 165.70923505 481.67671059 167.69803338 481.67802519 C186.33913984 481.68942654 204.98016757 481.67632394 223.62126111 481.65482372 C239.61290072 481.63695035 255.60442419 481.64005969 271.59606171 481.65849876 C290.17271681 481.67990849 308.74930296 481.68833089 327.32596868 481.67604971 C329.30708181 481.67477553 331.28819494 481.67351804 333.26930809 481.67227745 C334.24402254 481.67166035 335.21873699 481.67104325 336.22298824 481.67040744 C343.08874233 481.66695506 349.95445265 481.67278042 356.82019997 481.68219566 C365.18753027 481.69341802 373.55471048 481.69037047 381.9220236 481.66907269 C386.19039788 481.6585659 390.45852199 481.65443409 394.72689438 481.6676693 C398.63583893 481.67960665 402.5443019 481.67300888 406.4532029 481.65175909 C407.86557887 481.64729871 409.2779957 481.64954667 410.69034529 481.65926224 C420.14206624 481.71928271 426.29301302 481.05337755 433.70030975 474.82451439 C439.89128705 467.42973595 440.52673769 462.27722858 440.43132782 452.79218102 C440.43475189 451.5518763 440.43817596 450.31157158 440.4417038 449.03368187 C440.44716324 445.59590626 440.43465564 442.15904526 440.41460067 438.72138007 C440.39710782 434.95563514 440.40298083 431.18991252 440.40587234 427.42413807 C440.40799727 420.11731547 440.38954489 412.81068983 440.36386703 405.50391781 C440.3350498 397.05050193 440.33188711 388.59720408 440.32872772 380.14372826 C440.3077324 357.82895912 440.25188786 335.51423379 440.20030975 313.19951439 C440.07655975 238.42357689 440.07655975 238.42357689 439.95030975 162.13701439 C311.58030975 162.13701439 183.21030975 162.13701439 50.95030975 162.13701439 Z " fill="#fff" transform="translate(47.04969024658203,6.862985610961914)"/>
<path d="M0 0 C1.0670517 -0.00700928 2.13410339 -0.01401855 3.23348999 -0.02124023 C6.76399689 -0.03885902 10.29370356 -0.02718305 13.82421875 -0.01367188 C16.27514805 -0.01636565 18.72607631 -0.02024712 21.17700195 -0.02526855 C26.31504485 -0.0311689 31.45280971 -0.022583 36.59082031 -0.00390625 C43.1820336 0.01888311 49.77259541 0.00576297 56.36378479 -0.01819611 C61.42522097 -0.03263931 66.48650231 -0.02805477 71.54794312 -0.01768494 C73.97846554 -0.01501359 76.40900196 -0.01830168 78.83950806 -0.02760315 C82.23453091 -0.03774395 85.62849375 -0.0223008 89.0234375 0 C90.53531143 -0.01214539 90.53531143 -0.01214539 92.07772827 -0.02453613 C98.84914136 0.05800882 98.84914136 0.05800882 102.13208008 2.33508301 C104.2018378 5.60929982 104.11007432 7.72799283 103.51171875 11.51757812 C101.48370858 14.41468609 99.87603169 16.23167785 96.322752 16.97628975 C93.53762807 17.16334144 90.7930228 17.18148323 88.00170898 17.14868164 C86.41554276 17.1594146 86.41554276 17.1594146 84.79733276 17.17036438 C81.30455229 17.18726317 77.81305301 17.16784177 74.3203125 17.14648438 C71.89323317 17.14731289 69.4661539 17.14977163 67.03907776 17.15379333 C61.95402119 17.15665209 56.86940489 17.14194062 51.78442383 17.11450195 C45.26159602 17.08040165 38.73955468 17.0864431 32.21668911 17.10516453 C27.20585049 17.11572459 22.1951954 17.1068059 17.18437386 17.09177971 C14.77897753 17.0865914 12.37356209 17.08708752 9.96816826 17.09332466 C6.60913633 17.09876532 3.25123693 17.07843762 -0.10766602 17.05102539 C-1.60315727 17.06081421 -1.60315727 17.06081421 -3.12886047 17.07080078 C-9.85823636 16.97726114 -9.85823636 16.97726114 -13.10386658 14.60923767 C-14.59794885 12.35188552 -15.03022158 11.20175946 -14.98828125 8.51757812 C-15.00375 7.52757812 -15.00375 7.52757812 -15.01953125 6.51757812 C-13.03486399 -0.95411037 -6.31818819 -0.05075611 0 0 Z " fill="#fff" transform="translate(251.48828125,303.482421875)"/>
<path d="M0 0 C0.83121368 -0.0049649 1.66242737 -0.00992981 2.51882935 -0.01504517 C5.27053656 -0.02965864 8.02218613 -0.03646718 10.77392578 -0.04199219 C12.68580121 -0.04774399 14.59767661 -0.05350172 16.509552 -0.05926514 C20.51939157 -0.06977258 24.5292111 -0.07561703 28.5390625 -0.07910156 C33.67615599 -0.08458796 38.81298464 -0.10862019 43.94999504 -0.13707352 C47.89967624 -0.15569976 51.84929363 -0.16090547 55.79901505 -0.16243744 C57.69283624 -0.16546416 59.58665631 -0.17349334 61.48043442 -0.18662262 C64.13039038 -0.203684 66.77969885 -0.20180279 69.4296875 -0.1953125 C70.6018985 -0.20913467 70.6018985 -0.20913467 71.79779053 -0.22323608 C76.31809527 -0.18856819 79.25911133 0.33976925 82.84423828 3.16113281 C84.37270489 6.21806604 84.07666273 8.79097828 83.84423828 12.16113281 C82.08408697 15.34616851 81.34532912 15.99410253 77.84423828 17.16113281 C75.11739969 17.26774786 72.4157442 17.31838451 69.68847656 17.32226562 C68.85726288 17.32723053 68.02604919 17.33219543 67.16964722 17.33731079 C64.41794001 17.35192426 61.66629043 17.3587328 58.91455078 17.36425781 C57.00267536 17.37000962 55.09079995 17.37576735 53.17892456 17.38153076 C49.16908499 17.39203821 45.15926546 17.39788266 41.14941406 17.40136719 C36.01232058 17.40685358 30.87549192 17.43088581 25.73848152 17.45933914 C21.78880032 17.47796539 17.83918293 17.4831711 13.88946152 17.48470306 C11.99564032 17.48772978 10.10182025 17.49575896 8.20804214 17.50888824 C5.55808618 17.52594963 2.90877772 17.52406842 0.25878906 17.51757812 C-0.91342194 17.5314003 -0.91342194 17.5314003 -2.10931396 17.54550171 C-6.62961871 17.51083381 -9.57063476 16.98249638 -13.15576172 14.16113281 C-14.68422833 11.10419959 -14.38818617 8.53128734 -14.15576172 5.16113281 C-10.92890435 -0.67794242 -6.01806563 0.00856417 0 0 Z " fill="#fff" transform="translate(389.15576171875,376.8388671875)"/>
<path d="M0 0 C1.30797043 -0.01073296 1.30797043 -0.01073296 2.6423645 -0.02168274 C5.52382853 -0.03858728 8.40374057 -0.01915718 11.28515625 0.00219727 C13.28768035 0.00136873 15.29020438 -0.00109008 17.29272461 -0.00511169 C21.48930333 -0.0079709 25.68534869 0.00674364 29.88183594 0.03417969 C35.26244364 0.0682625 40.6420975 0.06224533 46.02275085 0.04351711 C50.15775509 0.03295107 54.29253718 0.04188138 58.42752075 0.05690193 C60.4114618 0.06208711 62.39542601 0.06159789 64.37936401 0.05535698 C67.15185469 0.0499096 69.92297764 0.07026429 72.6953125 0.09765625 C73.51621368 0.09113037 74.33711487 0.08460449 75.18289185 0.07788086 C78.82082715 0.13903178 80.91689142 0.30327758 83.85522461 2.53944397 C85.4720902 4.80549907 85.89066921 5.87827413 85.84765625 8.63110352 C85.863125 9.62110352 85.863125 9.62110352 85.87890625 10.63110352 C85.07296975 13.66521738 83.84662053 14.7241938 81.34765625 16.63110352 C78.37625283 17.03079271 75.77440084 17.18849107 72.80297852 17.16455078 C71.94235809 17.17316635 71.08173767 17.18178192 70.19503784 17.19065857 C67.35107315 17.21335521 64.50809096 17.2065727 61.6640625 17.19750977 C59.68635261 17.20274396 57.70864522 17.20901969 55.73094177 17.21629333 C51.58572647 17.22670456 47.44085429 17.22212603 43.2956543 17.20751953 C37.98454903 17.19033642 32.67452607 17.21381747 27.3635416 17.24900913 C23.27911718 17.27097496 19.19495201 17.26954352 15.11048698 17.26124382 C13.15247346 17.26042374 11.19444101 17.2672979 9.23648262 17.28201485 C6.49755579 17.29944442 3.76057711 17.28493188 1.02172852 17.26220703 C0.21377335 17.27389923 -0.59418182 17.28559143 -1.42662048 17.29763794 C-5.64701562 17.22642713 -7.2150245 16.97315856 -10.65931702 14.27915955 C-12.65234375 11.63110352 -12.65234375 11.63110352 -13.21484375 8.63110352 C-11.75036618 0.82055645 -7.14341063 -0.1017445 0 0 Z " fill="#fff" transform="translate(386.65234375,303.368896484375)"/>
<path d="M0 0 C0.75318512 -0.0049649 1.50637024 -0.00992981 2.28237915 -0.01504517 C4.77436232 -0.0296517 7.26628184 -0.03646605 9.75830078 -0.04199219 C11.49081423 -0.04774462 13.22332765 -0.05350234 14.95584106 -0.05926514 C18.58905331 -0.06977065 22.22224345 -0.07561634 25.85546875 -0.07910156 C30.50830107 -0.0845872 35.16084089 -0.1086185 39.81358147 -0.13707352 C43.39267834 -0.15570707 46.97170482 -0.16090586 50.5508461 -0.16243744 C52.26603928 -0.16546257 53.98123126 -0.17348643 55.6963768 -0.18662262 C58.09728953 -0.20369934 60.49748849 -0.20179922 62.8984375 -0.1953125 C63.60510559 -0.20452728 64.31177368 -0.21374207 65.03985596 -0.22323608 C69.3834772 -0.1865197 72.12149916 0.50047367 75.57861328 3.16113281 C77.14796922 6.29984469 76.93062431 8.69969103 76.57861328 12.16113281 C73.89522651 15.71011394 72.40072433 17.01633074 67.97387695 17.79605103 C66.56508224 17.82557445 65.15554772 17.82785044 63.74658203 17.80810547 C62.97359772 17.81686707 62.2006134 17.82562866 61.40420532 17.83465576 C58.85759795 17.85660247 56.31273725 17.84211523 53.76611328 17.82519531 C51.99161446 17.82856484 50.21711789 17.8334186 48.44262695 17.83969116 C44.72698961 17.84705604 41.01195401 17.83636974 37.29638672 17.81298828 C32.53787845 17.78450031 27.78078017 17.80090641 23.02232361 17.8308506 C19.35906383 17.84893424 15.69613735 17.84316075 12.03286743 17.83021164 C10.27861361 17.82688055 8.52432935 17.83095428 6.77011108 17.84260941 C4.31614249 17.85533632 1.86444433 17.83591872 -0.58935547 17.80810547 C-1.67269669 17.8232872 -1.67269669 17.8232872 -2.77792358 17.83877563 C-6.62649964 17.75812289 -8.31413386 17.24516503 -11.37963867 14.84335327 C-13.42138672 12.16113281 -13.42138672 12.16113281 -13.92138672 8.59863281 C-13.40825767 5.07087061 -12.95950763 3.60524924 -10.42138672 1.16113281 C-6.88480725 -0.01772701 -3.68037543 0.00578872 0 0 Z " fill="#fff" transform="translate(236.42138671875,265.8388671875)"/>
<path d="M0 0 C0.82175217 -0.0087616 1.64350433 -0.01752319 2.49015808 -0.02655029 C5.19905834 -0.04850773 7.90631833 -0.03400528 10.61523438 -0.01708984 C12.50183423 -0.02045905 14.38843198 -0.02531253 16.27502441 -0.03158569 C20.22604062 -0.03895205 24.17649105 -0.02825922 28.12744141 -0.00488281 C33.18859134 0.02360491 38.2484156 0.00719966 43.30951691 -0.02274513 C47.20438604 -0.04082457 51.09894155 -0.03505713 54.99382019 -0.02210617 C56.85971738 -0.01877394 58.72564317 -0.02285282 60.59150696 -0.03450394 C63.20109317 -0.04722354 65.80854156 -0.02782195 68.41796875 0 C69.57144051 -0.01518173 69.57144051 -0.01518173 70.74821472 -0.03067017 C74.72706596 0.0478054 76.5298114 0.50564582 79.6920166 2.99990845 C81.70898438 5.64697266 81.70898438 5.64697266 82.27148438 8.64697266 C81.5529457 12.4791789 80.54605518 13.96435068 77.70898438 16.64697266 C74.72766535 17.15080947 72.31353807 17.33200589 69.33203125 17.29394531 C68.48931168 17.30270691 67.6465921 17.31146851 66.77833557 17.32049561 C63.9942772 17.34249221 61.21180872 17.32793645 58.42773438 17.31103516 C56.49246923 17.31440323 54.55720614 17.31925577 52.62194824 17.32553101 C48.56660822 17.33290268 44.51181896 17.32218732 40.45654297 17.29882812 C35.25739455 17.2703402 30.05953655 17.28674259 24.86043549 17.31669044 C20.86438264 17.33475545 16.86863591 17.32900905 12.87257385 17.31605148 C10.95561063 17.31271526 9.03861964 17.31681213 7.12168884 17.32844925 C4.44235595 17.34114496 1.76511451 17.32180021 -0.9140625 17.29394531 C-2.10333595 17.30912704 -2.10333595 17.30912704 -3.31663513 17.32461548 C-7.19005854 17.24998356 -8.91856915 16.99914332 -11.77941895 14.29403687 C-13.65363751 11.01195975 -13.98859032 9.367371 -13.29101562 5.64697266 C-9.425211 0.5734989 -6.08197281 -0.08004954 0 0 Z " fill="#fff" transform="translate(391.291015625,229.35302734375)"/>
<path d="M0 0 C0.79234543 -0.00700928 1.58469086 -0.01401855 2.40104675 -0.02124023 C5.01780342 -0.03883166 7.63347664 -0.0271928 10.25024414 -0.01367188 C12.07101143 -0.01636674 13.89177731 -0.02024912 15.71253967 -0.02526855 C19.52822575 -0.03116537 23.34353718 -0.02259585 27.15917969 -0.00390625 C32.04644873 0.01886732 36.93283836 0.00577167 41.82007504 -0.01819611 C45.58023176 -0.03266302 49.34018066 -0.02804373 53.1003437 -0.01768494 C54.90204536 -0.01501928 56.70376597 -0.01828177 58.50544548 -0.02760315 C61.02627256 -0.03778182 63.54568437 -0.0222497 66.06640625 0 C67.18015625 -0.01214539 67.18015625 -0.01214539 68.31640625 -0.02453613 C73.17188024 0.05471438 75.70615945 1.03375246 79.09790039 4.51757812 C79.72680664 6.51757812 79.72680664 6.51757812 79.66040039 8.51757812 C79.66168945 9.17757813 79.66297852 9.83757812 79.66430664 10.51757812 C78.81551874 13.51467747 77.56658195 14.61373351 75.09790039 16.51757812 C72.26141826 16.90709591 69.81475926 17.05504257 66.98046875 17.01928711 C66.16540359 17.02469009 65.35033844 17.03009308 64.51057434 17.03565979 C61.8192604 17.04815663 59.12901412 17.03165163 56.43774414 17.01367188 C54.56734664 17.01382683 52.69694881 17.01531516 50.82655334 17.01808167 C46.9083129 17.01946603 42.99043835 17.00690012 39.07226562 16.98413086 C34.04591168 16.95572648 29.02016484 16.95848835 23.99376583 16.97122097 C20.13247985 16.97816985 16.27133462 16.97039827 12.4100666 16.95796394 C10.5564789 16.95344312 8.70287612 16.95311814 6.84928703 16.95702934 C4.26118767 16.95993433 1.67393053 16.94346999 -0.9140625 16.92163086 C-2.06665054 16.92838333 -2.06665054 16.92838333 -3.24252319 16.93527222 C-8.41346648 16.86263862 -8.41346648 16.86263862 -10.87425232 15.12489319 C-12.22160853 13.01794018 -12.3353971 11.57216602 -12.33959961 9.08007812 C-12.35893555 8.31824219 -12.37827148 7.55640625 -12.39819336 6.77148438 C-10.95321214 0.20649098 -5.76532541 -0.06269964 0 0 Z " fill="#fff" transform="translate(260.902099609375,450.482421875)"/>
<path d="M0 0 C0.69626999 -0.00335861 1.39253998 -0.00671722 2.10990906 -0.01017761 C4.41191389 -0.01967773 6.71384592 -0.02163019 9.01586914 -0.02270508 C10.61625702 -0.02591811 12.2166446 -0.02928222 13.81703186 -0.03279114 C17.17197348 -0.03877991 20.52688935 -0.04063128 23.88183594 -0.04003906 C28.18046987 -0.03993741 32.47893874 -0.05359402 36.77753353 -0.07081127 C40.08293924 -0.08192989 43.388305 -0.08395832 46.69372749 -0.08342934 C48.27855562 -0.08460949 49.86338478 -0.08903326 51.4481945 -0.0967617 C53.66479942 -0.10655966 55.88104555 -0.10368456 58.09765625 -0.09765625 C59.98936806 -0.09979378 59.98936806 -0.09979378 61.91929626 -0.10197449 C64.94940921 0.13256083 66.60837145 0.48935624 69.11352539 2.14526367 C71.66097826 5.29925293 71.19199251 8.41644979 70.89086914 12.24291992 C69.69632682 15.16624711 67.9172234 15.78423001 65.11352539 17.14526367 C61.8125 17.5262146 61.8125 17.5262146 58.01586914 17.53344727 C56.97343552 17.5413327 56.97343552 17.5413327 55.90994263 17.54937744 C53.62340509 17.56253097 51.33756944 17.55385639 49.05102539 17.54370117 C47.45589057 17.54572326 45.86075666 17.54863582 44.265625 17.55239868 C40.92674943 17.55681572 37.58811506 17.55041112 34.24926758 17.53637695 C29.9753245 17.51928525 25.70194664 17.52912978 21.42802429 17.54709435 C18.13541425 17.55794905 14.84293761 17.55447814 11.55032349 17.54671097 C9.97470024 17.54471362 8.39906478 17.54715188 6.82345581 17.55414963 C4.61903934 17.56179214 2.41553071 17.55012195 0.21118164 17.53344727 C-1.04170654 17.53106049 -2.29459473 17.52867371 -3.58544922 17.5262146 C-7.15024449 17.11482362 -9.04240929 16.29383721 -11.88647461 14.14526367 C-13.41494122 11.08833045 -13.11889906 8.5154182 -12.88647461 5.14526367 C-9.84904306 -0.35104104 -5.81983451 0.01760155 0 0 Z " fill="#fff" transform="translate(170.886474609375,376.854736328125)"/>
<path d="M0 0 C0.76439896 -0.0065712 1.52879791 -0.0131424 2.31636047 -0.01991272 C4.85104465 -0.03965629 7.38566958 -0.05130978 9.92041016 -0.0612793 C11.21752867 -0.06739259 11.21752867 -0.06739259 12.54085159 -0.07362938 C17.11658744 -0.09449327 21.69229326 -0.10879437 26.26806641 -0.11816406 C30.99845892 -0.12923751 35.72838219 -0.16364701 40.45860863 -0.20333576 C44.09256883 -0.22945526 47.72641636 -0.23785166 51.36046219 -0.24144554 C53.10440876 -0.24632254 54.84834994 -0.25796812 56.59220505 -0.27648354 C59.03190288 -0.30077964 61.470375 -0.29992808 63.91015625 -0.29296875 C64.99193398 -0.31218384 64.99193398 -0.31218384 66.0955658 -0.33178711 C69.53108179 -0.2960391 71.28345273 -0.05731971 74.03091431 2.08137512 C75.71553668 4.35379691 76.12810808 5.38433475 76.08447266 8.17700195 C76.09994141 9.16700195 76.09994141 9.16700195 76.11572266 10.17700195 C75.31949721 13.17455658 74.02525831 14.27350909 71.58447266 16.17700195 C68.89893637 16.5667816 66.62444528 16.71482969 63.94189453 16.67871094 C63.17720352 16.68411392 62.41251251 16.68951691 61.62464905 16.69508362 C59.10044484 16.70757678 56.57737995 16.69107689 54.05322266 16.6730957 C52.29732198 16.67325068 50.54142096 16.67473941 48.78552246 16.67750549 C45.106861 16.67888974 41.42858931 16.66632725 37.75 16.64355469 C33.03537088 16.61516985 28.32138938 16.61790697 23.60671234 16.6306448 C19.98128735 16.63760083 16.35601197 16.62981358 12.73060608 16.61738777 C10.9922798 16.61287253 9.25393747 16.61253711 7.51560974 16.61645317 C5.08575538 16.61936469 2.65679247 16.60286209 0.22705078 16.58105469 C-0.49099228 16.58555634 -1.20903534 16.59005798 -1.94883728 16.59469604 C-6.03532205 16.53377954 -8.50905656 16.14678739 -11.41552734 13.17700195 C-12.90653888 9.59857427 -12.40384431 8.14362185 -11.10302734 4.42700195 C-8.39437283 -0.789666 -5.35566067 0.01985685 0 0 Z " fill="#fff" transform="translate(319.41552734375,340.822998046875)"/>
<path d="M0 0 C0.69641602 -0.00540298 1.39283203 -0.01080597 2.11035156 -0.01637268 C4.40733631 -0.02885767 6.70306698 -0.01237216 9 0.00561523 C10.598959 0.00546024 12.19791838 0.00397117 13.796875 0.00120544 C17.14600253 -0.00017843 20.49470176 0.01237717 23.84375 0.03515625 C28.13465975 0.0635412 32.42485791 0.06080359 36.71582031 0.04806614 C40.01698881 0.04110795 43.3179931 0.04889977 46.61914062 0.06132317 C48.20116547 0.06583634 49.78320795 0.06617563 51.36523438 0.06225777 C53.57718986 0.05934408 55.78816808 0.07585842 58 0.09765625 C59.258125 0.10305923 60.51625 0.10846222 61.8125 0.11402893 C65.2298278 0.52966182 66.63258599 1.03996833 69 3.50170898 C70.10373378 7.4751506 70.41543583 9.5917067 68.6875 13.37670898 C67 15.50170898 67 15.50170898 65 16.50170898 C62.74439037 16.61435282 60.4854027 16.66110261 58.22705078 16.67871094 C57.53092682 16.68528214 56.83480286 16.69185333 56.11758423 16.69862366 C53.81015927 16.71836097 51.50279936 16.7300194 49.1953125 16.73999023 C48.40779476 16.74406576 47.62027702 16.74814129 46.80889511 16.75234032 C42.64164237 16.77320172 38.47442258 16.78750378 34.30712891 16.796875 C30.00045458 16.80794693 25.6942959 16.84235511 21.38780403 16.8820467 C18.07810497 16.90817475 14.76852955 16.91656335 11.45873642 16.92015648 C9.87108752 16.92503142 8.28344447 16.93667126 6.69589615 16.95519447 C4.47409263 16.97950904 2.25363374 16.978636 0.03173828 16.97167969 C-1.23241913 16.97754593 -2.49657654 16.98341217 -3.79904175 16.98945618 C-7.56125649 16.41618732 -8.72655976 15.49111987 -11 12.50170898 C-11.53125 10.50170898 -11.53125 10.50170898 -11.5 8.50170898 C-11.51546875 7.51170898 -11.51546875 7.51170898 -11.53125 6.50170898 C-9.93885827 0.50682247 -5.49771175 0.00072612 0 0 Z " fill="#fff" transform="translate(311,192.498291015625)"/>
<path d="M0 0 C1.26481201 -0.00953201 2.52962402 -0.01906403 3.83276367 -0.02888489 C5.20491565 -0.02862347 6.57706764 -0.02768646 7.94921875 -0.02612305 C9.36499151 -0.03001305 10.7807631 -0.03434835 12.1965332 -0.03910828 C15.15872996 -0.04655581 18.12080749 -0.04628949 21.08300781 -0.04101562 C24.87267188 -0.03521668 28.66184789 -0.05216883 32.45143127 -0.0753603 C35.37344194 -0.09011352 38.2953354 -0.09096731 41.21737671 -0.08785057 C42.61437956 -0.08836278 44.01138914 -0.09358177 45.40835571 -0.10366249 C47.36334481 -0.11604172 49.31843292 -0.10728402 51.2734375 -0.09765625 C52.93959106 -0.09860039 52.93959106 -0.09860039 54.6394043 -0.0995636 C58.02501138 0.32313746 59.90962831 1.25688577 62.63671875 3.2746582 C64.20607469 6.41337008 63.98872978 8.81321642 63.63671875 12.2746582 C61.11645487 15.48362929 59.61114901 17.07761243 55.56347656 17.89611816 C54.41717773 17.89406372 53.27087891 17.89200928 52.08984375 17.88989258 C50.13256348 17.90385071 50.13256348 17.90385071 48.13574219 17.91809082 C46.71938999 17.90250353 45.30304848 17.88591844 43.88671875 17.8684082 C42.42610777 17.86669594 40.96549372 17.86676396 39.50488281 17.86853027 C36.44826736 17.86687923 33.39238728 17.84822272 30.3359375 17.81665039 C26.42512827 17.77697257 22.51528141 17.77260629 18.60430908 17.78011322 C15.58959188 17.78318812 12.57508957 17.77104409 9.5604248 17.75398254 C8.11878813 17.74696947 6.67712711 17.74382595 5.23547363 17.74467468 C3.21811204 17.7428698 1.20080618 17.71917871 -0.81640625 17.69458008 C-1.96270508 17.68616089 -3.10900391 17.6777417 -4.29003906 17.66906738 C-7.70674767 17.23057892 -9.61561468 16.32012242 -12.36328125 14.2746582 C-13.74274482 10.89878505 -13.65741218 7.39235572 -12.73828125 3.8996582 C-9.45967205 0.02493824 -4.75857551 0.01973823 0 0 Z " fill="#fff" transform="translate(408.36328125,265.725341796875)"/>
<path d="M0 0 C0.68826874 -0.00554901 1.37653748 -0.01109802 2.08566284 -0.01681519 C4.35526681 -0.02860353 6.62287047 -0.00435116 8.89233398 0.02148438 C10.47126677 0.02319561 12.0502024 0.02312967 13.62913513 0.0213623 C16.93548829 0.02301499 20.24116294 0.04170426 23.54736328 0.07324219 C27.78683132 0.11295284 32.0254121 0.11728358 36.26503086 0.10977936 C39.52414591 0.10671126 42.78306119 0.1188238 46.04212761 0.13591003 C47.60543502 0.14294386 49.16876508 0.1460641 50.73208809 0.1452179 C52.91555921 0.1470141 55.09796323 0.16837732 57.28125 0.1953125 C58.52383072 0.20373169 59.76641144 0.21215088 61.04664612 0.2208252 C64.07592773 0.61523438 64.07592773 0.61523438 65.94590759 1.93054199 C67.83919965 4.75315956 67.96048257 7.26732451 68.07592773 10.61523438 C66.73030374 13.56279169 65.99038229 15.1580071 63.07592773 16.61523438 C60.91760558 16.73275829 58.75563491 16.78506188 56.59423828 16.80810547 C55.92898132 16.81628296 55.26372437 16.82446045 54.57830811 16.83288574 C52.37309672 16.85773132 50.16794969 16.87425379 47.96264648 16.88867188 C47.20947458 16.89399555 46.45630268 16.89931923 45.68030739 16.90480423 C41.69345746 16.9315327 37.70663882 16.95090816 33.71972656 16.96533203 C29.60358594 16.98197602 25.48824662 17.02675129 21.37240887 17.07770348 C18.20592846 17.11137558 15.03963823 17.12290932 11.87299538 17.12855911 C10.35592337 17.13527222 8.83886391 17.15049613 7.32196617 17.17444992 C5.1959156 17.20610632 3.07202559 17.20613936 0.94580078 17.19873047 C-0.8671624 17.21086075 -0.8671624 17.21086075 -2.7167511 17.22323608 C-6.85549915 16.43866673 -8.337688 14.87129922 -10.92407227 11.61523438 C-11.63090758 7.84544604 -11.30605642 6.2467204 -9.32167053 2.96618652 C-6.13101749 -0.16239124 -4.42002203 -0.00730325 0 0 Z " fill="#fff" transform="translate(222.924072265625,192.384765625)"/>
<path d="M0 0 C0.64779419 -0.00540298 1.29558838 -0.01080597 1.9630127 -0.01637268 C4.0922697 -0.02882309 6.22016478 -0.01239782 8.34936523 0.00561523 C9.83479381 0.00546018 11.32022279 0.00397007 12.8056488 0.00120544 C15.91342124 -0.00017681 19.02073118 0.01235124 22.12841797 0.03515625 C26.10879808 0.06356572 30.08841154 0.06079482 34.06884861 0.04806614 C37.13411492 0.04110705 40.19920444 0.04890034 43.26444817 0.06132317 C44.73203796 0.06583373 46.19964675 0.06617791 47.66723824 0.06225777 C49.71865807 0.05934251 51.76902576 0.07586433 53.8203125 0.09765625 C54.98659683 0.10305923 56.15288116 0.10846222 57.35450745 0.11402893 C60.62697833 0.53819886 62.00113283 1.22547538 64.34545898 3.50170898 C65.09545898 5.36889648 65.09545898 5.36889648 65.34545898 7.37670898 C65.44858398 8.03413086 65.55170898 8.69155273 65.65795898 9.36889648 C65.17431148 12.6697907 63.67657648 14.16536138 61.34545898 16.50170898 C58.27185059 17.12989807 58.27185059 17.12989807 54.62084961 17.1328125 C53.95369431 17.1399678 53.286539 17.14712311 52.59916687 17.15449524 C50.39931231 17.17137016 48.20149948 17.15199083 46.00170898 17.13061523 C44.47000968 17.13144406 42.93831046 17.13390398 41.40661621 17.13792419 C38.19862043 17.14078132 34.99132318 17.12609063 31.78344727 17.09863281 C27.67396327 17.06454905 23.56572818 17.0705684 19.45618439 17.08929539 C16.29394139 17.09987044 13.13198838 17.0909232 9.96977234 17.07591057 C8.45473594 17.07073193 6.93966921 17.07120673 5.42463684 17.07745552 C3.30578639 17.08291431 1.18871588 17.06251623 -0.92993164 17.03515625 C-2.13476196 17.02895767 -3.33959229 17.02275909 -4.58093262 17.01637268 C-8.24029315 16.40362708 -9.41584767 15.40094038 -11.65454102 12.50170898 C-12.22094727 10.50170898 -12.22094727 10.50170898 -12.21704102 8.50170898 C-12.23895508 7.84170898 -12.26086914 7.18170898 -12.28344727 6.50170898 C-10.48744857 0.79021004 -5.27353521 0.00075084 0 0 Z " fill="#fff" transform="translate(169.654541015625,450.498291015625)"/>
<path d="M0 0 C1.30485352 -0.01253311 2.60970703 -0.02506622 3.95410156 -0.03797913 C5.37045289 -0.02571045 6.78679464 -0.01229037 8.203125 0.00219727 C9.66373878 0.00136805 11.12435245 -0.00109334 12.58496094 -0.00511169 C15.64156283 -0.00796597 18.69743044 0.00669358 21.75390625 0.03417969 C25.66486559 0.06826323 29.57451249 0.06224153 33.48553467 0.04351711 C36.50027333 0.03293027 39.51470848 0.04189994 42.52941895 0.05690193 C43.97106016 0.06207194 45.41273322 0.06161629 46.85437012 0.05535698 C48.87170527 0.04988554 50.88905599 0.07317461 52.90625 0.09765625 C54.05254883 0.10385483 55.19884766 0.11005341 56.37988281 0.11643982 C60.10150625 0.73968536 61.78666477 2.01009258 64.453125 4.63110352 C65.046875 6.63110352 65.046875 6.63110352 64.953125 8.63110352 C64.9428125 9.29110352 64.9325 9.95110352 64.921875 10.63110352 C64.28466187 13.34987953 63.42439406 14.63425616 61.453125 16.63110352 C58.49977112 17.14576721 58.49977112 17.14576721 54.84204102 17.16455078 C54.17503174 17.17316635 53.50802246 17.18178192 52.82080078 17.19065857 C50.61581619 17.21336213 48.41209818 17.20657231 46.20703125 17.19750977 C44.67390057 17.20274388 43.14077312 17.20901957 41.60765076 17.21629333 C38.39379734 17.22670585 35.18038643 17.22212494 31.96655273 17.20751953 C27.84907193 17.19033879 23.73298749 17.21381168 19.61566257 17.24900913 C16.44914004 17.27097829 13.28295181 17.26954287 10.11637688 17.26124382 C8.59852505 17.26042384 7.0806488 17.26729625 5.56286812 17.28201485 C3.43890955 17.29945214 1.31746137 17.2849309 -0.80639648 17.26220703 C-2.01424301 17.26124527 -3.22208954 17.26028351 -4.46653748 17.2592926 C-7.546875 16.63110352 -7.546875 16.63110352 -9.93299866 14.27915955 C-11.93172529 10.99963931 -12.25481731 9.40679584 -11.546875 5.63110352 C-7.94344202 1.14276974 -5.71654545 0.00479627 0 0 Z " fill="#fff" transform="translate(361.546875,450.368896484375)"/>
<path d="M0 0 C1.30808121 -0.01253311 2.61616241 -0.02506622 3.96388245 -0.03797913 C5.3834025 -0.02571175 6.802913 -0.01229187 8.22241211 0.00219727 C9.68542151 0.00136813 11.14843082 -0.00109294 12.61143494 -0.00511169 C15.67223265 -0.00796568 18.73229695 0.0066926 21.79296875 0.03417969 C25.71299325 0.06829342 29.63170942 0.06223125 33.55179691 0.04351711 C36.57078428 0.0329417 39.58946792 0.04188905 42.60842705 0.05690193 C44.05368586 0.06207829 45.49897647 0.06160853 46.94423103 0.05535698 C48.96416461 0.04989818 50.98411403 0.07314449 53.00390625 0.09765625 C54.15242569 0.10385483 55.30094513 0.11005341 56.48426819 0.11643982 C60.05669892 0.73906362 61.2353648 1.8075161 63.43725586 4.63110352 C63.96850586 6.63110352 63.96850586 6.63110352 63.93725586 8.63110352 C63.95272461 9.62110352 63.95272461 9.62110352 63.96850586 10.63110352 C63.1835964 13.58605679 61.80836467 14.72736911 59.43725586 16.63110352 C56.4395752 17.13903809 56.4395752 17.13903809 52.89624023 17.14868164 C51.92476799 17.15919556 51.92476799 17.15919556 50.93367004 17.16992188 C48.79900874 17.18748577 46.66567995 17.17588672 44.53100586 17.16235352 C43.04414618 17.16504894 41.55728822 17.16893178 40.07043457 17.1739502 C36.9566975 17.179843 33.84341992 17.17128998 30.72973633 17.15258789 C26.74134498 17.12979766 22.75403027 17.14292203 18.76567841 17.16687775 C15.69610503 17.1813421 12.62678631 17.17672699 9.5572052 17.16636658 C8.08681612 17.16370101 6.61640382 17.16696313 5.14604187 17.17628479 C3.08949685 17.18646186 1.03468742 17.17093754 -1.02172852 17.14868164 C-2.19102905 17.14549927 -3.36032959 17.14231689 -4.56506348 17.13903809 C-8.19918754 16.52326294 -9.38161497 15.55810257 -11.56274414 12.63110352 C-12.12524414 9.19360352 -12.12524414 9.19360352 -11.56274414 5.63110352 C-7.98425997 1.11256158 -5.71513779 0.0047825 0 0 Z " fill="#fff" transform="translate(303.562744140625,229.368896484375)"/>
<path d="M0 0 C2.96328619 2.05150582 3.81472499 3.25889995 4.6875 6.75 C3.63227732 11.73832538 0.52499054 14.45524315 -3 18 C-3.74121094 18.75539062 -4.48242188 19.51078125 -5.24609375 20.2890625 C-7.14895343 22.20888172 -9.06620808 24.11141361 -11 26 C-7.09151881 30.69017742 -3.02043854 35.05066053 1.36328125 39.30078125 C3.53721857 41.55773288 3.96322025 42.66898227 4.3125 45.8125 C3.91378388 49.8794044 3.11416229 51.35296205 0 54 C-3.95518528 54.79103706 -6.27992677 55.02141214 -9.76953125 52.94921875 C-11.98158803 51.08415127 -13.96597953 49.05952543 -16 47 C-17.26540565 45.82247927 -18.53391916 44.64829385 -19.8046875 43.4765625 C-21.18377607 42.17344415 -22.56136453 40.86873653 -23.9375 39.5625 C-24.61304932 38.94238037 -25.28859863 38.32226074 -25.98461914 37.68334961 C-29.57826656 34.18486179 -32.25439243 31.19706591 -32.45800781 26.01367188 C-31.4757187 21.69495086 -28.09333755 18.96911859 -25 16 C-23.62800545 14.5855086 -22.25691871 13.17013612 -20.88671875 11.75390625 C-19.48958576 10.35416424 -18.08983165 8.95703369 -16.6875 7.5625 C-15.97271484 6.84384766 -15.25792969 6.12519531 -14.52148438 5.38476562 C-13.83763672 4.70220703 -13.15378906 4.01964844 -12.44921875 3.31640625 C-11.83393311 2.70224854 -11.21864746 2.08809082 -10.5847168 1.45532227 C-7.093341 -1.7509774 -4.47293119 -1.00255354 0 0 Z " fill="#fff" transform="translate(140,185)"/>
<path d="M0 0 C2.69067383 1.93017578 2.69067383 1.93017578 5.20703125 4.4453125 C6.12291016 5.35796875 7.03878906 6.270625 7.98242188 7.2109375 C8.44704834 7.69014648 8.9116748 8.16935547 9.39038086 8.66308594 C10.80738982 10.11974682 12.2513919 11.54478432 13.70117188 12.96875 C21.99294674 21.36042577 21.99294674 21.36042577 23 28 C20.63463895 33.70013235 15.51105367 38.00738891 11.2409668 42.34936523 C10.28850852 43.32493906 9.34507146 44.30940234 8.41088867 45.30249023 C0.6902657 53.50878937 0.6902657 53.50878937 -3.37158203 54.68920898 C-6.62778249 54.75767876 -8.74545045 54.15909347 -11.5 52.4375 C-13.68071663 48.89383548 -13.75331723 47.10900306 -13 43 C-10.99167454 39.99932549 -8.56207365 37.53239712 -6 35 C-4.99839844 33.9790625 -4.99839844 33.9790625 -3.9765625 32.9375 C-2.33357608 31.27439538 -0.67578686 29.62994467 1 28 C-0.59930434 23.95864413 -3.48660409 21.32092848 -6.5625 18.375 C-12.90758528 12.24759871 -12.90758528 12.24759871 -13.25 7.625 C-12.99015512 3.85724926 -12.67186361 2.5729057 -10 0 C-6.16829438 -1.27723521 -3.92546287 -0.90674741 0 0 Z " fill="#fff" transform="translate(455,420)"/>
<path d="M0 0 C1.62071411 -0.00144264 1.62071411 -0.00144264 3.27416992 -0.00291443 C4.50224365 -0.01544754 5.73031738 -0.02798065 6.99560547 -0.04089355 C8.33196066 -0.02862516 9.6683057 -0.01520512 11.00463867 -0.00071716 C12.37939644 -0.00154614 13.75415411 -0.00400659 15.12890625 -0.00802612 C18.00738429 -0.01088225 20.88508339 0.0037968 23.76342773 0.03126526 C27.44921818 0.06534961 31.13361615 0.05932915 34.81947327 0.04060268 C37.65746626 0.03002323 40.49513638 0.0389787 43.33309937 0.0539875 C44.69183391 0.05916297 46.05060226 0.05869518 47.40933228 0.05244255 C49.30963512 0.04698012 51.20995471 0.07023885 53.11010742 0.09474182 C54.73082153 0.10403969 54.73082153 0.10403969 56.38427734 0.11352539 C59.85107852 0.74896871 61.03437985 1.89794778 63.19213867 4.62818909 C63.72338867 6.62818909 63.72338867 6.62818909 63.69213867 8.62818909 C63.70760742 9.61818909 63.70760742 9.61818909 63.72338867 10.62818909 C62.94397113 13.56246689 61.52863679 14.72286306 59.19213867 16.62818909 C56.42897034 17.14285278 56.42897034 17.14285278 53.21777344 17.16163635 C52.01294815 17.17747269 50.80812286 17.19330902 49.56678772 17.20962524 C48.2688176 17.20466537 46.97084747 17.19970551 45.63354492 17.19459534 C44.28360058 17.19983255 42.9336599 17.20610939 41.58372498 17.21337891 C38.75665042 17.22377871 35.93007931 17.21922913 33.10302734 17.2046051 C29.48669034 17.18742608 25.87194355 17.21090026 22.25578403 17.2460947 C19.46837409 17.26809738 16.68134292 17.26662047 13.89387321 17.25832939 C11.91468533 17.25711445 9.93552085 17.27702465 7.95643616 17.29727173 C-2.02786 17.1936818 -2.02786 17.1936818 -5.12841797 14.27638245 C-7.20656621 10.99950005 -7.52252484 9.4397278 -6.80786133 5.62818909 C-4.7961456 2.40943279 -3.77142554 0.8437626 0 0 Z " fill="#fff" transform="translate(408.807861328125,192.37181091308594)"/>
<path d="M0 0 C1.0271814 0.00205444 2.05436279 0.00410889 3.1126709 0.00622559 C4.28068237 -0.00307983 5.44869385 -0.01238525 6.65209961 -0.02197266 C7.90945923 -0.00557739 9.16681885 0.01081787 10.46228027 0.02770996 C11.75670044 0.02766968 13.05112061 0.02762939 14.38476562 0.02758789 C17.12203918 0.02923972 19.85849233 0.04790961 22.59558105 0.07946777 C26.09962439 0.11914655 29.60259379 0.12351258 33.10681915 0.11600494 C36.45460313 0.11219278 39.8020494 0.13301926 43.14978027 0.15270996 C44.40713989 0.15291138 45.66449951 0.15311279 46.95996094 0.15332031 C48.12797241 0.16923218 49.29598389 0.18514404 50.49938965 0.20153809 C51.52657104 0.20995728 52.55375244 0.21837646 53.61206055 0.22705078 C56.72046596 0.68213519 58.0889274 1.41872173 60.30603027 3.62145996 C61.41875766 7.62727854 61.7425493 9.70873835 59.93103027 13.49645996 C58.30603027 15.62145996 58.30603027 15.62145996 57.30603027 16.62145996 C55.4561869 16.74152354 53.60176596 16.79166289 51.74816895 16.81433105 C50.55991013 16.83039398 49.37165131 16.84645691 48.14738464 16.86300659 C42.70344114 16.90725717 37.25963227 16.94897129 31.81555176 16.97155762 C28.22722164 16.98819609 24.63981174 17.03295966 21.05182934 17.08392906 C18.29371591 17.11759094 15.53582094 17.12913378 12.77752113 17.1347847 C10.81203572 17.14476776 8.84672221 17.17902132 6.8815155 17.21359253 C5.08494255 17.20931747 5.08494255 17.20931747 3.2520752 17.20495605 C1.67108284 17.21708633 1.67108284 17.21708633 0.05815125 17.22946167 C-2.69396973 16.62145996 -2.69396973 16.62145996 -5.03434753 14.27249146 C-7.07685965 11.0098429 -7.32495005 9.40734192 -6.69396973 5.62145996 C-4.71727947 2.48279345 -3.68305388 0.84962741 0 0 Z " fill="#fff" transform="translate(232.6939697265625,340.3785400390625)"/>
<path d="M0 0 C1.16801147 -0.00938095 2.33602295 -0.0187619 3.53942871 -0.02842712 C5.42546814 -0.01157616 5.42546814 -0.01157616 7.34960938 0.00561523 C8.64402954 0.00416 9.93844971 0.00270477 11.27209473 0.00120544 C14.00924048 -0.00017751 16.74586157 0.01236083 19.48291016 0.03515625 C22.98692517 0.06354161 26.49006875 0.06080269 29.99414825 0.04806614 C33.3418929 0.03942873 36.68937942 0.05455835 40.03710938 0.06811523 C41.9231488 0.06371178 41.9231488 0.06371178 43.84729004 0.05921936 C45.01530151 0.07190353 46.18331299 0.08458771 47.38671875 0.09765625 C48.92749084 0.10576073 48.92749084 0.10576073 50.49938965 0.11402893 C53.58204976 0.5576441 54.96548685 1.35783147 57.19335938 3.50170898 C57.72460938 5.62280273 57.72460938 5.62280273 57.69335938 7.93920898 C57.70882812 9.08196289 57.70882812 9.08196289 57.72460938 10.24780273 C56.98846645 13.37099737 55.66574796 14.48857642 53.19335938 16.50170898 C50.54408264 17.00964355 50.54408264 17.00964355 47.49438477 17.01928711 C46.34962173 17.03189575 45.2048587 17.04450439 44.02540588 17.05749512 C42.7930571 17.04939819 41.56070831 17.04130127 40.29101562 17.03295898 C38.38623695 17.03869934 38.38623695 17.03869934 36.44297791 17.04455566 C33.75675973 17.04727844 31.07199659 17.04190635 28.38598633 17.02319336 C24.95140838 17.0004256 21.51808228 17.01351365 18.08355045 17.03748322 C14.79849468 17.05545715 11.51358777 17.04285162 8.22851562 17.03295898 C6.99819107 17.04105591 5.76786652 17.04915283 4.5002594 17.05749512 C2.77838661 17.03858215 2.77838661 17.03858215 1.02172852 17.01928711 C-0.48906532 17.01451355 -0.48906532 17.01451355 -2.03038025 17.00964355 C-5.55109724 16.36550589 -7.25260167 14.95901042 -9.80664062 12.50170898 C-10.43554688 10.50170898 -10.43554688 10.50170898 -10.36914062 8.50170898 C-10.37042969 7.84170898 -10.37171875 7.18170898 -10.37304688 6.50170898 C-8.8561544 1.14550935 -5.10415386 0.0008257 0 0 Z " fill="#fff" transform="translate(167.806640625,303.498291015625)"/>
<path d="M0 0 C1.20422104 -0.00004028 2.40844208 -0.00008057 3.64915466 -0.00012207 C6.19185615 0.00523391 8.73455716 0.02281961 11.27709961 0.05175781 C15.17287662 0.0936348 19.06692637 0.09282387 22.96289062 0.0859375 C25.43360578 0.09642907 27.90431202 0.10936699 30.375 0.125 C31.54172745 0.12520142 32.7084549 0.12540283 33.91053772 0.12561035 C35.53758888 0.14947815 35.53758888 0.14947815 37.19750977 0.17382812 C38.15061539 0.18224731 39.10372101 0.1906665 40.08570862 0.19934082 C43.09205322 0.66701332 44.45807618 1.4746657 46.62109375 3.59375 C47.73382113 7.59956858 48.05761278 9.68102839 46.24609375 13.46875 C44.62109375 15.59375 44.62109375 15.59375 43.62109375 16.59375 C41.86317795 16.71360384 40.10047371 16.76392469 38.33862305 16.78662109 C37.21042648 16.80268402 36.08222992 16.81874695 34.91984558 16.83529663 C29.75069888 16.87955683 24.58164265 16.92126202 19.41235352 16.94384766 C16.00560316 16.96048376 12.59982254 17.00524504 9.19343853 17.0562191 C5.94417416 17.09798953 2.69480188 17.10503092 -0.5546875 17.1171875 C-1.77771072 17.13985687 -3.00073395 17.16252625 -4.26081848 17.18588257 C-5.39847153 17.18303253 -6.53612457 17.1801825 -7.70825195 17.17724609 C-8.70895218 17.18533295 -9.7096524 17.1934198 -10.74067688 17.20175171 C-14.38522889 16.36183465 -15.41520953 14.69108853 -17.37890625 11.59375 C-18.10220695 7.73614629 -17.79346355 6.21751079 -15.61743164 2.94335938 C-11.39116373 -1.03742204 -5.4332726 -0.07648295 0 0 Z " fill="#fff" transform="translate(229.37890625,229.40625)"/>
<path d="M0 0 C1.60186157 -0.01891296 1.60186157 -0.01891296 3.23608398 -0.03820801 C4.95807007 -0.02606262 4.95807007 -0.02606262 6.71484375 -0.01367188 C7.89828369 -0.01749878 9.08172363 -0.02132568 10.30102539 -0.02526855 C12.80258027 -0.02798997 15.30416349 -0.02061291 17.80566406 -0.00390625 C21.63801424 0.01749809 25.46848949 -0.00370232 29.30078125 -0.02929688 C31.73047289 -0.02665364 34.16016337 -0.02152876 36.58984375 -0.01367188 C37.73783447 -0.0217688 38.8858252 -0.02986572 40.06860352 -0.03820801 C41.13651123 -0.02559937 42.20441895 -0.01299072 43.3046875 0 C44.7122229 0.00477356 44.7122229 0.00477356 46.14819336 0.00964355 C49.3926706 0.66774387 50.59395529 1.98223157 52.65234375 4.51757812 C53.18359375 6.51757812 53.18359375 6.51757812 53.15234375 8.51757812 C53.16265625 9.17757813 53.17296875 9.83757812 53.18359375 10.51757812 C52.4098099 13.43064674 50.95314133 14.61041833 48.65234375 16.51757812 C46.14819336 17.0255127 46.14819336 17.0255127 43.3046875 17.03515625 C41.70282593 17.05406921 41.70282593 17.05406921 40.06860352 17.07336426 C38.92061279 17.06526733 37.77262207 17.05717041 36.58984375 17.04882812 C34.81468384 17.05456848 34.81468384 17.05456848 33.00366211 17.0604248 C30.50210723 17.06314622 28.00052401 17.05576916 25.49902344 17.0390625 C21.66667326 17.01765816 17.83619801 17.03885857 14.00390625 17.06445312 C11.57421461 17.06180989 9.14452413 17.05668501 6.71484375 17.04882812 C4.99285767 17.06097351 4.99285767 17.06097351 3.23608398 17.07336426 C2.16817627 17.06075562 1.10026855 17.04814697 0 17.03515625 C-1.4075354 17.03038269 -1.4075354 17.03038269 -2.84350586 17.0255127 C-6.0879831 16.36741238 -7.28926779 15.05292468 -9.34765625 12.51757812 C-9.87890625 10.51757812 -9.87890625 10.51757812 -9.84765625 8.51757812 C-9.863125 7.52757812 -9.863125 7.52757812 -9.87890625 6.51757812 C-8.52130709 1.40661659 -4.88314891 0.01656086 0 0 Z " fill="#fff" transform="translate(419.34765625,340.482421875)"/>
<path d="M0 0 C1.04788696 -0.01260864 2.09577393 -0.02521729 3.17541504 -0.03820801 C4.86459045 -0.02606262 4.86459045 -0.02606262 6.58789062 -0.01367188 C8.32975647 -0.01941223 8.32975647 -0.01941223 10.10681152 -0.02526855 C12.56128812 -0.0279898 15.01579361 -0.02061392 17.47021484 -0.00390625 C21.23014904 0.01749847 24.98817222 -0.00370276 28.74804688 -0.02929688 C31.13216568 -0.02665364 33.5162833 -0.02152875 35.90039062 -0.01367188 C37.02650757 -0.0217688 38.15262451 -0.02986572 39.31286621 -0.03820801 C40.36075317 -0.02559937 41.40864014 -0.01299072 42.48828125 0 C43.86916931 0.00477356 43.86916931 0.00477356 45.2779541 0.00964355 C48.4937223 0.6719616 49.69737311 2.00826428 51.74414062 4.51757812 C52.31054688 6.51757812 52.31054688 6.51757812 52.30664062 8.51757812 C52.32855469 9.17757813 52.35046875 9.83757812 52.37304688 10.51757812 C51.32547593 13.84898386 49.73507433 14.719341 46.74414062 16.51757812 C42.9245514 17.13140279 39.13757894 17.10181927 35.27539062 17.08398438 C34.16232544 17.09018295 33.04926025 17.09638153 31.90246582 17.10276794 C29.55233636 17.10986265 27.20215661 17.10669828 24.85205078 17.09399414 C21.25654676 17.08012598 17.66364377 17.1142112 14.06835938 17.15234375 C11.78320249 17.15329493 9.49804234 17.15143618 7.21289062 17.14648438 C6.13881958 17.15974258 5.06474854 17.17300079 3.95812988 17.18666077 C-3.46413454 17.09405733 -3.46413454 17.09405733 -7.4375 14.20092773 C-9.82652248 10.67545162 -9.93928189 8.69404903 -9.25585938 4.51757812 C-6.41432013 0.88379799 -4.5677264 0.01579007 0 0 Z " fill="#fff" transform="translate(167.255859375,414.482421875)"/>
<path d="M0 0 C1.11922348 -0.00004028 2.23844696 -0.00008057 3.3915863 -0.00012207 C5.75615051 0.00523693 8.12071403 0.02283557 10.48510742 0.05175781 C14.11106569 0.09363419 17.73516873 0.09282526 21.36132812 0.0859375 C23.65756503 0.09642886 25.95379234 0.10936667 28.25 0.125 C29.33753067 0.12520142 30.42506134 0.12540283 31.54554749 0.12561035 C32.55346848 0.14152222 33.56138947 0.15743408 34.59985352 0.17382812 C35.48713638 0.18224731 36.37441925 0.1906665 37.28858948 0.19934082 C40.0228485 0.67441343 40.89151141 1.41435159 42.55859375 3.59375 C43.57091232 6.55283505 43.66618248 8.18295666 42.87109375 11.21875 C41.37587831 13.92437794 40.17048646 14.97036696 37.55859375 16.59375 C35.28895569 16.98815918 35.28895569 16.98815918 32.77758789 17.01367188 C31.36075462 17.03753967 31.36075462 17.03753967 29.91529846 17.06188965 C28.90168747 17.06209106 27.88807648 17.06229248 26.84375 17.0625 C25.271912 17.07392029 25.271912 17.07392029 23.6683197 17.08557129 C21.45346457 17.09637069 19.23855853 17.09922606 17.02368164 17.09472656 C13.63666789 17.09375447 10.25192091 17.13537525 6.86523438 17.1796875 C4.71224431 17.18489471 2.55924637 17.18758269 0.40625 17.1875 C-0.60533676 17.20389526 -1.61692352 17.22029053 -2.65916443 17.23718262 C-7.40176908 17.19061559 -9.6954523 17.15143359 -13.58422852 14.24414062 C-15.44140625 11.59375 -15.44140625 11.59375 -16.00390625 8.59375 C-14.25961486 -0.70913741 -7.9680351 -0.12034755 0 0 Z " fill="#fff" transform="translate(244.44140625,414.40625)"/>
<path d="M0 0 C0.82450653 -0.00960754 1.64901306 -0.01921509 2.49850464 -0.02911377 C3.38603424 -0.03336365 4.27356384 -0.03761353 5.18798828 -0.04199219 C6.10411896 -0.04769226 7.02024963 -0.05339233 7.96414185 -0.05926514 C9.90251512 -0.06871046 11.84090442 -0.07524726 13.77929688 -0.07910156 C16.7400318 -0.0888073 19.70007251 -0.11983505 22.66064453 -0.15136719 C24.544755 -0.15789748 26.42887042 -0.16314785 28.31298828 -0.16699219 C29.19646942 -0.17933899 30.07995056 -0.19168579 30.99020386 -0.20440674 C35.76717104 -0.18715113 39.02470556 0.00941919 42.88330078 3.16113281 C44.4503052 6.29514166 44.73494639 9.79268377 43.88330078 13.16113281 C40.9345065 16.39124884 38.61013575 17.43026704 34.35595703 17.69458008 C32.55284073 17.72761438 30.74919351 17.73725137 28.94580078 17.72753906 C27.98810791 17.73373764 27.03041504 17.73993622 26.04370117 17.74632263 C24.0231223 17.75341227 22.00248491 17.75026176 19.98193359 17.73754883 C16.89327425 17.7236776 13.80764215 17.75777303 10.71923828 17.79589844 C8.75309171 17.79684963 6.78694135 17.7949908 4.82080078 17.79003906 C3.4393689 17.80992638 3.4393689 17.80992638 2.0300293 17.83021545 C-2.47865642 17.76484287 -4.50305308 17.62122196 -8.20654297 14.84448242 C-10.69900124 11.34312648 -10.72953989 9.37441243 -10.11669922 5.16113281 C-7.66222516 0.71970357 -4.85783161 0.04578973 0 0 Z " fill="#fff" transform="translate(168.11669921875,265.8388671875)"/>
<path d="M0 0 C1.02569595 -0.00619858 2.05139191 -0.01239716 3.10816956 -0.01878357 C5.27596081 -0.02588304 7.44380657 -0.02270555 9.61157227 -0.01000977 C12.92631585 0.00384318 16.2382298 -0.03019937 19.55273438 -0.06835938 C21.66015694 -0.0693107 23.76758304 -0.06745104 25.875 -0.0625 C26.86471298 -0.07575821 27.85442596 -0.08901642 28.87413025 -0.10267639 C33.56462808 -0.03930746 35.79170468 0.03112984 39.63305664 2.91821289 C41.50390625 5.56640625 41.50390625 5.56640625 42.06640625 8.56640625 C41.32986045 12.49465052 40.50855072 13.88643031 37.50390625 16.56640625 C33.92722172 17.32164461 30.39776448 17.24282775 26.75390625 17.1953125 C25.17851074 17.19893044 25.17851074 17.19893044 23.57128906 17.20262146 C21.35217511 17.20164256 19.13303687 17.1882389 16.9140625 17.16333008 C13.51608377 17.12902918 10.12070597 17.14266804 6.72265625 17.16210938 C4.56639517 17.15521086 2.41014081 17.14553844 0.25390625 17.1328125 C-0.7628418 17.13777237 -1.77958984 17.14273224 -2.82714844 17.14784241 C-9.85520255 17.03041195 -9.85520255 17.03041195 -13.13476562 14.65600586 C-14.60331158 12.40182996 -15.03779933 11.23556358 -14.99609375 8.56640625 C-15.0115625 7.57640625 -15.0115625 7.57640625 -15.02734375 6.56640625 C-13.04812198 -0.88478159 -6.31342357 -0.03157465 0 0 Z " fill="#fff" transform="translate(172.49609375,340.43359375)"/>
<path d="M0 0 C0.98367554 -0.00241196 1.96735107 -0.00482391 2.98083496 -0.00730896 C5.05871618 -0.0063303 7.1366234 0.00706764 9.21435547 0.03198242 C12.39510661 0.06628607 15.57307921 0.05264343 18.75390625 0.03320312 C20.77344933 0.04010168 22.79298523 0.04977414 24.8125 0.0625 C25.76362671 0.05754013 26.71475342 0.05258026 27.69470215 0.04747009 C34.27581665 0.16487267 34.27581665 0.16487267 37.50170898 2.53930664 C39.01018063 4.78352858 39.47398977 5.94614439 39.46875 8.62890625 C39.49066406 9.28890625 39.51257813 9.94890625 39.53515625 10.62890625 C38.5087432 13.89302726 36.79142092 14.83783362 33.90625 16.62890625 C30.65257924 17.20648094 27.44974981 17.1660577 24.15234375 17.125 C23.21447525 17.12645523 22.27660675 17.12791046 21.31031799 17.12940979 C19.3325794 17.12775345 17.35482756 17.11622193 15.37719727 17.09545898 C12.3505178 17.06647107 9.32558711 17.07486226 6.29882812 17.08789062 C4.37499149 17.08165386 2.45116038 17.07326341 0.52734375 17.0625 C-0.82901939 17.06690346 -0.82901939 17.06690346 -2.21278381 17.07139587 C-8.46235252 16.97752359 -8.46235252 16.97752359 -11.64819336 15.21850586 C-13.34524887 13.35234669 -13.78351099 12.24551329 -14.09375 9.75390625 C-14.196875 9.09648437 -14.3 8.4390625 -14.40625 7.76171875 C-13.20094954 -0.46445686 -6.66265943 -0.09287399 0 0 Z " fill="#fff" transform="translate(322.09375,414.37109375)"/>
<path d="M0 0 C1.40892517 -0.00574036 1.40892517 -0.00574036 2.84631348 -0.01159668 C4.83000766 -0.01431576 6.8137377 -0.00695484 8.79736328 0.00976562 C11.83317016 0.03117539 14.86661046 0.00996393 17.90234375 -0.015625 C19.83073439 -0.01298172 21.75912356 -0.00785675 23.6875 0 C24.59487915 -0.00809692 25.5022583 -0.01619385 26.43713379 -0.02453613 C32.721017 0.06893226 32.721017 0.06893226 35.9140625 2.43945312 C37.45960441 4.7007583 37.88613931 5.81833385 37.84375 8.53125 C37.8540625 9.19125 37.864375 9.85125 37.875 10.53125 C37.05933816 13.60197692 35.90052 14.61910958 33.34375 16.53125 C30.21451815 17.1470941 27.12280105 17.11553915 23.94140625 17.09765625 C23.02669052 17.10385483 22.11197479 17.11005341 21.16954041 17.11643982 C19.23714257 17.12353608 17.30468357 17.12036734 15.37231445 17.10766602 C12.41958718 17.09381257 9.47003712 17.12785744 6.51757812 17.16601562 C4.63802006 17.16696698 2.75845804 17.16510714 0.87890625 17.16015625 C-0.44160988 17.18004356 -0.44160988 17.18004356 -1.7888031 17.20033264 C-6.20212792 17.13349623 -8.09685099 16.95464772 -11.71704102 14.21459961 C-13.65625 11.53125 -13.65625 11.53125 -14.21875 7.96875 C-13.65625 4.53125 -13.65625 4.53125 -12.22460938 2.34960938 C-8.31945983 -0.41517711 -4.67609629 -0.04172676 0 0 Z " fill="#fff" transform="translate(388.65625,414.46875)"/>
<path d="M0 0 C0.75651352 -0.00287018 1.51302704 -0.00574036 2.29246521 -0.00869751 C3.88337966 -0.01072924 5.47431959 -0.005262 7.06518555 0.00732422 C9.49259467 0.02341431 11.91834474 0.00743491 14.34570312 -0.01171875 C15.89713907 -0.0097366 17.44857398 -0.00589349 19 0 C19.72095352 -0.00607269 20.44190704 -0.01214539 21.18470764 -0.0184021 C26.01433537 0.04866466 29.45797677 0.92282052 32.93359375 4.3984375 C33.20703125 6.32421875 33.20703125 6.32421875 33.30859375 8.7109375 C33.35757813 9.49082031 33.4065625 10.27070313 33.45703125 11.07421875 C32.93359375 13.3984375 32.93359375 13.3984375 30.93994141 15.50830078 C26.9432131 18.02110495 23.93724985 17.99391452 19.30859375 17.96484375 C18.48407715 17.97104233 17.65956055 17.97724091 16.81005859 17.98362732 C15.07195208 17.9907111 13.33377751 17.98757663 11.59570312 17.97485352 C8.94143539 17.96097849 6.29068945 17.9950855 3.63671875 18.03320312 C1.94400956 18.03415433 0.25129597 18.03229541 -1.44140625 18.02734375 C-2.62597412 18.04723106 -2.62597412 18.04723106 -3.83447266 18.06752014 C-8.07866457 17.99605044 -9.62902991 17.74617387 -13.07543945 15.00610352 C-15.2255515 12.18999723 -15.69857386 11.22405815 -15.25390625 7.7734375 C-15.15142578 6.64035156 -15.15142578 6.64035156 -15.046875 5.484375 C-12.39053298 -0.1669662 -5.47810853 -0.0462728 0 0 Z " fill="#fff" transform="translate(348.06640625,265.6015625)"/>
<path d="M0 0 C0.76075836 -0.00807175 1.52151672 -0.01614349 2.30532837 -0.02445984 C3.91414118 -0.03827899 5.52298304 -0.04901084 7.13183594 -0.05688477 C9.58585331 -0.07410849 12.03852654 -0.11801246 14.4921875 -0.16210938 C16.05728179 -0.17223616 17.6223875 -0.18075231 19.1875 -0.1875 C19.91786469 -0.20500809 20.64822937 -0.22251617 21.40072632 -0.24055481 C25.0248256 -0.22520361 27.07177072 0.14137271 30.17041016 2.08129883 C32.79426122 4.83381892 33.14951246 6.46282938 33.2265625 10.23828125 C32.51866503 13.06987113 32.0474929 14.65910496 29.63647461 16.36010742 C26.23457675 17.59976162 22.930148 17.54353008 19.35546875 17.5390625 C18.59612534 17.54334763 17.83678192 17.54763275 17.0544281 17.55204773 C15.45157873 17.55777958 13.84870334 17.55829973 12.24584961 17.55395508 C9.80081558 17.55079643 7.35699381 17.57426231 4.91210938 17.59960938 C3.35156402 17.60188272 1.79101543 17.6025857 0.23046875 17.6015625 C-0.8603727 17.61537712 -0.8603727 17.61537712 -1.97325134 17.62947083 C-6.41001068 17.58926989 -9.24799618 16.97741602 -12.7734375 14.23828125 C-14.30190411 11.18134803 -14.00586195 8.60843578 -13.7734375 5.23828125 C-10.62294877 -0.46260312 -5.90566809 0.05940086 0 0 Z " fill="#fff" transform="translate(271.7734375,376.76171875)"/>
<path d="M0 0 C2.10058559 -0.00968123 4.20018223 -0.04069247 6.30053711 -0.07226562 C7.64232819 -0.07879848 8.98412625 -0.08404785 10.32592773 -0.08789062 C11.5438501 -0.09723633 12.76177246 -0.10658203 14.01660156 -0.11621094 C17.87758943 0.30212244 20.54120942 1.47504731 23.30639648 4.24023438 C23.57983398 6.16601563 23.57983398 6.16601563 23.68139648 8.55273438 C23.73038086 9.33261719 23.77936523 10.1125 23.82983398 10.91601562 C23.04149071 14.41649508 21.27229704 15.32237981 18.30639648 17.24023438 C14.95654297 17.72607422 14.95654297 17.72607422 11.17749023 17.70117188 C10.50597427 17.70025543 9.83445831 17.69933899 9.14259338 17.69839478 C7.72975552 17.69237864 6.31692923 17.67669225 4.90429688 17.65185547 C2.74683457 17.61528418 0.59109002 17.61083689 -1.56665039 17.61132812 C-13.22368115 17.5281066 -13.22368115 17.5281066 -16.69360352 15.24023438 C-18.79039754 12.54435634 -18.68871173 11.14729038 -18.50610352 7.67773438 C-17.7184807 4.34548399 -17.39678739 3.18652676 -14.69360352 1.24023438 C-10.41881706 -0.89715886 -4.74623133 0.01325609 0 0 Z " fill="#fff" transform="translate(336.693603515625,376.759765625)"/>
<path d="M0 0 C0.95003906 -0.01546875 1.90007812 -0.0309375 2.87890625 -0.046875 C9.75105434 -0.00821313 9.75105434 -0.00821313 13.125 2.28125 C14.56321305 4.60200288 15.04225332 5.79578778 15 8.5 C15.0103125 9.16 15.020625 9.82 15.03125 10.5 C14.19878019 13.63400399 13.19062344 14.64943546 10.5 16.5 C7.1776973 17.09307727 3.92900175 17.05800147 0.5625 17 C-0.33146484 17.01546875 -1.22542969 17.0309375 -2.14648438 17.046875 C-6.35820774 17.02186105 -8.88860332 16.85201627 -12.59375 14.71875 C-14.60235993 12.38085976 -15.16299242 11.52659513 -15.0625 8.5 C-15.06378906 7.84 -15.06507813 7.18 -15.06640625 6.5 C-12.9541872 -0.95831831 -6.4337965 -0.10475652 0 0 Z " fill="#fff" transform="translate(179.5,192.5)"/>
<path d="M0 0 C0.95003906 -0.01546875 1.90007812 -0.0309375 2.87890625 -0.046875 C9.75105434 -0.00821313 9.75105434 -0.00821313 13.125 2.28125 C14.56321305 4.60200288 15.04225332 5.79578778 15 8.5 C15.0103125 9.16 15.020625 9.82 15.03125 10.5 C14.19172167 13.66057725 13.23253226 14.64578168 10.5 16.5 C6.99124775 17.09553625 3.55089961 17.05781655 0 17 C-0.95003906 17.01546875 -1.90007812 17.0309375 -2.87890625 17.046875 C-9.75105434 17.00821313 -9.75105434 17.00821313 -13.125 14.71875 C-14.56321305 12.39799712 -15.04225332 11.20421222 -15 8.5 C-15.01546875 7.51 -15.01546875 7.51 -15.03125 6.5 C-13.04343972 -0.98352105 -6.36971432 -0.10371312 0 0 Z " fill="#fff" transform="translate(179.5,229.5)"/>
<path d="M0 0 C1.96066406 -0.03867187 1.96066406 -0.03867187 3.9609375 -0.078125 C7.77574144 0.26349923 9.62265501 0.93358401 12.625 3.25 C14.19200442 6.38400885 14.47664561 9.88155095 13.625 13.25 C10.87161534 16.32191347 8.62245129 17.48776132 4.59375 17.81640625 C3.10429732 17.83617775 1.61442341 17.83436546 0.125 17.8125 C-0.62136719 17.83634766 -1.36773437 17.86019531 -2.13671875 17.88476562 C-6.31789239 17.87366516 -7.95434436 17.57425539 -11.375 14.9375 C-13.97764737 11.4401926 -13.99596075 9.51910518 -13.375 5.25 C-10.27220938 -0.3645735 -5.94560061 0.07008567 0 0 Z " fill="#fff" transform="translate(129.375,265.75)"/>
<path d="M0 0 C1.96066406 -0.03867187 1.96066406 -0.03867187 3.9609375 -0.078125 C7.77574144 0.26349923 9.62265501 0.93358401 12.625 3.25 C14.19200442 6.38400885 14.47664561 9.88155095 13.625 13.25 C10.75878069 16.40948113 9.07060124 17.19201705 4.8125 17.74609375 C3.41653065 17.7474107 2.02039949 17.72740534 0.625 17.6875 C-0.07367188 17.69458984 -0.77234375 17.70167969 -1.4921875 17.70898438 C-5.93923333 17.65444513 -8.84723436 16.9826821 -12.375 14.25 C-13.90346661 11.19306678 -13.60742445 8.62015453 -13.375 5.25 C-10.27220938 -0.3645735 -5.94560061 0.07008567 0 0 Z " fill="#fff" transform="translate(129.375,376.75)"/>
<path d="M0 0 C0.85464844 -0.01546875 1.70929688 -0.0309375 2.58984375 -0.046875 C6.51008263 -0.02241173 8.78805354 0.00511039 12.0625 2.28125 C13.57102006 4.60961791 14.04286838 5.75642362 14 8.5 C14.0103125 9.16 14.020625 9.82 14.03125 10.5 C13.20414663 13.61380093 12.15878886 14.6518175 9.5 16.5 C6.32219997 17.08881873 3.22338853 17.05834187 0 17 C-1.28197266 17.02320313 -1.28197266 17.02320313 -2.58984375 17.046875 C-6.51008263 17.02241173 -8.78805354 16.99488961 -12.0625 14.71875 C-13.57102006 12.39038209 -14.04286838 11.24357638 -14 8.5 C-14.01546875 7.51 -14.01546875 7.51 -14.03125 6.5 C-12.13539251 -0.63734584 -6.12750674 -0.1109051 0 0 Z " fill="#fff" transform="translate(129.5,340.5)"/>
<path d="M0 0 C0.85464844 -0.01546875 1.70929688 -0.0309375 2.58984375 -0.046875 C6.51008263 -0.02241173 8.78805354 0.00511039 12.0625 2.28125 C13.57102006 4.60961791 14.04286838 5.75642362 14 8.5 C14.0103125 9.16 14.020625 9.82 14.03125 10.5 C13.20414663 13.61380093 12.15878886 14.6518175 9.5 16.5 C6.32219997 17.08881873 3.22338853 17.05834187 0 17 C-1.28197266 17.02320313 -1.28197266 17.02320313 -2.58984375 17.046875 C-6.51008263 17.02241173 -8.78805354 16.99488961 -12.0625 14.71875 C-13.57102006 12.39038209 -14.04286838 11.24357638 -14 8.5 C-14.01546875 7.51 -14.01546875 7.51 -14.03125 6.5 C-12.13539251 -0.63734584 -6.12750674 -0.1109051 0 0 Z " fill="#fff" transform="translate(129.5,303.5)"/>
<path d="M0 0 C0.85464844 -0.01546875 1.70929688 -0.0309375 2.58984375 -0.046875 C6.50874966 -0.02242005 8.78682693 0.00350088 12.05859375 2.28125 C13.56155635 4.5947534 14.06783395 5.7690175 14.0625 8.5 C14.08441406 9.16 14.10632813 9.82 14.12890625 10.5 C13.10052896 13.77036754 11.40978734 14.77006124 8.5 16.5 C5.64758039 17.06186765 2.89916085 17.06008624 0 17 C-0.74636719 17.01546875 -1.49273437 17.0309375 -2.26171875 17.046875 C-6.10238573 17.01968444 -8.12545826 16.7226741 -11.49609375 14.71875 C-13.60812405 12.38028371 -14.16494918 11.58552814 -14.0625 8.5 C-14.06378906 7.84 -14.06507812 7.18 -14.06640625 6.5 C-12.052115 -0.61253186 -6.18570996 -0.11195855 0 0 Z " fill="#fff" transform="translate(129.5,414.5)"/>
<path d="M0 0 C0.74636719 -0.01095703 1.49273437 -0.02191406 2.26171875 -0.03320312 C6.09396315 0.01766738 8.13720833 0.3463386 11.49609375 2.34765625 C13.60963622 4.68367688 14.16492893 5.47758173 14.0625 8.5625 C14.06443359 9.5525 14.06443359 9.5525 14.06640625 10.5625 C13.19039084 13.65574064 12.15503724 14.71410766 9.5 16.5625 C6.32222238 17.15138488 3.22337352 17.1208416 0 17.0625 C-1.28197266 17.08570313 -1.28197266 17.08570313 -2.58984375 17.109375 C-6.5323875 17.08477254 -8.78561825 17.06965651 -12.05859375 14.74609375 C-14.21210477 11.48372881 -14.10317157 9.3825866 -13.5 5.5625 C-9.49815703 0.19550591 -6.25737392 -0.19993336 0 0 Z " fill="#fff" transform="translate(129.5,450.4375)"/>
</svg>
