<?xml version="1.0" encoding="UTF-8"?>
<svg version="1.1" xmlns="http://www.w3.org/2000/svg" width="512" height="512">
<path d="M0 0 C1.1495668 -0.0071553 2.29913361 -0.01431061 3.48353577 -0.02168274 C4.74077957 -0.02437164 5.99802338 -0.02706055 7.29336548 -0.02983093 C8.63395869 -0.03609902 9.97455017 -0.04274612 11.31513977 -0.04974365 C15.7123291 -0.07074013 20.10951862 -0.08113983 24.50674438 -0.09111023 C26.02220299 -0.09515901 27.53766142 -0.09927597 29.05311966 -0.10346031 C36.17154936 -0.1224999 43.28996876 -0.13673521 50.40841901 -0.14507228 C58.62033395 -0.1548496 66.83197969 -0.18118696 75.04379976 -0.22157317 C81.39551629 -0.25173789 87.74715563 -0.26654136 94.0989424 -0.26985329 C97.8908653 -0.27220278 101.6825002 -0.28115015 105.47434616 -0.30631447 C109.04164998 -0.3296077 112.60847638 -0.33382378 116.17583656 -0.32355309 C118.10460626 -0.32282236 120.03335179 -0.34190335 121.96202087 -0.36161804 C132.50175449 -0.29826488 132.50175449 -0.29826488 137.35830688 4.14717102 C137.92705914 4.6657924 138.49581139 5.18441378 139.08179855 5.71875095 C141.11653797 7.61544964 143.09012884 9.5630765 145.06021118 11.52680969 C145.8072934 12.2639621 146.55437561 13.0011145 147.32409668 13.76060486 C149.78248444 16.18989087 152.2331163 18.6268031 154.68252563 21.06513977 C156.39312066 22.7642229 158.10371741 24.46330429 159.8143158 26.16238403 C163.39478966 29.72188006 166.97060911 33.28598573 170.5440979 36.85249329 C175.11706963 41.41448598 179.70830107 45.95762422 184.30412579 50.49657726 C187.84271615 53.99787244 191.36777289 57.51255829 194.88929176 61.0310154 C196.57597751 62.71165968 198.2676504 64.38731467 199.96442223 66.0577755 C202.33891957 68.39805252 204.6936405 70.75665622 207.04458618 73.12055969 C208.09427834 74.1426075 208.09427834 74.1426075 209.16517639 75.18530273 C218.02851843 84.20209733 217.79630599 93.70907927 217.73062134 105.77363586 C217.73305293 107.34330486 217.73677581 108.9129723 217.74168396 110.4826355 C217.75104782 114.72452498 217.74170476 118.96618187 217.72835183 123.20805311 C217.71698447 127.66184973 217.72114902 132.11563578 217.72309875 136.56944275 C217.72398025 144.04916656 217.71293319 151.52879948 217.69448853 159.00849915 C217.67333864 167.63415094 217.66980864 176.25966953 217.67605048 184.885342 C217.68176278 193.20780072 217.67607555 201.53021293 217.66487694 209.85266495 C217.66025403 213.38268018 217.65934706 216.91266675 217.66146278 220.44268417 C217.6633587 224.60750908 217.65514255 228.77220016 217.63940239 232.93699455 C217.63519139 234.45785531 217.63428728 235.97872973 217.63709259 237.49959373 C217.66028804 252.33490121 216.62314791 266.11205409 206.15908813 277.54951477 C198.58517443 284.26910415 190.30254796 287.47253651 180.24160767 287.3742218 C179.0552346 287.37465988 179.0552346 287.37465988 177.84489441 287.37510681 C175.24768858 287.37372075 172.65077469 287.35819389 170.05361938 287.34248352 C168.24615638 287.33875081 166.43869134 287.33590506 164.63122559 287.33390808 C159.88669189 287.32629192 155.14228171 287.30666082 150.39779663 287.28450012 C145.55131704 287.26399817 140.70481739 287.25489707 135.85830688 287.24482727 C126.35824404 287.22341296 116.85830508 287.18824731 107.35830688 287.14717102 C107.35830688 295.72717102 107.35830688 304.30717102 107.35830688 313.14717102 C109.53739655 313.13828857 111.71648621 313.12940613 113.96160889 313.12025452 C134.47401561 313.03855108 154.9864009 312.97900429 175.49893379 312.93992233 C186.04522245 312.91929482 196.59139173 312.89117054 207.13760376 312.84541321 C216.32940623 312.80555132 225.52112225 312.77973958 234.71300876 312.77081704 C239.58032806 312.76560121 244.4474 312.75333809 249.31464005 312.72425079 C253.89632152 312.69709198 258.47765386 312.68872698 263.05940819 312.6947403 C264.74041707 312.69364027 266.42143769 312.68568907 268.10237694 312.67034912 C270.39971322 312.6504132 272.69573562 312.65524398 274.99310303 312.66615295 C276.27808245 312.66246578 277.56306187 312.65877861 278.88698006 312.65497971 C284.14080224 313.39990687 287.18120085 315.86663419 290.70889282 319.70429993 C293.05274338 324.596689 292.85742753 328.8781339 292.74893188 334.23310852 C292.74327209 335.29002899 292.7376123 336.34694946 292.73178101 337.43589783 C292.70946155 340.79845732 292.6592717 344.15993574 292.60830688 347.52217102 C292.58823623 349.80731184 292.56998645 352.09246942 292.55361938 354.37763977 C292.50961136 359.9678499 292.44274314 365.5574332 292.35830688 371.14717102 C293.45304321 371.29267395 294.54777954 371.43817688 295.6756897 371.58808899 C311.6810479 374.01796636 325.96306618 385.2682457 335.42861938 397.91279602 C339.43962119 403.99007148 342.73905428 410.35438405 345.35830688 417.14717102 C345.67928345 417.97732727 346.00026001 418.80748352 346.33096313 419.66279602 C352.0263495 437.78207173 349.24825645 458.49696598 340.8163147 475.14155579 C331.57780263 492.26975716 316.73822084 503.95783352 298.35830688 510.14717102 C280.16405804 515.56618979 259.4900448 513.10559829 242.73330688 504.64717102 C226.43917391 495.80111784 214.29440311 480.7057739 208.35440063 463.18623352 C202.95946427 444.16061252 204.46484503 424.86198558 213.35830688 407.14717102 C221.47484889 392.68108539 232.15341926 382.26883803 247.17080688 375.14717102 C247.78053345 374.85640686 248.39026001 374.5656427 249.01846313 374.2660675 C253.34627271 372.32384536 256.43802699 371.85006815 261.35830688 371.14717102 C261.35830688 362.23717102 261.35830688 353.32717102 261.35830688 344.14717102 C210.53830688 344.14717102 159.71830688 344.14717102 107.35830688 344.14717102 C107.35830688 353.05717102 107.35830688 361.96717102 107.35830688 371.14717102 C109.99830688 371.47717102 112.63830688 371.80717102 115.35830688 372.14717102 C117.59243774 372.88398743 117.59243774 372.88398743 119.32315063 373.74873352 C119.9734021 374.07027405 120.62365356 374.39181458 121.29360962 374.72309875 C121.95433472 375.0692926 122.61505981 375.41548645 123.29580688 375.77217102 C123.99455933 376.13190002 124.69331177 376.49162903 125.41323853 376.86225891 C130.89188122 379.75403 135.76215679 382.97129146 140.35830688 387.14717102 C141.10338501 387.80072571 141.84846313 388.4542804 142.61611938 389.12763977 C157.16424904 402.66479771 163.88661003 421.38742452 164.67080688 440.95967102 C164.15882095 460.6391304 156.33870671 478.39241508 142.93643188 492.72920227 C135.25501216 499.93344289 126.23402726 505.49744827 116.35830688 509.14717102 C115.53072876 509.46556946 114.70315063 509.7839679 113.85049438 510.11201477 C96.09864781 515.72739481 74.99497994 513.20092179 58.60830688 504.95967102 C41.55684082 495.15612542 29.3191471 480.63941149 23.10049438 461.92842102 C17.83901092 442.21170402 20.03313579 421.78059971 30.10830688 403.89717102 C33.60409263 398.44338764 37.83373147 393.76284527 42.35830688 389.14717102 C43.02346313 388.44592102 43.68861938 387.74467102 44.37393188 387.02217102 C52.30995199 379.26789183 66.02857567 371.14717102 77.35830688 371.14717102 C77.35830688 362.23717102 77.35830688 353.32717102 77.35830688 344.14717102 C26.53830688 344.14717102 -24.28169312 344.14717102 -76.64169312 344.14717102 C-76.64169312 353.05717102 -76.64169312 361.96717102 -76.64169312 371.14717102 C-73.34169312 371.80717102 -70.04169312 372.46717102 -66.64169312 373.14717102 C-58.71705457 376.1907599 -52.10306353 380.72377176 -45.64169312 386.14717102 C-44.65169312 386.86904602 -43.66169312 387.59092102 -42.64169312 388.33467102 C-29.68057509 399.38762445 -22.97442748 416.67352482 -20.64169312 433.14717102 C-19.31178668 455.01390185 -25.45318834 473.87191835 -39.64950562 490.49873352 C-51.82894759 503.26988928 -68.62717156 511.73645988 -86.30966187 512.42842102 C-108.16944109 512.92387518 -126.41531504 508.15162107 -142.73934937 493.04951477 C-155.97557753 480.12585086 -163.74212446 463.06981578 -164.02255249 444.58442688 C-163.98151976 423.13969595 -158.73916473 405.15274867 -143.35263062 389.72920227 C-134.19554866 381.00754352 -120.80164611 371.14717102 -107.64169312 371.14717102 C-107.65057556 370.55914703 -107.65945801 369.97112305 -107.66860962 369.36528015 C-107.75725094 363.23326865 -107.81749695 357.1014398 -107.86141968 350.96894836 C-107.88150828 348.68176376 -107.90878439 346.39463034 -107.94345093 344.10762024 C-107.9920887 340.81598768 -108.01468991 337.52503545 -108.03231812 334.23310852 C-108.06328583 332.70464798 -108.06328583 332.70464798 -108.09487915 331.14530945 C-108.0967141 325.31144277 -107.76480704 321.63257767 -103.64169312 317.14717102 C-99.06406455 313.51831463 -96.08723292 312.64947937 -90.27648926 312.66615295 C-89.55674105 312.66273525 -88.83699283 312.65931756 -88.09543407 312.65579629 C-85.69524052 312.64923275 -83.29617731 312.67116667 -80.89608765 312.69306946 C-79.1710869 312.69419827 -77.44608423 312.69356341 -75.72108459 312.69129944 C-71.04580026 312.69015269 -66.37092716 312.71365569 -61.69573832 312.74159527 C-56.80704749 312.76661539 -51.91834703 312.76895141 -47.02960205 312.7736969 C-37.77551878 312.78612487 -28.52162472 312.8189441 -19.26762474 312.85909486 C-8.73083251 312.90381809 1.8059688 312.92580101 12.34283233 312.9458766 C34.01476561 312.98767685 55.68651766 313.05883207 77.35830688 313.14717102 C77.35830688 304.56717102 77.35830688 295.98717102 77.35830688 287.14717102 C73.66538452 287.17859192 73.66538452 287.17859192 69.89785767 287.21064758 C61.7355958 287.27712318 53.57332154 287.32118826 45.41086006 287.35441971 C40.46513597 287.37523561 35.5196908 287.40344297 30.5741272 287.44892883 C25.79545246 287.49260141 21.01704489 287.51635317 16.23818588 287.52667999 C14.42103753 287.5340331 12.60390271 287.54839151 10.78686905 287.57009125 C-3.85067736 287.73784143 -14.39716614 286.0493081 -25.32919312 275.52217102 C-33.01382406 267.2227696 -34.79323587 258.01326051 -34.78213501 247.07131958 C-34.78510613 246.15530383 -34.78807725 245.23928809 -34.79113841 244.29551429 C-34.79981244 241.2249798 -34.80133257 238.15448436 -34.80282593 235.0839386 C-34.80745503 232.88270484 -34.81247982 230.68147189 -34.81787109 228.48023987 C-34.83098857 222.49865062 -34.83743884 216.51707259 -34.84188175 210.5354712 C-34.84481366 206.79738543 -34.8489187 203.05930272 -34.85338593 199.32121849 C-34.86705942 187.62267806 -34.87674253 175.92414406 -34.88058782 164.22559625 C-34.88103128 162.88003719 -34.88147784 161.53447813 -34.88192749 160.18891907 C-34.88225963 159.1877625 -34.88225963 159.1877625 -34.88259849 158.16638055 C-34.8865442 147.35815738 -34.90399239 136.55000174 -34.92728701 125.74180464 C-34.95103414 114.63357561 -34.96320672 103.52537465 -34.96462893 92.4171192 C-34.96567635 86.18494916 -34.97157067 79.95287436 -34.98944855 73.72072792 C-35.00594477 67.85613661 -35.00807709 61.99171198 -34.99930954 56.12710571 C-34.99853999 53.97853333 -35.00287101 51.82995193 -35.01276779 49.68140221 C-35.0255183 46.74005135 -35.01959349 43.79928812 -35.00918579 40.85794067 C-35.0212704 39.59355414 -35.0212704 39.59355414 -35.03359914 38.30362445 C-34.94351881 27.35989066 -31.32110112 18.09702703 -23.75497437 10.17060852 C-16.74758194 3.70012829 -9.58775506 0.04102211 0 0 Z M-1.64169312 32.14717102 C-4.22440868 36.02124437 -3.92277454 39.22682862 -3.90238953 43.71917725 C-3.90621507 44.60504912 -3.91004062 45.49092099 -3.91398209 46.40363747 C-3.92433374 49.38388215 -3.92031584 52.36393495 -3.91635132 55.3441925 C-3.92069659 57.47605061 -3.92587911 59.60790715 -3.93183899 61.73976135 C-3.94525999 67.53927162 -3.94580422 73.33871685 -3.94327569 79.13823962 C-3.9422081 83.97446726 -3.9470839 88.81068163 -3.95188111 93.64690644 C-3.96298698 105.05333605 -3.9634076 116.45973275 -3.95736694 127.86616516 C-3.95132482 139.64558283 -3.96364181 151.42488112 -3.98493701 163.20427841 C-4.00253175 173.30708563 -4.00855774 183.40985479 -4.00529927 193.51267678 C-4.0034829 199.55129462 -4.00615777 205.5898273 -4.02001381 211.62843132 C-4.03255296 217.30585314 -4.03068519 222.98308837 -4.01760292 228.6605072 C-4.01522905 230.74709192 -4.01800063 232.83368962 -4.02622604 234.92025948 C-4.03662677 237.76311911 -4.0286467 240.60534486 -4.01591492 243.44818115 C-4.0232892 244.27881921 -4.03066349 245.10945726 -4.03826123 245.96526617 C-4.00835989 249.12699696 -3.81765991 251.73318481 -2.57380199 254.65953255 C0.31893552 256.88681263 3.14406656 256.69634549 6.64627075 256.64837646 C7.39400741 256.65391086 8.14174407 256.65944526 8.91213942 256.66514736 C11.4251293 256.67879302 13.93713267 256.66376422 16.45010376 256.64888 C18.24861575 256.65266178 20.04712484 256.65816064 21.84562683 256.66525269 C26.73611378 256.67924315 31.62625033 256.6680124 36.51671791 256.65154147 C41.62826455 256.63771727 46.7397903 256.64414804 51.85134888 256.64767456 C60.43624537 256.65037877 69.02100221 256.63688298 77.60586548 256.61372375 C87.53920549 256.58711271 97.47231197 256.58536614 107.40567541 256.59711212 C116.95087524 256.60788149 126.49599037 256.60170944 136.04118347 256.58755684 C140.10812882 256.58178973 144.17501234 256.5818854 148.24195862 256.58662224 C153.02887416 256.59138534 157.81553312 256.58131809 162.60239983 256.55966759 C164.36204602 256.55409043 166.12171683 256.5536429 167.88136482 256.55862045 C170.27797815 256.56455091 172.67380105 256.55211205 175.07034302 256.53485107 C175.77160167 256.54086112 176.47286033 256.54687117 177.19536924 256.55306333 C180.01687346 256.5159469 181.90843817 256.46484335 184.25130463 254.81044102 C186.53317974 251.38192551 186.48203397 248.30958806 186.4785614 244.3196106 C186.47993607 243.10384842 186.48131073 241.88808624 186.48272705 240.63548279 C186.47918793 239.2862699 186.47555312 237.93705725 186.47183228 236.58784485 C186.47155024 235.16870119 186.47170846 233.74955739 186.47227478 232.33041382 C186.4725621 228.47532977 186.46667583 224.62027673 186.45970082 220.7651999 C186.45345652 216.73730771 186.45286263 212.70941484 186.45167542 208.68151855 C186.44856528 201.05301224 186.44035617 193.42452022 186.43032593 185.79602021 C186.41915493 177.11171639 186.41365185 168.42741189 186.40863049 159.74310267 C186.3981733 141.87778401 186.38057999 124.01247866 186.35830688 106.14717102 C185.15680496 106.13837166 185.15680496 106.13837166 183.93103027 106.12939453 C176.36859276 106.0714013 168.80648222 105.99928703 161.24433708 105.91145611 C157.35689253 105.86679937 153.46955163 105.82753319 149.5819397 105.80073547 C145.82754401 105.77465519 142.07354823 105.73422016 138.31940079 105.68398476 C136.88979201 105.66734781 135.4601141 105.65581379 134.03042221 105.64955711 C132.02225454 105.63988235 130.01421466 105.61009675 128.0062561 105.57954407 C126.86486176 105.56844101 125.72346741 105.55733795 124.54748535 105.54589844 C119.49669896 104.91442327 116.3032014 103.26155821 113.02139282 99.3910675 C110.0632067 93.52282462 110.75272991 86.65456993 110.74893188 80.24482727 C110.73393459 78.79749719 110.7172042 77.35018412 110.69882202 75.90289307 C110.65530927 72.11358309 110.63518554 68.3245039 110.62008667 64.5349884 C110.60045712 60.66013533 110.55849393 56.7855294 110.51846313 52.9108429 C110.44333556 45.32301897 110.39293905 37.73529936 110.35830688 30.14717102 C96.4936097 30.10042838 82.62892476 30.06530409 68.76416492 30.04354668 C62.3263609 30.03310479 55.88860977 30.01893806 49.45083618 29.99629211 C43.23927477 29.97457838 37.02776427 29.96260545 30.81616783 29.95741653 C28.44507737 29.95371815 26.07398973 29.94649626 23.70292091 29.93571091 C20.38461893 29.92121571 17.06652796 29.91919228 13.74819946 29.92012024 C12.76564682 29.91292969 11.78309418 29.90573914 10.77076721 29.89833069 C4.30695045 29.84978157 4.30695045 29.84978157 -1.64169312 32.14717102 Z M141.35830688 53.14717102 C141.35830688 60.40717102 141.35830688 67.66717102 141.35830688 75.14717102 C148.61830688 75.14717102 155.87830688 75.14717102 163.35830688 75.14717102 C158.563314 69.51701515 158.563314 69.51701515 153.52627563 64.18232727 C152.87336548 63.52812805 152.22045532 62.87392883 151.54776001 62.1999054 C150.88711548 61.54312805 150.22647095 60.88635071 149.54580688 60.20967102 C148.86582642 59.52582336 148.18584595 58.84197571 147.48526001 58.1374054 C146.51556274 57.16964172 146.51556274 57.16964172 145.52627563 56.18232727 C144.94128296 55.59846252 144.35629028 55.01459778 143.75357056 54.41304016 C142.54885924 53.03518257 142.54885924 53.03518257 141.35830688 53.14717102 Z M-122.95419312 413.39717102 C-132.03265556 424.25824653 -133.82058103 435.39883235 -132.64169312 449.14717102 C-130.24316354 460.66011297 -122.92481068 469.26117428 -113.64169312 476.14717102 C-103.45850046 481.80994001 -91.48616952 483.11712399 -80.17294312 480.27607727 C-69.42703242 476.05249124 -61.13887143 469.37249235 -55.64169312 459.14717102 C-50.7773976 447.43256585 -50.12195185 437.04122698 -54.64169312 425.14717102 C-59.692019 414.67922283 -67.17265128 406.77052397 -77.91513062 402.17451477 C-94.07616915 396.55214699 -111.29877637 401.02012435 -122.95419312 413.39717102 Z M61.54580688 413.77217102 C54.06338323 422.63189036 50.88340086 432.58181252 51.35830688 444.14717102 C52.45501309 451.95879767 55.05397248 458.56807761 59.35830688 465.14717102 C59.91518188 466.01342102 60.47205688 466.87967102 61.04580688 467.77217102 C69.78312551 476.7456334 79.80684969 481.49267668 92.23330688 481.70967102 C103.4118147 481.61857322 113.18581888 477.93485578 121.35830688 470.14717102 C129.76807416 460.73996623 133.80949368 450.41793124 133.29580688 437.77217102 C132.00555629 425.55779872 126.77442056 416.06018476 117.35830688 408.14717102 C98.74777266 395.99877249 77.20691198 397.61841527 61.54580688 413.77217102 Z M245.54580688 415.08467102 C238.7242637 423.29578782 235.75608744 432.75514074 236.05361938 443.41670227 C237.38747057 455.370061 242.75415485 465.86345904 252.10830688 473.52217102 C262.68546199 480.55996862 272.8739975 482.69838377 285.35830688 481.14717102 C296.88732656 478.66676895 305.43928031 471.47481661 312.35830688 462.14717102 C318.04162405 451.92702719 318.98862443 440.30857991 316.70986938 428.90107727 C313.04023258 417.84512024 305.16692622 409.33126835 294.95986938 403.86201477 C276.73881102 395.41737144 258.77453415 400.81894606 245.54580688 415.08467102 Z " fill="#fff" transform="translate(163.64169311523438,-0.1471710205078125)"/>
<path d="M0 0 C0.90588364 -0.00817749 1.81176727 -0.01635498 2.74510193 -0.02478027 C5.75234309 -0.04965477 8.75953692 -0.06615718 11.7668457 -0.08056641 C12.79333536 -0.08589008 13.81982502 -0.09121376 14.87742043 -0.09669876 C20.31247842 -0.12344159 25.74751338 -0.1428113 31.18261719 -0.15722656 C36.79388101 -0.17386064 42.40455594 -0.21862511 48.01559734 -0.26959801 C52.33165654 -0.30327712 56.64757623 -0.31480487 60.96375465 -0.32045364 C63.03179223 -0.3271662 65.09982062 -0.34238831 67.16773033 -0.36634445 C70.06673273 -0.39800729 72.96415092 -0.39803072 75.86328125 -0.390625 C76.71394165 -0.40703033 77.56460205 -0.42343567 78.44104004 -0.44033813 C84.58573059 -0.37625781 87.59563485 1.17521817 92.25512695 5.19287109 C94.81897145 8.84197931 95.52125175 12.91092833 95.19262695 17.31787109 C93.98091317 22.32628804 92.24918684 25.61178958 88.18333435 28.83558655 C84.11960673 30.71920815 80.58224089 30.6203339 76.15380859 30.59692383 C75.24588058 30.60378708 74.33795258 30.61065033 73.4025116 30.61772156 C70.40660891 30.635996 67.41122958 30.63215107 64.4152832 30.62646484 C62.32929819 30.63102636 60.24331469 30.63633184 58.15733337 30.64234924 C53.78695569 30.65128165 49.41676073 30.64885571 45.04638672 30.63891602 C39.44971608 30.6274268 33.85367641 30.64763674 28.25708866 30.67683315 C23.94962059 30.69519184 19.64230382 30.69490332 15.33480644 30.68919563 C13.2715612 30.68904238 11.20830574 30.69509036 9.14509773 30.70748711 C6.25827746 30.72238863 3.37262396 30.71172594 0.48583984 30.69458008 C-0.3637027 30.70424805 -1.21324524 30.71391602 -2.08853149 30.72387695 C-7.45053669 30.65729382 -10.47334253 29.72539032 -14.74487305 26.19287109 C-18.2906834 22.15798345 -19.04847483 18.626257 -18.9597168 13.25146484 C-18.4829433 8.68310792 -16.51924419 5.89169383 -13.18237305 2.88037109 C-8.78782117 -0.16201097 -5.21030087 0.02578542 0 0 Z " fill="#fff" transform="translate(216.744873046875,142.80712890625)"/>
<path d="M0 0 C1.89271637 -0.01925285 1.89271637 -0.01925285 3.82366943 -0.03889465 C5.20828865 -0.04706316 6.59291231 -0.05450668 7.97753906 -0.0612793 C8.6743 -0.06535482 9.37106094 -0.06943035 10.08893585 -0.07362938 C13.7786886 -0.09449328 17.46840414 -0.10879209 21.15820312 -0.11816406 C24.96250317 -0.12921364 28.76621588 -0.16359487 32.57030869 -0.20333576 C35.50092628 -0.22953416 38.43140482 -0.23785883 41.36212921 -0.24144554 C42.7639181 -0.2463053 44.16570103 -0.25790202 45.56737518 -0.27648354 C47.53435585 -0.30093274 49.50162257 -0.2974845 51.46875 -0.29296875 C52.58634705 -0.29883499 53.70394409 -0.30470123 54.85540771 -0.31074524 C59.62136902 0.43009758 62.80651269 2.7039175 65.80566406 6.42700195 C68.05533397 11.63676385 68.62602571 16.06352635 66.86816406 21.42700195 C65.26989167 25.09870881 63.49658022 27.10680149 59.99316406 29.17700195 C53.56740579 31.58049676 47.36434046 31.48321475 40.55957031 31.4777832 C39.36766586 31.48206833 38.17576141 31.48635345 36.94773865 31.49076843 C34.43383416 31.49649665 31.91991311 31.49702315 29.40600586 31.49267578 C25.57213935 31.48951553 21.7390447 31.51299625 17.90527344 31.53833008 C15.4567067 31.54060327 13.00813789 31.54130648 10.55957031 31.5402832 C9.41976212 31.54949295 8.27995392 31.5587027 7.10560608 31.56819153 C-6.37619366 31.49028826 -6.37619366 31.49028826 -11.55906677 26.76045227 C-15.33821167 22.4406505 -16.31574256 18.93162522 -16.22167969 13.2355957 C-15.74490619 8.66723878 -13.78120708 5.87582469 -10.44433594 2.86450195 C-6.65055901 0.238041 -4.60878143 0.04071178 0 0 Z " fill="#fff" transform="translate(229.0068359375,188.822998046875)"/>
</svg>
