<?xml version="1.0" encoding="UTF-8"?>
<svg version="1.1" xmlns="http://www.w3.org/2000/svg" width="512" height="512">
<path d="M0 0 C4.96108609 5.53039105 5.14564805 10.62225595 5.06640625 17.74609375 C4.5770719 22.55408819 3.11594392 25.62090371 -0.26953125 29.046875 C-6.03002792 33.5185446 -10.87999834 35.48110528 -18.26953125 35.046875 C-20.89925928 34.28150639 -23.35165585 33.46573926 -25.89453125 32.484375 C-27.39653918 31.93196986 -28.89917377 31.38126643 -30.40234375 30.83203125 C-31.19157227 30.54086426 -31.98080078 30.24969727 -32.79394531 29.94970703 C-52.41068375 22.79559473 -71.63869723 18.08314517 -92.26953125 15.046875 C-92.24334717 16.09552734 -92.21716309 17.14417969 -92.19018555 18.22460938 C-92.09912694 22.14561305 -92.04208217 26.06652487 -91.99487305 29.98828125 C-91.96985465 31.67984781 -91.93582835 33.37130764 -91.89233398 35.0625 C-91.456614 52.45029039 -91.456614 52.45029039 -97.26953125 59.046875 C-102.61860828 64.12849818 -107.45181366 65.53211828 -114.70703125 65.359375 C-120.26906974 64.68107762 -124.48581143 62.24960272 -128.14453125 58.046875 C-131.88409852 52.76748592 -132.55192048 49.24973406 -132.46484375 42.78125 C-132.46201385 41.98785217 -132.45918396 41.19445435 -132.45626831 40.37701416 C-132.44509904 37.85014583 -132.42000069 35.32363568 -132.39453125 32.796875 C-132.38449723 31.0807343 -132.37537212 29.36458802 -132.3671875 27.6484375 C-132.34517039 23.44777926 -132.31066312 19.2473878 -132.26953125 15.046875 C-171.58619965 21.44017806 -208.01792974 32.83145139 -240.26953125 57.046875 C-241.18605469 57.73265625 -242.10257812 58.4184375 -243.046875 59.125 C-249.80034577 64.37414316 -256.05928478 70.17601879 -262.26953125 76.046875 C-263.00840576 76.73475098 -263.00840576 76.73475098 -263.76220703 77.43652344 C-272.71903471 85.81120164 -280.05753299 95.15279037 -287.26953125 105.046875 C-287.68203125 105.60842285 -288.09453125 106.1699707 -288.51953125 106.74853516 C-292.52473538 111.46724579 -292.52473538 111.46724579 -294.26953125 117.046875 C-293.42769287 117.42908203 -292.58585449 117.81128906 -291.71850586 118.20507812 C-288.55935029 119.65080444 -285.4094402 121.1138495 -282.26391602 122.58886719 C-280.9084219 123.22019762 -279.54973662 123.84472777 -278.18774414 124.46191406 C-270.29268693 128.04556838 -263.01635635 131.39483755 -258.26953125 139.046875 C-256.29311546 144.97612237 -256.008864 151.91771879 -258.36328125 157.76171875 C-261.99538813 163.56729384 -265.93735175 166.91932143 -272.55078125 168.640625 C-283.5771863 170.45509672 -293.84335192 163.99579973 -303.45703125 159.296875 C-304.50439453 158.79027344 -305.55175781 158.28367188 -306.63085938 157.76171875 C-309.17942596 156.52816597 -311.72554791 155.2898448 -314.26953125 154.046875 C-317.46352206 165.66898075 -320.55176538 177.30293823 -323.26953125 189.046875 C-323.45612305 189.84109863 -323.64271484 190.63532227 -323.83496094 191.45361328 C-333.55453156 234.97827732 -325.45047235 289.7393444 -302.96875 328.1015625 C-301.26953125 331.046875 -301.26953125 331.046875 -301.26953125 333.046875 C-298.4351297 331.79925381 -295.60200996 330.54884835 -292.76953125 329.296875 C-291.97804688 328.94882812 -291.1865625 328.60078125 -290.37109375 328.2421875 C-285.8641768 326.24732262 -281.4381397 324.16625337 -277.07617188 321.87011719 C-271.39824044 319.28282195 -265.12266682 319.25495432 -259.20703125 321.046875 C-254.35735161 323.0404192 -251.21543394 326.8116062 -248.26953125 331.046875 C-246.35391226 336.79373198 -246.05306176 343.8265118 -248.2109375 349.5390625 C-252.92119281 357.36487854 -260.25442289 360.76648058 -268.20703125 364.671875 C-269.26156494 365.19168945 -270.31609863 365.71150391 -271.40258789 366.24707031 C-274.68681322 367.85697028 -277.97756211 369.45287921 -281.26953125 371.046875 C-282.30207031 371.55250977 -283.33460938 372.05814453 -284.3984375 372.57910156 C-287.32526284 374.00569288 -290.26328928 375.40558321 -293.20703125 376.796875 C-294.52658813 377.44197021 -294.52658813 377.44197021 -295.87280273 378.10009766 C-302.86207734 381.33868692 -308.55087552 382.2444082 -315.95703125 379.859375 C-323.42433528 375.77349166 -326.97755728 370.92235499 -331.14453125 363.671875 C-331.6662793 362.77919922 -332.18802734 361.88652344 -332.72558594 360.96679688 C-334.25475132 358.33485892 -335.76455635 355.69270133 -337.26953125 353.046875 C-337.66495117 352.36206055 -338.06037109 351.67724609 -338.46777344 350.97167969 C-356.98193416 318.7694837 -368.16567732 278.73596461 -368.5078125 241.5625 C-368.51765167 240.67713058 -368.52749084 239.79176117 -368.53762817 238.87956238 C-369.0182606 184.31646569 -357.27466574 132.77476953 -326.26953125 87.046875 C-325.66310791 86.14751221 -325.66310791 86.14751221 -325.04443359 85.22998047 C-319.00757253 76.35055462 -312.35214252 68.1085139 -305.26953125 60.046875 C-304.50769531 59.17289062 -303.74585938 58.29890625 -302.9609375 57.3984375 C-294.11832625 47.40518343 -284.78391986 38.26929879 -274.26953125 30.046875 C-273.26148438 29.24507812 -272.2534375 28.44328125 -271.21484375 27.6171875 C-200.01040903 -28.57022424 -87.72166023 -48.91237058 0 0 Z " fill="#fff" transform="translate(368.26953125,78.953125)"/>
<path d="M0 0 C4.56578045 2.81541026 8.23546867 7.11656225 9.92578125 12.1875 C11.23563694 22.53238297 8.82904321 28.86183184 2.92578125 37.1875 C2.03242929 38.47517523 1.13920727 39.76294063 0.24609375 41.05078125 C-1.76017478 43.92235268 -3.7881872 46.77726571 -5.828125 49.625 C-9.16224568 54.28974252 -12.4071982 59.01244253 -15.63671875 63.75 C-16.18368408 64.55155518 -16.73064941 65.35311035 -17.29418945 66.17895508 C-18.37673092 67.76576903 -19.4590115 69.352761 -20.54101562 70.93994141 C-27.92274329 81.76098996 -35.39091755 92.5207312 -42.88330078 103.26538086 C-47.55714621 109.97845185 -52.17174099 116.72939563 -56.76171875 123.5 C-61.81603902 130.94975457 -66.99097228 138.2928043 -72.29711914 145.56494141 C-76.20226918 150.9329483 -79.9723924 156.38196527 -83.69921875 161.875 C-88.47792213 168.91421922 -93.40228499 175.81814304 -98.46875 182.65234375 C-100.59552795 185.52400579 -102.67396827 188.42630419 -104.7355957 191.3449707 C-110.94941909 200.13882456 -117.45316197 208.69714075 -124.07421875 217.1875 C-124.5336084 217.78433594 -124.99299805 218.38117188 -125.46630859 218.99609375 C-136.50970065 233.28608631 -150.10894392 241.48439152 -168.07421875 244.1875 C-185.5024768 245.84157079 -202.25492164 240.67104375 -215.82421875 229.5625 C-226.748384 219.1403644 -234.69704876 204.8566026 -235.3125 189.59765625 C-235.70349851 170.88408196 -232.19211299 155.19328376 -218.9765625 141.0234375 C-200.23946092 122.94040312 -176.45852986 108.63275054 -155.18310547 93.67138672 C-152.35363107 91.68046922 -149.52729356 89.68512583 -146.70117188 87.68945312 C-144.57718307 86.18959326 -142.45265488 84.69049955 -140.328125 83.19140625 C-137.47986658 81.18106343 -134.6337247 79.16777169 -131.7890625 77.15234375 C-122.92753685 70.87782981 -114.01806639 64.67944353 -105.05810547 58.54638672 C-101.72698004 56.26469288 -98.4008332 53.9757633 -95.07421875 51.6875 C-91.15771395 48.99395418 -87.24075826 46.30108882 -83.3203125 43.61328125 C-76.48641344 38.92546318 -69.66996548 34.21382794 -62.87158203 29.47460938 C-53.98481068 23.27985414 -45.08142845 17.11087752 -36.13671875 11 C-35.24388184 10.38866211 -34.35104492 9.77732422 -33.43115234 9.14746094 C-12.41701158 -5.17582847 -12.41701158 -5.17582847 0 0 Z M-93.07421875 100.1875 C-94.36779297 101.15236328 -94.36779297 101.15236328 -95.6875 102.13671875 C-102.82269637 107.42874714 -110.03518583 112.57485019 -117.38671875 117.5625 C-124.49468384 122.38717021 -131.49921532 127.33195493 -138.44677734 132.38452148 C-143.43633332 136.01185121 -148.46131225 139.58301137 -153.51171875 143.125 C-177.62231945 157.5046652 -177.62231945 157.5046652 -194.07421875 178.1875 C-194.7649163 184.34995732 -194.80296548 190.01536744 -191.07421875 195.1875 C-186.28163251 200.0984217 -182.19738907 202.88030292 -175.26171875 203.5625 C-168.256487 203.30013177 -163.6713796 200.12647535 -158.94921875 195.125 C-148.23993864 182.5909028 -138.98299399 168.75732867 -129.53320312 155.26708984 C-127.58903265 152.49593119 -125.6343268 149.73228547 -123.6796875 146.96850586 C-118.74766141 139.99421106 -113.84243878 133.00156768 -108.94921875 126 C-103.37548541 118.02535647 -97.75155522 110.08867794 -92.07421875 102.1875 C-92.56921875 101.1975 -92.56921875 101.1975 -93.07421875 100.1875 Z " fill="#fff" transform="translate(431.07421875,124.8125)"/>
<path d="M0 0 C7.35142841 4.38910433 10.8247402 10.87710992 13.75 18.6875 C14.08684814 19.56229004 14.42369629 20.43708008 14.77075195 21.33837891 C20.8483796 37.36579896 25.46852332 53.6117134 28.75 70.4375 C28.91661133 71.26475586 29.08322266 72.09201172 29.25488281 72.94433594 C34.55631472 100.52714834 34.30984578 132.92612503 28.75 160.4375 C28.56775879 161.36062988 28.38551758 162.28375977 28.19775391 163.23486328 C25.78235506 175.19482066 22.73337024 186.9058221 18.75 198.4375 C18.49492676 199.18596191 18.23985352 199.93442383 17.97705078 200.70556641 C14.3050636 211.38791048 10.05773531 221.53583377 4.76611328 231.515625 C3.74320916 233.45034419 2.74307696 235.3955659 1.74609375 237.34375 C-10.62584906 261.32214246 -10.62584906 261.32214246 -20.25 266.4375 C-29.35107853 269.07309026 -35.97428084 266.76013697 -44.25 262.6875 C-45.27657715 262.19668945 -46.3031543 261.70587891 -47.36083984 261.20019531 C-49.53759449 260.1581214 -51.71120329 259.10945418 -53.88183594 258.0546875 C-57.29003697 256.41827668 -60.72140056 254.8437113 -64.1640625 253.28125 C-66.401317 252.25059745 -68.63830406 251.21936415 -70.875 250.1875 C-72.44701172 249.48222168 -72.44701172 249.48222168 -74.05078125 248.76269531 C-81.64639746 245.19573437 -86.81483349 241.23409424 -90.25 233.4375 C-91.10827022 225.80288697 -91.0978376 219.56108433 -86.25 213.4375 C-81.55602716 208.51937678 -77.02377409 206.70468579 -70.31640625 206.05859375 C-63.88733494 206.11141399 -58.66241424 209.02313338 -53 211.8125 C-50.89093485 212.82096076 -48.78157063 213.82879637 -46.671875 214.8359375 C-45.74987305 215.28630371 -44.82787109 215.73666992 -43.87792969 216.20068359 C-41.36736579 217.38226263 -38.83665863 218.43521361 -36.25 219.4375 C-9.36106792 168.23410806 -1.32931519 108.98635252 -18.66796875 53.23046875 C-21.1693059 45.50908472 -24.01606271 37.92373866 -27.0769043 30.40673828 C-29.87008941 23.35280453 -30.84236213 16.31302398 -27.75 9.125 C-22.1234111 -0.67615486 -10.33829602 -4.66119705 0 0 Z " fill="#fff" transform="translate(480.25,192.5625)"/>
</svg>
