<?xml version="1.0" encoding="UTF-8"?>
<svg version="1.1" xmlns="http://www.w3.org/2000/svg" width="512" height="512">
<path d="M0 0 C1.17104782 0.00081573 1.17104782 0.00081573 2.36575317 0.00164795 C23.57943882 0.0691361 43.34294904 3.8133173 63.5 10.375 C64.19464355 10.59881348 64.88928711 10.82262695 65.60498047 11.05322266 C96.00635853 21.06735432 122.49359291 39.47069624 145.5 61.375 C146.48226562 62.29539062 146.48226562 62.29539062 147.484375 63.234375 C164.34089431 79.47230645 176.78928905 100.33512627 186.5 121.375 C174.95 132.925 163.4 144.475 151.5 156.375 C148.69517925 152.635239 147.41836868 149.883161 145.8125 145.5625 C138.63239679 126.996642 127.68273761 111.18327818 114.5 96.375 C113.87996094 95.66988281 113.25992187 94.96476562 112.62109375 94.23828125 C89.49033073 69.55511803 53.84667836 53.24200939 20.5 49.375 C19.6646875 49.26542969 18.829375 49.15585937 17.96875 49.04296875 C-21.69510514 44.56286463 -63.26671702 55.50957634 -94.8125 80.1328125 C-98.43051072 83.15132725 -101.9193526 86.2912882 -105.34375 89.52734375 C-107.5 91.375 -107.5 91.375 -109.65625 92.37890625 C-112.04514224 93.66951541 -112.35156174 94.94662292 -113.5 97.375 C-114.92495988 98.94756528 -116.38891874 100.4850628 -117.875 102 C-144.20677049 130.57682029 -157.61351608 171.00794613 -156.75390625 209.56640625 C-155.19547241 247.16460153 -141.17770802 282.52522688 -115.54296875 310.12109375 C-114.1244739 311.68604887 -112.76401964 313.30480725 -111.453125 314.9609375 C-90.73085063 340.57366862 -51.77148155 357.07543981 -19.8828125 361.06152344 C-0.13986786 362.89105151 20.289153 362.50105676 39.5 357.375 C40.64879639 357.06949219 40.64879639 357.06949219 41.82080078 356.7578125 C65.24556311 350.24730596 86.18522543 338.19230531 104.5 322.375 C105.30179687 321.69566406 106.10359375 321.01632812 106.9296875 320.31640625 C111.91988366 316.00669139 116.33950986 311.4862101 120.5 306.375 C121.24894531 305.47523438 121.99789063 304.57546875 122.76953125 303.6484375 C130.51643295 294.01055979 136.96864215 283.43771571 142.5 272.375 C144.79883055 271.88853779 147.11578732 271.48682535 149.4375 271.125 C163.12284942 268.66811538 172.66701939 260.12453462 181.4765625 249.72265625 C184.14543774 246.62614269 186.91277573 243.62659115 189.6875 240.625 C190.19901611 240.06981689 190.71053223 239.51463379 191.23754883 238.94262695 C192.65151788 237.41350556 194.07370696 235.89262172 195.5 234.375 C196.23863281 233.58609375 196.97726562 232.7971875 197.73828125 231.984375 C199.5 230.375 199.5 230.375 201.5 230.375 C198.17595051 255.88853776 190.58195386 279.68790474 178.5 302.375 C178.18836914 302.97022461 177.87673828 303.56544922 177.55566406 304.17871094 C153.0745362 350.62808898 108.35594929 384.97011441 58.7421875 400.55078125 C5.60161854 416.48963997 -51.1266839 410.20910635 -99.90527344 384.08691406 C-116.00901328 375.24577797 -130.27136933 364.04375752 -143.5 351.375 C-143.99886719 350.90336426 -144.49773437 350.43172852 -145.01171875 349.94580078 C-153.00578812 342.36016876 -160.00193818 334.27372792 -166.5 325.375 C-166.91459473 324.81006836 -167.32918945 324.24513672 -167.75634766 323.66308594 C-192.6268671 289.29977608 -204.97838671 248.18177895 -204.875 206 C-204.87412384 205.1227124 -204.87324768 204.2454248 -204.87234497 203.34155273 C-204.68512178 146.2961363 -180.60647007 95.9888564 -140.56567383 56.13793945 C-134.26364455 49.99771195 -127.63133307 44.51864638 -120.5 39.375 C-119.95150391 38.97152344 -119.40300781 38.56804688 -118.83789062 38.15234375 C-84.35898449 13.01063259 -42.48787912 -0.11264713 0 0 Z " fill="#fff" transform="translate(213.5,8.625)"/>
<path d="M0 0 C2.80925679 1.28176211 4.86844102 2.61678699 7.05342102 4.79272461 C7.62938019 5.36159897 8.20533936 5.93047333 8.79875183 6.5165863 C9.41857437 7.13888626 10.03839691 7.76118622 10.67700195 8.40234375 C11.33933838 9.05956924 12.0016748 9.71679474 12.68408203 10.39393616 C14.87401898 12.56996633 17.05643887 14.75335572 19.23828125 16.9375 C20.76257229 18.45790255 22.2870863 19.97808158 23.81181335 21.49804688 C27.01037194 24.68913932 30.20502157 27.88408548 33.3972168 31.08154297 C37.47053907 35.16063712 41.55505851 39.22830522 45.64288044 43.29286194 C48.79759951 46.43277568 51.9452859 49.579668 55.09105492 52.72854614 C56.59286952 54.22985018 58.09702423 55.72881737 59.60363197 57.22531128 C75.47327726 73.00152205 87.6398711 88.41538551 88.4375 111.8125 C87.95831898 130.52139355 80.36693463 145.18314498 67 158 C53.70389925 169.63674738 37.45525119 171.8020609 20.48828125 171.17480469 C7.12634483 170.23611292 -5.36929632 163.77102438 -14.9753418 154.67089844 C-15.53098407 154.15095181 -16.08662634 153.63100517 -16.65910625 153.09530258 C-23.52457997 146.62908245 -30.17751783 139.94733668 -36.83203125 133.265625 C-38.20328542 131.89249976 -39.57476498 130.51959956 -40.94645691 129.14691162 C-44.51103596 125.57856155 -48.07259878 122.00721645 -51.63348389 118.43518066 C-55.28569543 114.77263682 -58.9408317 111.1130142 -62.59570312 107.453125 C-69.73329062 100.30489602 -76.86768652 93.153491 -84 86 C-82.51104975 82.82512554 -81.42780962 81.30554118 -78.4296875 79.44140625 C-77.70587891 78.97968018 -76.98207031 78.5179541 -76.23632812 78.04223633 C-75.45708984 77.55392334 -74.67785156 77.06561035 -73.875 76.5625 C-53.51444269 63.40377436 -35.00136397 47.05578666 -20 28 C-19.195625 26.989375 -18.39125 25.97875 -17.5625 24.9375 C-11.24674138 16.92253395 -5.55979809 8.55262557 0 0 Z " fill="#fff" transform="translate(415,331)"/>
<path d="M0 0 C3.67326448 3.67326448 4.91914849 6.30933304 5 11.5 C5.02835937 12.32242188 5.05671875 13.14484375 5.0859375 13.9921875 C3.94476007 20.51043826 -1.70870123 25.2414196 -6.21972656 29.71264648 C-6.89996384 30.3947821 -7.58020111 31.07691772 -8.28105164 31.77972412 C-10.52105975 34.02342307 -12.7681649 36.25986128 -15.015625 38.49609375 C-16.5829457 40.06222114 -18.14989559 41.6287197 -19.7164917 43.1955719 C-22.99850115 46.47601917 -26.28383569 49.7530866 -29.57177734 53.02758789 C-33.77080907 57.20966552 -37.96326408 61.39825956 -42.1534462 65.58920193 C-45.38920783 68.82469056 -48.62757779 72.05755789 -51.86681366 75.28956795 C-53.4126462 76.83223411 -54.95788774 78.37549274 -56.50251007 79.91937065 C-58.67007847 82.0847518 -60.84092046 84.24679772 -63.01269531 86.40795898 C-63.95597939 87.35192284 -63.95597939 87.35192284 -64.9183197 88.31495667 C-68.66830064 92.03839755 -72.5321735 95.57490537 -76.54446602 99.01454639 C-79.60873173 101.71040335 -82.44092033 104.62645409 -85.2890625 107.546875 C-86.5570048 108.83231428 -87.82524258 110.11746215 -89.09375 111.40234375 C-91.0563998 113.39602942 -93.01658227 115.39197239 -94.97167969 117.39306641 C-96.88317909 119.34699061 -98.80408698 121.29125743 -100.7265625 123.234375 C-101.30483795 123.83127136 -101.8831134 124.42816772 -102.47891235 125.04315186 C-106.28367851 128.87162739 -110.02084234 131.99609544 -115.5 133.0234375 C-116.11875 133.01570312 -116.7375 133.00796875 -117.375 133 C-117.99375 133.00773438 -118.6125 133.01546875 -119.25 133.0234375 C-124.87733116 131.96831291 -128.71994841 128.65052153 -132.64599609 124.69458008 C-133.13455078 124.20646347 -133.62310547 123.71834686 -134.12646484 123.21543884 C-135.72434616 121.61548329 -137.31136253 120.00520048 -138.8984375 118.39453125 C-140.01021643 117.27715151 -141.12266372 116.16043642 -142.23574829 115.0443573 C-145.15222746 112.11646759 -148.05958138 109.17967914 -150.96508789 106.24090576 C-153.93608027 103.23913063 -156.91566839 100.24591437 -159.89453125 97.25195312 C-165.72977137 91.38461578 -171.5553932 85.50784365 -177.375 79.625 C-182.462868 83.87484153 -187.18618594 88.33014082 -191.81982422 93.06738281 C-193.2864079 94.55694475 -194.75303376 96.04646517 -196.21969604 97.53594971 C-196.98688839 98.31699318 -197.75408073 99.09803665 -198.54452133 99.90274811 C-202.63788716 104.06512263 -206.7481094 108.21081678 -210.85546875 112.359375 C-216.06809916 117.62598333 -221.27552133 122.89743456 -226.46435547 128.1875 C-230.67172837 132.47606939 -234.89605715 136.74726809 -239.13220596 141.00740814 C-240.73882831 142.62944046 -242.33914767 144.2577418 -243.93288803 145.89243317 C-246.16302686 148.17822195 -248.41419979 150.44115621 -250.67138672 152.70019531 C-251.31998657 153.37553314 -251.96858643 154.05087097 -252.63684082 154.74667358 C-257.13594005 159.18689756 -261.02528557 161.14686048 -267.375 161.625 C-274.9879265 161.08270797 -279.89180734 155.91023383 -284.91015625 150.67578125 C-285.67428329 149.90316452 -286.43841034 149.13054779 -287.22569275 148.33451843 C-289.64417811 145.88265841 -292.04086721 143.41070561 -294.4375 140.9375 C-296.08128237 139.26359808 -297.72645146 137.59105672 -299.37304688 135.91992188 C-303.3898763 131.83721949 -307.3890535 127.73784684 -311.375 123.625 C-317.33618297 128.56497261 -322.78986302 133.91029862 -328.24609375 139.3984375 C-329.62958763 140.7840538 -329.62958763 140.7840538 -331.04103088 142.19766235 C-333.47133814 144.63175431 -335.89862496 147.06883597 -338.32525635 149.5065918 C-340.81069364 152.0023311 -343.29902932 154.49517708 -345.78710938 156.98828125 C-350.65255096 161.8643886 -355.51480198 166.74366631 -360.375 171.625 C-364.5461673 169.77349589 -365.91254455 167.63488963 -368.25 163.6875 C-368.76336914 162.82439209 -368.76336914 162.82439209 -369.28710938 161.94384766 C-370.32981924 160.1783282 -371.35460849 158.4034958 -372.375 156.625 C-372.98601562 155.56925781 -373.59703125 154.51351562 -374.2265625 153.42578125 C-378.375 146.06279621 -378.375 146.06279621 -378.375 142.625 C-376.9765625 141.15234375 -376.9765625 141.15234375 -375 139.5625 C-371.61229551 136.73143247 -368.4707863 133.77350093 -365.375 130.625 C-362.47908042 127.69381809 -359.57257429 124.86096826 -356.4375 122.1875 C-353.08574927 119.32327665 -349.96943244 116.26166284 -346.875 113.125 C-343.18747222 109.38714772 -339.41024694 105.84214597 -335.40625 102.4453125 C-332.92142035 100.21852285 -330.63287211 97.83475191 -328.3125 95.4375 C-322.5212661 89.637438 -318.21362296 86.21960631 -309.78125 86.09375 C-302.47037644 87.70783897 -297.51275003 93.08047134 -292.47265625 98.234375 C-291.38880898 99.32458954 -291.38880898 99.32458954 -290.2830658 100.43682861 C-287.99402421 102.74256111 -285.7156806 105.05854076 -283.4375 107.375 C-281.88025411 108.94730504 -280.32231831 110.51892708 -278.76367188 112.08984375 C-274.95942892 115.92702869 -271.16389698 119.77266464 -267.375 123.625 C-264.38221563 122.28174928 -262.30751728 120.80154573 -260.00440979 118.47473145 C-259.35824707 117.82698257 -258.71208435 117.1792337 -258.04634094 116.51185608 C-257.3485704 115.80218185 -256.65079987 115.09250763 -255.93188477 114.36132812 C-254.8165184 113.23917152 -254.8165184 113.23917152 -253.67861938 112.09434509 C-252.06516193 110.46993147 -250.45398449 108.84325076 -248.84482002 107.21458435 C-246.29840159 104.63803227 -243.74538773 102.0681894 -241.19041443 99.50012207 C-233.92756879 92.19749676 -226.67745369 84.88227827 -219.43041992 77.56396484 C-214.99712468 73.08798904 -210.5565711 68.61931784 -206.11164665 64.15489197 C-204.41864895 62.45131715 -202.72857345 60.74483315 -201.0414753 59.03541565 C-198.68356538 56.64636039 -196.316626 54.26660719 -193.94750977 51.88867188 C-193.25176346 51.17899765 -192.55601715 50.46932343 -191.83918762 49.73814392 C-187.42502254 45.33236988 -184.31660529 42.89241866 -177.9375 42.3125 C-171.46470338 42.88028918 -167.57356327 46.05182838 -163.10400391 50.55541992 C-162.37117188 51.28759483 -162.37117188 51.28759483 -161.62353516 52.03456116 C-160.02565384 53.63451671 -158.43863747 55.24479952 -156.8515625 56.85546875 C-155.73978357 57.97284849 -154.62733628 59.08956358 -153.51425171 60.2056427 C-150.59777254 63.13353241 -147.69041862 66.07032086 -144.78491211 69.00909424 C-141.81391973 72.01086937 -138.83433161 75.00408563 -135.85546875 77.99804688 C-130.02022863 83.86538422 -124.1946068 89.74215635 -118.375 95.625 C-112.74149935 90.94012673 -107.55549864 85.93026211 -102.39794922 80.72973633 C-101.52713715 79.8558577 -100.65632507 78.98197906 -99.75912476 78.08161926 C-97.87834612 76.19371489 -95.99848643 74.30494506 -94.12008286 72.41468239 C-91.1473367 69.42351909 -88.17013804 66.43681394 -85.19216919 63.45085144 C-76.72930027 54.96392127 -68.27243431 46.47102403 -59.81982422 37.97387695 C-55.14148306 33.27096415 -50.4595357 28.57167127 -45.77371609 23.87620944 C-42.81467214 20.91063948 -39.86018289 17.94062899 -36.90903068 14.9672066 C-34.64114149 12.68480643 -32.36669381 10.40895713 -30.09326172 8.13208008 C-29.28066895 7.31072571 -28.46807617 6.48937134 -27.63085938 5.64312744 C-26.49981277 4.51403709 -26.49981277 4.51403709 -25.34591675 3.36213684 C-24.37093137 2.38243785 -24.37093137 2.38243785 -23.37624931 1.38294697 C-16.14226709 -4.97156221 -7.82099675 -6.19560623 0 0 Z " fill="#fff" transform="translate(471.375,119.375)"/>
</svg>
