<?xml version="1.0" encoding="UTF-8"?>
<svg version="1.1" xmlns="http://www.w3.org/2000/svg" width="512" height="512">
<path d="M0 0 C0.03440186 0.77786865 0.06880371 1.5557373 0.10424805 2.35717773 C2.52742188 53.54437699 17.77821225 96.02343556 53 134 C53.80630859 134.88751953 53.80630859 134.88751953 54.62890625 135.79296875 C57.92701099 139.27292388 61.10375767 141.76728636 65.30371094 144.06103516 C73.56148995 149.8717149 73.56148995 149.8717149 74.53319931 154.58785439 C74.6449997 157.55062424 74.57368395 160.44219286 74.41015625 163.40234375 C74.3805481 164.42259644 74.35093994 165.44284912 74.32043457 166.49401855 C74.24347031 168.99865554 74.13589579 171.49798426 74 174 C53.37262374 174.07008431 32.74526712 174.12298537 12.11779594 174.15543652 C2.54007868 174.17090471 -7.0375646 174.19199334 -16.61523438 174.22631836 C-24.96323314 174.25622215 -33.31117832 174.27557535 -41.65922916 174.28226548 C-46.07937622 174.28617608 -50.49937 174.29536555 -54.91946793 174.31719017 C-59.08087712 174.33757078 -63.24207004 174.34383062 -67.4035244 174.33932304 C-68.92972044 174.34014754 -70.4559238 174.34610389 -71.98207664 174.35761642 C-74.06905459 174.37258571 -76.15522051 174.36893814 -78.24221802 174.36076355 C-79.40920794 174.36352893 -80.57619785 174.36629431 -81.7785511 174.36914349 C-87.43353799 173.72114265 -91.20677388 171.29756973 -94.8125 167 C-95.39644531 166.319375 -95.98039062 165.63875 -96.58203125 164.9375 C-99.4860767 160.9694379 -99.15413907 156.88575146 -99.16113281 152.18652344 C-99.16609772 151.39087982 -99.17106262 150.59523621 -99.17617798 149.77548218 C-99.19080628 147.13677098 -99.19760716 144.49812014 -99.203125 141.859375 C-99.20888143 140.01629638 -99.2146391 138.17321777 -99.22039795 136.33013916 C-99.23091362 132.45641807 -99.23675076 128.58271773 -99.24023438 124.70898438 C-99.24568212 119.78361792 -99.2696271 114.85853311 -99.29820633 109.93325424 C-99.31699469 106.11870576 -99.32204711 102.30422246 -99.32357025 98.48963165 C-99.32656732 96.67664318 -99.33449414 94.86365503 -99.34775543 93.05071259 C-99.53257027 65.8120501 -92.37812345 41.04251625 -73 21 C-59.18569508 8.81090743 -43.93691516 4.17276549 -26.01318359 2.06469727 C-23.87066505 1.8119887 -21.7303294 1.54472488 -19.58984375 1.27539062 C-13.03907588 0.46888332 -6.60625652 -0.24880706 0 0 Z " fill="#fff" transform="translate(138,301)"/>
<path d="M0 0 C4.56077032 0.30269581 9.10927132 0.67325797 13.65966797 1.10473633 C15.2040519 1.24183947 16.75014246 1.36104801 18.29736328 1.46118164 C31.1615082 2.31242428 31.1615082 2.31242428 35.7421875 6.51708984 C37.72008093 9.26522062 39.35946709 12.04343824 41 15 C41.99275417 16.00719371 42.99050593 17.00958507 44 18 C44 18.66 44 19.32 44 20 C44.58910156 20.26554687 45.17820312 20.53109375 45.78515625 20.8046875 C48.05812354 22.03136826 49.57793351 23.3441234 51.4375 25.125 C53.9749802 27.52165739 55.99535736 28.99805382 59.23822021 30.35745239 C63.14004218 32.06684662 66.35804632 33.58775775 69 37 C71.45566836 43.88781146 70.62489605 51.73988503 70.453125 58.9296875 C70.44877357 61.08822242 70.45030586 63.2467765 70.4574585 65.40530396 C70.46115314 71.07108261 70.38810531 76.73329314 70.2979126 82.39825439 C70.21827943 88.17678182 70.20636757 93.95537722 70.19140625 99.734375 C70.17307298 106.21981308 70.14818914 112.70441827 70.06768799 119.18942261 C70.05665543 120.1719249 70.04562286 121.15442719 70.03425598 122.16670227 C70.01261894 124.0059502 69.98693189 125.8451565 69.95652771 127.6842804 C69.77285059 131.97634185 69.77285059 131.97634185 71 136 C73.25932054 136.41557189 73.25932054 136.41557189 76 136 C78.09806149 134.412358 79.84043171 132.90199089 81.6875 131.0625 C82.74052888 130.05691817 83.79392052 129.0517161 84.84765625 128.046875 C85.37246582 127.53833984 85.89727539 127.02980469 86.43798828 126.50585938 C88.79638297 124.23224599 91.20384162 122.01930328 93.625 119.8125 C94.42164063 119.07644531 95.21828125 118.34039062 96.0390625 117.58203125 C98 116 98 116 100 116 C100.09956118 121.79829005 100.17179346 127.59607242 100.21972656 133.39501953 C100.23972787 135.36385782 100.26693802 137.33263756 100.30175781 139.30126953 C100.35078531 142.14630658 100.37308382 144.99055215 100.390625 147.8359375 C100.41127014 148.70302338 100.43191528 149.57010925 100.45318604 150.46347046 C100.45563576 157.27540887 99.16732549 164.36924 94.55230713 169.65951538 C89.60773598 173.9293673 85.91093349 175.2506441 79.44476318 175.24050903 C78.78797711 175.24221788 78.13119103 175.24392673 77.45450234 175.24568737 C75.25568974 175.2489793 73.05718289 175.23798369 70.85839844 175.22705078 C69.28147387 175.2264866 67.70454877 175.22680336 66.12762451 175.22793579 C61.84696019 175.22851004 57.56640776 175.21674398 53.28576946 175.20278788 C48.81212111 175.19029263 44.33847024 175.18911097 39.86480713 175.18673706 C31.3934162 175.18051875 22.92207684 175.16410317 14.45070863 175.14403808 C4.80630842 175.12169002 -4.83809425 175.1106884 -14.4825139 175.10064721 C-34.32170473 175.07973725 -54.16084912 175.04455443 -74 175 C-74.11272305 171.42343468 -74.18144964 167.84732729 -74.2421875 164.26953125 C-74.27465576 163.25636841 -74.30712402 162.24320557 -74.34057617 161.19934082 C-74.43658812 153.67479183 -74.43658812 153.67479183 -72.20385742 150.22387695 C-69.90639391 148.52593944 -67.54361381 147.29644698 -65 146 C-63.3526842 144.65536174 -61.74942509 143.25544539 -60.1875 141.8125 C-59.35347656 141.04679688 -58.51945313 140.28109375 -57.66015625 139.4921875 C-56.78230469 138.66976562 -55.90445313 137.84734375 -55 137 C-54.04996094 136.11570312 -53.09992188 135.23140625 -52.12109375 134.3203125 C-19.10529048 102.8864939 -1.94460253 57.46601005 -0.4375 12.5 C-0.37272461 10.69402344 -0.37272461 10.69402344 -0.30664062 8.8515625 C-0.20126832 5.90113807 -0.09914097 2.95063929 0 0 Z " fill="#fff" transform="translate(295,300)"/>
<path d="M0 0 C6.22972276 2.54852295 10.22644134 8.4789731 13.0234375 14.4140625 C16.46633947 23.53086692 18.38198013 33.01436209 18.7265625 42.7421875 C18.7886464 45.19995506 18.7886464 45.19995506 21 47 C23.20533154 47.16731824 23.20533154 47.16731824 25.6875 47 C30.17355148 46.92879283 33.8010859 47.23645608 38 49 C41.93312345 52.93312345 42.81990789 55.74884867 43.25 61.125 C42.74709867 68.91997056 40.55310585 76.31674323 35 82 C30.17363196 86.14766004 25.80720887 87.56950517 19.4921875 87.859375 C16.61138716 88.021928 13.83787196 88.49000562 11 89 C10.6596875 90.26972656 10.319375 91.53945312 9.96875 92.84765625 C4.65360581 112.00685346 -2.98920023 130.02181576 -20.73828125 140.82421875 C-33.11351625 147.25763107 -46.23550239 149.25644297 -59.8125 145.375 C-74.70416427 140.13196906 -85.68965786 129.97565409 -93 116 C-97.01007737 107.26105782 -99.99924599 98.42460441 -102 89 C-105.68231775 88.34167866 -109.26808537 87.89682213 -113 87.6875 C-119.35305664 87.05029222 -122.94479164 84.30364968 -127.1875 79.6875 C-132.23054266 73.45630592 -133.98727237 66.91658662 -134 59 C-133.34392726 54.93234903 -132.64483383 52.76574017 -130 49.625 C-123.88103906 46.31056283 -116.80347752 46.96656768 -110 47 C-109.98541748 46.43603516 -109.97083496 45.87207031 -109.95581055 45.29101562 C-109.88055146 42.69338054 -109.78415516 40.09692357 -109.6875 37.5 C-109.66494141 36.613125 -109.64238281 35.72625 -109.61914062 34.8125 C-109.33887352 27.88225886 -108.61516817 21.61516817 -103.5 16.5 C-97.86573009 14.0853129 -92.20015734 14.42058589 -86.22631836 15.50219727 C-71.16604056 17.82591323 -53.63899459 17.35308233 -39 13 C-37.17082031 12.48953125 -37.17082031 12.48953125 -35.3046875 11.96875 C-28.37463322 9.86269654 -22.39453223 7.24848086 -16.125 3.6875 C-10.45304125 0.48636368 -6.54282639 -1.16082404 0 0 Z " fill="#fff" transform="translate(262,108)"/>
<path d="M0 0 C15.94977059 12.55573039 27.52497342 29.40561129 29.99609375 49.8984375 C31.39262541 72.94120987 26.83177233 93.73347366 11.34106445 111.44213867 C-1.69929837 125.56827134 -19.73000507 134.08859483 -38.90625 135.28125 C-58.44406498 135.9772153 -77.8597531 130.99269824 -92.50390625 117.4609375 C-94.37692745 115.64056405 -96.18906112 113.77848664 -98.00390625 111.8984375 C-98.74125 111.19203125 -99.47859375 110.485625 -100.23828125 109.7578125 C-112.81762338 96.98344181 -118.29040392 78.44566054 -118.50390625 60.8984375 C-118.26185423 41.00478727 -111.00299301 22.2400794 -97.00390625 7.8984375 C-70.70032785 -17.37281836 -30.1351256 -21.08283169 0 0 Z M-53.9765625 20.125 C-56.09229793 23.01935868 -57.36216822 25.79079304 -58.75390625 29.0859375 C-61.42144467 34.52079758 -61.42144467 34.52079758 -63.78125 36.05078125 C-65.88318796 36.57089269 -67.84206065 36.7686526 -70.00390625 36.8984375 C-77.13577651 37.82162412 -81.99687669 38.50625182 -87.00390625 43.8984375 C-89.55031962 47.37081937 -89.43920417 50.69055757 -89.00390625 54.8984375 C-87.26074753 58.46398942 -85.4741613 60.48705518 -82.4765625 63.109375 C-75.23044836 69.55262375 -75.23044836 69.55262375 -74.54296875 73.63671875 C-74.82386265 76.47374712 -75.33882149 79.12725099 -76.00390625 81.8984375 C-77.35012192 89.05608538 -77.35012192 89.05608538 -75.31640625 95.8359375 C-72.3197263 99.80451365 -70.7262365 101.44233491 -65.90625 102.71875 C-60.78048115 102.95477139 -57.80396654 101.29078458 -53.37890625 98.8984375 C-45.88686788 94.89045893 -45.88686788 94.89045893 -42.41015625 94.921875 C-38.55648199 96.48586618 -34.94994564 98.474839 -31.3515625 100.546875 C-26.82711523 102.973172 -23.94648767 103.14740119 -19.00390625 101.8984375 C-15.0224507 99.71990522 -12.66925546 98.12349012 -11.00390625 93.8984375 C-10.72513226 91.74900415 -10.72513226 91.74900415 -10.81640625 89.4609375 C-10.82027344 88.14609375 -10.82027344 88.14609375 -10.82421875 86.8046875 C-10.94384931 83.83973388 -10.94384931 83.83973388 -11.62109375 80.7421875 C-12.23655495 77.20117786 -12.54854619 74.4621839 -12.00390625 70.8984375 C-9.46981062 67.52978551 -6.98550421 65.21483582 -3.73828125 62.53125 C-0.45147331 59.3665235 0.55070741 57.18492689 1.99609375 52.8984375 C1.89421651 47.90645257 0.19714341 44.6891542 -3.00390625 40.8984375 C-6.65215744 38.67776286 -8.95998777 37.91725815 -13.25390625 37.83984375 C-17.28633197 37.6964493 -20.24383967 37.41012905 -24.00390625 35.8984375 C-27.21453492 32.34697313 -29.07680565 28.03760471 -31.0390625 23.71875 C-33.04168443 19.41036171 -35.74915202 17.02581461 -40.00390625 14.8984375 C-46.33782048 14.42040624 -49.74168748 15.34504206 -53.9765625 20.125 Z " fill="#fff" transform="translate(443.00390625,201.1015625)"/>
<path d="M0 0 C1.14057861 -0.01401855 2.28115723 -0.02803711 3.45629883 -0.04248047 C13.87408729 0.01642403 26.24026456 1.57582011 34.13671875 9.1171875 C38.3125 13.80885781 38.3125 13.80885781 38.3125 16.375 C39.40046875 16.52195312 40.4884375 16.66890625 41.609375 16.8203125 C57.38749368 19.14740489 70.79613723 24.70734964 80.625 37.8125 C87.31230474 47.55155095 91.37189933 57.52343156 92.3125 69.375 C92.39177734 70.33212891 92.39177734 70.33212891 92.47265625 71.30859375 C93.0775367 85.22084405 88.43111667 98.13776666 82.3125 110.375 C79.3425 110.045 76.3725 109.715 73.3125 109.375 C73.15394531 108.37082031 72.99539063 107.36664063 72.83203125 106.33203125 C70.37254067 91.58777488 66.31446539 76.32784935 54.3125 66.375 C48.68125431 63.17291912 43.64511715 62.59564444 37.3125 63.375 C33.68287435 64.61476287 30.38174072 66.32710457 27 68.125 C11.01151532 76.16492372 -4.07654211 79.76456499 -22.0625 79.625 C-23.2477124 79.62330811 -24.4329248 79.62161621 -25.65405273 79.61987305 C-31.81689582 79.56778553 -37.6831898 79.26203954 -43.75 78.1875 C-51.35249199 76.85872487 -56.60462669 78.43393162 -63.0625 82.5 C-70.06159623 90.16567683 -70.69058051 99.41892244 -71.6875 109.375 C-77.6275 110.365 -77.6275 110.365 -83.6875 111.375 C-90.20876437 87.21138648 -90.51284255 63.05805028 -78.59765625 40.59375 C-67.16304821 21.32561702 -48.60028974 9.91706144 -27.6875 3.375 C-26.64078125 3.0346875 -25.5940625 2.694375 -24.515625 2.34375 C-16.40976642 0.16605665 -8.35432021 0.07102384 0 0 Z " fill="#fff" transform="translate(215.6875,36.625)"/>
<path d="M0 0 C3.63 0.66 7.26 1.32 11 2 C15.97451099 2.82032105 20.83858442 3.21155408 25.875 3.25 C27.19242187 3.27578125 28.50984375 3.3015625 29.8671875 3.328125 C37.31253637 2.85216662 44.65297633 1.29653359 52 0 C52 26.73 52 53.46 52 81 C46.53846298 76.90384724 41.84701614 73.09322466 37.1875 68.25 C36.07913987 67.10712346 34.96854546 65.96640845 33.85546875 64.828125 C33.37746826 64.3321582 32.89946777 63.83619141 32.40698242 63.32519531 C30.8305899 61.76667415 30.8305899 61.76667415 28 60 C24.03544179 60.28270328 22.02824639 61.46505404 19.22265625 64.203125 C18.54396484 64.85410156 17.86527344 65.50507813 17.16601562 66.17578125 C16.12477539 67.20251953 16.12477539 67.20251953 15.0625 68.25 C13.67984644 69.59005079 12.29575549 70.92862024 10.91015625 72.265625 C10.25031738 72.90306641 9.59047852 73.54050781 8.91064453 74.19726562 C1.70070423 81 1.70070423 81 0 81 C0 54.27 0 27.54 0 0 Z " fill="#fff" transform="translate(373,341)"/>
<path d="M0 0 C2.98774067 1.42927054 5.01821514 2.8573756 7.375 5.1875 C18.38588797 14.99087423 33.11968545 19.69913789 47.7109375 19.28125 C62.37693373 18.02715056 73.77842676 12.40910032 84.8203125 2.85546875 C87 1 87 1 89 0 C89.19968829 4.10705042 89.34379701 8.21217652 89.43945312 12.32299805 C89.47937067 13.71705399 89.53373171 15.11078179 89.60351562 16.50366211 C89.95053668 23.61504217 90.2278561 29.55251203 85.296875 35.19140625 C83.90104639 36.500922 82.47154107 37.7761798 81 39 C80.08734375 39.8353125 79.1746875 40.670625 78.234375 41.53125 C75.49830482 43.69945656 72.76104594 45.86360836 70 48 C69.02675781 48.76570313 68.05351562 49.53140625 67.05078125 50.3203125 C49.05087019 64.20259685 49.05087019 64.20259685 44 63.8671875 C29.73349267 57.68131909 7.22241961 43.44483922 0 29 C-0.08559118 26.82175039 -0.10713412 24.64084745 -0.09765625 22.4609375 C-0.09443359 21.15898437 -0.09121094 19.85703125 -0.08789062 18.515625 C-0.07953466 17.13541601 -0.07106971 15.75520768 -0.0625 14.375 C-0.05748501 12.98698074 -0.0529221 11.59895978 -0.04882812 10.2109375 C-0.03700976 6.80724868 -0.02053434 3.40364561 0 0 Z " fill="#fff" transform="translate(172,244)"/>
<path d="M0 0 C4.24040568 1.64262487 5.32467596 4.99504119 7.28515625 8.9296875 C10.32524697 15.56169641 10.32524697 15.56169641 15.72265625 20.0546875 C18.90185323 20.91602589 22.10803652 21.52970422 25.34765625 22.1171875 C27.07030597 22.43445065 28.79174819 22.75836336 30.51171875 23.08984375 C31.27178223 23.227854 32.0318457 23.36586426 32.81494141 23.50805664 C34.72265625 24.0546875 34.72265625 24.0546875 36.72265625 26.0546875 C36.54615892 29.08455829 36.1488622 30.60259053 34.05078125 32.828125 C33.365 33.35664063 32.67921875 33.88515625 31.97265625 34.4296875 C25.57755312 39.64208887 25.57755312 39.64208887 22.38671875 47.00390625 C22.34265541 49.38773302 22.50108557 51.67972677 22.72265625 54.0546875 C22.93679637 56.53335935 23.14482412 59.01256469 23.34765625 61.4921875 C23.46367187 62.68714844 23.5796875 63.88210938 23.69921875 65.11328125 C23.71082031 66.56927734 23.71082031 66.56927734 23.72265625 68.0546875 C23.06265625 68.7146875 22.40265625 69.3746875 21.72265625 70.0546875 C17.83352211 69.79587821 14.81597174 68.17076142 11.4074707 66.3737793 C4.57941487 62.61141802 4.57941487 62.61141802 -2.96484375 62.2421875 C-7.70812169 63.88928401 -12.14239617 66.50596112 -16.48046875 69.0078125 C-19.27734375 70.0546875 -19.27734375 70.0546875 -22.13671875 69.2265625 C-22.843125 68.83984375 -23.54953125 68.453125 -24.27734375 68.0546875 C-24.1321391 66.4296312 -23.98613506 64.80464633 -23.83984375 63.1796875 C-23.75347656 62.17808594 -23.66710937 61.17648437 -23.578125 60.14453125 C-23.38831619 58.19467714 -23.16141157 56.24775362 -22.8828125 54.30859375 C-22.76550781 53.46167969 -22.64820313 52.61476563 -22.52734375 51.7421875 C-22.34945313 50.60330078 -22.34945313 50.60330078 -22.16796875 49.44140625 C-22.41872281 43.96959449 -25.5952456 40.46189504 -29.45117188 36.86132812 C-30.46868188 35.94097392 -31.48958268 35.02435594 -32.51367188 34.11132812 C-34.85636382 31.91251312 -36.18397865 30.5425728 -36.796875 27.33984375 C-36.27734375 25.0546875 -36.27734375 25.0546875 -33.27734375 23.0546875 C-29.72829835 22.39692145 -26.1900456 21.85108809 -22.61328125 21.375 C-17.78632151 20.63239081 -14.73271388 19.74647769 -11.27734375 16.0546875 C-9.67020344 13.57945166 -8.33516876 11.01050306 -7.02734375 8.3671875 C-2.80365379 0.06732616 -2.80365379 0.06732616 0 0 Z " fill="#fff" transform="translate(399.27734375,224.9453125)"/>
<path d="M0 0 C1.48831242 0.00667405 2.97660807 0.01863442 4.46484375 0.03515625 C5.22345703 0.03966797 5.98207031 0.04417969 6.76367188 0.04882812 C8.64326246 0.06064945 10.52281274 0.07858547 12.40234375 0.09765625 C14.36009432 6.66283872 16.3172226 13.22820646 18.27392578 19.79370117 C18.93914822 22.02551438 19.60451121 24.2572857 20.27001953 26.48901367 C21.22856324 29.70350219 22.18659542 32.91814279 23.14453125 36.1328125 C23.44044159 37.12475113 23.73635193 38.11668976 24.04122925 39.13868713 C24.58908972 40.97789081 25.13535954 42.81756941 25.6796875 44.65782166 C26.13258227 46.18688659 26.58961801 47.71473776 27.05273438 49.24073792 C28.16486307 52.96784161 28.80933563 55.37653298 27.40234375 59.09765625 C21.12795461 67.07471082 12.51474174 73.12143829 4.40234375 79.09765625 C-0.2620536 76.12098741 -4.46787431 72.82901796 -8.66015625 69.22265625 C-9.25892578 68.71863281 -9.85769531 68.21460938 -10.47460938 67.6953125 C-12.22012396 66.20024962 -13.90638871 64.65348141 -15.59765625 63.09765625 C-16.41532471 62.45521973 -16.41532471 62.45521973 -17.24951172 61.79980469 C-18.71875 60.46484375 -18.71875 60.46484375 -20.59765625 57.09765625 C-20.39613047 53.61500347 -19.34189995 50.46123745 -18.25842285 47.15960693 C-17.5000138 44.79295878 -16.81142118 42.41133171 -16.12792969 40.02197266 C-14.73507209 35.1563298 -13.30980588 30.30104114 -11.87207031 25.44848633 C-10.96382214 22.38031354 -10.06179812 19.31035421 -9.16015625 16.24023438 C-8.58500642 14.29285914 -8.00949896 12.34558948 -7.43359375 10.3984375 C-7.16380707 9.47879715 -6.89402039 8.5591568 -6.61605835 7.61164856 C-6.36554718 6.7695433 -6.11503601 5.92743805 -5.85693359 5.05981445 C-5.63725922 4.31657425 -5.41758484 3.57333405 -5.19125366 2.80757141 C-4.08133548 -0.38965603 -3.71881541 0.10094504 0 0 Z " fill="#fff" transform="translate(212.59765625,366.90234375)"/>
<path d="M0 0 C2.88310863 2.6816587 4.82106695 5.13900416 6.59375 8.6484375 C7.06119629 9.56141602 7.52864258 10.47439453 8.01025391 11.41503906 C8.50187012 12.39182617 8.99348633 13.36861328 9.5 14.375 C10.55811524 16.44101707 11.61806315 18.50609639 12.6796875 20.5703125 C13.22334961 21.62895508 13.76701172 22.68759766 14.32714844 23.77832031 C17.02448294 28.97301181 19.81779721 34.11405585 22.625 39.25 C23.38780273 40.65064697 23.38780273 40.65064697 24.16601562 42.07958984 C26.02227863 45.47200518 27.85351228 48.78026842 30 52 C31.65 52 33.3 52 35 52 C37.64 46.39 40.28 40.78 43 35 C43.99 35 44.98 35 46 35 C47.859375 37.30859375 47.859375 37.30859375 49.75 40.4375 C50.38421875 41.44683594 51.0184375 42.45617187 51.671875 43.49609375 C54.54102887 51.06559676 51.28098655 59.25729706 49.05859375 66.72265625 C48.77146011 67.70874374 48.48432648 68.69483124 48.18849182 69.71080017 C47.27846677 72.8301235 46.35816716 75.94630311 45.4375 79.0625 C44.81507124 81.18925307 44.19331963 83.31620444 43.57226562 85.44335938 C42.05599924 90.63122489 40.53130751 95.81655551 39 101 C35.83225174 99.510536 34.2293369 98.35469292 32.265625 95.4296875 C31.77795654 94.70644287 31.29028809 93.98319824 30.7878418 93.23803711 C30.02661011 92.06833374 30.02661011 92.06833374 29.25 90.875 C28.71995361 90.06748291 28.18990723 89.25996582 27.64379883 88.42797852 C22.78663184 80.89638417 18.67634404 73.16522782 15 65 C14.69223633 64.32646484 14.38447266 63.65292969 14.06738281 62.95898438 C5.26788425 43.48423207 -0.55814826 21.50339622 0 0 Z " fill="#fff" transform="translate(147,314)"/>
<path d="M0 0 C0.33 0 0.66 0 1 0 C1.21906177 7.6765234 0.67257816 14.93505082 -0.625 22.5 C-0.80248779 23.54027344 -0.97997559 24.58054687 -1.1628418 25.65234375 C-5.89660453 51.90594853 -17.21086117 78.1552255 -34 99 C-35.485 99.99 -35.485 99.99 -37 101 C-39.23557585 95.21521929 -41.17709682 89.40174388 -42.953125 83.4609375 C-43.21760437 82.57644928 -43.48208374 81.69196106 -43.75457764 80.78067017 C-44.30757999 78.92397491 -44.85876341 77.06673701 -45.40820312 75.20898438 C-45.97096151 73.31440801 -46.53935684 71.42149721 -47.11328125 69.53027344 C-47.94732792 66.78153743 -48.76453023 64.02828662 -49.578125 61.2734375 C-49.83636047 60.4326767 -50.09459595 59.59191589 -50.36065674 58.72567749 C-52.12129725 52.66014715 -52.27316143 48.62290401 -49.44140625 42.7890625 C-48.82136719 41.74492187 -48.20132813 40.70078125 -47.5625 39.625 C-46.94503906 38.56539063 -46.32757813 37.50578125 -45.69140625 36.4140625 C-45.13324219 35.61742187 -44.57507813 34.82078125 -44 34 C-43.34 34 -42.68 34 -42 34 C-41.01407845 36.05927956 -40.03652506 38.12256688 -39.0625 40.1875 C-38.51722656 41.33605469 -37.97195312 42.48460937 -37.41015625 43.66796875 C-36.20539869 46.51466736 -35.45223729 48.96027845 -35 52 C-32.2140814 52.67012422 -32.2140814 52.67012422 -29 52 C-23.72253876 44.6361006 -19.8282692 36.26408656 -15.625 28.25 C-4.2825926 6.63446941 -4.2825926 6.63446941 0 0 Z " fill="#fff" transform="translate(285,314)"/>
<path d="M0 0 C3.49679497 1.29510925 5.0705507 3.3165149 7.34375 6.171875 C11.0774407 10.29302417 15.6296729 13.58708992 20 17 C21.0003125 17.78117187 22.000625 18.56234375 23.03125 19.3671875 C29.12212242 24.02953056 35.31858456 28.2306174 42 32 C40.41454739 36.0348345 37.52667958 38.53774673 34.4375 41.4375 C25.51590803 50.08540704 19.18338431 60.2578853 13 71 C10.66636189 68.04281795 8.83631058 65.01824516 7.06640625 61.6953125 C6.50518066 60.64698242 5.94395508 59.59865234 5.36572266 58.51855469 C4.77065918 57.39868164 4.1755957 56.27880859 3.5625 55.125 C2.31216747 52.77812091 1.06120848 50.43159719 -0.19140625 48.0859375 C-0.50734741 47.49373413 -0.82328857 46.90153076 -1.14880371 46.29138184 C-3.24884522 42.36742977 -5.4022481 38.47728612 -7.58984375 34.6015625 C-8.14422119 33.61269043 -8.69859863 32.62381836 -9.26977539 31.60498047 C-10.31750038 29.74154382 -11.37487377 27.88348988 -12.44311523 26.03173828 C-17.12156371 17.66298611 -17.12156371 17.66298611 -16 13 C-13.76953125 10.5859375 -13.76953125 10.5859375 -10.8125 8.375 C-9.36810547 7.27285156 -9.36810547 7.27285156 -7.89453125 6.1484375 C-6.93933594 5.43945312 -5.98414063 4.73046875 -5 4 C-3.32845 2.67279386 -1.66013268 1.34146004 0 0 Z " fill="#fff" transform="translate(166,281)"/>
<path d="M0 0 C4.27170766 0.50373911 6.46464324 2.99808219 9.5 5.875 C12.56741754 8.76545114 15.56437122 11.55292479 19 14 C18.39907574 17.8175609 17.27482712 20.76878647 15.48046875 24.18359375 C14.9582373 25.18358398 14.43600586 26.18357422 13.89794922 27.21386719 C13.33350098 28.27766602 12.76905273 29.34146484 12.1875 30.4375 C11.61016113 31.53610352 11.03282227 32.63470703 10.43798828 33.76660156 C-4.38980645 61.88814202 -4.38980645 61.88814202 -10 71 C-12.68722271 68.61223319 -14.08156849 66.13555845 -15.6875 62.9375 C-20.97072273 53.04772346 -29.16062915 42.01160795 -38.265625 35.33984375 C-38.83796875 34.89769531 -39.4103125 34.45554687 -40 34 C-40 33.34 -40 32.68 -40 32 C-38.14874789 30.76381201 -36.24017783 29.61326246 -34.3125 28.5 C-22.28787725 21.33748574 -7.85426483 11.78139725 0 0 Z " fill="#fff" transform="translate(265,281)"/>
<path d="M0 0 C8.05628335 3.70731623 15.671237 11.32908665 20 19 C19.80357635 25.47106788 15.70972463 32.62613467 11.67578125 37.53808594 C7.89374552 40.83744927 3.51889698 40.99781219 -1.31396484 40.87915039 C-5.84673347 40.28707467 -8.42740145 39.0671866 -11.3515625 35.51953125 C-14.65739033 30.68479351 -18.22878122 24.90452806 -19 19 C-17.23896877 16.66603052 -15.53453333 14.69482626 -13.5 12.625 C-12.67483887 11.75935425 -12.67483887 11.75935425 -11.83300781 10.8762207 C-8.08874732 6.99053239 -4.22613609 3.36169917 0 0 Z " fill="#fff" transform="translate(216,319)"/>
</svg>
