<?xml version="1.0" encoding="UTF-8"?>
<svg version="1.1" xmlns="http://www.w3.org/2000/svg" width="512" height="512">
<path d="M0 0 C1.84147019 0.00942556 3.68294161 0.01861538 5.52441406 0.02758789 C27.84147964 0.1914582 50.15208896 1.15648758 72.4375 2.3125 C73.59563202 2.37099121 73.59563202 2.37099121 74.77716064 2.43066406 C76.84938718 2.53819582 78.92076414 2.65541555 80.9921875 2.77734375 C82.11093262 2.84171631 83.22967773 2.90608887 84.38232422 2.97241211 C94.5598167 4.10532301 102.80575114 8.95084519 109.4453125 16.63671875 C116.59785892 26.16845948 118.48410483 35.50912335 117.4375 47.3125 C115.61938781 57.91815446 109.8874926 65.38936386 102.07421875 72.48828125 C94.48182385 77.74109372 86.23150283 79.4103696 77.265625 81.00390625 C76.02504333 81.23528793 74.78446167 81.46666962 73.50628662 81.70506287 C69.56855766 82.43898223 65.62848231 83.15882942 61.6875 83.875 C57.73226338 84.59481147 53.77806602 85.31929393 49.8258667 86.0556488 C47.37354283 86.51255153 44.91951027 86.96039926 42.46368408 87.39808655 C41.3519281 87.60517746 40.24017212 87.81226837 39.09472656 88.02563477 C38.12037659 88.20232193 37.14602661 88.37900909 36.14215088 88.56105042 C33.18901189 89.38153896 30.98441471 90.6280578 28.4375 92.3125 C28.8172082 97.37527598 30.58442384 100.49327252 33.37890625 104.578125 C34.4375 106.3125 34.4375 106.3125 34.4375 108.3125 C93.1995274 110.33719358 93.1995274 110.33719358 144.4375 85.3125 C147.01008699 83.19507956 149.59928205 81.09826597 152.1875 79 C153.21665527 78.16166626 153.21665527 78.16166626 154.26660156 77.30639648 C158.68048421 73.71532702 163.13548622 70.18333978 167.625 66.6875 C172.1510297 63.16038418 176.57739444 59.54265846 180.9375 55.8125 C187.05422523 50.58274176 193.33697879 45.59514839 199.70117188 40.67089844 C201.43699275 39.31289684 203.14969241 37.92977446 204.859375 36.5390625 C215.32888686 28.1049505 225.70069481 23.00601038 239.4375 24.3125 C250.58954102 26.58117501 259.59652817 31.0009458 266.375 40.3125 C272.98359183 50.55970474 275.00799819 60.92943876 272.9765625 73.06640625 C268.6430557 89.35529357 253.95132681 99.2725466 241.4375 109.3125 C234.98847581 114.54703643 228.6031826 119.84797076 222.27392578 125.22607422 C217.97777727 128.87086708 213.6239945 132.44022864 209.25390625 135.99609375 C206.0996408 138.59037865 202.98573137 141.22886133 199.875 143.875 C194.47601964 148.45848881 189.02399922 152.95780651 183.4375 157.3125 C182.50421875 158.04210937 181.5709375 158.77171875 180.609375 159.5234375 C140.71131697 190.12587468 97.85100535 195.80828391 48.97764397 193.38652039 C45.49746259 193.21417511 42.01704162 193.04764908 38.53651428 192.88244629 C31.14909769 192.53080168 23.7620319 192.1721231 16.375 191.8125 C7.79724132 191.39512654 -0.78064535 190.98079182 -9.35888481 190.57341003 C-12.75417296 190.41072913 -16.14918097 190.24292373 -19.54420471 190.0748291 C-42.90678116 188.75960564 -42.90678116 188.75960564 -66.1875 190.4375 C-67.1062793 190.56294189 -68.02505859 190.68838379 -68.97167969 190.81762695 C-79.40036324 192.31242764 -89.74947254 194.316517 -100.08837891 196.33056641 C-100.76121918 196.46103867 -101.43405945 196.59151093 -102.12728882 196.72593689 C-103.96856622 197.08415428 -105.80901826 197.44660665 -107.64941406 197.80932617 C-110.5625 198.3125 -110.5625 198.3125 -113.5625 198.3125 C-113.51609375 199.42367187 -113.4696875 200.53484375 -113.421875 201.6796875 C-113.09822332 212.6186221 -113.66628803 220.8576476 -120.875 229.625 C-126.43826545 235.50922307 -132.14030991 239.78379726 -140.44314575 240.59338379 C-141.44175629 240.60703979 -142.44036682 240.6206958 -143.46923828 240.63476562 C-144.61127716 240.65398071 -145.75331604 240.6731958 -146.92996216 240.69299316 C-148.15190277 240.70149292 -149.37384338 240.70999268 -150.6328125 240.71875 C-151.90542938 240.73015015 -153.17804626 240.74155029 -154.48922729 240.7532959 C-157.18078879 240.77216569 -159.87190617 240.78597362 -162.56347656 240.79296875 C-165.97964391 240.8038911 -169.39419778 240.85186733 -172.80986214 240.90891266 C-176.10488588 240.95558446 -179.40000488 240.95909281 -182.6953125 240.96875 C-183.90510773 240.9934436 -185.11490295 241.01813721 -186.36135864 241.0435791 C-197.06794148 240.98822537 -205.42832555 237.73395255 -213.0625 230.125 C-221.21899825 221.05626181 -221.14404952 209.21209433 -221.08007812 197.72460938 C-221.0855085 196.07582484 -221.09263627 194.42704516 -221.10131836 192.77827454 C-221.11944591 188.32985945 -221.11252822 183.88181833 -221.09980202 179.43339729 C-221.08961923 174.76072363 -221.09908227 170.0880803 -221.10534668 165.41540527 C-221.11260779 157.57098692 -221.10307584 149.7267196 -221.08398438 141.88232422 C-221.06221859 132.83506144 -221.06927105 123.78815933 -221.09129 114.74090528 C-221.10948791 106.94946202 -221.11198091 99.15812684 -221.10153532 91.36666918 C-221.09532447 86.72352729 -221.09439803 82.08055449 -221.10768127 77.43742371 C-221.11930333 73.07054593 -221.11109907 68.7041296 -221.08810425 64.33730125 C-221.08285089 62.74226329 -221.08427256 61.14718596 -221.09315491 59.55216408 C-221.16060205 46.20161597 -219.42728923 36.25937762 -209.94140625 26.4140625 C-204.02249379 21.18520388 -197.70837546 19.21253589 -189.92700195 19.13549805 C-188.79514969 19.12266281 -187.66329742 19.10982758 -186.49714661 19.09660339 C-185.27734604 19.08921646 -184.05754547 19.08182953 -182.80078125 19.07421875 C-181.5404155 19.066147 -180.28004974 19.05807526 -178.98149109 19.04975891 C-176.31257462 19.03592723 -173.64378124 19.02490874 -170.97485352 19.01733398 C-167.57667693 19.00630061 -164.17916075 18.97192676 -160.78121662 18.93216228 C-157.51697128 18.89952854 -154.25266481 18.89520287 -150.98828125 18.88671875 C-149.77860184 18.86921066 -148.56892242 18.85170258 -147.32258606 18.83366394 C-138.29081855 18.85668829 -131.02499669 20.46825789 -124.25 26.75 C-123.60417969 27.348125 -122.95835938 27.94625 -122.29296875 28.5625 C-120.1957712 30.68336795 -118.31670297 32.90047091 -116.5625 35.3125 C-112.32311098 33.98702365 -108.42196278 32.37287313 -104.44140625 30.40625 C-103.27029297 29.83197266 -102.09917969 29.25769531 -100.89257812 28.66601562 C-100.27842041 28.36348877 -99.6642627 28.06096191 -99.03149414 27.74926758 C-64.37383114 10.7200125 -64.37383114 10.7200125 -47.75 5.875 C-46.6062793 5.54048828 -46.6062793 5.54048828 -45.43945312 5.19921875 C-30.37745624 1.11546395 -15.54723829 -0.16793852 0 0 Z M-74.64788818 40.38519287 C-76.76879597 41.41241567 -78.89140898 42.43606484 -81.01416016 43.45947266 C-97.32589437 51.30923628 -97.32589437 51.30923628 -113.5625 59.3125 C-113.5625 97.9225 -113.5625 136.5325 -113.5625 176.3125 C-103.9925 174.6625 -94.4225 173.0125 -84.5625 171.3125 C-71.69084402 169.16408993 -59.67616151 167.78405151 -46.6875 167.875 C-45.82562073 167.87604736 -44.96374146 167.87709473 -44.07574463 167.87817383 C-17.76955823 167.94093906 8.5359794 169.53439867 34.80029297 170.88891602 C57.6068857 172.07835721 57.6068857 172.07835721 80.4375 172.5078125 C81.43435822 172.50966553 82.43121643 172.51151855 83.45828247 172.51342773 C124.18350989 172.21154563 156.35395238 151.90995568 186.1484375 126.140625 C189.84320094 122.95056412 193.61481151 119.8603631 197.40234375 116.78125 C206.97468857 108.99525009 216.49679424 101.14956049 225.89477539 93.15380859 C229.31404063 90.24891743 232.76952272 87.39367013 236.25 84.5625 C237.57451172 83.47195313 237.57451172 83.47195313 238.92578125 82.359375 C240.52834172 81.05340037 242.14931612 79.76948936 243.79296875 78.515625 C248.80772224 74.5330521 251.66437519 70.8112303 252.4375 64.3125 C252.09153953 58.89574743 249.97602872 54.40974379 246.4375 50.3125 C242.19205494 47.2746482 237.81193586 45.56634719 232.55322266 45.94995117 C225.91298001 47.08781874 220.65906837 51.47474153 215.8125 55.875 C214.58935069 56.9542203 213.36403247 58.03098668 212.13671875 59.10546875 C211.52103027 59.64478027 210.9053418 60.1840918 210.27099609 60.73974609 C207.4612903 63.14988254 204.55215824 65.42258715 201.625 67.6875 C196.2359746 71.8684025 190.94343691 76.15294546 185.6875 80.5 C180.51847399 84.77500131 175.33980135 89.03038669 170.078125 93.19140625 C167.94276764 94.90664152 165.83505237 96.64526963 163.734375 98.40234375 C140.99900292 117.33889417 117.57660953 127.76748482 87.80078125 128.84765625 C86.12703682 128.91212196 86.12703682 128.91212196 84.41947937 128.97789001 C82.06365452 129.06781798 79.70776094 129.15596131 77.35180664 129.24243164 C73.77927387 129.37392254 70.20702527 129.51169797 66.63476562 129.65039062 C64.33595168 129.73735479 62.03712393 129.82395494 59.73828125 129.91015625 C58.15796867 129.97107201 58.15796867 129.97107201 56.54573059 130.03321838 C29.83544818 130.99953887 29.83544818 130.99953887 21.375 124.625 C13.92528108 117.47873195 7.61225014 106.11727458 6.45703125 95.828125 C6.39202185 87.45491368 8.60397887 80.44574172 14.4375 74.3125 C22.43322661 69.10624147 30.78872446 67.00349756 40.0859375 65.4609375 C41.34209869 65.23475739 42.59825989 65.00857727 43.89248657 64.77554321 C47.86296691 64.06194433 51.83700245 63.37236981 55.8125 62.6875 C59.80929547 61.99523749 63.8042656 61.29464719 67.79678345 60.57803345 C70.26958866 60.13452854 72.74480369 59.70419907 75.22250366 59.28890991 C84.02026008 57.71631678 89.10425264 55.81855184 94.4375 48.3125 C96.51544433 44.15661134 96.18778694 38.58908494 94.75390625 34.23828125 C91.99326005 28.95754309 87.98625787 26.16208596 82.4375 24.3125 C80.24033572 24.13787803 78.0387887 24.01683948 75.83666992 23.92358398 C75.1693132 23.89417725 74.50195648 23.86477051 73.81437683 23.83447266 C71.59907174 23.73809501 69.38355947 23.64814747 67.16796875 23.55859375 C65.61069203 23.49301085 64.05342593 23.42717505 62.49617004 23.36109924 C59.21687787 23.22298104 55.93747345 23.08805446 52.65795898 22.95532227 C48.52156111 22.78765076 44.38554688 22.61204701 40.24957657 22.43418121 C19.02104944 21.50966532 19.02104944 21.50966532 -2.22265625 21.15234375 C-3.04014847 21.14835068 -3.85764069 21.1443576 -4.6999054 21.14024353 C-29.90263057 21.26904622 -52.26147458 29.53869371 -74.64788818 40.38519287 Z M-196.5625 44.3125 C-198.97626192 47.93314288 -198.81796207 49.59359801 -198.82992554 53.90365601 C-198.83445665 54.57647759 -198.83898776 55.24929918 -198.84365618 55.94250929 C-198.85633793 58.20181387 -198.85467742 60.46087856 -198.85302734 62.72021484 C-198.85901026 64.33814302 -198.86581526 65.95606833 -198.87338257 67.57398987 C-198.89107419 71.9727832 -198.89573928 76.37149876 -198.89701414 80.77032423 C-198.8989118 84.44084168 -198.90626782 88.11134095 -198.91335833 91.78185141 C-198.929652 100.44116549 -198.9345264 109.10043798 -198.93310547 117.75976562 C-198.93190385 126.69562329 -198.95300744 135.63123948 -198.9845928 144.56703603 C-199.01073512 152.23591257 -199.02147362 159.90471016 -199.02019465 167.57363093 C-199.0196844 172.15524631 -199.02540212 176.73664718 -199.04655075 181.31821823 C-199.06589874 185.62748173 -199.06608137 189.93632536 -199.05151749 194.24560356 C-199.04942397 195.8270434 -199.05416255 197.40850928 -199.0662384 198.9899044 C-199.08166151 201.14955672 -199.07240434 203.30775599 -199.05697632 205.46737671 C-199.05806585 206.67563803 -199.05915539 207.88389935 -199.06027794 209.12877464 C-198.46460012 212.93865539 -197.22163506 214.57487116 -194.5625 217.3125 C-191.6372761 219.24877383 -189.34724544 219.56742191 -185.87329102 219.5871582 C-184.94875626 219.59669022 -184.0242215 219.60622223 -183.07167053 219.61604309 C-182.07993332 219.61513168 -181.08819611 219.61422028 -180.06640625 219.61328125 C-178.52786232 219.61970894 -178.52786232 219.61970894 -176.95823669 219.62626648 C-174.7904433 219.63200583 -172.62263064 219.63251296 -170.45483398 219.62817383 C-167.14077856 219.62501504 -163.82761688 219.64847446 -160.51367188 219.67382812 C-158.40625113 219.67610129 -156.29882798 219.67680454 -154.19140625 219.67578125 C-152.70683678 219.68959587 -152.70683678 219.68959587 -151.192276 219.70368958 C-146.18123553 219.67004383 -142.59971465 219.63824868 -138.5625 216.3125 C-134.82569752 212.0418686 -134.43629109 208.5155432 -134.42205811 202.95585632 C-134.41908698 202.30824162 -134.41611586 201.66062691 -134.4130547 200.99338752 C-134.40437055 198.81939049 -134.4028597 196.64544855 -134.40136719 194.47143555 C-134.39673881 192.91424441 -134.39171412 191.3570544 -134.38632202 189.79986572 C-134.37319784 185.56630488 -134.36675302 181.3327599 -134.36231136 177.09918189 C-134.35938064 174.45430586 -134.35527583 171.80943417 -134.35080719 169.16456032 C-134.33713214 160.88961866 -134.32746555 152.61468691 -134.3236053 144.33973473 C-134.31912453 134.78704688 -134.30157582 125.23450211 -134.2726047 115.68185776 C-134.25098922 108.29832214 -134.24090109 100.91482677 -134.23956418 93.53125983 C-134.23851605 89.12122938 -134.23260648 84.71133343 -134.21474457 80.30133629 C-134.1982662 76.15218448 -134.19610719 72.00326832 -134.20488358 67.85409546 C-134.20565408 66.33274009 -134.20130941 64.81137206 -134.19142532 63.2900486 C-134.17870434 61.20978401 -134.18458253 59.13035383 -134.19500732 57.0500946 C-134.19354076 55.88700114 -134.1920742 54.72390768 -134.1905632 53.52556896 C-134.69562907 49.16243128 -136.26938212 45.87501744 -139.0625 42.5 C-141.8913651 40.2604818 -144.66422535 40.17751549 -148.12231445 40.13549805 C-149.50438835 40.11624519 -149.50438835 40.11624519 -150.91438293 40.09660339 C-151.90814438 40.08921646 -152.90190582 40.08182953 -153.92578125 40.07421875 C-154.95052048 40.066147 -155.9752597 40.05807526 -157.03105164 40.04975891 C-159.20061555 40.03592558 -161.37020116 40.02520007 -163.53979492 40.01733398 C-166.85182059 40.00012047 -170.16284819 39.95622676 -173.47460938 39.91210938 C-175.583326 39.90198225 -177.6920511 39.89346621 -179.80078125 39.88671875 C-180.78847 39.86921066 -181.77615875 39.85170258 -182.79377747 39.83366394 C-188.55620387 39.85177488 -192.05532365 40.34106965 -196.5625 44.3125 Z " fill="#fff" transform="translate(229.5625,271.6875)"/>
<path d="M0 0 C0.79841309 0.22042969 1.59682617 0.44085938 2.41943359 0.66796875 C25.59676471 7.26885868 44.4930039 18.50916454 62 35 C62.72574219 35.6496875 63.45148438 36.299375 64.19921875 36.96875 C88.16588329 59.34337399 101.29167198 93.52614655 102.92578125 125.79980469 C104.05514718 162.77085334 91.24441351 197.86359061 66.2734375 225.13671875 C40.38163977 252.48994163 6.95017584 266.04846734 -30.30859375 268.12890625 C-67.37819046 269.09258727 -101.34128711 254.15805687 -128 229 C-128.73734375 228.32710937 -129.4746875 227.65421875 -130.234375 226.9609375 C-145.09653642 212.88931658 -155.40042503 194.56606263 -161.9375 175.3125 C-162.20788086 174.5189209 -162.47826172 173.7253418 -162.75683594 172.90771484 C-167.02996463 159.4898741 -168.56268329 146.2596174 -168.4375 132.25 C-168.43412628 131.51087372 -168.43075256 130.77174744 -168.42727661 130.01022339 C-168.19104941 94.13508945 -154.53240369 62.99574005 -130 37 C-129.32710937 36.26265625 -128.65421875 35.5253125 -127.9609375 34.765625 C-111.26945108 17.13641462 -89.13582926 6.38744994 -66 0 C-64.9783374 -0.28810547 -64.9783374 -0.28810547 -63.93603516 -0.58203125 C-44.71755842 -5.71348695 -19.10354581 -5.38713665 0 0 Z M-120 58 C-139.57971829 81.95181765 -149.76163637 112.22016914 -146.7890625 143.19824219 C-143.12376339 174.92251665 -127.39818597 202.5126183 -102.796875 222.6875 C-89.26839273 233.21640867 -72.77737395 240.6716167 -56 244 C-54.97519531 244.22171875 -53.95039063 244.4434375 -52.89453125 244.671875 C-23.64957537 250.15762084 6.63239828 242.93040089 31.28857422 226.68432617 C43.58956114 218.17190284 55.30228578 206.86438653 63 194 C63.5775 193.09378906 64.155 192.18757812 64.75 191.25390625 C80.38680638 165.8777959 84.86394549 135.10161523 78.49609375 106.08447266 C73.4722951 84.97561791 62.79247098 67.6857996 48 52 C47.38769531 51.32324219 46.77539062 50.64648438 46.14453125 49.94921875 C26.9230822 29.4982527 -2.39028673 18.57653536 -30.06225586 17.71655273 C-64.87054402 17.24071284 -97.02402084 31.97441878 -120 58 Z " fill="#fff" transform="translate(371,3)"/>
<path d="M0 0 C0.87022797 -0.00671722 1.74045593 -0.01343445 2.63705444 -0.02035522 C5.51867354 -0.03937916 8.40006026 -0.04326167 11.28173828 -0.04541016 C13.28329566 -0.05183518 15.28485209 -0.05856332 17.28640747 -0.06558228 C21.48458026 -0.07756615 25.68267069 -0.08126197 29.88085938 -0.08007812 C35.2601913 -0.07987491 40.63899508 -0.10717498 46.01820183 -0.14162254 C50.15319239 -0.16386149 54.28805527 -0.16791658 58.42309952 -0.16685867 C60.40623927 -0.16921924 62.3893823 -0.17806835 64.37246323 -0.19352341 C67.14712227 -0.21312192 69.92063496 -0.2073695 72.6953125 -0.1953125 C73.51418945 -0.20655151 74.33306641 -0.21779053 75.17675781 -0.22937012 C79.14220729 -0.18558813 81.03441822 0.00811766 84.46340942 2.19589233 C87.56322655 5.42039179 87.81073821 7.71414733 87.77001953 12.18505859 C87.29950818 15.56646682 85.6144555 17.71306871 83.47705078 20.29052734 C80.91981849 21.56914349 79.10967976 21.40389344 76.25048828 21.38818359 C75.21923828 21.38496094 74.18798828 21.38173828 73.12548828 21.37841797 C72.04525391 21.37003906 70.96501953 21.36166016 69.85205078 21.35302734 C68.22009766 21.34625977 68.22009766 21.34625977 66.55517578 21.33935547 C63.86241289 21.32754511 61.1697589 21.31107513 58.47705078 21.29052734 C58.83798828 22.13357422 59.19892578 22.97662109 59.57080078 23.84521484 C60.26689453 25.48876953 60.26689453 25.48876953 60.97705078 27.16552734 C61.44111328 28.25607422 61.90517578 29.34662109 62.38330078 30.47021484 C63.47705078 33.29052734 63.47705078 33.29052734 63.47705078 35.29052734 C65.33910156 35.20351562 65.33910156 35.20351562 67.23876953 35.11474609 C68.88065893 35.06783497 70.5225891 35.02233626 72.16455078 34.97802734 C72.98117187 34.93613281 73.79779297 34.89423828 74.63916016 34.85107422 C79.10634585 34.76064536 80.87650187 34.81428351 84.49658203 37.68505859 C87.28486478 41.35327278 87.81240442 43.58912711 87.77001953 48.25146484 C87.31450112 51.42187301 85.72389421 53.10976755 83.47705078 55.29052734 C81.18051378 56.43879584 79.89391911 56.40613909 77.34423828 56.38818359 C76.53857422 56.38496094 75.73291016 56.38173828 74.90283203 56.37841797 C73.64019531 56.36584961 73.64019531 56.36584961 72.35205078 56.35302734 C71.50255859 56.34851563 70.65306641 56.34400391 69.77783203 56.33935547 C67.67754169 56.32755608 65.57728748 56.3096204 63.47705078 56.29052734 C63.34169922 56.89638672 63.20634766 57.50224609 63.06689453 58.12646484 C60.23544069 69.14709358 53.70959421 77.68955283 44.47705078 84.29052734 C38.07974927 87.9236769 31.68994026 89.98984236 24.47705078 91.29052734 C28.65183926 95.55229058 32.80984048 99.79239781 37.35205078 103.66552734 C41.23492243 106.9914931 44.8131496 110.59010777 48.39477539 114.23217773 C51.13134828 116.99836618 53.93563518 119.60118202 56.91455078 122.10302734 C61.24021117 125.8424586 64.1943831 128.98880476 64.91455078 134.85302734 C64.36195876 139.19482177 63.28477073 141.88452294 59.78955078 144.60302734 C56.20860675 145.66763233 53.11219249 146.13249031 49.47705078 145.29052734 C46.41910431 143.36656936 44.02743319 140.83210014 41.47705078 138.29052734 C40.01922817 136.96432757 38.56109882 135.63843814 37.09619141 134.32006836 C32.09056605 129.80354347 27.28114747 125.13124191 22.54736328 120.32958984 C20.62539646 118.43663384 18.65248835 116.66711572 16.60205078 114.91552734 C12.71742854 111.58806208 9.14151031 107.9846675 5.55273438 104.34667969 C2.27173444 101.03829054 -1.12938151 97.94687909 -4.66748047 94.91943359 C-14.38540207 86.38812137 -14.38540207 86.38812137 -14.77294922 80.47802734 C-14.71725061 76.64178591 -14.01711678 74.31915938 -11.52294922 71.29052734 C-8.04677586 69.00629932 -4.98219059 69.02477192 -0.88623047 68.98193359 C0.41378906 68.95679688 1.71380859 68.93166016 3.05322266 68.90576172 C5.10228179 68.87719064 7.15126838 68.85314999 9.20043945 68.83422852 C20.3469534 68.7114428 29.25589237 68.31116969 37.47705078 60.29052734 C38.13705078 59.30052734 38.79705078 58.31052734 39.47705078 57.29052734 C38.88680618 57.28688171 38.29656158 57.28323608 37.68843079 57.27947998 C31.5398535 57.23763909 25.39202159 57.16828244 19.24389648 57.08300781 C16.95002704 57.05479852 14.6560604 57.03358382 12.36206055 57.01953125 C9.06264486 56.99810183 5.76439776 56.95144951 2.46533203 56.89990234 C1.44119705 56.89867371 0.41706207 56.89744507 -0.6381073 56.8961792 C-5.06145129 56.80538116 -7.78509169 56.72757978 -11.6472168 54.43994141 C-14.10259385 51.62630877 -14.48635928 49.67838066 -14.83544922 45.97802734 C-14.46741457 41.63521852 -13.23780371 39.64417112 -10.52294922 36.29052734 C-8.12649178 35.09229862 -6.56632895 35.1342542 -3.88964844 35.08520508 C-2.92880341 35.06525986 -1.96795837 35.04531464 -0.97799683 35.02476501 C0.06162201 35.00805252 1.10124084 34.99134003 2.17236328 34.97412109 C3.23494354 34.95334 4.2975238 34.9325589 5.39230347 34.91114807 C8.79548516 34.84562474 12.19874567 34.78675461 15.60205078 34.72802734 C17.90544444 34.68484478 20.20883004 34.64123058 22.51220703 34.59716797 C28.16707099 34.48994053 33.82201381 34.38817932 39.47705078 34.29052734 C38.41155727 33.00164927 37.33547126 31.72152411 36.25512695 30.44506836 C35.65705734 29.73125504 35.05898773 29.01744171 34.4427948 28.28199768 C28.51321265 22.2748132 20.91761285 21.9278667 12.87136841 21.83309937 C10.09711787 21.8257018 7.32364803 21.84610389 4.54956055 21.87524414 C2.49744659 21.88978462 0.4470716 21.8745249 -1.60498047 21.85693359 C-2.81387939 21.86668213 -4.02277832 21.87643066 -5.26831055 21.88647461 C-9.42990413 21.12445751 -10.87563946 19.50886713 -13.52294922 16.29052734 C-15.0550981 13.22622958 -14.7523347 10.67396314 -14.52294922 7.29052734 C-11.26673552 0.31292657 -7.11972907 -0.00784169 0 0 Z " fill="#fff" transform="translate(301.52294921875,67.70947265625)"/>
</svg>
