<?xml version="1.0" encoding="UTF-8"?>
<svg version="1.1" xmlns="http://www.w3.org/2000/svg" width="512" height="512">
<path d="M0 0 C11.75982101 7.63473528 23.67136959 9.61700083 37.5 8.4375 C43.28660644 6.74847744 47.3734761 3.67246196 51.75 -0.375 C54.32978964 -2.75714447 55.21785065 -3.50281456 58.75 -4.25 C62.24146627 -3.37713343 63.49773871 -2.56589193 65.5 0.4375 C66.54505013 13.19647019 58.5374249 25.30350732 50.62890625 34.6484375 C42.16496422 43.81061218 31.13763014 47.5803306 18.91796875 48.79296875 C9.83397107 49.13350362 1.80540589 47.55467108 -6.9753418 45.30029297 C-17.02083811 42.72528415 -25.10729661 42.28275518 -35.5 43.4375 C-35.17 52.3475 -34.84 61.2575 -34.5 70.4375 C-31.53 71.7575 -28.56 73.0775 -25.5 74.4375 C-18.76210319 78.20375573 -14.69957137 83.45158467 -11.5 90.4375 C-11.17 92.0875 -10.84 93.7375 -10.5 95.4375 C23.16 95.4375 56.82 95.4375 91.5 95.4375 C92.16 93.4575 92.82 91.4775 93.5 89.4375 C97.56443236 83.40243377 102.86966217 79.54132667 110.0234375 77.8359375 C117.61614511 76.83136388 124.24016816 78.07794599 130.83203125 82.10546875 C136.22222162 86.41004701 140.01882776 92.57292715 140.87109375 99.41796875 C141.03473971 107.32110606 139.83918642 112.80037823 135.5 119.4375 C134.92854248 119.99961182 134.35708496 120.56172363 133.76831055 121.14086914 C132.14146255 123.47962145 132.14146255 123.47962145 133.23486328 126.55810547 C133.74294711 127.81540343 134.27334714 129.06381029 134.8203125 130.3046875 C135.10572906 130.99496033 135.39114563 131.68523315 135.68521118 132.39642334 C136.64688405 134.709891 137.63600829 137.01059328 138.625 139.3125 C139.31086657 140.94889221 139.9947434 142.58611964 140.67675781 144.22412109 C142.15083807 147.75707109 143.63567415 151.28523655 145.12792969 154.81054688 C147.56804966 160.58444443 149.96413185 166.37602534 152.3515625 172.171875 C152.75591019 173.15300766 153.16025787 174.13414032 153.57685852 175.14500427 C154.39386776 177.12792042 155.21070652 179.11090681 156.02737427 181.09396362 C158.03821945 185.97629753 160.05114925 190.85776673 162.06640625 195.73828125 C162.44903122 196.66512222 162.83165619 197.5919632 163.22587585 198.54689026 C165.22878285 203.39055497 167.24965124 208.22568589 169.30349731 213.04797363 C170.11960216 214.96601806 170.92957805 216.88652008 171.73730469 218.80810547 C172.66365506 221.00670608 173.60195051 223.20033709 174.55566406 225.38720703 C179.47534022 237.14463551 177.73333659 248.30596515 173.05859375 260.0625 C164.87801063 277.37268981 152.50744467 288.81649575 134.5 295.4375 C117.08200488 300.48652426 99.62045546 297.84318631 83.859375 289.375 C69.59092423 281.14575398 60.77389311 268.95526007 55.5 253.4375 C52.68635928 242.9441153 52.58843782 234.18720642 56.953125 224.21875 C57.32075455 223.3430838 57.68838409 222.4674176 58.06715393 221.56521606 C59.28053242 218.68305785 60.51546932 215.81065317 61.75 212.9375 C62.60562153 210.91273235 63.45934791 208.88716291 64.3112793 206.86083984 C65.64848634 203.6812783 66.98700285 200.50232763 68.3313446 197.32577515 C72.98269154 186.33429496 77.5107836 175.29359878 82.01574707 164.24145508 C83.28164579 161.13813827 84.55204372 158.03669588 85.82324219 154.93554688 C87.7262784 150.28765321 89.60824939 145.63171359 91.4770813 140.9699707 C92.46647835 138.52049056 93.47888322 136.08152949 94.49389648 133.64257812 C95.07518223 132.20227694 95.65541557 130.76155037 96.234375 129.3203125 C96.64312614 128.36531357 96.64312614 128.36531357 97.06013489 127.39102173 C98.26346305 124.32508362 98.66380225 122.86861598 97.47387695 119.73681641 C96.00477922 117.64738743 96.00477922 117.64738743 94.12109375 116.015625 C92.5 114.4375 92.5 114.4375 91.5 110.4375 C57.84 110.4375 24.18 110.4375 -10.5 110.4375 C-11.49 113.4075 -12.48 116.3775 -13.5 119.4375 C-18.04400367 127.9609493 -25.54137425 132.53867021 -34.5 135.4375 C-32.54000995 150.04622874 -30.57878218 164.65479094 -28.61651015 179.26321334 C-28.48221897 180.26297233 -28.48221897 180.26297233 -28.34521484 181.28292847 C-28.25519329 181.95311203 -28.16517174 182.6232956 -28.07242227 183.31378776 C-27.4348756 188.06040043 -26.79769443 192.80706209 -26.16064453 197.55374146 C-22.53988142 224.53068526 -18.91715885 251.50722978 -15.20365143 278.47159958 C-14.77225726 281.60418339 -14.34146256 284.73684909 -13.91082764 287.86953735 C-12.72350827 296.50364749 -11.53407589 305.13742734 -10.3319664 313.76949215 C-9.85005502 317.23739895 -9.37241505 320.70588456 -8.89586639 324.17453194 C-8.677647 325.75557877 -8.45753126 327.3363653 -8.23529816 328.91685295 C-7.93447858 331.05711953 -7.64030534 333.19820283 -7.34765625 335.33959961 C-7.18273682 336.52621689 -7.01781738 337.71283417 -6.84790039 338.93540955 C-6.46871708 342.75240516 -6.5 346.60171644 -6.5 350.4375 C-30.26 350.4375 -54.02 350.4375 -78.5 350.4375 C-78.5 341.4375 -78.5 341.4375 -78.06271362 338.23593903 C-77.96517855 337.50243115 -77.86764347 336.76892327 -77.76715279 336.01318789 C-77.65820623 335.23495527 -77.54925968 334.45672265 -77.43701172 333.65490723 C-77.26550252 332.38283645 -77.26550252 332.38283645 -77.09052849 331.08506727 C-76.70864361 328.26237819 -76.31917013 325.44079058 -75.9296875 322.61914062 C-75.65337011 320.58849215 -75.37752366 318.55777955 -75.10211182 316.52700806 C-74.35484904 311.02699714 -73.60101361 305.52790499 -72.84598541 300.02895546 C-72.05739811 294.27727118 -71.2748718 288.52476247 -70.49169922 282.77233887 C-69.00850961 271.88514945 -67.51987912 260.99871125 -66.02928734 250.11253309 C-64.33223477 237.71654419 -62.64125713 225.31972901 -60.95078659 212.92284107 C-57.47394479 187.42680293 -53.98948405 161.93181073 -50.5 136.4375 C-51.11117676 136.13352295 -51.72235352 135.8295459 -52.35205078 135.51635742 C-63.33367315 130.00058233 -70.39791289 124.28529277 -74.5 112.4375 C-74.5 111.7775 -74.5 111.1175 -74.5 110.4375 C-108.16 110.4375 -141.82 110.4375 -176.5 110.4375 C-177.16 112.4175 -177.82 114.3975 -178.5 116.4375 C-180 117.98999023 -180 117.98999023 -181.5 119.30859375 C-182.95616849 121.07452461 -182.95616849 121.07452461 -183.5 123.4375 C-182.29879702 129.10694188 -179.8597779 134.22955576 -177.5 139.5 C-176.80350981 141.12205541 -176.11055393 142.74563235 -175.42089844 144.37060547 C-173.93019964 147.87330436 -172.42268697 151.36810702 -170.90429688 154.85888672 C-168.41742087 160.59922676 -166.01990435 166.3745226 -163.640625 172.16015625 C-163.23677078 173.14202911 -162.83291656 174.12390198 -162.41682434 175.13552856 C-161.60103746 177.1205093 -160.78563285 179.10564718 -159.97061157 181.09094238 C-157.96408739 185.97579058 -155.94975934 190.8574058 -153.93359375 195.73828125 C-153.55095871 196.66510712 -153.16832367 197.59193298 -152.77409363 198.54684448 C-150.77125742 203.39054993 -148.75035282 208.22567635 -146.69650269 213.04797363 C-145.88039784 214.96601806 -145.07042195 216.88652008 -144.26269531 218.80810547 C-143.33634494 221.00670608 -142.39804949 223.20033709 -141.44433594 225.38720703 C-136.52465978 237.14463551 -138.26666341 248.30596515 -142.94140625 260.0625 C-151.12198937 277.37268981 -163.49255533 288.81649575 -181.5 295.4375 C-198.91799512 300.48652426 -216.37954454 297.84318631 -232.140625 289.375 C-246.40907577 281.14575398 -255.22610689 268.95526007 -260.5 253.4375 C-263.08473523 243.79781114 -263.71243808 234.86810946 -259.66796875 225.64453125 C-259.36451035 224.9167598 -259.06105194 224.18898834 -258.74839783 223.43916321 C-257.74265776 221.03635418 -256.71503495 218.64355966 -255.6875 216.25 C-254.96887725 214.54285408 -254.25195566 212.8349912 -253.53662109 211.12646484 C-252.00694256 207.47758875 -250.46931509 203.83220753 -248.92626953 200.18896484 C-246.44109252 194.31119628 -243.99510715 188.41761328 -241.55859375 182.51953125 C-241.14930634 181.52930969 -240.74001892 180.53908813 -240.31832886 179.51885986 C-238.27350679 174.56756908 -236.23501698 169.6137495 -234.20410156 164.65673828 C-233.4215199 162.74890202 -232.63864799 160.84118478 -231.85546875 158.93359375 C-231.4794754 158.01753357 -231.10348206 157.10147339 -230.71609497 156.15765381 C-228.77783938 151.45795063 -226.7939143 146.78677515 -224.70440674 142.15228271 C-223.90104288 140.36897934 -223.11487785 138.5779578 -222.32958984 136.78662109 C-221.44066669 134.76775845 -220.52062836 132.76212452 -219.56103516 130.77587891 C-218.44994273 128.20578594 -217.67313534 126.23290213 -217.5 123.4375 C-218.65725825 120.77373284 -220.02730856 118.77452184 -221.87133789 116.53637695 C-226.50863032 110.56024099 -226.30758042 103.67207462 -225.5 96.4375 C-223.06008401 88.46420309 -218.35136713 83.19097864 -211.1875 79.125 C-203.00112501 77.03081105 -195.7884341 76.72205825 -188.1796875 80.62890625 C-182.74818342 83.91828248 -179.11556764 87.60176114 -176.5 93.4375 C-176.5 94.0975 -176.5 94.7575 -176.5 95.4375 C-142.84 95.4375 -109.18 95.4375 -74.5 95.4375 C-73.51 92.4675 -72.52 89.4975 -71.5 86.4375 C-66.48000678 77.74465097 -59.82141992 73.48859355 -50.5 70.4375 C-50.49857498 69.51930481 -50.49714996 68.60110962 -50.49568176 67.65509033 C-50.47785417 59.00298873 -50.43624805 50.35139896 -50.36790943 41.699543 C-50.3336145 37.25144962 -50.30852562 32.8037006 -50.30444336 28.35546875 C-50.30016568 24.06279848 -50.27174805 19.77090533 -50.22656822 15.47847748 C-50.21357606 13.84067053 -50.20929165 12.20277066 -50.21384621 10.56491852 C-50.21874046 8.27061505 -50.19271782 5.97859329 -50.15942383 3.68457031 C-50.15276199 2.37885071 -50.14610016 1.0731311 -50.13923645 -0.27215576 C-49.5 -3.5625 -49.5 -3.5625 -47.13578796 -5.95001221 C-31.22840783 -15.68162061 -14.13499896 -9.27733735 0 0 Z M-55.3125 89.8125 C-56.034375 90.67875 -56.75625 91.545 -57.5 92.4375 C-58.3971875 93.489375 -58.3971875 93.489375 -59.3125 94.5625 C-61.46934482 99.78433483 -61.64684612 105.48706681 -59.5859375 110.7890625 C-56.67411427 115.80491284 -53.04503345 119.06522899 -47.5625 121.1875 C-40.78015611 122.00960229 -36.15259519 121.24284186 -30.5 117.4375 C-25.37434335 112.04207195 -23.96832148 107.59623206 -24.125 100.26171875 C-24.81243224 95.08449472 -27.12385116 91.42146893 -31.109375 88.09375 C-39.34556732 82.80445218 -47.91153077 83.56279265 -55.3125 89.8125 Z M-209.5 96.4375 C-211.27665262 99.37283911 -211.51779354 101.0104551 -211.375 104.4375 C-210.36530833 107.8993 -208.96052585 109.82785137 -206.5 112.4375 C-203.29139471 114.04180264 -199.9809543 113.91855318 -196.5 113.4375 C-193.40748447 111.62232784 -191.91311286 110.15105858 -190.125 107.0625 C-189.32701997 103.71098387 -189.46972494 101.73438018 -190.5 98.4375 C-193.53215287 94.93886207 -195.58859567 92.65470504 -200.25 92.125 C-204.38549396 92.52264365 -206.33822672 93.77873611 -209.5 96.4375 Z M106.5 96.4375 C104.72334738 99.37283911 104.48220646 101.0104551 104.625 104.4375 C105.63469167 107.8993 107.03947415 109.82785137 109.5 112.4375 C112.70860529 114.04180264 116.0190457 113.91855318 119.5 113.4375 C122.59251553 111.62232784 124.08688714 110.15105858 125.875 107.0625 C126.67298003 103.71098387 126.53027506 101.73438018 125.5 98.4375 C122.46784713 94.93886207 120.41140433 92.65470504 115.75 92.125 C111.61450604 92.52264365 109.66177328 93.77873611 106.5 96.4375 Z M-203.5 128.4375 C-203.96148437 129.56615479 -204.42296875 130.69480957 -204.8984375 131.85766602 C-207.09867654 137.23855927 -209.29930893 142.61929161 -211.5 148 C-211.90238892 148.98390717 -212.30477783 149.96781433 -212.71936035 150.98153687 C-217.1557843 161.82873201 -221.59492881 172.67478995 -226.046875 183.515625 C-226.40479126 184.3873082 -226.76270752 185.25899139 -227.13146973 186.15708923 C-228.81847441 190.26535215 -230.50627145 194.37328679 -232.1953125 198.48071289 C-233.96944507 202.79723977 -235.73644612 207.11664187 -237.5 211.4375 C-237.79495361 212.15822693 -238.08990723 212.87895386 -238.39379883 213.621521 C-239.25071077 215.71881475 -240.10267461 217.81804788 -240.953125 219.91796875 C-241.44458008 221.12735107 -241.93603516 222.3367334 -242.44238281 223.58276367 C-243.61580105 226.24268011 -243.61580105 226.24268011 -243.5 228.4375 C-215.12 228.4375 -186.74 228.4375 -157.5 228.4375 C-159.41183901 222.06470329 -161.30504008 216.10780845 -163.87890625 210.0390625 C-164.20345795 209.26184845 -164.52800964 208.4846344 -164.86239624 207.68386841 C-165.56122843 206.01161787 -166.26225587 204.3402833 -166.96530151 202.6697998 C-168.86458325 198.15648981 -170.74734831 193.63628288 -172.6328125 189.1171875 C-173.02655563 188.17476196 -173.42029877 187.23233643 -173.82597351 186.26135254 C-178.41854167 175.25943335 -182.9294834 164.22426909 -187.4375 153.1875 C-188.22011454 151.27294148 -189.00274753 149.35839051 -189.78540039 147.44384766 C-195.58502238 133.25044907 -195.58502238 133.25044907 -197.5 128.4375 C-199.48 128.4375 -201.46 128.4375 -203.5 128.4375 Z M112.5 128.4375 C112.03851563 129.56615479 111.57703125 130.69480957 111.1015625 131.85766602 C108.90132346 137.23855927 106.70069107 142.61929161 104.5 148 C104.09761108 148.98390717 103.69522217 149.96781433 103.28063965 150.98153687 C98.8442157 161.82873201 94.40507119 172.67478995 89.953125 183.515625 C89.59520874 184.3873082 89.23729248 185.25899139 88.86853027 186.15708923 C87.18152559 190.26535215 85.49372855 194.37328679 83.8046875 198.48071289 C82.03055493 202.79723977 80.26355388 207.11664187 78.5 211.4375 C78.20504639 212.15822693 77.91009277 212.87895386 77.60620117 213.621521 C76.74928923 215.71881475 75.89732539 217.81804788 75.046875 219.91796875 C74.55541992 221.12735107 74.06396484 222.3367334 73.55761719 223.58276367 C72.38419895 226.24268011 72.38419895 226.24268011 72.5 228.4375 C100.88 228.4375 129.26 228.4375 158.5 228.4375 C156.58816099 222.06470329 154.69495992 216.10780845 152.12109375 210.0390625 C151.79654205 209.26184845 151.47199036 208.4846344 151.13760376 207.68386841 C150.43877157 206.01161787 149.73774413 204.3402833 149.03469849 202.6697998 C147.13541675 198.15648981 145.25265169 193.63628288 143.3671875 189.1171875 C142.97344437 188.17476196 142.57970123 187.23233643 142.17402649 186.26135254 C137.58145833 175.25943335 133.0705166 164.22426909 128.5625 153.1875 C127.77988546 151.27294148 126.99725247 149.35839051 126.21459961 147.44384766 C120.41497762 133.25044907 120.41497762 133.25044907 118.5 128.4375 C116.52 128.4375 114.54 128.4375 112.5 128.4375 Z " fill="#fff" transform="translate(298.5,48.5625)"/>
<path d="M0 0 C1.59481831 -0.00935994 1.59481831 -0.00935994 3.22185516 -0.01890898 C6.76076373 -0.03477864 10.29897776 -0.02225782 13.83789062 -0.00964355 C16.38468831 -0.01506732 18.93148286 -0.0221914 21.47827148 -0.03088379 C27.66331461 -0.04720127 33.84810338 -0.04485245 40.03314972 -0.03323323 C45.0623992 -0.02417857 50.09159431 -0.02298366 55.12084961 -0.02732849 C55.8382014 -0.02794142 56.5555532 -0.02855436 57.29464293 -0.02918586 C58.75219029 -0.03046484 60.20973763 -0.03176169 61.66728497 -0.03307623 C75.31635171 -0.04446677 88.96531078 -0.03139234 102.61435986 -0.00987476 C114.31131984 0.00799486 126.008121 0.00489032 137.70507812 -0.0135498 C151.30720888 -0.03498355 164.9092454 -0.04336828 178.51139069 -0.03110075 C179.96340432 -0.02982663 181.41541797 -0.02856915 182.86743164 -0.02732849 C183.58174331 -0.02671139 184.29605498 -0.02609429 185.03201246 -0.02545848 C190.05188234 -0.02201308 195.07169216 -0.0278164 200.09155273 -0.0372467 C206.85502885 -0.04967397 213.6181598 -0.0407539 220.38162231 -0.01766968 C222.86076359 -0.01239 225.33993014 -0.01388361 227.81906128 -0.02272034 C231.20913897 -0.03368811 234.59826388 -0.01989592 237.98828125 0 C239.45182667 -0.01338433 239.45182667 -0.01338433 240.94493866 -0.02703905 C250.98989403 0.08692203 258.74691514 3.38690113 266.00976562 10.28918457 C270.59315517 15.41391934 272.99414062 19.58642754 272.99414062 26.50793457 C171.35414063 26.50793457 69.71414062 26.50793457 -35.00585938 26.50793457 C-33.74118037 17.65518153 -30.21009669 11.40368338 -23.06198883 5.88851881 C-15.8250693 1.02930286 -8.53981715 -0.07809784 0 0 Z " fill="#fff" transform="translate(137.005859375,447.4920654296875)"/>
<path d="M0 0 C0.66071979 -0.00835666 1.32143957 -0.01671332 2.00218117 -0.02532321 C4.21482225 -0.04829173 6.42645114 -0.04268822 8.63919067 -0.0370636 C10.22609573 -0.0473958 11.81299074 -0.05938449 13.39987183 -0.07290649 C17.70989627 -0.10397869 22.01958652 -0.10923012 26.32970953 -0.10797477 C29.92813166 -0.1088048 33.52648111 -0.12104452 37.12488091 -0.13292438 C45.61504866 -0.16030946 54.10504279 -0.16562403 62.59524536 -0.15815735 C71.35239798 -0.15091639 80.10874553 -0.18432838 88.86572349 -0.23721474 C96.38520116 -0.28098761 103.90441867 -0.29771212 111.42402184 -0.29317886 C115.91472268 -0.29085599 120.40477322 -0.29918885 124.89535141 -0.3342495 C129.11957399 -0.36619753 133.34246357 -0.36440371 137.5667038 -0.33680534 C139.11548021 -0.33234866 140.66434442 -0.33980494 142.21299362 -0.36014938 C153.89235118 -0.50316505 153.89235118 -0.50316505 157.63498306 2.04138756 C159.19276047 3.80937982 160.32182261 5.44476259 161.40921021 7.52812195 C161.96350708 8.48976257 162.51780396 9.4514032 163.08889771 10.44218445 C163.48335083 11.33679382 163.87780396 12.2314032 164.28421021 13.15312195 C164.69413208 14.05288757 165.10405396 14.9526532 165.52639771 15.87968445 C166.40921021 18.52812195 166.40921021 18.52812195 166.40921021 23.52812195 C105.68921021 23.52812195 44.96921021 23.52812195 -17.59078979 23.52812195 C-16.78569205 17.89243774 -16.22690747 15.13247376 -13.77828979 10.34062195 C-13.27684448 9.33644226 -12.77539917 8.33226257 -12.25875854 7.2976532 C-8.87756743 1.68345063 -6.64238532 0.03034167 0 0 Z " fill="#fff" transform="translate(181.59078979492188,411.4718780517578)"/>
</svg>
