<?xml version="1.0" encoding="UTF-8"?>
<svg version="1.1" xmlns="http://www.w3.org/2000/svg" width="512" height="512">
<path d="M0 0 C1.20970459 0.00523682 2.41940918 0.01047363 3.66577148 0.01586914 C4.97094727 0.0190918 6.27612305 0.02231445 7.62084961 0.02563477 C9.00952213 0.03399138 10.39819401 0.04245634 11.78686523 0.05102539 C13.17944179 0.05603873 14.57202005 0.06060193 15.96459961 0.06469727 C19.38456394 0.07653105 22.80444367 0.09301659 26.22436523 0.11352539 C26.99786305 1.6330053 27.76801003 3.15419106 28.53686523 4.67602539 C29.0005249 5.58634521 29.46418457 6.49666504 29.94189453 7.43457031 C30.9940846 9.63249181 31.79214919 11.73603195 32.55639648 14.03930664 C34.80350447 18.1809319 37.62276095 19.01664269 41.91186523 20.30102539 C43.36229873 20.78175067 44.81153956 21.26609049 46.25952148 21.75415039 C46.94933105 21.98166992 47.63914062 22.20918945 48.34985352 22.44360352 C50.65042321 23.26579201 52.72846647 24.34380816 54.84936523 25.55102539 C58.8031245 27.38146949 60.1263909 27.45163946 64.22436523 26.11352539 C66.46875298 25.10294212 68.68689115 24.07010187 70.88061523 22.95336914 C73.87883888 21.87900567 76.04841811 21.83138369 79.22436523 22.11352539 C82.81448997 24.42026354 85.66069402 27.53081423 88.66186523 30.55102539 C89.50168945 31.33413086 90.34151367 32.11723633 91.20678711 32.92407227 C96.9984514 38.67785159 96.9984514 38.67785159 97.6081543 42.55249023 C97.23546195 46.63102618 96.0400082 50.25365805 94.09936523 53.86352539 C92.71927422 56.43335003 92.18097653 57.66185606 92.46264648 60.59399414 C93.24322806 63.1759178 94.24452836 65.31140901 95.53686523 67.67602539 C97.60095377 71.56000043 98.78449887 75.16655992 99.84936523 79.42602539 C100.97898897 83.03711767 101.59895338 84.6690503 104.70874023 86.87915039 C107.51349108 88.13749807 110.30104531 89.16724842 113.22436523 90.11352539 C116.84936523 91.67602539 116.84936523 91.67602539 119.22436523 93.11352539 C120.91986936 97.84908666 120.44861235 103.09037662 120.47436523 108.05102539 C120.50530273 109.53505859 120.50530273 109.53505859 120.53686523 111.04907227 C120.58849964 120.64661702 120.58849964 120.64661702 117.22436523 124.11352539 C114.00952148 125.56274414 114.00952148 125.56274414 110.28686523 126.80102539 C105.39740243 128.64888477 105.39740243 128.64888477 101.66186523 132.19165039 C100.74207177 134.56226751 100.74207177 134.56226751 100.09155273 137.12133789 C98.78407914 141.63271074 96.56952074 145.68337059 94.41992188 149.84765625 C93.05701226 152.63798973 92.19509638 154.65786261 92.39624023 157.78930664 C93.49576043 160.87522418 94.89596171 163.72341172 96.38452148 166.63696289 C97.60611661 170.23924807 97.86042006 172.30509774 97.22436523 176.11352539 C94.87537499 179.45005964 92.04488229 182.17865714 89.09936523 184.98852539 C87.95854492 186.14481445 87.95854492 186.14481445 86.79467773 187.32446289 C83.64398026 190.40997352 81.18707053 192.76493951 77.00952148 194.27758789 C73.69210871 194.08217227 71.69640257 193.20131355 68.78686523 191.61352539 C64.01028032 189.31202149 61.44770351 188.43459523 56.22436523 190.11352539 C53.48945562 191.2788721 50.80786307 192.50767108 48.13842773 193.81665039 C45.23123727 195.11046706 42.41961718 195.86501544 39.34936523 196.67602539 C35.78519883 197.90295038 34.53965304 198.59274412 32.56420898 201.85571289 C31.25755739 205.0045204 31.25755739 205.0045204 30.32202148 208.14086914 C29.06307576 211.55032714 27.77939708 213.52459148 25.22436523 216.11352539 C22.33935547 216.71289062 22.33935547 216.71289062 19.03295898 216.67211914 C17.8412207 216.6650293 16.64948242 216.65793945 15.42163086 216.65063477 C14.1809082 216.61776367 12.94018555 216.58489258 11.66186523 216.55102539 C9.79498047 216.54232422 9.79498047 216.54232422 7.89038086 216.53344727 C-1.33301638 216.40860431 -1.33301638 216.40860431 -4.77563477 214.11352539 C-5.32745351 212.38573335 -5.8723593 210.65494772 -6.35913086 208.90771484 C-8.19810635 202.61654841 -8.19810635 202.61654841 -12.48803711 197.88745117 C-16.47182201 195.93683889 -20.67764136 194.7839138 -24.95385742 193.65454102 C-27.27788165 192.96437247 -29.25478762 191.90393137 -31.33813477 190.67602539 C-35.55105523 188.76106154 -37.34730896 188.87048657 -41.77563477 190.11352539 C-44.04434698 191.14041618 -46.26841174 192.20142507 -48.46704102 193.37133789 C-51.86649482 194.4642249 -53.35191475 194.29834497 -56.77563477 193.11352539 C-59.97761883 190.61628969 -62.76509844 187.7756089 -65.58813477 184.86352539 C-66.36350586 184.09911133 -67.13887695 183.33469727 -67.93774414 182.54711914 C-74.40685447 175.99311235 -74.40685447 175.99311235 -74.77563477 171.11352539 C-73.72766592 168.96995275 -72.59123453 166.86878131 -71.40063477 164.80102539 C-69.31158339 160.63129671 -68.28386045 157.56490302 -69.79125977 153.02758789 C-71.24829669 149.5432071 -73.04541157 146.25675011 -74.8684082 142.95288086 C-76.1284771 140.3981556 -76.65190237 137.75774692 -77.27563477 134.98852539 C-78.59471284 131.03129116 -79.52625685 130.24848938 -83.28344727 128.21508789 C-85.96313798 127.10457961 -88.67286469 126.19811026 -91.43969727 125.33227539 C-94.77563477 124.11352539 -94.77563477 124.11352539 -96.77563477 121.11352539 C-97.24434209 116.81599125 -97.14598175 112.49635144 -97.15063477 108.17602539 C-97.17512695 106.98299805 -97.19961914 105.7899707 -97.22485352 104.56079102 C-97.2287207 103.41416992 -97.23258789 102.26754883 -97.23657227 101.08618164 C-97.24479004 100.03696533 -97.25300781 98.98774902 -97.26147461 97.90673828 C-96.65346684 94.41115188 -95.51383688 93.29806974 -92.77563477 91.11352539 C-89.83032227 89.62915039 -89.83032227 89.62915039 -86.65063477 88.36352539 C-85.59618164 87.93555664 -84.54172852 87.50758789 -83.45532227 87.06665039 C-80.77563477 86.11352539 -80.77563477 86.11352539 -78.77563477 86.11352539 C-78.62868164 85.4702832 -78.48172852 84.82704102 -78.33032227 84.16430664 C-76.64148737 77.36043732 -74.1695834 71.39850994 -70.98266602 65.15649414 C-69.23053955 60.73932094 -69.13317239 57.71634675 -70.90454102 53.29711914 C-71.86189639 51.46327493 -72.82023331 49.62994281 -73.77954102 47.79711914 C-74.96982402 44.59035671 -74.7647467 43.35450337 -73.77563477 40.11352539 C-71.25946705 36.68092239 -68.20616905 33.75762728 -65.21313477 30.73852539 C-64.42616211 29.89418945 -63.63918945 29.04985352 -62.82836914 28.17993164 C-57.07005749 22.34091818 -57.07005749 22.34091818 -53.56591797 21.7253418 C-48.93947043 22.20481688 -44.99293776 24.2286664 -40.95141602 26.37133789 C-35.52053163 28.22388373 -30.12533056 24.6136479 -25.23535156 22.3996582 C-21.53495263 20.7632133 -18.04367661 19.66626771 -14.08813477 18.86352539 C-11.70028059 18.31890472 -11.70028059 18.31890472 -9.77563477 17.11352539 C-8.06204008 13.90910332 -7.49472499 10.6485949 -6.77563477 7.11352539 C-3.59799463 0.14716048 -3.59799463 0.14716048 0 0 Z M-28.77563477 77.11352539 C-36.85402224 87.85346976 -40.10995141 100.80330509 -38.77563477 114.11352539 C-36.61918291 128.228483 -29.555561 139.83604642 -18.58422852 148.92993164 C-7.21480595 157.04513666 5.56432361 159.06344014 19.22436523 158.11352539 C33.82385409 155.2778866 45.68404334 147.5657465 54.01928711 135.33422852 C61.40841873 124.05608026 63.60489546 111.26956392 61.16186523 98.05102539 C57.75357954 84.28032849 50.72649202 73.25680956 38.91186523 65.23852539 C16.01357213 51.87855576 -11.67678823 56.4821699 -28.77563477 77.11352539 Z " fill="#fff" transform="translate(376.775634765625,272.886474609375)"/>
<path d="M0 0 C2.05927165 -0.01720907 4.11693578 -0.06107831 6.17578125 -0.10522461 C7.47 -0.11360352 8.76421875 -0.12198242 10.09765625 -0.13061523 C11.29052246 -0.14519775 12.48338867 -0.15978027 13.71240234 -0.17480469 C16.69921875 0.29516602 16.69921875 0.29516602 18.53881836 2.15136719 C19.90953166 4.6837117 20.93106344 7.20332219 21.88671875 9.92016602 C22.23089844 10.88180664 22.57507813 11.84344727 22.9296875 12.83422852 C23.69921875 15.29516602 23.69921875 15.29516602 23.69921875 17.29516602 C24.25867188 17.44211914 24.818125 17.58907227 25.39453125 17.74047852 C32.03482687 19.59805317 38.22585772 22.1660606 44.5 24.99047852 C49.97188705 27.27375031 49.97188705 27.27375031 55.63671875 26.29907227 C56.64734375 25.8234082 57.65796875 25.34774414 58.69921875 24.85766602 C62.55398923 23.05320075 65.40989965 21.7662466 69.69921875 22.29516602 C70.68921875 22.95516602 71.67921875 23.61516602 72.69921875 24.29516602 C72.69921875 24.95516602 72.69921875 25.61516602 72.69921875 26.29516602 C73.35921875 26.29516602 74.01921875 26.29516602 74.69921875 26.29516602 C76.1796875 27.76391602 76.1796875 27.76391602 77.88671875 29.79516602 C79.79525377 32.0653182 81.69580578 34.29161003 83.75 36.43188477 C84.71486328 37.44702148 84.71486328 37.44702148 85.69921875 38.48266602 C86.29734375 39.0949707 86.89546875 39.70727539 87.51171875 40.33813477 C88.69921875 42.29516602 88.69921875 42.29516602 88.515625 44.75610352 C87.47798667 47.98320837 86.05856405 50.89347909 84.5390625 53.91625977 C82.94870727 58.42103342 83.34968774 61.44563745 85.16015625 65.84594727 C85.78827759 67.10484164 86.42668518 68.3586457 87.07421875 69.60766602 C89.2565538 73.94677436 90.99711126 77.66379851 91.57421875 82.54516602 C92.23694494 86.30424209 92.23694494 86.30424209 94.52734375 87.36157227 C96.82626663 88.14173924 96.82626663 88.14173924 99.23828125 88.68579102 C101.76733624 89.3120332 103.87099269 90.19775556 106.19921875 91.35766602 C106.84890625 91.67864258 107.49859375 91.99961914 108.16796875 92.33032227 C109.69921875 93.29516602 109.69921875 93.29516602 110.69921875 95.29516602 C110.99666843 99.58090307 110.97726814 103.87532306 111.01171875 108.17016602 C111.04072266 109.36770508 111.06972656 110.56524414 111.09960938 111.79907227 C111.10798828 112.95020508 111.11636719 114.10133789 111.125 115.28735352 C111.14687378 116.8707251 111.14687378 116.8707251 111.16918945 118.48608398 C110.58147688 121.998926 109.47855632 123.13653041 106.69921875 125.29516602 C104.60963863 125.89062806 102.50296103 126.42778532 100.38671875 126.92016602 C95.828051 128.54534129 93.51241156 129.99186008 91.43359375 134.30297852 C89.84358151 138.20805517 88.60340065 142.20830967 87.39257812 146.24438477 C86.54854402 148.74082367 85.28554702 150.82052346 83.88671875 153.04516602 C82.34749842 156.25081498 82.69325047 157.27689074 83.83203125 160.76391602 C84.89285784 163.27919083 86.07789137 165.63163799 87.34375 168.06079102 C88.85610752 171.66952885 88.84963075 172.66155609 87.69921875 176.29516602 C85.29555311 179.5109562 82.36787648 182.22936962 79.51171875 185.04516602 C78.75568359 185.82504883 77.99964844 186.60493164 77.22070312 187.40844727 C71.67607443 192.93864934 71.67607443 192.93864934 67.48828125 194.46704102 C63.22346297 194.20422308 60.26768228 192.34573703 56.578125 190.32641602 C50.16855072 188.03044911 44.43422294 191.0242221 38.63671875 193.73266602 C37.27198061 194.35887036 35.90611008 194.98261327 34.5390625 195.60375977 C33.563927 196.0569458 33.563927 196.0569458 32.5690918 196.51928711 C30.69921875 197.29516602 30.69921875 197.29516602 27.40234375 198.04907227 C24.34766187 199.12476301 24.34766187 199.12476301 22.90625 202.70141602 C22.41837847 204.05793684 21.95410203 205.42313671 21.51171875 206.79516602 C19.04568614 214.06418775 19.04568614 214.06418775 15.69921875 216.29516602 C11.21311573 216.73974546 6.70491382 216.61929062 2.19921875 216.60766602 C0.32556641 216.63183594 0.32556641 216.63183594 -1.5859375 216.65649414 C-2.78089844 216.65713867 -3.97585937 216.6577832 -5.20703125 216.65844727 C-6.85155273 216.6629187 -6.85155273 216.6629187 -8.52929688 216.66748047 C-11.30078125 216.29516602 -11.30078125 216.29516602 -13.11474609 214.9597168 C-14.88870199 212.47004383 -15.5334723 209.76923708 -16.42578125 206.85766602 C-18.05153101 202.26731042 -18.05153101 202.26731042 -21.203125 198.72875977 C-23.53772235 197.71977465 -25.85849913 197.00445154 -28.30078125 196.29516602 C-30.41332672 195.4405936 -32.51737082 194.56476193 -34.61328125 193.67016602 C-35.59941406 193.26540039 -36.58554688 192.86063477 -37.6015625 192.44360352 C-40.30078125 191.29516602 -40.30078125 191.29516602 -42.45703125 190.13891602 C-45.5955396 188.70264948 -47.99926855 189.53744179 -51.30078125 190.29516602 C-53.57673835 191.31022702 -55.79216262 192.38232308 -57.9921875 193.55297852 C-61.38656304 194.64423292 -62.88019598 194.46933593 -66.30078125 193.29516602 C-69.5294364 190.8469436 -72.33358909 188.05089638 -75.17578125 185.17016602 C-76.35140625 184.04868164 -76.35140625 184.04868164 -77.55078125 182.90454102 C-83.11165239 177.34366988 -83.11165239 177.34366988 -83.96875 172.59204102 C-83.28881712 169.236115 -82.33561763 166.69074217 -80.73828125 163.67016602 C-78.73706276 159.95148608 -78.73706276 159.95148608 -78.47265625 155.84594727 C-79.85356732 151.59248061 -81.83963959 147.67153368 -83.7890625 143.65454102 C-85.11421428 140.70975928 -85.95099445 137.95633612 -86.80078125 134.85766602 C-88.15849839 131.22724844 -89.14649335 130.38330435 -92.58984375 128.41625977 C-95.09444841 127.29702265 -97.59313966 126.37773224 -100.18359375 125.45141602 C-103.30078125 124.29516602 -103.30078125 124.29516602 -105.30078125 122.29516602 C-105.52783203 119.40600586 -105.52783203 119.40600586 -105.49609375 115.75610352 C-105.48642578 113.80317383 -105.48642578 113.80317383 -105.4765625 111.81079102 C-105.45985054 110.43058006 -105.44292064 109.05037173 -105.42578125 107.67016602 C-105.41575131 106.28215149 -105.40662548 104.89413012 -105.3984375 103.50610352 C-105.37479988 100.10228575 -105.34184992 96.69881095 -105.30078125 93.29516602 C-104.16640625 92.71766602 -103.03203125 92.14016602 -101.86328125 91.54516602 C-101.1377002 91.17206299 -100.41211914 90.79895996 -99.66455078 90.41455078 C-97.30078125 89.29516602 -97.30078125 89.29516602 -94.90185547 88.47070312 C-91.48684565 87.26085231 -89.01214768 86.38169793 -86.98144531 83.2800293 C-85.95779222 80.83249402 -85.16011763 78.40658624 -84.42578125 75.85766602 C-83.89109868 74.17007414 -83.3521483 72.48382751 -82.80859375 70.79907227 C-82.56149658 70.01193848 -82.31439941 69.22480469 -82.05981445 68.41381836 C-81.13066874 65.82033928 -79.76024013 63.62241126 -78.30078125 61.29516602 C-78.40854785 56.55343565 -80.34812926 52.78934358 -82.4609375 48.63891602 C-83.53640757 45.63760421 -83.59007574 43.47418825 -83.30078125 40.29516602 C-81.74365234 37.96166992 -81.74365234 37.96166992 -79.57421875 35.77172852 C-78.78917969 34.97895508 -78.00414063 34.18618164 -77.1953125 33.36938477 C-76.36386719 32.56114258 -75.53242187 31.75290039 -74.67578125 30.92016602 C-73.86753906 30.0887207 -73.05929688 29.25727539 -72.2265625 28.40063477 C-71.43378906 27.6155957 -70.64101562 26.83055664 -69.82421875 26.02172852 C-68.74019775 24.94785889 -68.74019775 24.94785889 -67.63427734 23.85229492 C-64.64738647 21.85915933 -62.82738478 21.92499474 -59.30078125 22.29516602 C-56.44251758 23.45533203 -53.80588158 24.85496196 -51.08203125 26.29907227 C-46.60361767 27.90299848 -43.51502804 26.79596577 -39.22265625 25.02563477 C-37.02170312 23.95497407 -34.82261023 22.8804841 -32.625 21.80297852 C-29.68197087 20.46806754 -26.97053195 19.67561098 -23.86328125 18.85766602 C-20.31899466 17.54154657 -18.97779778 16.06485913 -17.38671875 12.74829102 C-15.80856731 8.99945134 -14.56390607 5.15911611 -13.30078125 1.29516602 C-10.67782835 -1.32778688 -3.55873228 0.02075927 0 0 Z M-35.11328125 73.98266602 C-44.18020519 84.73645953 -48.9128929 97.80391721 -48.23828125 111.92016602 C-47.045518 122.35049999 -43.64500662 130.96941094 -37.30078125 139.29516602 C-36.18703125 140.84204102 -36.18703125 140.84204102 -35.05078125 142.42016602 C-26.44088625 151.42141988 -14.44318184 157.7461997 -1.91796875 158.49829102 C14.52228706 158.70422324 27.18036787 154.43203039 39.21875 142.97094727 C48.8722537 132.55732517 53.06978889 119.49468523 52.9140625 105.51391602 C51.96838774 91.3459887 45.89987287 79.9597985 35.69921875 70.29516602 C14.42608836 52.57884883 -15.77023181 53.83096066 -35.11328125 73.98266602 Z " fill="#fff" transform="translate(121.30078125,272.704833984375)"/>
<path d="M0 0 C0.74914681 -0.00523668 1.49829361 -0.01047336 2.27014184 -0.01586872 C4.78189409 -0.03087741 7.29344279 -0.03157406 9.80523682 -0.03224182 C11.60563501 -0.03986281 13.40602995 -0.04829021 15.2064209 -0.0574646 C20.0991334 -0.0794245 24.99178339 -0.0882107 29.8845396 -0.09329104 C32.94201843 -0.09693335 35.99948085 -0.1031728 39.05695343 -0.11029243 C49.72565938 -0.13479368 60.39431667 -0.14783995 71.06304932 -0.15138245 C81.00375962 -0.15501657 90.94416095 -0.18490146 100.88477683 -0.22678703 C109.42165298 -0.26149523 117.95842678 -0.27693099 126.49537301 -0.27762848 C131.59298924 -0.27842122 136.69029091 -0.28715819 141.78783417 -0.31562614 C146.58470481 -0.34181522 151.38100031 -0.34400726 156.17790985 -0.3279705 C157.93547826 -0.32615659 159.69307979 -0.33284157 161.45057678 -0.34878922 C177.96689527 -0.48948452 177.96689527 -0.48948452 184.58746338 5.27415466 C203.50195771 30.29009878 188.58746338 67.91246537 188.58746338 99.27415466 C119.94746338 99.27415466 51.30746338 99.27415466 -19.41253662 99.27415466 C-19.41253662 14.27415466 -19.41253662 14.27415466 -16.41253662 6.27415466 C-13.97503662 3.89915466 -13.97503662 3.89915466 -11.41253662 2.27415466 C-10.85256863 1.91629348 -10.29260063 1.55843229 -9.71566391 1.18972683 C-6.49822761 -0.08931456 -3.41005135 -0.01178485 0 0 Z " fill="#fff" transform="translate(171.41253662109375,22.725845336914063)"/>
<path d="M0 0 C68.64 0 137.28 0 208 0 C208 17.82608696 208 17.82608696 203.3828125 22.7109375 C197.93749739 27.68884359 194.10854614 28.1237517 186.73258972 28.14044189 C185.63231248 28.14489858 185.63231248 28.14489858 184.50980741 28.1494453 C182.05104169 28.15811931 179.59232473 28.15963944 177.13354492 28.16113281 C175.37093502 28.16576188 173.60832612 28.17078666 171.84571838 28.17617798 C167.05638216 28.18929488 162.26705995 28.19574548 157.47770858 28.20018864 C154.48523695 28.20312033 151.49276915 28.20722531 148.50029945 28.21169281 C139.13666368 28.22536548 129.77303665 28.23503343 120.40939158 28.2388947 C109.60193973 28.24337591 98.79461432 28.26092774 87.98720092 28.2898953 C79.63208799 28.31151227 71.27701064 28.32159898 62.92187005 28.32293582 C57.93223574 28.32398378 52.94272033 28.32988972 47.95311546 28.34775543 C43.25896045 28.36423649 38.56501371 28.36639143 33.87084007 28.35761642 C32.14994753 28.35684609 30.42904379 28.36118834 28.70817947 28.37107468 C26.3546595 28.38380051 24.00187652 28.37791436 21.64836121 28.36749268 C20.33262713 28.36895924 19.01689306 28.3704258 17.66128826 28.3719368 C12.7853692 27.87661013 8.82716525 26.56874148 5.0390625 23.31640625 C4.57242188 22.73761719 4.10578125 22.15882813 3.625 21.5625 C2.90183594 20.69818359 2.90183594 20.69818359 2.1640625 19.81640625 C-1.61802 13.91483456 0 6.73283266 0 0 Z " fill="#fff" transform="translate(152,137)"/>
<path d="M0 0 C16.5 0 33 0 50 0 C50 2.97 50 5.94 50 9 C51.58868896 8.97643433 51.58868896 8.97643433 53.20947266 8.95239258 C57.15666026 8.89789878 61.10381489 8.86357954 65.05126953 8.83520508 C66.75640463 8.82016262 68.46150132 8.79972347 70.16650391 8.77368164 C72.62412012 8.73709716 75.08122269 8.72022827 77.5390625 8.70703125 C78.29555084 8.69154739 79.05203918 8.67606354 79.83145142 8.66011047 C84.625681 8.65860229 87.82182897 9.40255587 92 12 C98.48010592 19.1504617 96 25.38969723 96 36 C49.14 36 2.28 36 -46 36 C-46 19 -46 19 -43 13 C-38.35294963 8.7886106 -33.83076786 8.86223714 -27.83203125 8.90234375 C-26.63981209 8.90446617 -26.63981209 8.90446617 -25.42350769 8.90663147 C-22.88646675 8.91222622 -20.34951425 8.92477772 -17.8125 8.9375 C-16.09179815 8.94251568 -14.37109492 8.94707847 -12.65039062 8.95117188 C-8.4335597 8.96219393 -4.21679484 8.97945494 0 9 C0 6.03 0 3.06 0 0 Z " fill="#fff" transform="translate(231,180)"/>
<path d="M0 0 C1.29063354 -0.00241196 2.58126709 -0.00482391 3.91101074 -0.00730896 C6.6380984 -0.01016184 9.36436241 0.00448161 12.09130859 0.03198242 C15.57857942 0.06606662 19.06437834 0.06004343 22.55171967 0.04131985 C25.88879153 0.02818122 29.22543838 0.04647296 32.5625 0.0625 C34.43609192 0.0550602 34.43609192 0.0550602 36.34753418 0.04747009 C37.51224243 0.06330643 38.67695068 0.07914276 39.87695312 0.09545898 C41.40987 0.10475685 41.40987 0.10475685 42.97375488 0.11424255 C46.6706632 0.79195148 48.16860874 1.92736244 50.78125 4.62890625 C51.28480535 7.376108 51.45865633 9.51159412 51.41616821 12.25817871 C51.42396817 13.03056554 51.43176812 13.80295238 51.43980443 14.59874487 C51.45976358 17.18936064 51.44394554 19.77851372 51.42822266 22.36914062 C51.43499707 24.22529458 51.4438992 26.08144182 51.45477295 27.93757629 C51.47759387 32.98100277 51.46871839 38.02391864 51.45287752 43.0673542 C51.44023302 48.341263 51.4519546 53.6151276 51.45980835 58.88903809 C51.46890913 67.74625512 51.45690571 76.60326381 51.43310547 85.46044922 C51.40589344 95.70574245 51.41470729 105.95053821 51.4422375 116.19581938 C51.4649153 124.98659132 51.46813514 133.77721335 51.45504415 142.56800508 C51.44724235 147.82082558 51.44622811 153.07341212 51.46272659 158.32621765 C51.47715273 163.26430781 51.46718359 168.20175559 51.43825531 173.13977623 C51.43163456 174.95382812 51.43355902 176.76793393 51.44456863 178.58196449 C51.45819732 181.05525474 51.44114341 183.52647607 51.41616821 185.99963379 C51.42732182 186.72064317 51.43847543 187.44165256 51.44996703 188.18451071 C51.37712612 191.89316036 51.03984023 193.36004829 48.42906761 196.07448578 C45.16732458 197.98931561 43.50646579 198.24977555 39.78125 197.62890625 C35.20788199 194.78325504 35.20788199 194.78325504 34.15204716 191.92645645 C33.64788733 188.80255841 33.65868857 185.78318137 33.66099548 182.61810303 C33.66014106 181.91231432 33.65928663 181.20652562 33.65840632 180.47934937 C33.65675942 178.11478781 33.66225995 175.75029721 33.66772461 173.38574219 C33.66800668 171.69059246 33.66784836 169.99544262 33.6672821 168.30029297 C33.6669949 163.69736017 33.6728793 159.09445336 33.67985606 154.4915266 C33.6861023 149.68154723 33.68669441 144.87156728 33.68788147 140.06158447 C33.69099103 130.95272514 33.69919938 121.84387779 33.70923096 112.73502374 C33.72040372 102.36511782 33.72590548 91.99521133 33.73092639 81.62530088 C33.74138229 60.29316265 33.7589745 38.9610352 33.78125 17.62890625 C33.20353348 17.64000931 32.62581696 17.65111237 32.03059387 17.66255188 C26.01233394 17.77325436 19.99436364 17.8486183 13.9753418 17.90356445 C11.72977956 17.92869348 9.484299 17.9628024 7.23901367 18.00610352 C4.00939782 18.06682401 0.78086416 18.09513256 -2.44921875 18.1171875 C-3.45147995 18.14299393 -4.45374115 18.16880035 -5.4863739 18.19538879 C-10.19823464 18.19728063 -12.47063569 18.18074035 -16.3527832 15.31713867 C-18.8243182 11.75648554 -18.97754951 9.87818348 -18.21875 5.62890625 C-13.85738806 -1.19349216 -7.45353538 -0.07911584 0 0 Z " fill="#fff" transform="translate(399.21875,74.37109375)"/>
<path d="M0 0 C1.16470825 -0.01583633 2.3294165 -0.03167267 3.52941895 -0.04798889 C4.77848022 -0.04302902 6.0275415 -0.03806915 7.31445312 -0.03295898 C9.25040344 -0.04225685 9.25040344 -0.04225685 11.22546387 -0.05174255 C13.9524118 -0.06212993 16.67883736 -0.05760965 19.40576172 -0.04296875 C22.89317546 -0.02577333 26.3789427 -0.0492902 29.86617279 -0.08445835 C33.20319613 -0.11174943 36.53982337 -0.10169547 39.87695312 -0.09545898 C41.1260144 -0.10871719 42.37507568 -0.1219754 43.6619873 -0.13563538 C53.28775955 -0.03205504 53.28775955 -0.03205504 56.3828125 2.85400391 C58.66596695 6.4255005 58.83907649 8.37055642 58.09570312 12.53344727 C56.04728507 15.48453077 54.44770491 17.27528146 50.82675171 17.96670532 C47.98009059 18.11308262 45.17568503 18.09509837 42.32617188 18.02172852 C41.2900325 18.01465378 40.25389313 18.00757904 39.18635559 18.00028992 C35.88456316 17.97235334 32.58448097 17.90961357 29.28320312 17.84594727 C27.0416912 17.82086356 24.80015263 17.79805053 22.55859375 17.77758789 C17.07038232 17.72252933 11.58316492 17.63891007 6.09570312 17.53344727 C6.09754671 18.41528026 6.0993903 19.29711325 6.10128975 20.20566845 C6.14544285 41.65458031 6.17854707 63.10348434 6.19932747 84.55243206 C6.2096436 94.92494526 6.2237104 105.29742814 6.24658203 115.66992188 C6.26650556 124.70972695 6.27941711 133.74951008 6.28388011 142.7893365 C6.28648925 147.57661806 6.29262889 152.36383681 6.30716324 157.15109825 C6.32073074 161.65637578 6.32492744 166.16156456 6.32191849 170.66686058 C6.32246902 172.32086163 6.32645142 173.97486563 6.33411407 175.62884903 C6.34406235 177.88680502 6.34167251 180.1444258 6.33621216 182.40238953 C6.33805574 183.66616771 6.33989933 184.92994589 6.34179878 186.23202038 C6.03084459 190.40353863 5.2732601 193.31383468 2.34570312 196.34594727 C-0.68324616 197.94455939 -2.51831739 198.01715862 -5.90429688 197.53344727 C-8.55602074 195.98293304 -8.55602074 195.98293304 -10.90429688 193.53344727 C-11.40785223 190.78624552 -11.5817032 188.6507594 -11.53921509 185.9041748 C-11.54701504 185.13178797 -11.55481499 184.35940114 -11.56285131 183.56360865 C-11.58281046 180.97299288 -11.56699242 178.38383979 -11.55126953 175.79321289 C-11.55804394 173.93705893 -11.56694608 172.08091169 -11.57781982 170.22477722 C-11.60064074 165.18135074 -11.59176527 160.13843488 -11.5759244 155.09499931 C-11.56327989 149.82109052 -11.57500147 144.54722591 -11.58285522 139.27331543 C-11.59195601 130.4160984 -11.57995258 121.55908971 -11.55615234 112.7019043 C-11.52894031 102.45661107 -11.53775417 92.21181531 -11.56528437 81.96653414 C-11.58796218 73.1757622 -11.59118201 64.38514016 -11.57809103 55.59434843 C-11.57028922 50.34152794 -11.56927499 45.0889414 -11.58577347 39.83613586 C-11.6001996 34.89804571 -11.59023046 29.96059792 -11.56130219 25.02257729 C-11.55468143 23.20852539 -11.5566059 21.39441959 -11.56761551 19.58038902 C-11.58124419 17.10709878 -11.56419029 14.63587744 -11.53921509 12.16271973 C-11.5503687 11.44171034 -11.56152231 10.72070096 -11.5730139 9.97784281 C-11.50000559 6.26067015 -11.16493259 4.80295185 -8.54008293 2.08878422 C-5.44063177 0.25984559 -3.5823853 0.02172886 0 0 Z " fill="#fff" transform="translate(72.904296875,74.466552734375)"/>
</svg>
