<?xml version="1.0" encoding="UTF-8"?>
<svg version="1.1" xmlns="http://www.w3.org/2000/svg" width="512" height="512">
<path d="M0 0 C2.78516759 1.74299233 5.49481821 3.54970453 8.16119385 5.46942139 C9.91677461 6.73131322 11.69399823 7.95579023 13.47973633 9.17456055 C18.76065626 12.79896739 23.93693943 16.51899377 28.98217773 20.46704102 C40.54897992 29.34728879 50.53254242 31.51683621 64.89916992 33.11987305 C72.39413208 34.12026515 79.65297067 36.34969749 86.88061523 38.51782227 C87.53143066 38.70957031 88.18224609 38.90131836 88.8527832 39.09887695 C133.27490332 52.37182722 174.74501245 81.97023758 201.88061523 119.51782227 C202.65663086 120.58387695 203.43264648 121.64993164 204.23217773 122.74829102 C222.60378357 148.66425045 236.45205225 178.0410667 241.88061523 209.51782227 C242.60128174 209.496875 243.32194824 209.47592773 244.06445312 209.4543457 C247.35719629 209.37075071 250.64971553 209.31902448 253.94311523 209.26782227 C255.0768457 209.23430664 256.21057617 209.20079102 257.37866211 209.16625977 C264.13134095 209.08751132 268.44389295 209.37232152 273.88061523 213.51782227 C277.12965777 217.81494303 277.48599129 222.14103809 277.42333984 227.38085938 C276.45053751 233.00368312 273.21500784 237.2343485 269.92901611 241.79840088 C268.66712428 243.55398164 267.44264727 245.33120526 266.22387695 247.11694336 C262.59947011 252.39786329 258.87944373 257.57414646 254.93139648 262.61938477 C246.05114871 274.18618696 243.88160129 284.16974945 242.27856445 298.53637695 C241.27817235 306.03133911 239.04874001 313.2901777 236.88061523 320.51782227 C236.68886719 321.1686377 236.49711914 321.81945312 236.29956055 322.48999023 C223.02661028 366.91211035 193.42819992 408.38221948 155.88061523 435.51782227 C154.81456055 436.29383789 153.74850586 437.06985352 152.65014648 437.86938477 C126.73418705 456.2409906 97.3573708 470.08925929 65.88061523 475.51782227 C65.91203613 476.59882202 65.91203613 476.59882202 65.9440918 477.70166016 C66.02768679 480.99440332 66.07941302 484.28692257 66.13061523 487.58032227 C66.16413086 488.71405273 66.19764648 489.8477832 66.23217773 491.01586914 C66.31092618 497.76854798 66.02611598 502.08109998 61.88061523 507.51782227 C57.58349447 510.7668648 53.25739941 511.12319832 48.01757812 511.06054688 C42.39475438 510.08774454 38.164089 506.85221487 33.60003662 503.56622314 C31.84445586 502.30433131 30.06723224 501.0798543 28.28149414 499.86108398 C23.00057421 496.23667714 17.82429104 492.51665076 12.77905273 488.56860352 C1.23034945 479.69970984 -8.65067214 477.6005551 -22.97485352 475.94995117 C-65.04575459 470.16846865 -104.93734893 446.52215616 -135.11938477 417.51782227 C-135.71396484 416.95047363 -136.30854492 416.383125 -136.92114258 415.79858398 C-145.80838552 407.27572259 -153.92410534 398.5177763 -161.11938477 388.51782227 C-161.82393799 387.5471582 -161.82393799 387.5471582 -162.54272461 386.55688477 C-169.12453037 377.3858401 -174.75812043 367.82798994 -179.99438477 357.83032227 C-180.77918213 356.33601685 -180.77918213 356.33601685 -181.57983398 354.81152344 C-185.6243418 346.90881045 -188.9320414 338.79257417 -192.11938477 330.51782227 C-193.08239502 330.50847656 -194.04540527 330.49913086 -195.03759766 330.48950195 C-198.63685049 330.44939696 -202.23526684 330.38358406 -205.83398438 330.31030273 C-207.3866088 330.28221116 -208.93937309 330.26093819 -210.4921875 330.24682617 C-212.73452755 330.2252306 -214.97520687 330.17850275 -217.21704102 330.12719727 C-217.90274673 330.12596863 -218.58845245 330.12473999 -219.29493713 330.12347412 C-224.69341848 329.9622234 -227.75370124 328.48031123 -232.11938477 325.51782227 C-235.32514247 321.27794918 -235.79725409 316.95035335 -235.73779297 311.76611328 C-234.43068068 304.90029055 -229.74124097 299.35068761 -225.74438477 293.76782227 C-224.86310263 292.50124293 -223.98417972 291.23301868 -223.10766602 289.96313477 C-222.22890169 288.69480725 -221.34999523 287.42657821 -220.47094727 286.15844727 C-219.815746 285.21251961 -219.815746 285.21251961 -219.14730835 284.2474823 C-216.90580564 281.02700833 -214.62567483 277.85262168 -212.25463867 274.72607422 C-205.93117357 266.18471136 -203.78100172 260.09118094 -204.24438477 249.20532227 C-204.254245 246.57773531 -204.2514036 243.95007337 -204.23657227 241.32250977 C-204.23028809 239.36522949 -204.23028809 239.36522949 -204.22387695 237.3684082 C-203.77574316 220.85446857 -199.87204291 204.28310018 -195.11938477 188.51782227 C-194.75200195 187.26485352 -194.38461914 186.01188477 -194.00610352 184.72094727 C-183.3420744 150.56673718 -163.77385466 121.07530937 -139.11938477 95.51782227 C-138.60085937 94.97206543 -138.08233398 94.42630859 -137.5480957 93.86401367 C-107.68654262 62.45588504 -66.47282515 41.63226645 -24.11938477 33.51782227 C-24.14033203 32.79715576 -24.1612793 32.07648926 -24.18286133 31.33398438 C-24.26645632 28.04124121 -24.31818255 24.74872197 -24.36938477 21.45532227 C-24.40290039 20.3215918 -24.43641602 19.18786133 -24.47094727 18.01977539 C-24.54969571 11.26709655 -24.26488551 6.95454455 -20.11938477 1.51782227 C-14.26278938 -2.91033522 -6.51676258 -3.09644405 0 0 Z M5.88061523 42.51782227 C5.80713867 43.51362305 5.80713867 43.51362305 5.73217773 44.52954102 C4.92380907 54.0766537 4.92380907 54.0766537 2.88061523 57.51782227 C-0.54073558 59.63269067 -4.23756918 60.3956638 -8.11938477 61.33032227 C-9.16509644 61.58797363 -9.16509644 61.58797363 -10.23193359 61.85083008 C-14.10752753 62.80406163 -17.99019516 63.71915343 -21.88110352 64.60766602 C-46.70480635 70.37975413 -70.47517551 80.41014845 -91.11938477 95.51782227 C-92.13645508 96.25129883 -93.15352539 96.98477539 -94.20141602 97.74047852 C-126.71453625 121.67876427 -151.22926018 155.48059976 -164.11938477 193.70532227 C-164.41022949 194.56593262 -164.70107422 195.42654297 -165.00073242 196.31323242 C-166.64207327 201.39830718 -167.62831184 206.19581947 -168.11938477 211.51782227 C-167.12938477 211.18782227 -166.13938477 210.85782227 -165.11938477 210.51782227 C-159.32866092 210.12692568 -153.3935545 209.81311984 -148.11938477 212.51782227 C-146.99438477 214.26782227 -146.99438477 214.26782227 -146.11938477 216.51782227 C-144.80396101 218.52964684 -143.47347797 220.5318189 -142.11938477 222.51782227 C-140.65099258 219.76973134 -139.66262419 217.18213346 -138.89282227 214.16625977 C-131.77037126 187.24463096 -119.35926636 162.80729913 -99.95532227 142.62719727 C-97.90054327 140.73246226 -97.90054327 140.73246226 -98.11938477 138.51782227 C-97.5302832 138.26000977 -96.94118164 138.00219727 -96.33422852 137.73657227 C-93.93488344 136.41629773 -92.53126511 135.02783921 -90.68188477 133.01782227 C-71.06474983 113.07732797 -37.17483594 93.83927297 -8.61938477 92.95532227 C-3.27660008 93.32670066 -0.50028456 94.97910535 3.06811523 98.95532227 C4.59415637 101.11282871 5.73968268 103.15051288 6.88061523 105.51782227 C13.15965946 101.48053999 19.42436409 97.42172394 25.67944336 93.34741211 C27.81029227 91.96314037 29.94440882 90.58388542 32.08178711 89.2097168 C35.14840766 87.23689551 38.20293473 85.24650019 41.25561523 83.25219727 C42.21806152 82.63850281 43.18050781 82.02480835 44.17211914 81.39251709 C45.05303223 80.81221741 45.93394531 80.23191772 46.84155273 79.6340332 C47.62320801 79.12773376 48.40486328 78.62143433 49.21020508 78.09979248 C49.76144043 77.57774231 50.31267578 77.05569214 50.88061523 76.51782227 C50.88061523 75.19782227 50.88061523 73.87782227 50.88061523 72.51782227 C48.63318052 70.67036289 46.49188071 69.14398845 44.04858398 67.59594727 C43.34220291 67.13226746 42.63582184 66.66858765 41.90803528 66.19085693 C39.63638796 64.70326125 37.35295856 63.23505127 35.06811523 61.76782227 C32.10015392 59.84029966 29.13702181 57.9054142 26.17358398 55.97094727 C25.45645233 55.50531372 24.73932068 55.03968018 24.00045776 54.55993652 C18.79286018 51.1641363 13.75402966 47.60439071 8.78027344 43.87231445 C7.13376154 42.4210631 7.13376154 42.4210631 5.88061523 42.51782227 Z M95.88061523 75.51782227 C95.71045898 76.21649414 95.54030273 76.91516602 95.36499023 77.63500977 C95.12264648 78.54508789 94.88030273 79.45516602 94.63061523 80.39282227 C94.39858398 81.29774414 94.16655273 82.20266602 93.92749023 83.13500977 C92.61578526 86.1206069 91.85184036 86.29961996 88.88061523 87.51782227 C86.42414311 88.9543085 84.03138829 90.4905012 81.63061523 92.01782227 C80.65608398 92.62303711 80.65608398 92.62303711 79.66186523 93.24047852 C78.03186504 94.27806267 76.45122457 95.39235889 74.88061523 96.51782227 C74.88061523 97.17782227 74.88061523 97.83782227 74.88061523 98.51782227 C75.74299805 98.83493164 76.60538086 99.15204102 77.49389648 99.47875977 C97.70649046 107.20522124 115.76069585 117.4968308 131.55249023 132.34204102 C133.36629838 134.03716037 135.18291234 135.61028762 137.13061523 137.14282227 C159.46930198 156.43532445 179.23321055 192.00939356 182.18139648 221.52954102 C182.22162906 230.71597895 182.22162906 230.71597895 178.88061523 234.51782227 C176.04080515 237.06636978 173.2987329 238.87044921 169.88061523 240.51782227 C173.91789751 246.79686649 177.97671356 253.06157113 182.05102539 259.31665039 C183.43529713 261.4474993 184.81455208 263.58161586 186.1887207 265.71899414 C188.16154199 268.78561469 190.15193731 271.84014176 192.14624023 274.89282227 C192.75993469 275.85526855 193.37362915 276.81771484 194.00592041 277.80932617 C194.58622009 278.69023926 195.16651978 279.57115234 195.7644043 280.47875977 C196.27070374 281.26041504 196.77700317 282.04207031 197.29864502 282.84741211 C197.82069519 283.39864746 198.34274536 283.94988281 198.88061523 284.51782227 C200.20061523 284.51782227 201.52061523 284.51782227 202.88061523 284.51782227 C204.72807461 282.27038755 206.25444905 280.12908774 207.80249023 277.68579102 C208.26617004 276.97940994 208.72984985 276.27302887 209.20758057 275.54524231 C210.69517625 273.27359499 212.16338623 270.99016559 213.63061523 268.70532227 C215.55813784 265.73736095 217.4930233 262.77422885 219.42749023 259.81079102 C219.89312378 259.09365936 220.35875732 258.37652771 220.83850098 257.63766479 C224.2343012 252.43006721 227.79404679 247.39123669 231.52612305 242.41748047 C232.9773744 240.77096857 232.9773744 240.77096857 232.88061523 239.51782227 C232.21674805 239.46883789 231.55288086 239.41985352 230.86889648 239.36938477 C221.3217838 238.5610161 221.3217838 238.5610161 217.88061523 236.51782227 C214.4140705 230.53251469 213.25490466 223.3759583 211.85717773 216.67797852 C200.90303994 164.65531629 170.17546473 119.86337951 125.88061523 90.51782227 C120.02977871 86.90626682 113.98942762 83.6675092 107.88061523 80.51782227 C106.7990918 79.9493457 105.71756836 79.38086914 104.60327148 78.79516602 C100.443447 76.41204193 100.443447 76.41204193 95.88061523 75.51782227 Z M28.22436523 127.32641602 C26.92178772 128.22747826 26.92178772 128.22747826 25.59289551 129.14674377 C22.83547593 131.05614004 20.10619236 133.00079339 17.38061523 134.95532227 C14.65434787 136.90503552 11.9234255 138.84438408 9.16833496 140.75318909 C7.46048962 141.93647825 5.76833409 143.14286521 4.0958252 144.37559509 C-1.99434686 148.59700684 -6.78331156 149.37493678 -14.11938477 148.51782227 C-19.53720655 147.37722821 -19.53720655 147.37722821 -21.43188477 144.58032227 C-22.66049371 140.89449543 -23.36261103 137.70721768 -23.68188477 133.83032227 C-23.76567383 132.83645508 -23.84946289 131.84258789 -23.93579102 130.81860352 C-23.99637695 130.0593457 -24.05696289 129.30008789 -24.11938477 128.51782227 C-48.20528724 131.8643958 -72.05724258 154.38733819 -86.43676758 172.81079102 C-100.25406197 191.28637496 -110.48932294 213.98509855 -112.81469727 237.09350586 C-113.11938477 239.51782227 -113.11938477 239.51782227 -113.68188477 242.20385742 C-116.84375578 257.62577931 -113.41653731 267.27016855 -105.0165863 280.02952576 C-101.81194621 284.7639573 -98.4888054 289.39708969 -95.08007812 293.98632812 C-94.43719345 294.86461777 -93.79430878 295.74290741 -93.13194275 296.64781189 C-91.90976018 298.30378465 -90.66299682 299.94200759 -89.38795471 301.55763245 C-85.4844839 306.80838061 -84.48264317 310.59550315 -84.75756836 317.13989258 C-85.21222871 320.12801123 -86.27751426 322.13873953 -88.11938477 324.51782227 C-88.11938477 325.17782227 -88.11938477 325.83782227 -88.11938477 326.51782227 C-89.10938477 326.84782227 -90.09938477 327.17782227 -91.11938477 327.51782227 C-83.82778264 348.38817324 -57.50880202 366.03228843 -38.58422852 375.44750977 C-25.79343817 381.52916857 -8.42554691 389.78394949 5.88061523 386.51782227 C9.00639725 384.8424362 11.83405277 382.80317433 14.70874023 380.73266602 C16.41268364 379.55032802 18.11712656 378.36870966 19.82202148 377.18774414 C22.47938249 375.32533487 25.13062257 373.45531703 27.77270508 371.57128906 C30.34038371 369.74806972 32.92873063 367.95782985 35.52124023 366.17016602 C36.68275604 365.3217942 36.68275604 365.3217942 37.86773682 364.45628357 C43.86812427 360.35787516 48.69708034 359.71224414 55.88061523 360.51782227 C61.29843702 361.65841633 61.29843702 361.65841633 63.19311523 364.45532227 C64.42172418 368.1411491 65.12384149 371.32842685 65.44311523 375.20532227 C65.5269043 376.19918945 65.61069336 377.19305664 65.69702148 378.21704102 C65.75760742 378.97629883 65.81819336 379.73555664 65.88061523 380.51782227 C90.23633892 377.1337589 114.96231171 353.41063287 129.19287109 334.75439453 C138.91416456 321.52247429 145.90678483 306.4904011 150.69311523 290.83032227 C151.00394043 289.83367554 151.00394043 289.83367554 151.32104492 288.81689453 C154.23524145 278.93481929 154.23524145 278.93481929 152.91807556 269.03535461 C151.42662842 266.53046142 149.80544534 264.20540781 148.07202148 261.86157227 C147.47131332 260.99318726 146.87060516 260.12480225 146.25169373 259.23010254 C144.34229746 256.47268296 142.39764411 253.74339939 140.44311523 251.01782227 C138.49340198 248.2915549 136.55405342 245.56063253 134.64524841 242.80554199 C133.46195925 241.09769665 132.25557229 239.40554112 131.02284241 237.73303223 C126.80143066 231.64286017 126.02350072 226.85389547 126.88061523 219.51782227 C128.02120929 214.10000048 128.02120929 214.10000048 130.81811523 212.20532227 C134.50394207 210.97671332 137.69121982 210.27459601 141.56811523 209.95532227 C142.56198242 209.8715332 143.55584961 209.78774414 144.57983398 209.70141602 C145.3390918 209.64083008 146.09834961 209.58024414 146.88061523 209.51782227 C143.49655187 185.16209858 119.77342583 160.43612579 101.1171875 146.20556641 C87.88526726 136.48427294 72.85319407 129.49165267 57.19311523 124.70532227 C56.52868408 124.49810547 55.86425293 124.29088867 55.1796875 124.07739258 C44.41347527 120.95736137 37.45795729 120.49755433 28.22436523 127.32641602 Z M-160.11938477 253.51782227 C-162.00126193 255.93913002 -163.76020212 258.36802808 -165.49438477 260.89282227 C-166.02314209 261.65288574 -166.55189941 262.41294922 -167.09667969 263.19604492 C-175.36268652 275.1289086 -183.42061512 287.21063417 -191.11938477 299.51782227 C-189.49129883 299.55649414 -189.49129883 299.55649414 -187.83032227 299.59594727 C-186.38497128 299.65225964 -184.93966033 299.70960626 -183.49438477 299.76782227 C-182.7815332 299.78200195 -182.06868164 299.79618164 -181.33422852 299.81079102 C-176.22293041 300.04525423 -173.04814617 300.98306272 -169.11938477 304.51782227 C-165.70717651 309.6791702 -163.88363247 315.71226194 -161.86938477 321.51782227 C-143.53309461 372.57258779 -105.30017371 408.21200113 -58.05200195 432.65087891 C-56.16827671 433.65425255 -56.16827671 433.65425255 -54.11938477 433.51782227 C-53.94922852 432.81915039 -53.77907227 432.12047852 -53.60375977 431.40063477 C-53.36141602 430.49055664 -53.11907227 429.58047852 -52.86938477 428.64282227 C-52.52133789 427.28543945 -52.52133789 427.28543945 -52.16625977 425.90063477 C-50.8545548 422.91503763 -50.0906099 422.73602457 -47.11938477 421.51782227 C-44.66291264 420.08133603 -42.27015782 418.54514334 -39.86938477 417.01782227 C-39.21969727 416.6143457 -38.57000977 416.21086914 -37.90063477 415.79516602 C-36.27063457 414.75758186 -34.68999411 413.64328564 -33.11938477 412.51782227 C-33.11938477 411.85782227 -33.11938477 411.19782227 -33.11938477 410.51782227 C-34.89829102 409.80819336 -34.89829102 409.80819336 -36.71313477 409.08422852 C-58.49278963 400.25102892 -77.20822784 388.87677815 -94.11938477 372.51782227 C-95.0565332 371.63223633 -95.99368164 370.74665039 -96.95922852 369.83422852 C-109.98875124 357.24328721 -131.0118124 333.42584087 -131.38891602 314.28344727 C-131.01217491 309.01999179 -128.99392135 305.82962715 -126.11938477 301.51782227 C-130.1927108 295.32361085 -134.26802668 289.13071215 -138.34472656 282.9387207 C-139.73125288 280.83225167 -141.11732392 278.72548288 -142.50292969 276.6184082 C-144.49497691 273.58929735 -146.48866053 270.56126928 -148.48266602 267.53344727 C-149.10152176 266.59164612 -149.7203775 265.64984497 -150.35798645 264.67950439 C-150.93836166 263.79889343 -151.51873688 262.91828247 -152.11669922 262.01098633 C-152.62521927 261.2382135 -153.13373932 260.46544067 -153.65766907 259.66925049 C-155.78674079 256.51744091 -155.78674079 256.51744091 -158.11938477 253.51782227 C-158.77938477 253.51782227 -159.43938477 253.51782227 -160.11938477 253.51782227 Z M176.88061523 308.51782227 C176.40495117 309.81139648 176.40495117 309.81139648 175.91967773 311.13110352 C168.19321626 331.34369749 157.9016067 349.39790289 143.05639648 365.18969727 C141.36127713 367.00350541 139.78814988 368.82011937 138.25561523 370.76782227 C118.96311305 393.10650901 83.38904394 412.87041758 53.86889648 415.81860352 C44.68245855 415.85883609 44.68245855 415.85883609 40.88061523 412.51782227 C38.33206772 409.67801218 36.52798829 406.93593993 34.88061523 403.51782227 C28.60157101 407.55510454 22.33686637 411.61392059 16.08178711 415.68823242 C13.9509382 417.07250416 11.81682164 418.45175911 9.67944336 419.82592773 C6.61282281 421.79874903 3.55829574 423.78914434 0.50561523 425.78344727 C-0.45683105 426.39714172 -1.41927734 427.01083618 -2.41088867 427.64312744 C-3.29180176 428.22342712 -4.17271484 428.80372681 -5.08032227 429.40161133 C-6.25280518 430.16106049 -6.25280518 430.16106049 -7.44897461 430.93585205 C-8.00020996 431.45790222 -8.55144531 431.97995239 -9.11938477 432.51782227 C-9.11938477 433.83782227 -9.11938477 435.15782227 -9.11938477 436.51782227 C-6.87195005 438.36528164 -4.73065024 439.89165608 -2.28735352 441.43969727 C-1.58097244 441.90337708 -0.87459137 442.36705688 -0.14680481 442.8447876 C2.12484251 444.33238328 4.40827191 445.80059327 6.69311523 447.26782227 C9.66107655 449.19534487 12.62420865 451.13023033 15.58764648 453.06469727 C16.30477814 453.53033081 17.02190979 453.99596436 17.76077271 454.47570801 C22.96837029 457.87150823 28.00720081 461.43125383 32.98095703 465.16333008 C34.62746893 466.61458143 34.62746893 466.61458143 35.88061523 466.51782227 C35.92959961 465.85395508 35.97858398 465.19008789 36.02905273 464.50610352 C36.8374214 454.95899083 36.8374214 454.95899083 38.88061523 451.51782227 C44.86592281 448.05127753 52.0224792 446.89211169 58.72045898 445.49438477 C110.74312121 434.54024697 155.53505799 403.81267176 184.88061523 359.51782227 C188.49217068 353.66698575 191.7309283 347.62663465 194.88061523 341.51782227 C195.4490918 340.43629883 196.01756836 339.35477539 196.60327148 338.24047852 C198.98639557 334.08065403 198.98639557 334.08065403 199.88061523 329.51782227 C199.18194336 329.34766602 198.48327148 329.17750977 197.76342773 329.00219727 C196.85334961 328.75985352 195.94327148 328.51750977 195.00561523 328.26782227 C194.10069336 328.03579102 193.19577148 327.80375977 192.26342773 327.56469727 C189.2778306 326.2529923 189.09881754 325.4890474 187.88061523 322.51782227 C186.444129 320.06135014 184.9079363 317.66859532 183.38061523 315.26782227 C182.97713867 314.61813477 182.57366211 313.96844727 182.15795898 313.29907227 C181.12037483 311.66907207 180.00607861 310.08843161 178.88061523 308.51782227 C178.22061523 308.51782227 177.56061523 308.51782227 176.88061523 308.51782227 Z " fill="#fff" transform="translate(235.119384765625,1.482177734375)"/>
<path d="M0 0 C1.1088707 -0.00990463 2.21774139 -0.01980927 3.36021423 -0.03001404 C5.17055649 -0.02326157 5.17055649 -0.02326157 7.01747131 -0.01637268 C8.296035 -0.02323593 9.57459869 -0.03009918 10.89190674 -0.03717041 C14.39197481 -0.05509243 17.89179204 -0.0539353 21.39189219 -0.04822803 C24.31682719 -0.04513467 27.2417141 -0.05123027 30.16664225 -0.05726677 C37.06845679 -0.07130732 43.97014753 -0.06975476 50.8719635 -0.05836487 C57.98562094 -0.0468846 65.09890134 -0.06095856 72.2125091 -0.08776134 C78.32648047 -0.1099328 84.44033362 -0.11655248 90.55434233 -0.11068493 C94.2031387 -0.1073175 97.8516934 -0.10971587 101.50045586 -0.12693596 C105.57017188 -0.14530495 109.63915637 -0.13120332 113.70887756 -0.11402893 C115.51618347 -0.12853088 115.51618347 -0.12853088 117.36000061 -0.14332581 C123.66530589 -0.08754838 127.68100034 0.05650601 132.4278717 4.38768005 C136.48417569 9.61027863 136.20184714 15.04108148 135.4278717 21.38768005 C133.24027367 26.00594257 130.92699743 28.10479822 126.4278717 30.38768005 C123.76789951 30.76799679 123.76789951 30.76799679 120.85574341 30.77536011 C119.19243736 30.79021706 119.19243736 30.79021706 117.49552917 30.80537415 C116.28863434 30.8008725 115.0817395 30.79637085 113.83827209 30.79173279 C112.5597084 30.79859604 111.28114471 30.80545929 109.96383667 30.81253052 C106.4637686 30.83045254 102.96395136 30.82929541 99.46385121 30.82358813 C96.53891622 30.82049478 93.61402931 30.82659037 90.68910116 30.83262688 C83.78728662 30.84666743 76.88559587 30.84511487 69.98377991 30.83372498 C62.87012246 30.8222447 55.75684207 30.83631867 48.64323431 30.86312145 C42.52926294 30.88529291 36.41540979 30.89191258 30.30140108 30.88604504 C26.65260471 30.88267761 23.00405001 30.88507597 19.35528755 30.90229607 C15.28557153 30.92066505 11.21658704 30.90656342 7.14686584 30.88938904 C5.33955994 30.90389099 5.33955994 30.90389099 3.4957428 30.91868591 C-2.80956248 30.86290849 -6.82525693 30.71885409 -11.5721283 26.38768005 C-15.62843228 21.16508148 -15.34610373 15.73427863 -14.5721283 9.38768005 C-11.49275947 2.8867903 -7.15706033 0.01809646 0 0 Z " fill="#fff" transform="translate(195.57212829589844,300.61231994628906)"/>
<path d="M0 0 C1.1088707 -0.00990463 2.21774139 -0.01980927 3.36021423 -0.03001404 C5.17055649 -0.02326157 5.17055649 -0.02326157 7.01747131 -0.01637268 C8.296035 -0.02323593 9.57459869 -0.03009918 10.89190674 -0.03717041 C14.39197481 -0.05509243 17.89179204 -0.0539353 21.39189219 -0.04822803 C24.31682719 -0.04513467 27.2417141 -0.05123027 30.16664225 -0.05726677 C37.06845679 -0.07130732 43.97014753 -0.06975476 50.8719635 -0.05836487 C57.98562094 -0.0468846 65.09890134 -0.06095856 72.2125091 -0.08776134 C78.32648047 -0.1099328 84.44033362 -0.11655248 90.55434233 -0.11068493 C94.2031387 -0.1073175 97.8516934 -0.10971587 101.50045586 -0.12693596 C105.57017188 -0.14530495 109.63915637 -0.13120332 113.70887756 -0.11402893 C115.51618347 -0.12853088 115.51618347 -0.12853088 117.36000061 -0.14332581 C123.66530589 -0.08754838 127.68100034 0.05650601 132.4278717 4.38768005 C136.48417569 9.61027863 136.20184714 15.04108148 135.4278717 21.38768005 C133.24027367 26.00594257 130.92699743 28.10479822 126.4278717 30.38768005 C123.76789951 30.76799679 123.76789951 30.76799679 120.85574341 30.77536011 C119.19243736 30.79021706 119.19243736 30.79021706 117.49552917 30.80537415 C116.28863434 30.8008725 115.0817395 30.79637085 113.83827209 30.79173279 C112.5597084 30.79859604 111.28114471 30.80545929 109.96383667 30.81253052 C106.4637686 30.83045254 102.96395136 30.82929541 99.46385121 30.82358813 C96.53891622 30.82049478 93.61402931 30.82659037 90.68910116 30.83262688 C83.78728662 30.84666743 76.88559587 30.84511487 69.98377991 30.83372498 C62.87012246 30.8222447 55.75684207 30.83631867 48.64323431 30.86312145 C42.52926294 30.88529291 36.41540979 30.89191258 30.30140108 30.88604504 C26.65260471 30.88267761 23.00405001 30.88507597 19.35528755 30.90229607 C15.28557153 30.92066505 11.21658704 30.90656342 7.14686584 30.88938904 C5.33955994 30.90389099 5.33955994 30.90389099 3.4957428 30.91868591 C-2.80956248 30.86290849 -6.82525693 30.71885409 -11.5721283 26.38768005 C-15.62843228 21.16508148 -15.34610373 15.73427863 -14.5721283 9.38768005 C-11.49275947 2.8867903 -7.15706033 0.01809646 0 0 Z " fill="#fff" transform="translate(195.57212829589844,240.61231994628906)"/>
<path d="M0 0 C1.1088707 -0.00990463 2.21774139 -0.01980927 3.36021423 -0.03001404 C5.17055649 -0.02326157 5.17055649 -0.02326157 7.01747131 -0.01637268 C8.296035 -0.02323593 9.57459869 -0.03009918 10.89190674 -0.03717041 C14.39197481 -0.05509243 17.89179204 -0.0539353 21.39189219 -0.04822803 C24.31682719 -0.04513467 27.2417141 -0.05123027 30.16664225 -0.05726677 C37.06845679 -0.07130732 43.97014753 -0.06975476 50.8719635 -0.05836487 C57.98562094 -0.0468846 65.09890134 -0.06095856 72.2125091 -0.08776134 C78.32648047 -0.1099328 84.44033362 -0.11655248 90.55434233 -0.11068493 C94.2031387 -0.1073175 97.8516934 -0.10971587 101.50045586 -0.12693596 C105.57017188 -0.14530495 109.63915637 -0.13120332 113.70887756 -0.11402893 C115.51618347 -0.12853088 115.51618347 -0.12853088 117.36000061 -0.14332581 C123.66530589 -0.08754838 127.68100034 0.05650601 132.4278717 4.38768005 C136.48417569 9.61027863 136.20184714 15.04108148 135.4278717 21.38768005 C133.24027367 26.00594257 130.92699743 28.10479822 126.4278717 30.38768005 C123.76789951 30.76799679 123.76789951 30.76799679 120.85574341 30.77536011 C119.19243736 30.79021706 119.19243736 30.79021706 117.49552917 30.80537415 C116.28863434 30.8008725 115.0817395 30.79637085 113.83827209 30.79173279 C112.5597084 30.79859604 111.28114471 30.80545929 109.96383667 30.81253052 C106.4637686 30.83045254 102.96395136 30.82929541 99.46385121 30.82358813 C96.53891622 30.82049478 93.61402931 30.82659037 90.68910116 30.83262688 C83.78728662 30.84666743 76.88559587 30.84511487 69.98377991 30.83372498 C62.87012246 30.8222447 55.75684207 30.83631867 48.64323431 30.86312145 C42.52926294 30.88529291 36.41540979 30.89191258 30.30140108 30.88604504 C26.65260471 30.88267761 23.00405001 30.88507597 19.35528755 30.90229607 C15.28557153 30.92066505 11.21658704 30.90656342 7.14686584 30.88938904 C5.33955994 30.90389099 5.33955994 30.90389099 3.4957428 30.91868591 C-2.80956248 30.86290849 -6.82525693 30.71885409 -11.5721283 26.38768005 C-15.62843228 21.16508148 -15.34610373 15.73427863 -14.5721283 9.38768005 C-11.49275947 2.8867903 -7.15706033 0.01809646 0 0 Z " fill="#fff" transform="translate(195.57212829589844,180.61231994628906)"/>
</svg>
