<?xml version="1.0" encoding="UTF-8"?>
<svg version="1.1" xmlns="http://www.w3.org/2000/svg" width="512" height="512">
<path d="M0 0 C1.89862263 -0.00243269 3.79724397 -0.00615662 5.69586182 -0.01106262 C10.81543721 -0.02040735 15.93481927 -0.01110189 21.05437946 0.00226951 C26.428648 0.0136479 31.80290792 0.00947175 37.17718506 0.00752258 C46.19497814 0.00664192 55.21269572 0.01767471 64.23046875 0.03613281 C74.64214639 0.05732259 85.05371372 0.06080346 95.46540856 0.05457085 C105.50608536 0.0488692 115.54672349 0.05453067 125.58739471 0.0657444 C129.85032622 0.07037713 134.11323397 0.07127002 138.3761673 0.06915855 C143.39627833 0.06726978 148.41627765 0.07542479 153.43636322 0.09121895 C155.27412962 0.09544704 157.11190738 0.09632232 158.94967651 0.09352875 C161.4661041 0.09028483 163.98220244 0.09944369 166.49859619 0.11161804 C167.21835703 0.10783872 167.93811787 0.10405939 168.67968965 0.10016555 C188.10633609 0.26540265 199.24223413 12.62257492 212.25195312 25.58886719 C213.13135056 26.46169342 214.01074799 27.33451965 214.91679382 28.23379517 C217.79081932 31.08830244 220.66099314 33.94663379 223.53027344 36.8059082 C224.52752012 37.79909756 225.52479667 38.79225693 226.52210236 39.78538704 C231.20404296 44.44835925 235.88362415 49.11368332 240.56028152 53.78195423 C245.92748064 59.13936328 251.30288249 64.48836422 256.68530536 69.83047718 C260.87014209 73.98505975 265.04718336 78.14737907 269.2185719 82.3154636 C271.69980007 84.79435535 274.18413845 87.26991531 276.67684174 89.73727226 C279.45656534 92.48917283 282.22004242 95.25705193 284.98242188 98.02636719 C285.79605698 98.82719223 286.60969208 99.62801727 287.44798279 100.45310974 C296.76937626 109.85972688 302.1635047 119.06482954 302.14892578 132.40356445 C302.15564301 133.29213135 302.16236023 134.18069824 302.16928101 135.09619141 C302.18821666 138.02162323 302.19218253 140.94682523 302.19433594 143.87231445 C302.2007654 145.91202894 302.20749387 147.95174251 302.21450806 149.99145508 C302.2264686 154.26165913 302.23018998 158.53178234 302.22900391 162.80200195 C302.22880043 168.26970423 302.25613745 173.7368884 302.29054832 179.20446777 C302.3127963 183.41498186 302.31684214 187.62537065 302.31578445 191.8359375 C302.31814223 193.85174348 302.32697569 195.86755281 302.34244919 197.88330078 C302.36207264 200.70292433 302.35628612 203.5214223 302.34423828 206.34106445 C302.35547729 207.17033447 302.36671631 207.99960449 302.3782959 208.85400391 C302.32079326 214.15722423 301.37907077 217.17019766 297.85839844 221.37231445 C293.09593264 224.99178846 289.34420109 226.08093103 283.35839844 225.82543945 C278.24481221 224.89860195 274.35690736 222.38974615 271.27397156 218.23921204 C269.53827497 214.72398257 269.45737707 211.74938722 269.51782227 207.91992188 C269.51738419 207.18767395 269.51694611 206.45542603 269.51649475 205.70098877 C269.51857626 203.29297751 269.54187634 200.88567207 269.56542969 198.4777832 C269.57102793 196.80341472 269.57529695 195.1290413 269.57829285 193.45466614 C269.5897237 189.05691865 269.61917559 184.65947042 269.65240479 180.26184082 C269.68314371 175.77071175 269.69680634 171.27953412 269.71191406 166.78833008 C269.74404711 157.98285451 269.79522199 149.17762176 269.85839844 140.37231445 C268.50442207 140.38230721 268.50442207 140.38230721 267.12309265 140.39250183 C258.57646809 140.45285276 250.0299161 140.49841008 241.48312664 140.52775097 C237.09013901 140.543343 232.69732887 140.56446171 228.30444336 140.59863281 C224.05745027 140.6314587 219.81062688 140.64921595 215.56351662 140.65694618 C213.95095973 140.66244832 212.33841111 140.67319153 210.72592735 140.68950462 C196.72679445 140.8253742 184.84256201 139.63064497 174.10839844 129.87231445 C173.36589844 129.04731445 172.62339844 128.22231445 171.85839844 127.37231445 C171.17777344 126.62981445 170.49714844 125.88731445 169.79589844 125.12231445 C164.67932941 117.86008745 162.699522 110.72450917 162.74487305 101.94165039 C162.74472702 101.19979492 162.74458099 100.45793945 162.74443054 99.69360352 C162.74512575 97.24793548 162.75289977 94.80234414 162.76074219 92.35668945 C162.76260776 90.65846803 162.76403101 88.96024608 162.76502991 87.26202393 C162.76884412 82.7969819 162.77866505 78.33197251 162.78973389 73.86694336 C162.79997157 69.30884238 162.80453258 64.75073612 162.80957031 60.19262695 C162.8202883 51.25250846 162.83735157 42.31241417 162.85839844 33.37231445 C139.67505409 33.43287963 116.49182141 33.51040135 93.30860233 33.60802937 C82.54387962 33.65296723 71.77918985 33.69238658 61.0144043 33.71875 C51.63023841 33.74174629 42.24617692 33.77516265 32.86209387 33.82101601 C27.89472661 33.84492614 22.92746261 33.86366943 17.96003914 33.86992836 C13.2806474 33.87598917 8.60151979 33.89602512 3.92222595 33.92658997 C2.20865147 33.93535421 0.49504244 33.93909613 -1.21855354 33.93732262 C-17.2585293 33.89387232 -17.2585293 33.89387232 -31.14160156 41.37231445 C-36.14993481 48.30873843 -38.26287483 53.84054713 -38.27302933 62.39725876 C-38.27879104 64.22219868 -38.27879104 64.22219868 -38.28466916 66.08400607 C-38.28388898 67.430821 -38.2830102 68.77763588 -38.28204346 70.12445068 C-38.28462798 71.55778306 -38.28764138 72.99111473 -38.29104686 74.42444539 C-38.29910984 78.36352443 -38.30090604 82.30258525 -38.30164433 86.24167156 C-38.30349609 90.4899259 -38.31104401 94.7381708 -38.31777954 98.98641968 C-38.33135809 108.27568654 -38.33738675 117.56494907 -38.3417902 126.85422421 C-38.34455326 132.65468118 -38.34879071 138.45513649 -38.35329437 144.25559235 C-38.36548609 160.31618012 -38.37578581 176.37676656 -38.37916946 192.43735886 C-38.37938903 193.46514791 -38.3796086 194.49293696 -38.37983482 195.55187114 C-38.38005309 196.5821134 -38.38027137 197.61235567 -38.38049626 198.6738174 C-38.38093973 200.76146746 -38.38138629 202.84911752 -38.38183594 204.93676758 C-38.38216808 206.49008604 -38.38216808 206.49008604 -38.38250694 208.07478467 C-38.38645523 224.85550945 -38.40391063 241.63619081 -38.42719546 258.41689882 C-38.45091004 275.64640137 -38.46337135 292.87588214 -38.46453738 310.10540128 C-38.46545405 319.77875461 -38.47120429 329.45205136 -38.48935699 339.1253891 C-38.50475935 347.36209866 -38.50987761 355.59873416 -38.50161889 363.83545539 C-38.49771296 368.03706379 -38.4986392 372.23852303 -38.51267624 376.44011307 C-38.52541841 380.28935135 -38.52421497 384.13832844 -38.51208553 387.98756638 C-38.51012908 389.37720696 -38.51320458 390.76686607 -38.52192989 392.15648064 C-38.58079492 402.16841777 -37.95965166 411.50533357 -31.14160156 419.37231445 C-23.66234288 424.77259275 -17.99994826 426.49718011 -8.79862976 426.49688721 C-8.06904629 426.49829736 -7.33946282 426.4997075 -6.58777076 426.50116038 C-4.14825668 426.5048041 -1.70880108 426.50148085 0.73071289 426.49829102 C2.48199509 426.49968628 4.23327695 426.50158592 5.98455811 426.50395203 C9.7539071 426.50844499 13.52324522 426.51030502 17.29259682 426.51041412 C23.25589883 426.51155553 29.21913908 426.52440149 35.18241882 426.53997803 C36.18937012 426.54255088 37.19632143 426.54512373 38.2337864 426.54777455 C40.29271003 426.55304098 42.35163362 426.55832646 44.41055715 426.56363058 C58.29121119 426.59872606 72.17178812 426.62529174 86.05249023 426.62280273 C95.41913408 426.62121347 104.78556696 426.63726444 114.15214318 426.67350936 C119.10664192 426.69195721 124.06078845 426.70132226 129.0153141 426.68903351 C133.67682929 426.67758319 138.33771407 426.68933232 142.99914551 426.71866798 C144.70670114 426.72529896 146.41431465 426.72345819 148.12184715 426.71236992 C164.98246014 426.61199318 164.98246014 426.61199318 170.85839844 432.37231445 C174.48933954 436.86605344 174.36073937 440.90775254 174.20996094 446.4934082 C173.57547354 451.68915504 171.07010114 454.25148945 167.35839844 457.68481445 C162.91347833 460.68513553 158.9522865 460.50209937 153.65155029 460.51948547 C152.56079819 460.52500051 152.56079819 460.52500051 151.44801068 460.53062695 C149.01025516 460.54164345 146.5725423 460.5455043 144.13476562 460.54931641 C142.38675807 460.55558299 140.63875184 460.56222997 138.89074707 460.56922913 C133.14559861 460.59026279 127.40044993 460.60063636 121.65527344 460.6105957 C119.67323035 460.61464464 117.6911874 460.6187616 115.70914459 460.62294579 C106.38874148 460.64200224 97.06834627 460.65622782 87.74792743 460.66455775 C77.01693793 460.67430807 66.28615592 460.70056784 55.55523944 460.74105865 C47.24584625 460.77132672 38.93651214 460.78603704 30.62706494 460.78933877 C25.67231108 460.79167864 20.71777873 460.80049853 15.76308441 460.82579994 C11.09101869 460.84927093 6.41931728 460.85323836 1.74720764 460.84303856 C0.04460175 460.84254754 -1.65802324 460.84873763 -3.36057281 460.8625946 C-22.63841128 461.01054462 -40.68534547 457.30386788 -55.14941406 443.52856445 C-68.5649881 429.00817843 -72.62052662 411.79393468 -72.52928162 392.47746277 C-72.53346424 391.01746266 -72.5389468 389.55746581 -72.54560143 388.09747487 C-72.5599533 384.12151312 -72.55584375 380.14576046 -72.54843462 376.16978776 C-72.54367958 371.86767384 -72.55623337 367.56560366 -72.56645203 363.26350403 C-72.58360019 354.8490457 -72.58448828 346.43466218 -72.57923912 338.02019092 C-72.57518852 331.17661834 -72.57665153 324.33306777 -72.58198738 317.48949623 C-72.5827358 316.51339929 -72.58348423 315.53730234 -72.58425533 314.53162671 C-72.58578689 312.54832034 -72.58732524 310.56501399 -72.58887029 308.58170763 C-72.60258109 290.00521471 -72.59716779 271.42876396 -72.58568508 252.85227201 C-72.57575564 235.88276709 -72.58869092 218.91337125 -72.61261927 201.94388314 C-72.63704189 184.49147148 -72.64661029 167.03911055 -72.63996655 149.58668214 C-72.63648117 139.79975704 -72.63866121 130.01291577 -72.65621758 120.22600365 C-72.67097921 111.89414019 -72.67152348 103.56241961 -72.65414666 95.23055883 C-72.64566654 90.98546328 -72.64341335 86.74062252 -72.65879822 82.49554062 C-72.67274539 78.59868246 -72.66775535 74.70229497 -72.64855898 70.80546335 C-72.64482908 69.40651995 -72.64763254 68.00753793 -72.65817063 66.60862925 C-72.78608511 48.30599218 -68.20653536 30.91861994 -55.29785156 17.36450195 C-39.34718329 2.62747149 -20.82819451 -0.0941775 0 0 Z M195.85839844 57.37231445 C195.78243158 64.01083052 195.72983388 70.6492348 195.69360352 77.28808594 C195.67850241 79.54724313 195.65802002 81.80637095 195.63208008 84.06542969 C195.59575536 87.30972538 195.57868535 90.55363401 195.56542969 93.7980957 C195.54994583 94.81067947 195.53446198 95.82326324 195.51850891 96.86653137 C195.51828232 97.80728012 195.51805573 98.74802887 195.51782227 99.71728516 C195.51116043 100.54557327 195.5044986 101.37386139 195.49763489 102.22724915 C195.71102873 104.42889946 195.71102873 104.42889946 197.08874512 106.14196777 C199.37497933 107.73146592 200.7403953 107.73519383 203.51342773 107.71289062 C204.92455086 107.71255074 204.92455086 107.71255074 206.36418152 107.71220398 C207.37676529 107.69672012 208.38934906 107.68123627 209.43261719 107.6652832 C210.99107109 107.65891594 210.99107109 107.65891594 212.58100891 107.65242004 C215.9029012 107.63561294 219.22418919 107.59795642 222.54589844 107.55981445 C224.79654072 107.54477027 227.04719251 107.5310814 229.29785156 107.51879883 C234.81824041 107.48570282 240.33827626 107.43548314 245.85839844 107.37231445 C240.85952295 101.33968445 235.44525336 95.81397683 229.90136719 90.2824707 C228.94812179 89.32855045 227.99502478 88.37448189 227.04206848 87.42027283 C225.05936735 85.43610759 223.0748941 83.45373718 221.08911133 81.47265625 C218.53898745 78.92827589 215.99344254 76.37936873 213.44916821 73.82914066 C211.48908872 71.86546044 209.52664982 69.90415218 207.56347084 67.94357109 C206.16557036 66.54666379 204.76968686 65.14773902 203.37382507 63.74879456 C202.53237442 62.91049606 201.69092377 62.07219757 200.82397461 61.20849609 C200.08040207 60.46571915 199.33682953 59.7229422 198.57072449 58.95765686 C197.12502182 57.25908534 197.12502182 57.25908534 195.85839844 57.37231445 Z " fill="#fff" transform="translate(98.1416015625,25.627685546875)"/>
<path d="M0 0 C3.92111394 4.15579407 5.78912711 9.50521684 7.69921875 14.80078125 C10.58439195 22.79542212 10.58439195 22.79542212 16.86328125 28.1015625 C22.04674826 29.17271247 27.18219625 28.13672242 32.34765625 27.2734375 C38.51576763 26.27648445 44.7118869 25.73191359 50.3671875 28.8984375 C62.77689004 38.83942479 74.17425891 58.72746477 76.00390625 74.41015625 C75.14845998 80.76489995 72.55328982 84.97480605 68.38720703 89.64257812 C64.35337669 94.20267381 60.76937972 98.40296523 60.19140625 104.66015625 C60.83595812 111.63813087 65.38022289 116.30864228 69.8671875 121.3359375 C73.46192779 125.52382847 75.36202864 129.60949099 75.9140625 135.1484375 C74.35791809 150.86724456 62.93690905 167.21177442 52.56640625 178.66015625 C47.51452725 182.69611808 42.92104306 183.02871663 36.56640625 182.66015625 C35.15709844 182.47799971 33.7505113 182.27343008 32.34765625 182.046875 C31.64253906 181.93408203 30.93742188 181.82128906 30.2109375 181.70507812 C28.77795676 181.466248 27.34803528 181.20830013 25.921875 180.93164062 C20.81596784 180.16155408 17.55564381 180.92633566 13.31640625 183.92895508 C10.10263919 187.10819925 8.7951327 190.96185898 7.31640625 195.16015625 C2.64622323 207.76193111 2.64622323 207.76193111 -3.25390625 211.3984375 C-17.75719463 217.15342785 -41.94795184 217.03867021 -56.05859375 210.97265625 C-59.93322299 208.69877426 -61.68972337 205.70215039 -63.43359375 201.66015625 C-63.95179688 200.51804687 -64.47 199.3759375 -65.00390625 198.19921875 C-69.43359375 188.26012353 -69.43359375 188.26012353 -69.43359375 184.66015625 C-71.09344173 183.97668943 -72.7619618 183.3142731 -74.43359375 182.66015625 C-75.779375 182.10328125 -75.779375 182.10328125 -77.15234375 181.53515625 C-81.08986376 180.48515091 -83.80231081 180.8660657 -87.80859375 181.53515625 C-89.14015274 181.7362257 -90.47218648 181.9341775 -91.8046875 182.12890625 C-93.00222656 182.30421875 -94.19976562 182.47953125 -95.43359375 182.66015625 C-101.63342566 183.3653504 -106.42071237 182.4173648 -111.43359375 178.66015625 C-122.04998184 168.04376816 -133.90543403 149.3330045 -134.68359375 134.0859375 C-133.92582801 126.73324181 -129.4157515 121.56458192 -124.62109375 116.28515625 C-120.65722872 111.51916002 -118.95079629 108.0983553 -119.3984375 101.84765625 C-121.20119468 96.29652471 -124.89831073 92.28570449 -128.734375 87.984375 C-131.98797485 84.21813751 -134.05862582 80.36266901 -134.75390625 75.3515625 C-133.24346326 58.88773387 -122.21614214 42.70614932 -111.43359375 30.66015625 C-109.4765625 29.19921875 -109.4765625 29.19921875 -107.62109375 28.28515625 C-106.71423828 27.80949219 -106.71423828 27.80949219 -105.7890625 27.32421875 C-100.97125661 25.96596502 -96.08980142 26.49055641 -91.21484375 27.2734375 C-90.15716797 27.44262695 -90.15716797 27.44262695 -89.078125 27.61523438 C-87.64514426 27.8540645 -86.21522278 28.11201237 -84.7890625 28.38867188 C-79.68275488 29.15881882 -76.41929121 28.39384323 -72.17919922 25.39135742 C-68.97638298 22.21497001 -67.70112932 18.35502702 -66.24609375 14.16015625 C-63.61969936 6.87762742 -61.44636485 2.05383338 -54.51953125 -2.078125 C-41.30915253 -7.47933048 -12.23886587 -9.0668056 0 0 Z M-35.43359375 27.66015625 C-35.8203125 28.50578125 -36.20703125 29.35140625 -36.60546875 30.22265625 C-37.12625 31.35703125 -37.64703125 32.49140625 -38.18359375 33.66015625 C-38.94929688 35.33078125 -38.94929688 35.33078125 -39.73046875 37.03515625 C-40.00802002 37.61749023 -40.28557129 38.19982422 -40.5715332 38.79980469 C-41.16889312 40.08892465 -41.72764277 41.39637176 -42.25463867 42.71582031 C-44.71327217 48.45106481 -47.73105091 50.69082765 -53.24609375 53.41015625 C-54.62765544 54.13401674 -56.00916624 54.85797434 -57.390625 55.58203125 C-58.06996094 55.92339111 -58.74929688 56.26475098 -59.44921875 56.61645508 C-61.36551324 57.62434865 -63.15713823 58.74703251 -64.984375 59.90625 C-68.93912842 61.91721748 -71.4039668 62.10654952 -75.80859375 61.97265625 C-77.75572266 61.92044922 -77.75572266 61.92044922 -79.7421875 61.8671875 C-84.0123185 61.62769867 -88.19874679 61.25452074 -92.43359375 60.66015625 C-93.49734576 62.20770507 -94.53395389 63.77393809 -95.55859375 65.34765625 C-96.13867188 66.21777344 -96.71875 67.08789062 -97.31640625 67.984375 C-98.69774054 70.57359806 -98.69774054 70.57359806 -97.8984375 73.109375 C-96.11596671 76.2132508 -94.07376975 78.96375104 -91.87109375 81.78515625 C-85.89450831 89.45431068 -86.22175368 94.9756031 -86.18359375 104.47265625 C-86.16296875 105.74431641 -86.14234375 107.01597656 -86.12109375 108.32617188 C-86.1159375 109.55658203 -86.11078125 110.78699219 -86.10546875 112.0546875 C-86.09612305 113.17721924 -86.08677734 114.29975098 -86.07714844 115.45629883 C-86.91493913 122.98665999 -92.07131476 128.07065197 -96.765625 133.66015625 C-98.80201903 136.56752558 -98.80201903 136.56752558 -97.828125 139.82421875 C-96.27723664 142.97812616 -94.47519165 145.80191919 -92.43359375 148.66015625 C-91.25796875 148.49515625 -90.08234375 148.33015625 -88.87109375 148.16015625 C-69.10737608 146.09948427 -69.10737608 146.09948427 -61.8203125 151.0546875 C-59.33672728 152.7253152 -56.7487477 154.02188812 -54.078125 155.36450195 C-46.73388179 159.17574775 -43.22764715 162.81619486 -40.43359375 170.66015625 C-39.50960956 172.70797515 -38.57215856 174.74977305 -37.62109375 176.78515625 C-36.89921875 178.39390625 -36.17734375 180.00265625 -35.43359375 181.66015625 C-31.47359375 181.66015625 -27.51359375 181.66015625 -23.43359375 181.66015625 C-20.71058329 176.32285727 -20.71058329 176.32285727 -18.265625 170.85546875 C-14.21596199 161.18345806 -9.16973831 157.79605042 -0.078125 153.0859375 C2.06285942 151.93164014 3.8660277 150.71140206 5.81640625 149.28515625 C13.31297204 144.92121336 25.315917 147.50219285 33.56640625 148.66015625 C34.63015826 147.11260743 35.66676639 145.54637441 36.69140625 143.97265625 C37.27148438 143.10253906 37.8515625 142.23242188 38.44921875 141.3359375 C39.83055304 138.74671444 39.83055304 138.74671444 39.03125 136.2109375 C37.24877921 133.1070617 35.20658225 130.35656146 33.00390625 127.53515625 C27.02732081 119.86600182 27.35456618 114.3447094 27.31640625 104.84765625 C27.29578125 103.57599609 27.27515625 102.30433594 27.25390625 100.99414062 C27.24617188 99.14852539 27.24617188 99.14852539 27.23828125 97.265625 C27.22893555 96.14309326 27.21958984 95.02056152 27.20996094 93.86401367 C28.04775163 86.33365251 33.20412726 81.24966053 37.8984375 75.66015625 C39.93483153 72.75278692 39.93483153 72.75278692 38.9609375 69.49609375 C37.41004914 66.34218634 35.60800415 63.51839331 33.56640625 60.66015625 C31.80296875 60.90765625 31.80296875 60.90765625 30.00390625 61.16015625 C25.65215406 61.62222819 21.31607087 61.85536137 16.94140625 61.97265625 C15.71164062 62.01003906 14.481875 62.04742187 13.21484375 62.0859375 C8.91922286 61.58462842 6.11244859 59.94915429 2.56640625 57.66015625 C1.36960489 56.98451635 0.1677236 56.31779603 -1.0390625 55.66015625 C-2.23307292 54.99348958 -3.42708333 54.32682292 -4.62109375 53.66015625 C-5.22373047 53.33015625 -5.82636719 53.00015625 -6.44726562 52.66015625 C-13.73702812 48.56316569 -16.22087854 44.54859967 -19.12109375 36.97265625 C-20.72226294 31.95102466 -20.72226294 31.95102466 -23.43359375 27.66015625 C-25.45323574 27.58771572 -27.47526499 27.57638437 -29.49609375 27.59765625 C-30.60082031 27.60667969 -31.70554687 27.61570312 -32.84375 27.625 C-34.12572266 27.64240234 -34.12572266 27.64240234 -35.43359375 27.66015625 Z " fill="#fff" transform="translate(410.43359375,271.33984375)"/>
<path d="M0 0 C0.74747767 -0.00694553 1.49495534 -0.01389106 2.26508385 -0.02104706 C4.75939164 -0.03928291 7.25274461 -0.02906279 9.74708557 -0.01878357 C11.53955292 -0.0258438 13.3320143 -0.03458926 15.12446594 -0.04489136 C19.98609364 -0.06738361 24.84739576 -0.06444596 29.70905566 -0.05556989 C33.76974573 -0.0504579 37.83037473 -0.0577543 41.8910585 -0.06504196 C51.47153984 -0.08204051 61.0518619 -0.07847561 70.63233948 -0.06175232 C80.51179228 -0.04483001 90.39080327 -0.06066719 100.27020782 -0.0929752 C108.7570254 -0.11967634 117.24370548 -0.1269457 125.73056084 -0.11846012 C130.79734576 -0.11353256 135.86386485 -0.11573734 140.93061638 -0.13624763 C145.69554449 -0.15461297 150.4598374 -0.14863562 155.22473145 -0.12404823 C156.97141771 -0.11904308 158.71815243 -0.12252246 160.46479988 -0.13519669 C162.85372529 -0.15115748 165.24056665 -0.13615078 167.62939453 -0.11352539 C168.31695546 -0.12536112 169.00451639 -0.13719685 169.7129125 -0.14939123 C175.14557971 -0.04519956 178.49476408 1.93676567 182.37818909 5.5146637 C185.46548049 9.79703564 185.95956007 13.82066565 185.79615784 18.97950745 C184.94926278 24.11628214 182.40059997 28.01278798 178.24857998 31.09614658 C174.72148433 32.83920031 171.71539214 32.93567517 167.86990356 32.90234375 C167.12257475 32.90772929 166.37524594 32.91311483 165.6052708 32.91866356 C163.10566176 32.93295025 160.60658176 32.92583783 158.10694885 32.91871643 C156.31300938 32.92441964 154.51907354 32.9313837 152.72514343 32.93951416 C147.85530497 32.95746618 142.9856465 32.95627334 138.11578488 32.95057178 C134.05008931 32.94748288 129.98442846 32.95356904 125.91873783 32.95961052 C116.32731138 32.97366085 106.735974 32.97209022 97.14454651 32.96070862 C87.24981878 32.94922656 77.35536207 32.96330342 67.46067005 32.99010509 C58.96456034 33.01225673 50.46853572 33.01890069 41.97239918 33.01302868 C36.89839911 33.00965666 31.82457278 33.01209049 26.750597 33.02927971 C21.97920293 33.04473819 17.20821057 33.04080547 12.43683243 33.02197456 C10.68649943 33.01828565 8.93613674 33.02140596 7.18583107 33.03186035 C4.79457655 33.04505176 2.40465554 33.03354044 0.01345825 33.01586914 C-0.67769764 33.02547415 -1.36885353 33.03507915 -2.08095354 33.04497522 C-7.02653462 32.96987766 -9.7892275 31.56342449 -13.62181091 28.5146637 C-17.25014755 24.69536198 -17.93181549 21.63187364 -18.12181091 16.5146637 C-17.93181549 11.39745376 -17.25014755 8.33396542 -13.62181091 4.5146637 C-9.09417884 0.91556145 -5.66178827 -0.06763996 0 0 Z " fill="#fff" transform="translate(129.62181091308594,207.48533630371094)"/>
<path d="M0 0 C1.53285645 -0.01270432 1.53285645 -0.01270432 3.09667969 -0.02566528 C6.46708705 -0.04902019 9.83703745 -0.05005773 13.20751953 -0.04882812 C15.55632713 -0.05593081 17.90513299 -0.06362996 20.25393677 -0.07189941 C25.1748741 -0.08534096 30.09565101 -0.08691448 35.01660156 -0.08105469 C41.31374211 -0.07516039 47.61011121 -0.10574157 53.90710258 -0.14617157 C58.7576612 -0.17205774 63.60803433 -0.17492507 68.4586525 -0.17127991 C70.77982649 -0.17297041 73.10100911 -0.18260616 75.42211533 -0.20042419 C78.67255596 -0.22262996 81.92143839 -0.21290227 85.171875 -0.1953125 C86.60135971 -0.21520737 86.60135971 -0.21520737 88.0597229 -0.23550415 C94.46859078 -0.15517136 98.75718316 1.28636145 103.71533203 5.41992188 C107.34627313 9.91366086 107.21767297 13.95535996 107.06689453 19.54101562 C106.43240713 24.73676246 103.92703474 27.29909687 100.21533203 30.73242188 C96.63417616 33.14970209 93.62655609 33.54341573 89.3644104 33.56036377 C88.50092484 33.56607391 87.63743927 33.57178406 86.74778748 33.57766724 C85.33880943 33.57934402 85.33880943 33.57934402 83.90136719 33.58105469 C82.90580307 33.58601959 81.91023895 33.5909845 80.88450623 33.59609985 C77.59112863 33.61070477 74.29779919 33.61752026 71.00439453 33.62304688 C68.71519977 33.62879913 66.42600503 33.63455685 64.1368103 33.64031982 C59.33681005 33.65082466 54.53682653 33.65667091 49.73681641 33.66015625 C43.5876037 33.66564381 37.43861209 33.68967979 31.28946877 33.7181282 C26.5608353 33.73675394 21.83225515 33.74196013 17.1035881 33.74349213 C14.83659021 33.74651866 12.56959326 33.75454718 10.30263138 33.76767731 C7.130945 33.78473818 3.95979962 33.7828574 0.78808594 33.77636719 C-0.1471843 33.78558197 -1.08245453 33.79479675 -2.04606628 33.80429077 C-7.93106186 33.76658108 -12.43814248 33.07712975 -16.92919922 28.88476562 C-21.66927223 22.68620861 -22.15937521 18.19288853 -21.28466797 10.41992188 C-19.64862851 6.37213459 -17.48065293 4.17835787 -13.82247925 1.85852051 C-9.11383405 -0.05618042 -5.03552564 -0.01541958 0 0 Z " fill="#fff" transform="translate(133.28466796875,356.580078125)"/>
<path d="M0 0 C0.87052505 -0.00571014 1.74105011 -0.01142029 2.63795471 -0.01730347 C3.59021942 -0.01842133 4.54248413 -0.01953918 5.52360535 -0.02069092 C7.03136284 -0.02813828 7.03136284 -0.02813828 8.56958008 -0.03573608 C11.9008604 -0.05036255 15.23209309 -0.05716058 18.56340027 -0.06268311 C20.87644451 -0.06843421 23.18948874 -0.07419195 25.50253296 -0.07995605 C30.355588 -0.09046746 35.20862646 -0.0963092 40.06169128 -0.09979248 C46.27931298 -0.10527709 52.49671567 -0.12930403 58.71426868 -0.15776443 C63.49351643 -0.17639106 68.27271144 -0.18159644 73.05199242 -0.18312836 C75.34410995 -0.18615541 77.63622655 -0.19418567 79.92830849 -0.20731354 C83.13602468 -0.22437396 86.3432059 -0.22249356 89.5509491 -0.21600342 C90.49714111 -0.2252182 91.44333313 -0.23443298 92.41819763 -0.243927 C98.3327778 -0.20645285 102.86065727 0.46065634 107.37590027 4.67559814 C112.14666332 10.91428828 112.44623402 15.33820103 111.73136902 23.14044189 C109.43013688 28.29520189 105.92478043 31.07960366 100.73136902 33.14044189 C97.25936489 33.70257289 93.84486849 33.69792508 90.33317566 33.67388916 C88.80010017 33.68681252 88.80010017 33.68681252 87.23605347 33.69999695 C83.87095018 33.72262559 80.50668179 33.71592325 77.14152527 33.70684814 C74.79414625 33.71208517 72.44676935 33.71836194 70.09939575 33.72563171 C65.18438297 33.73603032 60.26965982 33.73148205 55.35466003 33.71685791 C49.0653635 33.69967376 42.77698087 33.72316478 36.48778629 33.75834751 C31.64149963 33.78033933 26.79543102 33.77887555 21.94911003 33.7705822 C19.63073665 33.76976362 17.31234711 33.77660904 14.99402046 33.79135323 C11.74843284 33.8088306 8.50447968 33.7942282 5.25895691 33.77154541 C3.83182877 33.78908371 3.83182877 33.78908371 2.37586975 33.80697632 C-4.02543121 33.7162466 -8.31504014 32.26697976 -13.26863098 28.14044189 C-16.89957208 23.64670291 -16.77097192 19.60500381 -16.62019348 14.01934814 C-15.98290813 8.80068921 -13.47831731 6.23211005 -9.70613098 2.82794189 C-6.41002589 0.54602299 -3.91147201 0.01538302 0 0 Z " fill="#fff" transform="translate(128.2686309814453,281.85955810546875)"/>
<path d="M0 0 C8.00673343 4.75353376 13.43710358 11.32620119 15.9921875 20.3984375 C17.96361974 30.97134162 16.86971799 39.87828401 10.9375 48.95703125 C6.22231498 54.8585528 -0.33545282 59.92301444 -7.89453125 61.25 C-16.80678217 61.99423807 -25.1189415 62.2574798 -32.89453125 57.25 C-33.6009375 56.81429687 -34.30734375 56.37859375 -35.03515625 55.9296875 C-41.93963849 51.24998287 -45.69444554 45.24943444 -47.89453125 37.25 C-48.68329846 28.39929815 -48.85457514 19.9519315 -43.89453125 12.25 C-43.45882813 11.54359375 -43.023125 10.8371875 -42.57421875 10.109375 C-33.4132021 -3.40687907 -14.47312956 -6.98201225 0 0 Z " fill="#fff" transform="translate(396.89453125,346.75)"/>
</svg>
