<?xml version="1.0" encoding="UTF-8"?>
<svg version="1.1" xmlns="http://www.w3.org/2000/svg" width="512" height="512">
<path d="M0 0 C1.93694355 -0.00935994 1.93694355 -0.00935994 3.91301727 -0.01890898 C7.49091668 -0.03559624 11.06838894 -0.02735899 14.64628983 -0.0149641 C18.50730523 -0.00591335 22.36824722 -0.01988344 26.22924805 -0.03088379 C33.79042942 -0.04867337 41.35145201 -0.0448271 48.91263962 -0.03323323 C55.05757704 -0.0242009 61.20246995 -0.02297403 67.34741211 -0.02732849 C68.65911542 -0.02824789 68.65911542 -0.02824789 69.99731779 -0.02918586 C71.77376621 -0.03046476 73.55021462 -0.03176161 75.32666302 -0.03307623 C91.9857319 -0.04448331 108.64471276 -0.03136631 125.3037672 -0.00987476 C139.59903993 0.00799634 153.89418274 0.00489227 168.18945312 -0.0135498 C184.78877146 -0.03495426 201.38801263 -0.04338466 217.98734283 -0.03110075 C219.75726826 -0.02982655 221.52719369 -0.02856907 223.29711914 -0.02732849 C224.60338611 -0.02640284 224.60338611 -0.02640284 225.93604231 -0.02545848 C232.07383545 -0.02200431 238.21157967 -0.02783539 244.34936523 -0.0372467 C251.8289694 -0.04846334 259.30840565 -0.04543375 266.78799057 -0.02412373 C270.60447176 -0.01360872 274.42067296 -0.00949895 278.2371521 -0.02272034 C282.3731891 -0.0368321 286.50851866 -0.01998656 290.64453125 0 C291.85250114 -0.00892289 293.06047104 -0.01784577 294.30504608 -0.02703905 C300.42226704 0.03049812 304.67726699 0.07913094 309.32226562 4.50793457 C312.95330932 9.09963625 313.82270879 12.08973617 313.82563019 17.91369629 C313.83144395 18.64144571 313.83725771 19.36919514 313.84324765 20.11899757 C313.85785177 22.55887661 313.84396118 24.99775028 313.8302002 27.43762207 C313.83480896 29.20394404 313.84116171 30.97026217 313.84910917 32.73657227 C313.86582898 37.59141029 313.85754406 42.44593437 313.8451643 47.30077362 C313.836127 52.53602745 313.85007698 57.77122668 313.86108398 63.00646973 C313.87888788 73.26274611 313.87502087 83.51890553 313.86343342 93.77518654 C313.85440674 102.10928941 313.85317179 110.44335946 313.85752869 118.77746582 C313.85814162 119.96277515 313.85875455 121.14808449 313.85938606 122.36931229 C313.86066493 124.77710471 313.86196179 127.18489711 313.86327642 129.59268951 C313.8746877 152.18048325 313.86155991 174.76821209 313.84007496 197.35599518 C313.82220349 216.74521581 313.82530745 236.13434066 313.84375 255.52355957 C313.86514702 278.02949603 313.87358902 300.53537559 313.86130095 323.0413208 C313.86002672 325.4403483 313.85876924 327.83937581 313.85752869 330.23840332 C313.85660303 332.00904081 313.85660303 332.00904081 313.85565868 333.81544876 C313.85220228 342.14134332 313.85804039 350.46720184 313.8674469 358.79309082 C313.87865527 368.93699861 313.87565128 379.08078256 313.85432392 389.22467613 C313.8437979 394.40211174 313.83971816 399.57934073 313.85292053 404.7567749 C313.86481805 409.49407706 313.85832551 414.23098059 313.83701032 418.96824646 C313.83253305 420.68417465 313.83483569 422.40013635 313.84451348 424.11604309 C313.856645 426.44523451 313.8442368 428.7730535 313.82563019 431.10217285 C313.82498078 432.3968045 313.82433137 433.69143616 313.82366228 435.02529907 C313.0727284 440.24118748 310.61046557 443.2796921 306.86462402 446.85118866 C301.51200608 449.35458523 296.48492993 449.0590103 290.64453125 449.01586914 C288.7075877 449.02522908 288.7075877 449.02522908 286.73151398 449.03477812 C283.15361457 449.05146538 279.57614231 449.04322813 275.99824142 449.03083324 C272.13722602 449.02178249 268.27628403 449.03575258 264.4152832 449.04675293 C256.85410183 449.06454252 249.29307924 449.06069624 241.73189163 449.04910237 C235.58695421 449.04007004 229.4420613 449.03884317 223.29711914 449.04319763 C222.42265027 449.04381056 221.54818139 449.0444235 220.64721346 449.045055 C218.87076504 449.0463339 217.09431663 449.04763075 215.31786823 449.04894537 C198.65879935 449.06035245 181.99981849 449.04723545 165.34076405 449.0257439 C151.04549132 449.0078728 136.75034851 449.01097687 122.45507812 449.02941895 C105.85575979 449.0508234 89.25651862 449.0592538 72.65718842 449.04696989 C70.88726299 449.04569569 69.11733756 449.04443821 67.34741211 449.04319763 C66.47656746 449.04258053 65.60572282 449.04196343 64.70848894 449.04132763 C58.5706958 449.03787345 52.43295158 449.04370453 46.29516602 449.05311584 C38.81556185 449.06433248 31.3361256 449.06130289 23.85654068 449.03999287 C20.04005949 449.02947786 16.22385829 449.02536809 12.40737915 449.03858948 C8.27134215 449.05270124 4.13601259 449.0358557 0 449.01586914 C-1.20796989 449.02479203 -2.41593979 449.03371491 -3.66051483 449.04290819 C-9.77773579 448.98537102 -14.03273574 448.9367382 -18.67773438 444.50793457 C-23.2585911 439.38906815 -23.23260379 434.99541725 -23.13183594 428.46350098 C-23.13242004 427.46776062 -23.13300415 426.47202026 -23.13360596 425.44610596 C-23.1308274 422.1668772 -23.09974527 418.88856632 -23.06835938 415.60949707 C-23.0608962 413.33121233 -23.05520363 411.05292115 -23.0512085 408.77462769 C-23.03595837 402.78711123 -22.99668135 396.79998477 -22.95239258 390.81262207 C-22.91142681 384.69939448 -22.89319466 378.58610369 -22.87304688 372.47277832 C-22.83018695 360.48432601 -22.76194269 348.49616276 -22.67773438 336.50793457 C-21.79187502 336.50589978 -21.79187502 336.50589978 -20.88811952 336.50382388 C14.10061331 336.42320403 49.08930444 336.33226188 84.07797466 336.22788296 C88.27748744 336.21536383 92.47700048 336.2029311 96.67651367 336.19055176 C97.51257426 336.18808576 98.34863484 336.18561977 99.21003059 336.18307905 C112.75401479 336.14333664 126.29800735 336.11059586 139.84201588 336.08043475 C153.73556765 336.04933969 167.62908388 336.01073865 181.5225957 335.96514452 C190.09819698 335.93723943 198.67377221 335.91521516 207.24940673 335.90067206 C213.12706735 335.89014397 219.00467759 335.87233643 224.88230028 335.84876753 C228.27525545 335.83537812 231.66813988 335.82523384 235.06112289 335.82372093 C238.73788428 335.8204101 242.41439886 335.80496424 246.09111023 335.78640747 C247.16601155 335.78834221 248.24091286 335.79027694 249.34838694 335.7922703 C250.33369295 335.78480481 251.31899895 335.77733932 252.33416271 335.7696476 C253.60717512 335.76623012 253.60717512 335.76623012 254.90590495 335.76274359 C257.69289724 335.46885089 259.81228446 334.7442695 262.32226562 333.50793457 C263.72161576 330.7092343 263.57491967 328.60294665 263.32226562 325.50793457 C261.46883788 322.94843911 260.38470169 322.52874659 257.32226562 321.50793457 C255.217117 321.40445937 253.10883221 321.36149081 251.00117493 321.34971619 C250.03565343 321.34230922 250.03565343 321.34230922 249.05062646 321.33475262 C246.89028027 321.31937473 244.72996382 321.31101624 242.56958008 321.3026123 C241.02235655 321.29303401 239.47513564 321.28302395 237.92791748 321.27261353 C233.7237005 321.24555316 229.51947228 321.22454972 225.3152163 321.20461154 C220.92294782 321.18275898 216.53071402 321.15536672 212.13847351 321.1285553 C203.81938167 321.07861854 195.50027059 321.03368335 187.18114108 320.99053293 C177.71085397 320.94116896 168.24060165 320.88624772 158.77034819 320.83085334 C139.28768631 320.7170182 119.80499159 320.61018249 100.32226562 320.50793457 C100.52722656 319.93945801 100.7321875 319.37098145 100.94335938 318.78527832 C101.21277344 318.01312988 101.4821875 317.24098145 101.75976562 316.44543457 C102.02660156 315.69133301 102.2934375 314.93723145 102.56835938 314.16027832 C104.18972155 308.45610778 104.47278315 302.72523966 104.63867188 296.82434082 C104.66984352 295.77378761 104.66984352 295.77378761 104.7016449 294.70201111 C104.76639027 292.49157351 104.8256717 290.28102972 104.88476562 288.07043457 C104.92802243 286.5606585 104.97163885 285.05089269 105.015625 283.5411377 C105.12199311 279.86351261 105.22346565 276.18577166 105.32226562 272.50793457 C106.10102397 272.50462442 106.87978231 272.50131428 107.6821394 272.49790382 C126.62756477 272.41669758 145.57290864 272.3246129 164.51822186 272.22040749 C173.68001828 272.17027718 182.84180573 272.12383429 192.00366211 272.08605957 C199.98876146 272.05312733 207.97379131 272.01328926 215.95881397 271.96514452 C220.18715129 271.9398918 224.41544258 271.91810687 228.64383507 271.90459061 C232.62387431 271.89175913 236.6037556 271.86969299 240.58370781 271.84055138 C242.04417971 271.8314841 243.50467704 271.82578734 244.96517563 271.82372093 C246.96031482 271.82039257 248.95541845 271.80372857 250.95048523 271.78640747 C252.06677653 271.78087671 253.18306784 271.77534595 254.33318615 271.7696476 C257.40119734 271.50102359 259.58721876 270.90763712 262.32226562 269.50793457 C263.72161576 266.7092343 263.57491967 264.60294665 263.32226562 261.50793457 C261.46883788 258.94843911 260.38470169 258.52874659 257.32226562 257.50793457 C255.2804355 257.40471457 253.2353977 257.36151406 251.19099426 257.34971619 C249.90791885 257.33992737 248.62484344 257.33013855 247.30288696 257.3200531 C245.87811317 257.31414889 244.45333898 257.30833845 243.02856445 257.3026123 C241.53060129 257.29303374 240.03264084 257.28302367 238.53468323 257.27261353 C234.46476003 257.24555601 230.39482523 257.22455103 226.32486176 257.20461154 C222.07272869 257.18275722 217.82063142 257.15536582 213.56852722 257.1285553 C205.51505575 257.07862092 197.46156441 257.03368485 189.40805405 256.99053293 C180.24005791 256.94116693 171.0720977 256.88624644 161.9041363 256.83085334 C143.0435446 256.71702185 124.18291989 256.61091864 105.32226562 256.50793457 C105.32226562 240.66793457 105.32226562 224.82793457 105.32226562 208.50793457 C109.90061279 208.48811523 114.47895996 208.4682959 119.19604492 208.44787598 C134.3034873 208.38104335 149.41086059 208.30350291 164.51822186 208.22040749 C173.68001828 208.17027718 182.84180573 208.12383429 192.00366211 208.08605957 C199.98876146 208.05312733 207.97379131 208.01328926 215.95881397 207.96514452 C220.18715129 207.9398918 224.41544258 207.91810687 228.64383507 207.90459061 C232.62387431 207.89175913 236.6037556 207.86969299 240.58370781 207.84055138 C242.04417971 207.8314841 243.50467704 207.82578734 244.96517563 207.82372093 C246.96031482 207.82039257 248.95541845 207.80372857 250.95048523 207.78640747 C252.62492218 207.77811133 252.62492218 207.77811133 254.33318615 207.7696476 C257.40119734 207.50102359 259.58721876 206.90763712 262.32226562 205.50793457 C263.72161576 202.7092343 263.57491967 200.60294665 263.32226562 197.50793457 C261.46883788 194.94843911 260.38470169 194.52874659 257.32226562 193.50793457 C255.26777163 193.40466237 253.21008451 193.36150929 251.1530304 193.34971619 C249.86154083 193.33992737 248.57005127 193.33013855 247.23942566 193.3200531 C245.80520667 193.31414889 244.37098729 193.30833844 242.93676758 193.3026123 C241.42895234 193.2930338 239.9211398 193.28302373 238.41333008 193.27261353 C234.31654812 193.24555543 230.21975463 193.22455076 226.12293267 193.20461154 C221.84277252 193.18275758 217.56264794 193.155366 213.28251648 193.1285553 C205.17592093 193.07862043 197.06930564 193.03368454 188.96267146 192.99053293 C179.73421713 192.94116735 170.50579849 192.8862467 161.27737868 192.83085334 C142.29237413 192.71702111 123.3073359 192.61018476 104.32226562 192.50793457 C104.19212067 191.7492659 104.06197571 190.99059723 103.92788696 190.2089386 C103.75332977 189.21552963 103.57877258 188.22212067 103.39892578 187.1986084 C103.22753082 186.21306473 103.05613586 185.22752106 102.87954712 184.21211243 C101.33381725 176.71154309 96.65350794 170.90664368 90.39648438 166.68762207 C82.50424063 162.19900133 74.40668438 161.41055991 65.41992188 161.19152832 C64.69735703 161.17074722 63.97479218 161.14996613 63.23033142 161.1285553 C60.94856192 161.06378031 58.66668896 161.00451427 56.38476562 160.94543457 C54.82681272 160.9021806 53.26886983 160.85856426 51.7109375 160.8145752 C47.91481742 160.70749996 44.11860624 160.60789424 40.32226562 160.50793457 C39.66226563 155.22793457 39.00226563 149.94793457 38.32226562 144.50793457 C39.44632403 144.50462442 40.57038244 144.50131428 41.72850323 144.49790382 C69.06083638 144.41696239 96.39311311 144.32466306 123.72536755 144.22040749 C136.94295783 144.1702544 150.16054183 144.12381177 163.37817383 144.08605957 C174.89668514 144.05315103 186.41514804 144.01332609 197.93360597 143.96514452 C204.03430465 143.93986826 210.13497118 143.91809025 216.23570824 143.90459061 C221.97546614 143.89178056 227.71511382 143.86973742 233.4548111 143.84055138 C235.5635363 143.83146736 237.67227926 143.82578345 239.78102303 143.82372093 C242.65644317 143.82040426 245.53154971 143.80494272 248.40690613 143.78640747 C249.2444596 143.78834221 250.08201307 143.79027694 250.94494694 143.7922703 C255.14136223 143.75173259 258.55380462 143.5893942 262.32226562 141.50793457 C263.72161576 138.7092343 263.57491967 136.60294665 263.32226562 133.50793457 C261.46883788 130.94843911 260.38470169 130.52874659 257.32226562 129.50793457 C254.31588795 129.4307109 251.33407675 129.41279944 248.32833862 129.44151306 C247.39699195 129.44630316 246.46564528 129.45109326 245.50607598 129.45602852 C242.37168065 129.47317285 239.23737728 129.4973852 236.10302734 129.5213623 C233.86106171 129.53473538 231.61909272 129.54755482 229.37712097 129.55986023 C224.54149814 129.58678816 219.70589716 129.61608929 214.87029648 129.64672661 C207.22249531 129.6935821 199.5746797 129.72544703 191.92678833 129.75331116 C190.63675836 129.75805039 189.3467284 129.76278963 188.01760662 129.76767248 C184.71303574 129.77969931 181.40846446 129.79160409 178.10389295 129.80345567 C171.98625074 129.82542982 165.86861121 129.84795143 159.75097656 129.87194824 C158.72978634 129.87594422 158.72978634 129.87594422 157.687966 129.88002092 C146.66541548 129.92393772 135.64315288 129.99323213 124.62079583 130.07102143 C113.29908352 130.15024773 101.97759323 130.19826374 90.65559781 130.21997219 C84.30071045 130.23325797 77.94661902 130.26101062 71.59200668 130.32320976 C65.61151002 130.38146936 59.63204935 130.40225448 53.65128517 130.39450264 C51.45869038 130.39829524 49.26606908 130.41578269 47.07370949 130.44812012 C28.43282839 130.71036894 28.43282839 130.71036894 22.77175903 125.6318512 C21.9067789 124.58021081 21.9067789 124.58021081 21.02432442 123.50732517 C16.37802908 118.0493708 7.18009189 115.02431717 0.25439453 114.09729004 C-0.80344238 114.02397461 -1.8612793 113.95065918 -2.95117188 113.87512207 C-4.68173828 113.74943848 -4.68173828 113.74943848 -6.44726562 113.62121582 C-7.63707031 113.54258301 -8.826875 113.4639502 -10.05273438 113.38293457 C-11.87224609 113.25338379 -11.87224609 113.25338379 -13.72851562 113.12121582 C-16.71117447 112.9098463 -19.69414476 112.70565381 -22.67773438 112.50793457 C-22.77042262 99.31247095 -22.84149372 86.11708481 -22.88498306 72.92136192 C-22.90585599 66.79401525 -22.9341689 60.66689133 -22.97949219 54.53967285 C-23.02295947 48.62634721 -23.0468737 42.71323581 -23.05724335 36.79976273 C-23.06463305 34.54390719 -23.07906336 32.28806335 -23.1006546 30.03229904 C-23.12969954 26.87206449 -23.13368981 23.71271476 -23.13183594 20.55236816 C-23.14621704 19.62016449 -23.16059814 18.68796082 -23.17541504 17.72750854 C-23.14010433 12.16316196 -22.53662053 8.82003685 -18.67773438 4.50793457 C-13.03428766 -0.60297254 -7.34305389 -0.05424079 0 0 Z M61.38476562 54.25793457 C57.75491717 59.97769577 56.95346381 65.70634409 57.00976562 72.38293457 C57.01540527 73.08329834 57.02104492 73.78366211 57.02685547 74.50524902 C57.17010207 80.62868647 57.63478225 86.2178034 61.61132812 91.08605957 C68.77044657 97.74748529 78.08906864 96.79984638 87.19287109 96.78259277 C88.59800486 96.78694499 90.00313625 96.79212983 91.40826416 96.79808044 C95.21001252 96.81142756 99.0116612 96.81205387 102.8134284 96.80951715 C105.99415954 96.80844443 109.17487076 96.81333852 112.35559762 96.81812257 C119.86354519 96.82920311 127.37144274 96.82966347 134.87939453 96.8236084 C142.60871519 96.81757035 150.33785373 96.82987859 158.06714332 96.85117847 C164.71791262 96.8688281 171.36862413 96.8747905 178.01941597 96.87154073 C181.98514075 96.86973294 185.95073562 96.87231332 189.91643906 96.88625526 C193.64790236 96.89888376 197.37908304 96.89684247 201.1105423 96.88384438 C203.12097418 96.88037316 205.13141489 96.8916197 207.14181519 96.90341187 C218.17333943 96.90655121 218.17333943 96.90655121 227.89964104 92.23302174 C232.97791556 86.72551335 233.69540944 79.82442443 233.63476562 72.63293457 C233.62630615 71.58238892 233.62630615 71.58238892 233.61767578 70.51062012 C233.47442918 64.38718267 233.009749 58.79806574 229.03320312 53.92980957 C221.87408468 47.26838385 212.55546261 48.21602276 203.45166016 48.23327637 C202.04652639 48.22892416 200.641395 48.22373931 199.23626709 48.2177887 C195.43451873 48.20444158 191.63287005 48.20381527 187.83110285 48.206352 C184.65037171 48.20742471 181.46966049 48.20253062 178.28893363 48.19774657 C170.78098606 48.18666603 163.27308851 48.18620567 155.76513672 48.19226074 C148.03581606 48.19829879 140.30667752 48.18599055 132.57738793 48.16469067 C125.92661863 48.14704104 119.27590712 48.14107864 112.62511528 48.14432842 C108.6593905 48.1461362 104.69379563 48.14355582 100.72809219 48.12961388 C96.99662889 48.11698539 93.26544821 48.11902667 89.53398895 48.13202477 C87.52355707 48.13549598 85.51311636 48.12424944 83.50271606 48.11245728 C71.3671355 48.12188784 71.3671355 48.12188784 61.38476562 54.25793457 Z M27.32226562 387.50793457 C25.90184742 390.34877098 26.0077429 392.36270735 26.32226562 395.50793457 C28.55432993 398.35574076 29.87219561 399.35791123 33.32226562 400.50793457 C36.2714481 400.60859342 39.19712937 400.65135248 42.14656067 400.64837646 C43.51612908 400.65283315 43.51612908 400.65283315 44.91336554 400.65737987 C47.98562853 400.66608043 51.05785261 400.66757626 54.13012695 400.66906738 C56.32770369 400.67369458 58.52527962 400.6787191 60.72285461 400.68411255 C66.70222768 400.69724765 72.6815895 400.70368362 78.66097474 400.70812321 C82.39466329 400.71105201 86.12834875 400.71515644 89.86203575 400.71962738 C101.53814946 400.73330495 113.21425671 400.7429864 124.89037782 400.74682927 C126.23429159 400.74727274 127.57820537 400.7477193 128.92211914 400.74816895 C129.58874648 400.74839038 130.25537382 400.7486118 130.94220199 400.74883994 C141.74355476 400.75278782 152.54484006 400.77024165 163.34616677 400.79352847 C174.43623297 400.81724475 185.5262711 400.82944648 196.6163637 400.83087039 C202.84284681 400.83191969 209.06923477 400.83785413 215.29569435 400.85569 C221.15203907 400.87213903 227.00821679 400.87434155 232.86457634 400.86555099 C235.01482718 400.86477894 237.16508689 400.86914548 239.31531525 400.87900925 C242.2494168 400.89168021 245.18292253 400.88587819 248.11701965 400.87542725 C248.96906866 400.88348365 249.82111767 400.89154006 250.69898635 400.89984059 C255.63487508 400.85868714 259.0498104 400.25989881 263.32226562 397.50793457 C264.74268383 394.66709816 264.63678835 392.65316179 264.32226562 389.50793457 C262.09020132 386.66012838 260.77233564 385.65795791 257.32226562 384.50793457 C254.37308315 384.40727573 251.44740188 384.36451666 248.49797058 384.36749268 C247.12840217 384.36303599 247.12840217 384.36303599 245.73116571 384.35848927 C242.65890272 384.34978871 239.58667864 384.34829288 236.5144043 384.34680176 C234.31682756 384.34217456 232.11925163 384.33715004 229.92167664 384.33175659 C223.94230357 384.3186215 217.96294175 384.31218552 211.98355651 384.30774593 C208.24986796 384.30481713 204.5161825 384.3007127 200.7824955 384.29624176 C189.10638179 384.2825642 177.43027454 384.27288274 165.75415343 384.26903987 C164.41023966 384.2685964 163.06632588 384.26814984 161.72241211 384.2677002 C161.05578477 384.26747877 160.38915743 384.26725734 159.70232926 384.2670292 C148.90097649 384.26308132 138.09969119 384.24562749 127.29836448 384.22234067 C116.20829828 384.19862439 105.11826015 384.18642266 94.02816755 384.18499875 C87.80168444 384.18394945 81.57529648 384.17801501 75.3488369 384.16017914 C69.49249218 384.14373011 63.63631446 384.14152759 57.77995491 384.15031815 C55.62970407 384.15109021 53.47944436 384.14672366 51.329216 384.13685989 C48.39511445 384.12418893 45.46160872 384.12999095 42.5275116 384.14044189 C41.67546259 384.13238549 40.82341358 384.12432909 39.9455449 384.11602855 C35.00965617 384.157182 31.59472085 384.75597033 27.32226562 387.50793457 Z " fill="#fff" transform="translate(166.677734375,31.4920654296875)"/>
<path d="M0 0 C3.74132714 0.63893844 7.03694559 1.69591871 10.55297852 3.1171875 C11.64083145 3.55434082 12.72868439 3.99149414 13.84950256 4.44189453 C15.01420578 4.91481934 16.178909 5.38774414 17.37890625 5.875 C19.21866388 6.61523875 21.05842259 7.35547482 22.89824581 8.09555054 C25.46858105 9.13066927 28.03734034 10.16966732 30.6060791 11.20874023 C35.10514651 13.02835432 39.60552876 14.84469515 44.10765076 16.65673828 C46.50267218 17.62115733 48.89663954 18.58819894 51.28944397 19.55810547 C52.37414474 19.99525879 53.45884552 20.43241211 54.57641602 20.8828125 C55.52952164 21.26840332 56.48262726 21.65399414 57.46461487 22.05126953 C61.04246266 23.39008515 64.19524362 24.12219912 68.0178833 24.16062927 C68.80801819 24.1706749 69.59815308 24.18072052 70.41223145 24.19107056 C71.27038452 24.19690155 72.1285376 24.20273254 73.01269531 24.20874023 C74.37953461 24.22341591 74.37953461 24.22341591 75.77398682 24.23838806 C78.79201819 24.26831224 81.81000492 24.2897299 84.828125 24.30859375 C85.86361229 24.31516558 86.89909958 24.3217374 87.96596527 24.32850838 C93.45678847 24.36110305 98.94759238 24.38554309 104.43847656 24.4050293 C108.95830024 24.42276966 113.47749148 24.45747289 117.99707031 24.50756836 C123.47421608 24.56819547 128.95078025 24.59856435 134.42824554 24.60820198 C136.50282306 24.61669277 138.57738776 24.63535028 140.65177155 24.6649456 C153.83531812 24.84276991 164.00579665 23.50274166 176 18 C177.96241151 17.21177834 179.92865902 16.43299887 181.8996582 15.66650391 C183.70070578 14.93818605 185.50107943 14.20819947 187.30078125 13.4765625 C189.28573157 12.67559357 191.27075968 11.87481739 193.25585938 11.07421875 C196.31364039 9.8386165 199.37072541 8.6013629 202.42651367 7.36083984 C205.42444106 6.14483112 208.42488532 4.93522313 211.42578125 3.7265625 C212.34442459 3.3516568 213.26306793 2.9767511 214.20954895 2.59048462 C215.05861313 2.24947723 215.90767731 1.90846985 216.7824707 1.55712891 C217.89921928 1.10462265 217.89921928 1.10462265 219.03852844 0.64297485 C221 0 221 0 224 0 C224.09270652 12.28277243 224.16376857 24.56546152 224.20724869 36.84851265 C224.22811767 42.552129 224.25642323 48.25550586 224.30175781 53.95898438 C224.34523939 59.46382881 224.36914229 64.96844297 224.37950897 70.47344589 C224.38689613 72.57300313 224.40132153 74.67254785 224.42292023 76.77200699 C224.45198449 79.71432924 224.45595468 82.65570168 224.45410156 85.59814453 C224.46848267 86.46489304 224.48286377 87.33164154 224.49768066 88.22465515 C224.46089688 93.62712124 223.70552327 96.79585461 220 101 C215.26888394 104.85461442 211.50907288 105.57651415 205.57421875 105.50793457 C204.323312 105.51729451 204.323312 105.51729451 203.0471344 105.52684355 C200.26029969 105.54276393 197.47434079 105.53017317 194.6875 105.51757812 C192.68651826 105.52299967 190.68554051 105.53012251 188.68457031 105.53881836 C183.25484425 105.55705072 177.82542228 105.54998443 172.39569092 105.53730202 C166.71300437 105.52717397 161.03034382 105.53656716 155.34765625 105.54284668 C145.80463996 105.55012363 136.26174749 105.54053405 126.71875 105.52148438 C115.68622412 105.49971561 104.65399393 105.50676694 93.62147522 105.52879 C84.14870167 105.54694256 74.67601713 105.549503 65.20323181 105.53903532 C59.54575758 105.53279963 53.88842233 105.53196693 48.23095703 105.54518127 C42.91209066 105.55673697 37.59360547 105.5487189 32.27478027 105.52560425 C30.32288242 105.5203157 28.37095247 105.52183342 26.41906738 105.53065491 C23.75420578 105.54158817 21.09056509 105.52787389 18.42578125 105.50793457 C17.65359756 105.51685746 16.88141388 105.52578034 16.08583069 105.53497362 C10.90838874 105.45984643 7.99475777 104.25467621 4 101 C-0.40674528 96.00027485 -0.55941971 91.94566506 -0.45410156 85.59814453 C-0.45468567 84.67067917 -0.45526978 83.74321381 -0.45587158 82.78764343 C-0.45309476 79.7356465 -0.4220214 76.68463788 -0.390625 73.6328125 C-0.38316119 71.51146986 -0.37746892 69.39012032 -0.37347412 67.26876831 C-0.3582289 61.69552449 -0.31895629 56.12270011 -0.2746582 50.54962158 C-0.23368174 44.8586596 -0.21545801 39.1676296 -0.1953125 33.4765625 C-0.15246127 22.31752443 -0.0842231 11.15879714 0 0 Z " fill="#fff" transform="translate(32,247)"/>
<path d="M0 0 C0.92841705 -0.01283524 1.85683411 -0.02567047 2.81338501 -0.03889465 C3.81131073 -0.04628159 4.80923645 -0.05366852 5.83740234 -0.0612793 C6.87343597 -0.06935104 7.9094696 -0.07742279 8.97689819 -0.08573914 C11.17077978 -0.09956365 13.36468273 -0.1102931 15.55859375 -0.11816406 C17.79108019 -0.12966504 20.02353955 -0.15008678 22.25585938 -0.1796875 C25.49156271 -0.22258417 28.72644911 -0.23856577 31.96240234 -0.2487793 C32.94818268 -0.26628738 33.93396301 -0.28379547 34.94961548 -0.30183411 C44.60489764 -0.27201643 52.45114145 2.51814556 59.54052734 9.17700195 C64.96403011 15.34774287 67.43929194 21.67800736 67.39599609 29.81762695 C67.39277344 30.88754883 67.38955078 31.9574707 67.38623047 33.05981445 C67.37785156 34.17098633 67.36947266 35.2821582 67.36083984 36.42700195 C67.35632813 37.55364258 67.35181641 38.6802832 67.34716797 39.84106445 C67.33539382 42.61976413 67.31894824 45.39835605 67.29833984 48.17700195 C67.96153229 48.16811951 68.62472473 48.15923706 69.30801392 48.15008545 C76.21860118 48.0615024 83.1290268 48.0012218 90.04003906 47.95727539 C92.61823072 47.93717632 95.19637689 47.90989254 97.77441406 47.87524414 C101.48302445 47.82665348 105.1910314 47.80401538 108.89990234 47.78637695 C110.05011871 47.76573181 111.20033508 47.74508667 112.38540649 47.72381592 C118.68883301 47.72205366 122.53004896 47.90211784 127.29833984 52.17700195 C130.21495142 55.17036646 131.24882449 57.18113392 131.45703125 61.36865234 C131.43817871 62.53388428 131.41932617 63.69911621 131.39990234 64.8996582 C131.38523926 66.07407471 131.37057617 67.24849121 131.35546875 68.45849609 C131.33661621 69.35560303 131.31776367 70.25270996 131.29833984 71.17700195 C80.28715291 99.12562894 16.66187618 109.39366154 -40.24951172 93.61352539 C-58.54270719 88.23584588 -76.00319636 80.32595856 -92.70166016 71.17700195 C-92.74562862 69.08474213 -92.77709618 66.99221688 -92.80322266 64.8996582 C-92.8220752 63.73442627 -92.84092773 62.56919434 -92.86035156 61.36865234 C-92.6521448 57.18113392 -91.61827173 55.17036646 -88.70166016 52.17700195 C-83.07526834 47.13281032 -77.60256168 47.6553617 -70.30322266 47.78637695 C-69.11312592 47.79203674 -67.92302917 47.79769653 -66.6968689 47.80352783 C-62.90638529 47.82586744 -59.11685671 47.87606233 -55.32666016 47.92700195 C-52.75245508 47.94706994 -50.17823516 47.96532018 -47.60400391 47.98168945 C-41.30289837 48.02572451 -35.00234751 48.0926139 -28.70166016 48.17700195 C-28.72260742 47.50233887 -28.74355469 46.82767578 -28.76513672 46.13256836 C-28.84920602 43.02253629 -28.9006046 39.91274436 -28.95166016 36.80200195 C-28.98517578 35.74110352 -29.01869141 34.68020508 -29.05322266 33.5871582 C-29.16970614 24.09375405 -27.14135395 15.87929986 -20.54541016 8.77856445 C-14.44209409 3.47695516 -8.10796582 0.09809439 0 0 Z M3.29833984 32.17700195 C3.29833984 37.45700195 3.29833984 42.73700195 3.29833984 48.17700195 C13.85833984 48.17700195 24.41833984 48.17700195 35.29833984 48.17700195 C35.29833984 42.89700195 35.29833984 37.61700195 35.29833984 32.17700195 C24.73833984 32.17700195 14.17833984 32.17700195 3.29833984 32.17700195 Z " fill="#fff" transform="translate(124.70166015625,159.822998046875)"/>
</svg>
