<svg id="Layer_1" data-name="Layer 1" xmlns="http://www.w3.org/2000/svg" viewBox="0 0 106.98 106.39"><defs><style>.cls-1{fill:#eee;}.cls-2{fill:#e0e0e0;}.cls-3{fill:#ffb74d;}.cls-4{fill:#ffa726;}.cls-5{fill:#64b5f6;}</style></defs><polygon class="cls-1" points="3.99 23.17 90.1 23.17 97.67 29.84 94.17 63.85 79.51 59.91 66.02 66.59 60.6 79.28 60.41 90.55 3.99 90.55 3.5 82.98 0.94 46.22 3.99 23.17"/><path class="cls-2" d="M575.14,512.22s3.32,1.58,3.32,6.85v30.41h5V517.11S583.36,508.28,575.14,512.22Z" transform="translate(-486.99 -487.1)"/><circle class="cls-3" cx="86.9" cy="9.81" r="7.28"/><path class="cls-4" d="M573.89,489.63s7.34,6.54,2.46,13.59C576.35,503.22,592,493.24,573.89,489.63Z" transform="translate(-486.99 -487.1)"/><circle class="cls-3" cx="76.08" cy="33.88" r="5.01"/><path class="cls-4" d="M563.07,516s5,4.5,1.7,9.36C564.77,525.33,575.55,518.46,563.07,516Z" transform="translate(-486.99 -487.1)"/><circle class="cls-3" cx="50.64" cy="25.11" r="5.01"/><path class="cls-4" d="M537.63,507.2s5,4.5,1.69,9.36C539.32,516.56,550.11,509.68,537.63,507.2Z" transform="translate(-486.99 -487.1)"/><circle class="cls-5" cx="82.73" cy="82.56" r="22.65"/><path d="M584.66,551h-3.5v-34a4.07,4.07,0,0,0-4.06-4.07h-1.44v-3.5h1.44a7.58,7.58,0,0,1,7.56,7.57Z" transform="translate(-486.99 -487.1)"/><path d="M547.4,577.65H494.56a7.58,7.58,0,0,1-7.57-7.56V516.94a7.58,7.58,0,0,1,7.57-7.57h29.57v3.5H494.56a4.08,4.08,0,0,0-4.07,4.07v53.15a4.07,4.07,0,0,0,4.07,4.06H547.4Z" transform="translate(-486.99 -487.1)"/><path d="M569.86,593.49A24.11,24.11,0,1,1,594,569.38,24.14,24.14,0,0,1,569.86,593.49Zm0-44.72a20.61,20.61,0,1,0,20.61,20.61A20.63,20.63,0,0,0,569.86,548.77Z" transform="translate(-486.99 -487.1)"/><path d="M570.1,583.94a14.56,14.56,0,1,1,14.56-14.56A14.57,14.57,0,0,1,570.1,583.94Zm0-25.62a11.06,11.06,0,1,0,11.06,11.06A11.07,11.07,0,0,0,570.1,558.32Z" transform="translate(-486.99 -487.1)"/><path d="M569.86,575.87a6.49,6.49,0,1,1,6.49-6.49A6.5,6.5,0,0,1,569.86,575.87Zm0-9.48a3,3,0,1,0,3,3A3,3,0,0,0,569.86,566.39Z" transform="translate(-486.99 -487.1)"/><rect x="81.12" y="59.92" width="3.5" height="9.55"/><rect x="552.82" y="580.18" width="9.73" height="3.5" transform="translate(-735.14 77.68) rotate(-45)"/><rect x="580.06" y="577.07" width="3.5" height="9.73" transform="translate(-728.07 94.77) rotate(-45)"/><rect x="9.55" y="69.3" width="53.99" height="3.5"/><rect x="14.52" y="62.13" width="3.5" height="8.91"/><rect x="25.55" y="58.33" width="3.5" height="13.68"/><rect x="35.87" y="50.65" width="3.5" height="20.4"/><rect x="47.09" y="43.1" width="3.5" height="27.95"/><rect x="57.1" y="57.61" width="3.5" height="11.85"/><rect x="68.55" y="50.65" width="3.5" height="12.88"/><rect x="10.39" y="35.35" width="3.72" height="3.5"/><rect x="18.54" y="35.35" width="11.52" height="3.5"/><rect x="10.39" y="44.46" width="3.72" height="3.5"/><rect x="18.54" y="44.46" width="11.52" height="3.5"/><rect x="548.6" y="510.1" width="3.5" height="13.73" transform="translate(-592.26 404.42) rotate(-72.95)"/><rect x="562.82" y="507.51" width="11.27" height="3.5" transform="translate(-633.98 287.92) rotate(-62.23)"/><path d="M537.41,520a7.79,7.79,0,1,1,7.79-7.78A7.8,7.8,0,0,1,537.41,520Zm0-12.07a4.29,4.29,0,1,0,4.29,4.29A4.3,4.3,0,0,0,537.41,507.93Z" transform="translate(-486.99 -487.1)"/><path d="M563.2,528.77A7.79,7.79,0,1,1,571,521,7.8,7.8,0,0,1,563.2,528.77Zm0-12.07a4.29,4.29,0,1,0,4.29,4.29A4.3,4.3,0,0,0,563.2,516.7Z" transform="translate(-486.99 -487.1)"/><path d="M573.89,506.72a9.81,9.81,0,1,1,9.81-9.81A9.82,9.82,0,0,1,573.89,506.72Zm0-16.12a6.31,6.31,0,1,0,6.31,6.31A6.32,6.32,0,0,0,573.89,490.6Z" transform="translate(-486.99 -487.1)"/></svg>